<svg xmlns="http://www.w3.org/2000/svg" viewBox="37.37759999999989 146.33759999999975 520.4448000000067 520.4448000000068">
  <path fill="currentColor" fill-rule="evenodd" d="M286.8 151.44v.24H282v.24h-3.6v.24h-2.88v.24h-2.64v.24h-2.4v.24h-2.16v.24h-2.16v.24h-1.92v.24h-1.68v.24h-1.68v.24h-1.68v.24h-1.68v.24h-1.44v.24h-1.44v.24h-1.44v.24h-1.44v.24h-1.2v.24h-1.2v.24h-1.2v.24h-1.2v.24h-1.2v.24h-1.2v.24h-1.2v.24h-.96v.24h-1.2v.24h-.96v.24h-1.2v.24h-.96v.24h-.96v.24h-.96v.24h-.96v.24h-.96v.24h-.96v.24h-.96v.24h-.72v.24h-.96v.24h-.96v.24h-.72v.24H228v.24h-.96v.24h-.72v.24h-.72v.24h-.96v.24h-.72v.24h-.72v.24h-.96v.24h-.72v.24h-.72v.24h-.72v.24h-.72v.24h-.72v.24h-.72v.24h-.96v.24h-.72v.24h-.72v.24h-.72v.24h-.48v.24h-.72v.24h-.72v.24h-.72v.24h-.72v.24h-.72v.24h-.48v.24h-.72v.24h-.72v.24h-.48v.24h-.72v.24h-.72v.24h-.48v.24h-.72v.24h-.72v.24h-.48v.24h-.72v.24h-.48v.24h-.72v.24h-.48v.24h-.72v.24h-.48v.24h-.48v.24h-.72v.24h-.48v.24h-.72v.24H198v.24h-.48v.24h-.72v.24h-.48v.24h-.48v.24h-.72v.24h-.48v.24h-.48v.24h-.48v.24h-.72v.24h-.48v.24H192v.24h-.48v.24h-.48v.24h-.72v.24h-.48v.24h-.48v.24h-.48v.24h-.48v.24h-.48v.24h-.48v.24h-.72v.24h-.48v.24h-.48v.24h-.48v.24h-.48v.24h-.48v.24h-.48v.24h-.48v.24h-.48v.24h-.48v.24h-.48v.24h-.48v.24h-.48v.24h-.48v.24h-.24v.24h-.48v.24h-.48v.24h-.48v.24h-.48v.24h-.48v.24h-.48v.24h-.48v.24h-.48v.24h-.48v.24h-.24v.24h-.48v.24h-.48v.24h-.48v.24H174v.24h-.48v.24h-.48v.24h-.48v.24h-.48v.24h-.24v.24h-.48v.24h-.48v.24h-.48v.24h-.24v.24h-.48v.24h-.48v.24h-.48v.24h-.24v.24H168v.24h-.48v.24h-.24v.24h-.48v.24h-.48v.24h-.24v.24h-.48v.24h-.48v.24h-.24v.24h-.48v.24h-.48v.24h-.24v.24h-.48v.24h-.24v.24h-.48v.24H162v.24h-.24v.24h-.48v.24h-.24v.24h-.48v.24h-.48v.24h-.24v.24h-.48v.24h-.24v.24h-.48v.24h-.24v.24h-.48v.24h-.24v.24h-.48v.24h-.24v.24h-.48v.24h-.24v.24h-.48v.24h-.24v.24h-.48v.24h-.24v.24h-.48v.24h-.24v.24h-.48v.24h-.24v.24h-.48v.24h-.24v.24h-.24v.24h-.48v.24h-.24v.24h-.48v.24h-.24v.24h-.48v.24h-.24v.24h-.48v.24h-.24v.24h-.24v.24h-.48v.24h-.24v.24h-.24v.24h-.48v.24h-.24v.24h-.48v.24h-.24v.24h-.24v.24h-.48v.24h-.24v.24h-.24v.24h-.48v.24h-.24v.24h-.24v.24h-.48v.24H144v.24h-.24v.24h-.48v.24h-.24v.24h-.24v.24h-.48v.24h-.24v.24h-.24v.24h-.48v.24h-.24v.24h-.24v.24h-.24v.24h-.48v.24h-.24v.24h-.24v.24h-.48v.24h-.24v.24h-.24v.24h-.24v.24h-.24v.24h-.48v.24h-.24v.24h-.24v.24h-.24v.24h-.48v.24h-.24v.24h-.24v.24h-.24v.24h-.48v.24h-.24v.24h-.24v.24h-.24v.24h-.24v.24h-.48v.24h-.24v.24h-.24v.24h-.24v.24h-.24v.24h-.48v.24h-.24v.24H132v.24h-.24v.24h-.24v.24h-.24v.24h-.48v.24h-.24v.24h-.24v.24h-.24v.24h-.24v.24h-.24v.24h-.24v.24h-.48v.24h-.24v.24h-.24v.24h-.24v.24h-.24v.24h-.24v.24h-.24v.24h-.24v.24h-.48v.24h-.24v.24h-.24v.24H126v.24h-.24v.24h-.24v.24h-.24v.24h-.24v.24h-.24v.24h-.24v.24h-.48v.24h-.24v.24h-.24v.24h-.24v.24h-.24v.24h-.24v.24h-.24v.24h-.24v.24h-.24v.24h-.24v.24h-.24v.24h-.24v.24h-.24v.24h-.24v.24h-.24v.24h-.24v.24h-.24v.24H120v.24h-.24v.24h-.24v.24h-.48v.24h-.24v.24h-.24v.24h-.24v.24h-.24v.24h-.24v.24h-.24v.24h-.24v.24h-.24v.24h-.24v.24h-.24v.24h-.24v.24h-.24v.24h-.24v.24h-.24v.24h-.24v.24h-.24v.24h-.24v.48h-.24v.24h-.24v.24h-.24v.24H114v.24h-.24v.24h-.24v.24h-.24v.24h-.24v.24h-.24v.24h-.24v.24h-.24v.24h-.24v.24h-.24v.24h-.24v.24h-.24v.24h-.24v.24h-.24v.24h-.24v.24h-.24v.24h-.24v.48h-.24v.24h-.24v.24h-.24v.24h-.24v.24h-.24v.24h-.24v.24h-.24v.24h-.24v.24H108v.24h-.24v.48h-.24v.24h-.24v.24h-.24v.24h-.24v.24h-.24v.24h-.24v.24h-.24v.24h-.24v.48h-.24v.24h-.24v.24h-.24v.24h-.24v.24h-.24v.24h-.24v.24h-.24v.48h-.24v.24h-.24v.24h-.24v.24h-.24v.24h-.24v.24h-.24v.48h-.24v.24h-.24v.24H102v.24h-.24v.24h-.24v.48h-.24v.24h-.24v.24h-.24v.24h-.24v.24h-.24v.48h-.24v.24h-.24v.24h-.24v.24h-.24v.48h-.24v.24h-.24v.24h-.24v.24h-.24v.48h-.24v.24h-.24v.24h-.24v.24h-.24v.24h-.24v.48h-.24v.24h-.24v.24h-.24v.48h-.24v.24H96v.24h-.24v.24h-.24v.48h-.24v.24h-.24v.24h-.24v.48h-.24v.24h-.24v.24h-.24v.48h-.24v.24h-.24v.24h-.24v.48h-.24v.24h-.24v.24h-.24v.48h-.24v.24h-.24v.24h-.24v.48h-.24v.24h-.24v.24h-.24v.48h-.24v.24h-.24v.48h-.24v.24h-.24v.24H90v.48h-.24v.24h-.24v.24h-.24v.48h-.24v.24h-.24v.48h-.24v.24h-.24v.48h-.24v.24h-.24v.48h-.24v.24h-.24v.24h-.24v.48h-.24v.24h-.24v.48h-.24v.24h-.24v.48h-.24v.24h-.24v.48h-.24v.24h-.24v.48h-.24v.24h-.24v.48h-.24v.24h-.24v.48H84v.24h-.24v.48h-.24v.24h-.24v.48h-.24v.24h-.24v.48h-.24v.24h-.24v.48h-.24v.48h-.24v.24h-.24v.48h-.24v.24h-.24v.48h-.24v.48h-.24v.24h-.24v.48h-.24v.24h-.24v.48h-.24v.48h-.24v.24h-.24v.48h-.24v.48h-.24v.24h-.24v.48h-.24v.48H78v.24h-.24v.48h-.24v.48h-.24v.24h-.24v.48h-.24v.48h-.24v.48h-.24v.24h-.24v.48h-.24v.48h-.24v.48h-.24v.24h-.24v.48h-.24v.48h-.24v.48h-.24v.48h-.24v.24h-.24v.48h-.24v.48h-.24v.48h-.24v.24h-.24v.48h-.24v.48h-.24v.48h-.24v.48H72v.48h-.24v.48h-.24v.48h-.24v.48h-.24v.48h-.24v.24h-.24v.48h-.24v.48h-.24v.48h-.24v.48h-.24v.48h-.24v.48h-.24v.48h-.24v.48h-.24v.48h-.24v.48h-.24v.48h-.24v.48h-.24v.48h-.24v.72h-.24v.48h-.24v.48h-.24v.48h-.24v.48h-.24v.48H66v.48h-.24v.72h-.24v.48h-.24v.48h-.24v.48h-.24v.48h-.24v.72h-.24v.48h-.24v.48h-.24v.48h-.24v.72h-.24v.48h-.24v.48h-.24v.72h-.24v.48h-.24v.48h-.24v.72h-.24v.48h-.24v.72h-.24v.48h-.24v.48h-.24v.72h-.24v.48h-.24v.72h-.24v.48H60v.72h-.24v.48h-.24v.72h-.24v.72h-.24v.48h-.24v.72h-.24v.72h-.24v.48h-.24v.72h-.24v.72h-.24v.48h-.24v.72h-.24v.72h-.24v.72h-.24v.72h-.24v.72h-.24v.48h-.24v.72h-.24v.72h-.24v.72h-.24v.96h-.24v.72h-.24v.72h-.24v.72h-.24v.72H54v.72h-.24v.72h-.24v.96h-.24v.72h-.24v.72h-.24v.96h-.24v.72h-.24v.72h-.24v.96h-.24v.96h-.24v.72h-.24v.96h-.24v.96h-.24v.72h-.24v.96h-.24v.96h-.24v.96h-.24v.96h-.24v.96h-.24v.96h-.24v.96h-.24v1.2h-.24v.96h-.24v1.2h-.24v.96H48v1.2h-.24v1.2h-.24v1.2h-.24v1.2h-.24v1.2h-.24v1.2h-.24v1.2h-.24v1.44h-.24v1.44h-.24v1.44h-.24v1.44h-.24v1.68h-.24v1.68h-.24v1.68h-.24v1.68h-.24v1.92h-.24v2.16h-.24v2.16h-.24v2.4h-.24v2.64h-.24v2.88h-.24v3.6h-.24v4.8h-.24v21.6h.24v4.8h.24v3.6h.24v2.88h.24v2.64h.24v2.4h.24v2.16h.24V438h.24v1.92h.24v1.68h.24v1.68h.24v1.68h.24v1.68h.24v1.44h.24v1.44h.24v1.44h.24v1.44h.24v1.2h.24v1.2h.24v1.2h.24v1.2h.24v1.2h.24v1.2H48v1.2h.24v.96h.24v1.2h.24v.96h.24v1.2h.24v.96h.24v.96h.24v.96h.24v.96h.24v.96h.24v.96h.24v.96h.24v.72h.24v.96h.24v.96h.24v.72h.24v.96h.24v.96h.24v.72h.24v.72h.24v.96h.24v.72h.24v.72h.24v.96h.24v.72H54v.72h.24v.72h.24v.72h.24v.72h.24v.72h.24v.96h.24v.72h.24v.72h.24v.72h.24v.48h.24v.72h.24v.72h.24v.72h.24v.72h.24v.72h.24v.48h.24v.72h.24v.72h.24v.48h.24v.72h.24v.72h.24v.48h.24v.72h.24v.72h.24v.48H60v.72h.24v.48h.24v.72h.24v.48h.24v.72h.24v.48h.24v.48h.24v.72h.24v.48h.24v.72h.24v.48h.24v.48h.24v.72h.24v.48h.24v.48h.24v.72h.24v.48h.24v.48h.24v.48h.24v.72h.24v.48h.24v.48h.24v.48h.24v.48h.24v.72H66v.48h.24v.48h.24v.48h.24v.48h.24v.48h.24v.48h.24v.72h.24v.48h.24v.48h.24v.48h.24v.48h.24v.48h.24v.48h.24v.48h.24v.48h.24v.48h.24v.48h.24v.48h.24v.48h.24v.48h.24v.24h.24v.48h.24v.48h.24v.48h.24v.48H72v.48h.24v.48h.24v.48h.24v.48h.24v.48h.24v.24h.24v.48h.24v.48h.24v.48h.24v.24h.24v.48h.24v.48h.24v.48h.24v.48h.24v.24h.24v.48h.24v.48h.24v.48h.24v.24h.24v.48h.24v.48h.24v.48h.24v.24h.24v.48h.24v.48H78v.24h.24v.48h.24v.48h.24v.24h.24v.48h.24v.48h.24v.24h.24v.48h.24v.48h.24v.24h.24v.48h.24v.24h.24v.48h.24v.48h.24v.24h.24v.48h.24v.24h.24v.48h.24v.48h.24v.24h.24v.48h.24v.24h.24v.48h.24v.24h.24v.48H84v.24h.24v.48h.24v.24h.24v.48h.24v.24h.24v.48h.24v.24h.24v.48h.24v.24h.24v.48h.24v.24h.24v.48h.24v.24h.24v.48h.24v.24h.24v.24h.24v.48h.24v.24h.24v.48h.24v.24h.24v.48h.24v.24h.24v.48h.24v.24h.24v.24H90v.48h.24v.24h.24v.24h.24v.48h.24v.24h.24v.48h.24v.24h.24v.24h.24v.48h.24v.24h.24v.24h.24v.48h.24v.24h.24v.24h.24v.48h.24v.24h.24v.24h.24v.48h.24v.24h.24v.24h.24v.48h.24v.24h.24v.24h.24v.48h.24v.24H96v.24h.24v.24h.24v.48h.24v.24h.24v.24h.24v.48h.24v.24h.24v.24h.24v.24h.24v.24h.24v.48h.24v.24h.24v.24h.24v.24h.24v.48h.24v.24h.24v.24h.24v.24h.24v.48h.24v.24h.24v.24h.24v.24h.24v.24h.24v.48h.24v.24h.24v.24h.24v.24h.24v.24h.24v.48h.24v.24h.24v.24h.24v.24h.24v.24h.24v.24h.24v.48h.24v.24h.24v.24h.24v.24h.24v.24h.24v.24h.24v.24h.24v.48h.24v.24h.24v.24h.24v.24h.24v.24h.24v.24h.24v.24h.24v.24h.24v.48h.24v.24h.24v.24h.24v.24h.24v.24h.24v.24h.24v.24h.24v.24h.24v.24h.24v.24h.24v.48h.24v.24h.24v.24h.24v.24h.24v.24h.24v.24h.24v.24h.24v.24h.24v.24h.24v.24h.24v.24h.24v.24h.24v.24h.24v.24h.24v.24h.24v.24h.24v.24h.24v.24h.24v.24h.24v.24h.24v.48h.24v.24h.24v.24h.24v.24h.24v.24h.24v.24h.24v.24h.24v.24h.24v.24h.24v.24h.24v.24h.24v.24h.24v.24h.24v.24h.24v.24h.24v.24h.24v.24h.24v.24h.48v.24h.24v.24h.24v.24h.24v.24h.24v.24h.24v.24h.24v.24h.24v.24h.24v.24h.24v.24h.24v.24h.24v.24h.24v.24h.24v.24h.24v.24h.24v.24h.24v.24h.24v.24h.24v.24h.24v.24h.48v.24h.24v.24h.24v.24h.24v.24h.24v.24h.24v.24h.24v.24h.24v.24h.24v.24h.24v.24h.48v.24h.24v.24h.24v.24h.24v.24h.24v.24h.24v.24h.24v.24h.24v.24h.48v.24h.24v.24h.24v.24h.24v.24h.24v.24h.24v.24h.24v.24h.48v.24h.24v.24h.24v.24h.24v.24h.24v.24h.24v.24h.48v.24h.24v.24h.24v.24h.24v.24h.24v.24h.48v.24h.24v.24h.24v.24h.24v.24h.24v.24h.48v.24h.24v.24h.24v.24h.24v.24h.48v.24h.24v.24h.24v.24h.24v.24h.48v.24h.24v.24h.24v.24h.24v.24h.24v.24h.48v.24h.24v.24h.24v.24h.48v.24h.24v.24h.24v.24h.24v.24h.48v.24h.24v.24h.24v.24h.48v.24h.24v.24h.24v.24h.48v.24h.24v.24h.24v.24h.48v.24h.24v.24h.24v.24h.48v.24h.24v.24h.24v.24h.48v.24h.24v.24h.24v.24h.48v.24h.24v.24h.48v.24h.24v.24h.24v.24h.48v.24h.24v.24h.24v.24h.48v.24h.24v.24h.48v.24h.24v.24h.48v.24h.24v.24h.48v.24h.24v.24h.24v.24h.48v.24h.24v.24h.48v.24h.24v.24h.48v.24h.24v.24h.48v.24h.24v.24h.48v.24h.24v.24h.48v.24h.24v.24h.48v.24h.24v.24h.48v.24h.24v.24h.48v.24h.24v.24h.48v.24h.24v.24h.48v.24h.48v.24h.24v.24h.48v.24h.24v.24h.48v.24h.48v.24h.24v.24h.48v.24h.24v.24h.48v.24h.48v.24h.24v.24h.48v.24h.48v.24h.24v.24h.48v.24h.48v.24h.24v.24h.48v.24h.48v.24h.24v.24h.48v.24h.48v.24h.48v.24h.24v.24h.48v.24h.48v.24h.48v.24h.24v.24h.48v.24h.48v.24h.48v.24h.48v.24h.24v.24h.48v.24h.48v.24h.48v.24h.24v.24h.48v.24h.48v.24h.48v.24h.48v.24h.48v.24h.48v.24h.48v.24h.48v.24h.48v.24h.24v.24h.48v.24h.48v.24h.48v.24h.48v.24h.48v.24h.48v.24h.48v.24h.48v.24h.48v.24h.48v.24h.48v.24h.48v.24h.48v.24h.72v.24h.48v.24h.48v.24h.48v.24h.48v.24h.48v.24h.48v.24h.72v.24h.48v.24h.48v.24h.48v.24h.48v.24h.72v.24h.48v.24h.48v.24h.48v.24h.72v.24h.48v.24h.48v.24h.72v.24h.48v.24h.48v.24h.72v.24h.48v.24h.72v.24h.48v.24h.48v.24h.72v.24h.48v.24h.72v.24h.48v.24h.72v.24h.48v.24h.72v.24h.72v.24h.48v.24h.72v.24h.72v.24h.48v.24h.72v.24h.72v.24h.48v.24h.72v.24h.72v.24h.72v.24h.72v.24h.72v.24h.48v.24h.72v.24h.72v.24h.72v.24h.96v.24h.72v.24h.72v.24h.72v.24h.72v.24h.72v.24h.72v.24h.96v.24h.72v.24h.72v.24h.96v.24h.72v.24h.72v.24h.96v.24h.96v.24h.72v.24h.96v.24h.96v.24h.72v.24h.96v.24h.96v.24h.96v.24h.96v.24h.96v.24h.96v.24h.96v.24h1.2v.24h.96v.24h1.2v.24h.96v.24h1.2v.24h1.2v.24h1.2v.24h1.2v.24h1.2v.24h1.2v.24h1.2v.24h1.44v.24h1.44v.24h1.44v.24h1.44v.24h1.68v.24h1.68v.24h1.68v.24h1.68v.24h1.92v.24h2.16v.24h2.16v.24h2.4v.24h2.64v.24h2.88v.24h3.6v.24h4.8v.24h21.6v-.24h4.8v-.24h3.6v-.24h2.88v-.24h2.64v-.24h2.4v-.24h2.16V660h2.16v-.24h1.92v-.24h1.68v-.24h1.68v-.24H336v-.24h1.68v-.24h1.44v-.24h1.44v-.24H342v-.24h1.44v-.24h1.2v-.24h1.2v-.24h1.2v-.24h1.2v-.24h1.2v-.24h1.2v-.24h1.2v-.24h.96v-.24h1.2v-.24h.96v-.24h1.2v-.24h.96v-.24h.96v-.24h.96v-.24h.96V654h.96v-.24h.96v-.24h.96v-.24h.72v-.24h.96v-.24h.96v-.24h.72v-.24h.96v-.24h.96v-.24h.72v-.24h.72v-.24h.96v-.24h.72v-.24h.72v-.24h.96v-.24h.72v-.24h.72v-.24h.72v-.24h.72v-.24h.72v-.24h.72v-.24h.96v-.24h.72v-.24h.72v-.24h.72V648h.48v-.24h.72v-.24h.72v-.24h.72v-.24h.72v-.24h.72v-.24h.48v-.24h.72v-.24h.72v-.24h.48v-.24h.72v-.24h.72v-.24h.48v-.24h.72v-.24h.72v-.24h.48v-.24h.72v-.24h.48v-.24h.72v-.24h.48v-.24h.72v-.24h.48v-.24h.48v-.24h.72v-.24h.48V642h.72v-.24h.48v-.24h.48v-.24h.72v-.24h.48v-.24h.48v-.24h.72v-.24h.48v-.24h.48v-.24h.48v-.24h.72v-.24h.48v-.24h.48v-.24h.48v-.24h.48v-.24h.72v-.24h.48v-.24h.48v-.24h.48v-.24h.48v-.24h.48v-.24h.48v-.24h.72v-.24h.48v-.24h.48V636h.48v-.24h.48v-.24h.48v-.24h.48v-.24h.48v-.24h.48v-.24h.48v-.24h.48v-.24h.48v-.24h.48v-.24h.48v-.24h.24v-.24h.48v-.24h.48v-.24h.48v-.24h.48v-.24h.48v-.24h.48v-.24h.48v-.24h.48v-.24h.24v-.24h.48v-.24h.48v-.24h.48v-.24h.48V630h.24v-.24h.48v-.24h.48v-.24h.48v-.24h.48v-.24h.24v-.24h.48v-.24h.48v-.24h.48v-.24h.24v-.24h.48v-.24h.48v-.24h.48v-.24h.24v-.24h.48v-.24h.48v-.24h.24v-.24h.48v-.24h.48v-.24h.24v-.24h.48v-.24h.48v-.24h.24v-.24h.48v-.24h.48V624h.24v-.24h.48v-.24h.24v-.24h.48v-.24h.48v-.24h.24v-.24h.48v-.24h.24v-.24h.48v-.24h.48v-.24h.24v-.24h.48v-.24h.24v-.24h.48v-.24h.24v-.24h.48v-.24h.24v-.24h.48v-.24h.24v-.24h.48v-.24h.24v-.24h.48v-.24h.24v-.24h.48v-.24h.24V618h.48v-.24h.24v-.24h.48v-.24h.24v-.24h.48v-.24h.24v-.24h.24v-.24h.48v-.24h.24v-.24h.48v-.24h.24v-.24h.48v-.24h.24v-.24h.48v-.24h.24v-.24h.24v-.24h.48v-.24h.24v-.24h.24v-.24h.48v-.24h.24v-.24h.48v-.24h.24v-.24h.24v-.24h.48V612h.24v-.24h.24v-.24h.48v-.24h.24v-.24h.24v-.24h.48v-.24h.24v-.24h.24v-.24h.48v-.24h.24v-.24h.24v-.24h.48v-.24h.24v-.24h.24v-.24h.48v-.24h.24v-.24h.24v-.24h.24v-.24h.48v-.24h.24v-.24h.24v-.24h.48v-.24h.24v-.24h.24v-.24h.24V606h.24v-.24h.48v-.24h.24v-.24h.24v-.24h.24v-.24h.48v-.24h.24v-.24h.24v-.24h.24v-.24h.48v-.24h.24v-.24h.24v-.24h.24v-.24h.24v-.24h.48v-.24h.24v-.24h.24v-.24h.24v-.24h.24v-.24h.48v-.24h.24v-.24h.24v-.24h.24v-.24h.24v-.24h.24V600h.48v-.24h.24v-.24h.24v-.24h.24v-.24h.24v-.24h.24v-.24h.24v-.24h.48v-.24h.24v-.24h.24v-.24h.24v-.24h.24v-.24h.24v-.24h.24v-.24h.24v-.24h.48v-.24h.24v-.24h.24v-.24h.24v-.24h.24v-.24h.24v-.24h.24v-.24h.24v-.24h.24v-.24h.24V594h.48v-.24h.24v-.24h.24v-.24h.24v-.24h.24v-.24h.24v-.24h.24v-.24h.24v-.24h.24v-.24h.24v-.24h.24v-.24h.24v-.24h.24v-.24h.24v-.24h.24v-.24h.24v-.24h.24v-.24h.24v-.24h.24v-.24h.24v-.24h.48v-.24h.24v-.24h.24v-.24h.24v-.24h.24V588h.24v-.24h.24v-.24h.24v-.24h.24v-.24h.24v-.24h.24v-.24h.24v-.24h.24v-.24h.24v-.24h.24v-.24h.24v-.24h.24v-.24h.24v-.48h.24v-.24h.24v-.24h.24v-.24h.24v-.24h.24v-.24h.24v-.24h.24v-.24h.24v-.24h.24v-.24h.24v-.24h.24V582h.24v-.24h.24v-.24h.24v-.24h.24v-.24h.24v-.24h.24v-.24h.24v-.24h.24v-.24h.24v-.48h.24v-.24h.24v-.24h.24v-.24h.24v-.24h.24v-.24h.24v-.24h.24v-.24h.24v-.24h.24v-.24h.24v-.48h.24v-.24h.24v-.24h.24v-.24h.24V576h.24v-.24h.24v-.24h.24v-.24h.24v-.48h.24v-.24h.24v-.24h.24v-.24h.24v-.24h.24v-.24h.24v-.24h.24v-.48h.24v-.24h.24v-.24h.24v-.24h.24v-.24h.24v-.24h.24v-.48h.24v-.24h.24v-.24h.24v-.24h.24v-.24h.24v-.48h.24v-.24h.24v-.24h.24v-.24h.24v-.24h.24v-.48h.24v-.24h.24v-.24h.24v-.24h.24v-.48h.24v-.24h.24v-.24h.24v-.24h.24v-.48h.24v-.24h.24v-.24h.24v-.24h.24v-.24h.24v-.48h.24v-.24h.24V564h.24v-.48h.24v-.24h.24v-.24h.24v-.24h.24v-.48h.24v-.24h.24v-.24h.24v-.48h.24v-.24h.24v-.24h.24v-.48h.24v-.24h.24v-.24h.24v-.48h.24v-.24h.24v-.24h.24v-.48h.24v-.24h.24V558h.24v-.48h.24v-.24h.24v-.24h.24v-.48h.24v-.24h.24v-.48h.24v-.24h.24v-.24h.24v-.48h.24v-.24h.24v-.24h.24v-.48h.24v-.24h.24v-.48h.24v-.24h.24v-.48h.24v-.24h.24v-.48h.24v-.24h.24v-.24h.24v-.48h.24v-.24h.24v-.48h.24v-.24h.24v-.48h.24v-.24h.24v-.48h.24v-.24h.24v-.48h.24v-.24h.24v-.48h.24v-.24h.24v-.48h.24v-.24h.24v-.48h.24v-.24h.24v-.48h.24v-.24h.24v-.48h.24v-.24h.24v-.48h.24v-.48h.24v-.24h.24v-.48h.24v-.24h.24v-.48h.24v-.48h.24v-.24h.24v-.48h.24v-.24h.24v-.48h.24v-.48h.24v-.24h.24v-.48h.24v-.48h.24v-.24h.24v-.48h.24v-.48h.24v-.24h.24v-.48h.24v-.48h.24v-.24h.24v-.48h.24v-.48h.24V534h.24v-.24h.24v-.48h.24v-.48h.24v-.48h.24v-.24h.24v-.48h.24v-.48h.24v-.48h.24v-.48h.24v-.24h.24v-.48h.24v-.48h.24v-.48h.24V528h.24v-.24h.24v-.48h.24v-.48h.24v-.48h.24v-.48h.24v-.48h.24v-.48h.24v-.48h.24v-.48h.24v-.24h.24v-.48h.24v-.48h.24v-.48h.24v-.48h.24v-.48h.24v-.48h.24v-.48h.24v-.48h.24v-.48h.24v-.48h.24v-.48h.24v-.48h.24v-.48h.24v-.72h.24v-.48h.24v-.48h.24v-.48h.24v-.48h.24v-.48h.24v-.48h.24v-.72h.24v-.48h.24v-.48h.24v-.48h.24v-.48h.24v-.72h.24V510h.24v-.48h.24v-.48h.24v-.72h.24v-.48h.24v-.48h.24v-.72h.24v-.48h.24v-.48h.24v-.72h.24v-.48h.24v-.72h.24v-.48h.24v-.48h.24v-.72h.24v-.48h.24v-.72h.24v-.48h.24v-.72h.24v-.48h.24v-.72h.24v-.72h.24v-.48h.24v-.72h.24v-.72h.24v-.48h.24v-.72h.24v-.72h.24v-.48h.24v-.72h.24V492h.24v-.72h.24v-.72h.24v-.72h.24v-.48h.24v-.72h.24v-.72h.24v-.72h.24v-.96h.24v-.72h.24v-.72h.24v-.72h.24v-.72h.24v-.72h.24v-.72h.24v-.96h.24v-.72h.24v-.72h.24v-.96h.24v-.72h.24v-.72h.24v-.96h.24v-.96h.24v-.72h.24v-.96h.24v-.96h.24v-.72h.24v-.96h.24v-.96h.24v-.96h.24V468h.24v-.96h.24v-.96h.24v-.96h.24v-1.2h.24v-.96h.24v-1.2h.24v-.96h.24v-1.2h.24v-1.2h.24v-1.2h.24V456h.24v-1.2h.24v-1.2h.24v-1.2h.24v-1.44h.24v-1.44h.24v-1.44h.24v-1.44h.24v-1.68h.24v-1.68h.24v-1.68h.24v-1.68h.24V438h.24v-2.16h.24v-2.16h.24v-2.4h.24v-2.64h.24v-2.88h.24v-3.6h.24v-4.8h.24v-21.6h-.24v-4.8h-.24v-3.6H552v-2.88h-.24v-2.64h-.24v-2.4h-.24v-2.16h-.24v-2.16h-.24v-1.92h-.24v-1.68h-.24v-1.68h-.24v-1.68h-.24v-1.68h-.24v-1.44h-.24v-1.44h-.24v-1.44h-.24v-1.44h-.24v-1.2h-.24v-1.2h-.24v-1.2h-.24v-1.2h-.24v-1.2h-.24v-1.2h-.24v-1.2h-.24v-.96h-.24v-1.2h-.24v-.96h-.24V348H546v-.96h-.24v-.96h-.24v-.96h-.24v-.96h-.24v-.96h-.24v-.96h-.24v-.96h-.24v-.72h-.24v-.96h-.24v-.96h-.24v-.72h-.24v-.96h-.24V336h-.24v-.72h-.24v-.72h-.24v-.96h-.24v-.72h-.24v-.72h-.24v-.96h-.24v-.72h-.24v-.72h-.24v-.72h-.24v-.72h-.24v-.72h-.24v-.72H540v-.96h-.24v-.72h-.24v-.72h-.24v-.72h-.24v-.48h-.24v-.72h-.24v-.72h-.24v-.72h-.24v-.72h-.24v-.72h-.24v-.48h-.24v-.72h-.24v-.72h-.24v-.48h-.24v-.72h-.24v-.72h-.24v-.48h-.24v-.72h-.24v-.72h-.24v-.48h-.24v-.72h-.24v-.48h-.24v-.72h-.24v-.48h-.24v-.72H534v-.48h-.24v-.48h-.24v-.72h-.24v-.48h-.24v-.72h-.24v-.48h-.24v-.48h-.24v-.72h-.24v-.48h-.24v-.48h-.24v-.72h-.24v-.48h-.24v-.48h-.24v-.48h-.24v-.72h-.24v-.48h-.24v-.48h-.24v-.48h-.24V300h-.24v-.72h-.24v-.48h-.24v-.48h-.24v-.48h-.24v-.48h-.24v-.48H528v-.48h-.24v-.72h-.24v-.48h-.24v-.48h-.24v-.48h-.24v-.48h-.24v-.48h-.24v-.48h-.24v-.48h-.24v-.48h-.24v-.48h-.24v-.48h-.24v-.48h-.24v-.48h-.24v-.48h-.24v-.24h-.24v-.48h-.24v-.48h-.24v-.48h-.24v-.48h-.24v-.48h-.24v-.48h-.24v-.48h-.24v-.48h-.24v-.24H522v-.48h-.24v-.48h-.24v-.48h-.24v-.48h-.24v-.24h-.24v-.48h-.24V282h-.24v-.48h-.24v-.48h-.24v-.24h-.24v-.48h-.24v-.48h-.24v-.48h-.24v-.24h-.24v-.48h-.24v-.48h-.24v-.48h-.24v-.24h-.24v-.48h-.24v-.48h-.24v-.24h-.24v-.48h-.24v-.48h-.24v-.24h-.24v-.48H516v-.48h-.24v-.24h-.24v-.48h-.24v-.48h-.24v-.24h-.24v-.48h-.24v-.24h-.24v-.48h-.24v-.48h-.24v-.24h-.24v-.48h-.24V270h-.24v-.48h-.24v-.48h-.24v-.24h-.24v-.48h-.24v-.24h-.24v-.48h-.24v-.24h-.24v-.48h-.24v-.24h-.24v-.48h-.24v-.24h-.24v-.48h-.24v-.24H510v-.48h-.24v-.24h-.24V264h-.24v-.24h-.24v-.48h-.24v-.24h-.24v-.48h-.24v-.24h-.24v-.48h-.24v-.24h-.24v-.24h-.24v-.48h-.24v-.24h-.24v-.48h-.24v-.24h-.24v-.48h-.24v-.24h-.24v-.48h-.24v-.24h-.24v-.24h-.24v-.48h-.24v-.24h-.24v-.24h-.24v-.48h-.24v-.24H504v-.48h-.24v-.24h-.24v-.24h-.24v-.48h-.24v-.24h-.24v-.24h-.24v-.48h-.24v-.24h-.24v-.24h-.24v-.48h-.24v-.24h-.24v-.24h-.24v-.48h-.24V252h-.24v-.24h-.24v-.48h-.24v-.24h-.24v-.24h-.24v-.48h-.24v-.24h-.24v-.24h-.24v-.24h-.24v-.48h-.24v-.24h-.24v-.24H498v-.48h-.24v-.24h-.24v-.24h-.24v-.24h-.24v-.24h-.24v-.48h-.24v-.24h-.24v-.24h-.24V246h-.24v-.48h-.24v-.24h-.24v-.24h-.24v-.24h-.24v-.48h-.24v-.24h-.24v-.24h-.24v-.24h-.24v-.24h-.24v-.48h-.24v-.24h-.24v-.24h-.24v-.24h-.24v-.24h-.24v-.48h-.24v-.24H492v-.24h-.24v-.24h-.24v-.24h-.24v-.24h-.24v-.48h-.24v-.24h-.24v-.24h-.24v-.24h-.24v-.24h-.24v-.24h-.24v-.24h-.24v-.48h-.24v-.24h-.24v-.24h-.24v-.24h-.24v-.24h-.24v-.24h-.24v-.24h-.24v-.24h-.24v-.48h-.24v-.24h-.24v-.24h-.24v-.24h-.24v-.24h-.24v-.24H486v-.24h-.24V234h-.24v-.24h-.24v-.24h-.24v-.48h-.24v-.24h-.24v-.24h-.24v-.24h-.24v-.24h-.24v-.24h-.24v-.24h-.24v-.24h-.24v-.24h-.24v-.24h-.24v-.24h-.24v-.24h-.24v-.24h-.24v-.24h-.24v-.24h-.24v-.24h-.24v-.24h-.24v-.24h-.24v-.24h-.24v-.24h-.24V228H480v-.24h-.24v-.24h-.24v-.24h-.24v-.24h-.24v-.24h-.24v-.24h-.24v-.24h-.24v-.24h-.24v-.24h-.24v-.24h-.24v-.24h-.24v-.24h-.24v-.24h-.24v-.24h-.24v-.24h-.24v-.24h-.24v-.24h-.48v-.24h-.24v-.24h-.24v-.24h-.24v-.24h-.24v-.24h-.24v-.24h-.24v-.24H474V222h-.24v-.24h-.24v-.24h-.24v-.24h-.24v-.24h-.24v-.24h-.24v-.24h-.24v-.24h-.24v-.24h-.24v-.24h-.24v-.24h-.24v-.24h-.24v-.24h-.48v-.24h-.24v-.24h-.24v-.24h-.24v-.24h-.24v-.24h-.24v-.24h-.24v-.24h-.24v-.24h-.24v-.24h-.24v-.24H468v-.24h-.24v-.24h-.24V216h-.24v-.24h-.24v-.24h-.24v-.24h-.24v-.24h-.24v-.24h-.48v-.24h-.24v-.24h-.24v-.24h-.24v-.24h-.24v-.24h-.24v-.24h-.24v-.24h-.48v-.24h-.24v-.24h-.24v-.24h-.24v-.24h-.24v-.24h-.24v-.24h-.48v-.24H462v-.24h-.24v-.24h-.24v-.24h-.24v-.24h-.48v-.24h-.24V210h-.24v-.24h-.24v-.24h-.24v-.24h-.48v-.24h-.24v-.24h-.24v-.24h-.24v-.24h-.48v-.24h-.24v-.24h-.24v-.24h-.24v-.24h-.48v-.24h-.24v-.24h-.24v-.24h-.24v-.24H456v-.24h-.48v-.24h-.24v-.24h-.24v-.24h-.48v-.24h-.24v-.24h-.24v-.24h-.24v-.24h-.48v-.24h-.24V204h-.24v-.24h-.48v-.24h-.24v-.24h-.24v-.24h-.48v-.24h-.24v-.24h-.24v-.24h-.48v-.24h-.24v-.24H450v-.24h-.48v-.24h-.24v-.24h-.24v-.24h-.48v-.24h-.24v-.24h-.24v-.24h-.48v-.24h-.24v-.24h-.48v-.24h-.24v-.24h-.24v-.24h-.48v-.24h-.24v-.24h-.24v-.24h-.48V198h-.24v-.24h-.48v-.24H444v-.24h-.48v-.24h-.24v-.24h-.48v-.24h-.24v-.24h-.24v-.24h-.48v-.24h-.24v-.24h-.48v-.24h-.24v-.24h-.48v-.24h-.24v-.24h-.48v-.24h-.24v-.24h-.48v-.24h-.24v-.24h-.48v-.24H438v-.24h-.48v-.24h-.24v-.24h-.48v-.24h-.24v-.24h-.48V192h-.24v-.24h-.48v-.24h-.24v-.24h-.48v-.24h-.48v-.24h-.24v-.24h-.48v-.24h-.24v-.24h-.48v-.24h-.48v-.24H432v-.24h-.48v-.24h-.24v-.24h-.48v-.24h-.48v-.24h-.24v-.24h-.48v-.24h-.48v-.24h-.24v-.24h-.48v-.24h-.48v-.24h-.24v-.24h-.48v-.24h-.48v-.24h-.24V186H426v-.24h-.48v-.24h-.48v-.24h-.24v-.24h-.48v-.24h-.48v-.24h-.48v-.24h-.24v-.24h-.48v-.24h-.48v-.24h-.48v-.24h-.48v-.24h-.24v-.24h-.48v-.24H420v-.24h-.48v-.24h-.24v-.24h-.48v-.24h-.48v-.24h-.48v-.24h-.48v-.24h-.48v-.24h-.48v-.24h-.48v-.24h-.48V180h-.48v-.24h-.24v-.24h-.48v-.24h-.48v-.24h-.48v-.24h-.48v-.24h-.48v-.24h-.48v-.24h-.48v-.24h-.48v-.24h-.48v-.24h-.48v-.24h-.48v-.24h-.48v-.24h-.48v-.24h-.72v-.24h-.48v-.24h-.48v-.24h-.48v-.24h-.48v-.24h-.48v-.24h-.48v-.24h-.72v-.24h-.48v-.24h-.48V174h-.48v-.24h-.48v-.24h-.72v-.24h-.48v-.24h-.48v-.24h-.48v-.24h-.72v-.24h-.48v-.24h-.48v-.24h-.72v-.24h-.48v-.24h-.48v-.24H396v-.24h-.48v-.24h-.72v-.24h-.48v-.24h-.48v-.24h-.72v-.24h-.48v-.24h-.72v-.24h-.48v-.24h-.72v-.24h-.48v-.24h-.72v-.24h-.72V168h-.48v-.24h-.72v-.24h-.72v-.24h-.48v-.24h-.72v-.24h-.72v-.24h-.48v-.24h-.72v-.24h-.72v-.24h-.72v-.24h-.72v-.24h-.72v-.24h-.48v-.24h-.72v-.24h-.72v-.24h-.72v-.24h-.96v-.24h-.72v-.24h-.72v-.24h-.72v-.24h-.72v-.24h-.72v-.24h-.72v-.24H372v-.24h-.72V162h-.72v-.24h-.96v-.24h-.72v-.24h-.72v-.24h-.96v-.24h-.96v-.24h-.72v-.24h-.96v-.24h-.96v-.24h-.72v-.24h-.96v-.24h-.96v-.24H360v-.24h-.96v-.24h-.96v-.24h-.96v-.24h-.96v-.24h-1.2v-.24H354v-.24h-1.2v-.24h-.96v-.24h-1.2v-.24h-1.2v-.24h-1.2v-.24h-1.2V156h-1.2v-.24h-1.2v-.24h-1.2v-.24H342v-.24h-1.44v-.24h-1.44v-.24h-1.44v-.24H336v-.24h-1.68v-.24h-1.68v-.24h-1.68v-.24h-1.92v-.24h-2.16v-.24h-2.16v-.24h-2.4v-.24h-2.64v-.24h-2.88v-.24h-3.6v-.24h-4.8v-.24h-21.6m13.44 179.28h1.2v.72h.24v1.2h.24v1.92h.24v1.2h.24v1.2h.24v6.72h.24v2.88h.24v.96h.24v1.44h.24v1.2h.24v.72h.24v.24h.72v-1.2h.24v-.96h.24V348h.24v-.96h.24v-1.2h.24v-1.92h-.24v-.24h.24v-.96h.24v-.96h.24v-.96h.24v-.72h.24v-1.44h.24v-1.44h.24v-2.64h.24v-1.2h-.24v-.48h.48v6.48h.24v3.36h.24v1.68h.24v1.44h.24v.96h.24v1.44h.24v.96h.24v.96h.48v-.72h.24v-.96h.24v-.96h.24v-.72h.24v-1.2h.24v-.72h.24v-1.44h.24v-1.2h.24v-.96h.24v-1.68h.24v-.96h.24v-1.68h.24v2.64h-.24v2.4h-.24v3.12h.24v.72h.48v4.56h.48v-.24h.48v-.24h.48v-.48h.48v-.24h.24v-.24h.24v-.24h.24v-.24h.48v-.24h.24V348h.24v-.24h.24v-.48h.24v-.24h.24v-.48h.24v-.48h.24v2.64h.24v.96h.24v.48h.24v.24h.24v-.24h.24v-.24h.24v-.48h.24v-.24h.24v-.48h.24v-.48h.24v-.48h.24v-.48h.24v-.72h.24v-.72h.24v-.48h.24v-.48h.24v-.48h.24v-.72h.24v-.72h.24V342h.24v-.48h.24v-.72h.24v-.72h.24v-.48h.24v-.48h.24v-.48h.24v1.92H324v3.12h-.24v.96h-.24v1.92h-.24V348h.48v-.24h.24v-.24h.24v1.92h.24v.96h.24v.48h.48v.24h.24v-.24h.48v-.24h.24v-.24h.24v-.24h.24v-.24h.24v-.48h.24v-.24h.24v-.48h.24v-.48h.24V348h.24v-.48h.24v-.24h.24v-.48h.24v-.48h.24v-.24h.24v-.72h.24v-.48h.24v-.48h.24v-.48h.24v.72H330v.72h-.24v.96h-.24v.72h-.24v.96h-.24v.96h-.24v.72h-.24v.72h-.24v.96h-.24v1.44h.24v.24h2.16v-.24h.24v-.24h.48v-.24h.24v-.24h.24v-.24h.24v-.24h.24v-.24h.24v-.24h.24v-.24h.24v-.24h.24v-.24h.24v-.24h.24v-.48h.24v-.24h.24v.72h-.24v.96h-.24v.48h-.24v.96h-.24v.96h-.24v.72h-.24v.96h-.24v1.44h.72v-.24h.48v-.24h.24v-.24h.24v-.24h.24v-.24h.24v-.24h.24v-.48h.24v-.24h.24v-.24h.24V354h.24v-.48h.24v-.24h.24v-.24h.24v-.48h.24v-.48h.24v-.48h.24v-.24h.24v-.72h.24v-.48h.24v-.24h.24v.72h-.24v.72h-.24v.72h-.24v.48h-.24v.72h-.24v.48h-.24v.48h-.24v.72h-.24v.72H336v.72h-.24v.72h-.24v.96h-.24v2.16h.96V360h.24v-.24h.24v-.24h.24v2.16h.24v.72h.48v.24h.48v-.24h.24v-.24h.24v-.24h.24v-.24h.24v-.48h.24v-.24h.24v-.48h.24v-.24h.24V360h.24v-.48h.24v-.24h.24v.48h-.24v.48h-.24v.48h-.24v.48h-.24v.72h-.24v.72h-.24v.72h-.24v.72h-.24v.72h-.24v.72h.48v-.24h.24v-.24h.24v-.48h.24v-.24h.24v-.48h.24v-.48h.24v-.24h.24v-.24h.24v-.48h.24v-.24h.24v-.48h.24v-.24h.24v-.48h.24v-.24h.24v-.48h.24V360h.24v-.48h.24v-.48h.24v-.24h.24v-.48h.24v-.24h.24v-.48h.24v-.24h.24v-.24h.24v-.48h.24v-.24h.24v-.48h.24v-.24h.24v-.24h.24v-.24h.24v-.48h.24v-.24h.24v-.24h.24V354h.24v-.24h.24v-.24h.24v-.24h.24v.24h.24v.24h.24v.48h-.24v.48H348v.24h-.24v.48h-.24v.24h-.24v.24h-.24v.48h-.24v.48h-.24v.24h-.24v.24h-.24v.48h-.24v.24h-.24v.24h-.24v.48h-.24v.24h-.24v.24h-.24v.24h-.24v.48h-.24v.24h-.24v.24h-.24v.24h-.24v.48h-.24v.24h-.24v.48h-.24v.24h-.24v.48h-.24v.48H342v.24h-.24v.48h-.24v.48h-.24v.48h-.24v1.68h.24v-.24h.48V366h.48v-.24h.24v-.24h.48v-.24h.24v-.24h.24v-.24h.24v-.24h.48v-.24h.24v-.24h.24v-.24h.24v-.24h.48v-.24h.24v-.24h.24v-.24h.24v-.24h.48v-.24h.24v-.24h.24v-.24h.24v-.24h.24v-.24h.24v-.24h.24v-.24h.24v-.24h.24v-.48h.24V360h.24v-.24h.24v-.24h.24v-.24h.24v-.24h.24v-.24h.24v-.48h.24v-.24h.24v-.24h.24v-.48h.24v-.24h.24v.48h-.24v.72h-.24v.72h-.24v.48h-.24v.48h-.24v.48h-.24v.48h-.24v.48h-.24v.48h-.24v.48h-.24v.48h-.24v.48h-.24v.48h-.24v.72H348v.48h-.24v.48h-.24v.48h-.24v.48h-.24v2.64h.24v.24h.72v-.24h.48v-.24h.24v-.24h.24v-.24h.24v.48h-.24v.48h-.24v1.68h.72v.24h-.24v.48h.24v.48h1.92v.24h-.24v.48h-.24v.72h-.24v1.2h.24v.48h.24v.24h.48v.24h1.92v-.24h.96v-.24h.72v-.24h.48v-.24h.72v-.24h.48v-.24h.24v.48h-.24v.24h-.24v.48h-.24v.24h-.24v.48h-.24v.24h-.24v.48h-.24v.48h-.24v.24h-.24v.48h-.24v.48h-.24v.48h-.24v.24H354v.48h-.24v.72h-.24v.72h.96v-.24h.48v-.24h.24v-.24h.24v-.24h.24v-.24h.24v-.24h.24v-.24h.24v-.24h.24v-.24h.48v-.24h.24v-.24h.24v-.24h.24v-.24h.24V378h.48v-.24h.24v-.24h.24v-.24h.24v-.24h.24v-.24h.24v.48h-.24v.24h-.24v.24h-.24v.24h-.24v.48h-.24v.24h-.24v.24h-.24v.48h-.24v.24h-.24v.24h-.24v.48h-.24v.24h-.24v.24h-.24v.48h-.24v.24h-.24v.24h-.24v.48h-.24v.48h-.24v.24h-.24v.24h-.24v.48h-.24v.24h-.24v.24h-.24v.48H354v.24h-.24v.48h-.24v.48h-.24v1.2h1.2v-.24h.72v-.24h.48v-.24h.48v-.24h.48v.48h-.24v.24h-.24v.24h-.24v.48h-.24v.24h-.24v.96h.48v-.24h.48v-.24h.24v-.24h.48v-.24h.24v-.24h.48v-.24h.24v-.24h.24v-.24h.48v-.24h.24v-.24h.24v-.24h.24v-.24h.24v-.24h.24v-.24h.48v-.24h.24v-.24h.24v-.24h.24v-.24h.24v-.24h.24V384h.48v-.24h.24v-.24h.24v-.24h.24v-.24h.24v-.48h.24v-.24h.24v-.24h.48v-.24h.24v-.24h.24v-.48h.24v-.24h.24v-.24h.24v-.24h.24v-.24h.24v-.24h.24v-.24h.24v-.24h.24v-.24h.24v-.24h.24v-.24h.24v-.24h.24v.24h.24v.72h.24v1.44h.24v.72h-.24v.24h-.24v.24h-.48v.24h-.24v.24h-.24v.24h-.48v.24H366v.24h-.24v.24h-.24v.24h-.48v.24h-.24v.24h-.24v.24h-.24v.24h-.48v.24h-.24v.24h-.24v.24h-.24v.24h-.24v.24h-.48v.24h-.24v.24h-.24v.24h-.24v.24h-.48v.24h-.24v.24h-.24v.24h-.24v.24H360v.24h-.24v.24h-.24v.24h-.24v.24h-.24v.24h-.48v.24h-.24v.24h-.24v.24h-.48v.24h-.24v.24h-.24v.24h-.48v.24h-.24v.24h-.24v.24h-.48v.24h-.24v.24h-.24v.24h-.24v.24h-.48v.48h.24v-.24h.48v-.24h.48v-.24h.48v-.24h.24v-.24h.48v-.24h.48v-.24h.48v-.24h.24v-.24h.48v-.24h.48V390h.48v-.24h.48v-.24h.48v-.24h.48v-.24h.48v-.24h.48v-.24h.48v-.24h.48v-.24h.48v-.24h.72v-.24h.48v-.24h.48v-.24h.48v-.24h.48v-.24h.48v-.24h.72v-.24h.48v-.24h.48v-.24h.72v-.24h.48v1.2h.24v.72h-.24v.24h-.48v.24h-.24v.24h-.48v.24h-.48v.24h-.48v.24h-.24v.24h-.48v.24H366v.24h-.24v.24h-.48v.24h-.24v.24h-.48v.24h-.48v.24h-.24v.24h-.48v.24h-.48v.24h-.48v.24h-.24v.24h-.24v.24h-.24v.24h-.48v.24h-.24v.24h-.24v.24h-.48v.24H360v.24h-.48v.24h-.24v.24h-.24v.24h-.24v.24h-.24v.24h-.24v.24h-.24v.24h-.24v.72h3.36v-.24h.96v.24h-.72v.24h-.48v.24h-.48v.48h-.24v.96h.72v.24h1.68v.24h2.16v-.24h3.12v-.24h1.44v-.24h.96v1.44h-.48v.24h-.48v.24h-.72v.24h-.48v.24h-.72v.24h-.72v.24H366v.24h-.72v.24h-.48v.24h-.72v.24h-.48v.24h-.72v.24h-.48v.24h-.72v.24h-.48v.24h-.48v.96h-.24v.24H360v.24h-.24v.24h-.24v.24h-.24v.24h-.48v.48h-.24v.24h-.48v.48h-.24v.96h.48v.24h1.44v.24h1.44v.24h.24v.24h.48v.24h.48v.24h.72v.24h4.56v-.24h1.44v-.24h.24v.72h-1.2v.24h-1.2v.24h-1.44v.24h-2.64v.24h-3.84v.24h-.24v.96h.24v.24h.24v.24h.24v.24h.48v.24h.72v.24h.48v.24h.96v.24h.72v.24h.72v.24h.96v.24h.96v.24h.96v.24h1.2v.24h.24v.24h-.24v.96h-.24v2.64h-.24v.24h-.24v-.24h-.48v-.24h-.24v-.24h-.48v-.24h-.24v-.24h-.48v-.24h-.48v-.24h-.24v-.24h-.48v-.24h-.24v-.24h-.48v-.24h-.24v-.24h-.24v-.24h-.24v-.24h-.24v-.24h-.48v-.24h-.24v-.24h-.24V414h-.24v-.24h-.24v-.24h-.48v-.24H360v-.24h-.48v-.24h-1.44v.24h-.48v.24h-.24v.24h-.48v.24h-.24v.48h-.24v2.4h.24v.48h-.24v-.24h-.48v-.24h-.72v-.24h-.48v-.24h-.96v.96h.24v.48h.24v.48h.24v.72h.24v.48h.24v.24h.24v.48h.24v.24h.24v.72h.24v.48h.24v.24h.24v.48h.24v.24h.24v.24h.24v.48h.24v.24h.24v.48h.24v.24h.24v.24h.24v.48h.24v.24h.24v.24h.24v.24h.24v.24h.24v.24h.24v.24h.24v.24h.24v.24h.24v.24h.24v.24h.48v.24h.24v.24h.24v.24h.24v.48h.24v.48h.24v.72h-.24v.72h-.24v.48h-.24v.72h-.48v-.48h-.24v-.24h-.24v-.48h-.24v-.48h-.24v-.48H360v-.48h-.24v-.48h-.24v-.48h-.24v-.24h-.24v-.48h-.72v-.24h-.96v-.24h-.72v-.24h-.96v-.24h-1.2V426H354v-.24h-.24v-.48h-.24v-.24h-.24v-.48h-.24v-.24h-.24v-.24h-.24v-.24h-.24v.24h-.24v2.4h-.24v.24h-.48v.24h-.48v.24h-.24v1.2h.24v.24h.24v.24h.24v.24h.24v.24h.24v.48h.24v.24h.24v.24h.24v.24h.24v.48h.24v.72h.24v.72h.24v.96h.24v.72h.24v.72h.24v.48h.24v.72h.24v.72h-.24v-.48h-.24v-.24H354v-.24h-.24v-.24h-.24v-.24h-.24v-.24h-.24v-.48h-.24v-.24h-.24v-.48h-.24v-.48h-.24v-.24h-.24v-.24h-.24v-.48h-.24v-.24h-.24v-.48h-.24v-.24h-.24v-.24h-.24v-.24h-.72v.24h-.48v3.12h.24v.96h.24v.72h.24v.72h.24v.96h.24v.72h.24v.48h.24v.96h.24v.72h.24v.96h.24v.72h.24v.72h.24v.24h.24v.48h.24v.96h-.24v.48h-.24v.24h-.24v.24h-.24v.24h-.24v.24h-.48v-.48h-.24v-.24h-.24v-.24h-.24v-.24h-.24v-.24h-.24v-.24h-.24v-.24h-.24V444h-.24v-.24h-.24v-.24h-.24v-.24h-.24v-.24h-.48v-.24h-.24v-.24h-.24v-.24h-.24v-.24h-.24v-.24h-.48v-.24h-.24v-.24h-.24v-.24h-.24v-.24h-.24v-.24h-.24v-.48h-.24v-.24h-.48v-.24h-.72v.24h-.24v.24h-.24v.48h-.24v1.92h.24v.72h.24v.48h.24v.48h.24v3.36h.24v1.44h.24v.96h.24v.72h.24v.24h-.48v-.48h-.24V450h-.24v-.24h-.24v-.48h-.24v-.24h-.24v-.48h-.24v-.24h-.24v-.24h-.24v-.24h-.24v-.48H342v-.24h-.24v-.48h-.24v-.24h-.24v-.24h-.24v-.48h-.24v-.24h-.24v-.24h-.24v-.48h-.24v-.24h-.24v-.24h-.24v-.48h-.24v-.24h-.24v-.24h-.24v-.48h-.24v-.24h-.24v-.24h-.24v-.24h-.24v-.24h-.24v-.24h-.24v-.48h-.24v-.24h-.24v-.24h-.24v-.24h-.24v-.48h-.24v-.24H336v-.24h-.24v-.24h-.24v-.48h-.24v-.24h-.24v-.24h-.24V438h-.24v-.24h-.24v-.24h-.24v-.24h-.24v-.24h-.24v-.24h-.24v-.24h-.48v-.24h-.48v.24h-.24v.24h-.24v2.16h.24v.96h.24v.72h.24v.72h.24v.72h.24v.72h.24v.72h.24v.48h.24v.72h.24v.48h.24v.72h.24v.48h.24v.48h.24v.24h.24v.48h.24v.24h.24v.48h.24v.24h.24v.48H336v-.24h-.24v-.24h-.24v-.24h-.24v-.24h-.24v-.24h-.24v-.24h-.24v-.24h-.24v-.24h-.24v-.24h-.24v-.24h-.24v-.24h-.24v-.24h-.24v-.24h-.48v-.24h-.24v-.24h-.48v-.24h-.24v-.24h-.72v-.24h-1.68v.24h-.24v.24h-.24v.24h-.24v.48h-.24v3.36h.24v.72h.24v.72h.24v.72h.24v.72h.24v.48h.24v.48h.24v.48h.24v.48H330v-.24h-.24v-.24h-.24v-.24h-.24v-.24h-.48v-.24h-.24v-.24h-.48v-.24h-.48v-.24h-.48v-.24h-.48v-.48h-.24v-.48h-.24v-.24h-.24v-.48h-.24v-.48h-.24v-.48h-.24v-.48h-.24v-.72h-.24v-.72h-.24v-.72h-.24v-.48H324v.72h.24v.96h.24v1.2h.24v.96h.24v.72h.24v.96h-.24v.24h-.24v2.64h.24v1.2h.24v1.44h.24v1.44h.24v1.44h.24v.96h-.24v-.24h-.24v-.48h-.24v-.24h-.24v-.48h-.24v-.48h-.24v-.48h-.24v-.48H324v-.48h-.24v-.48h-.24v-.48h-.24v-.48h-.24v-.48h-.24v-.48h-.24v-.24h-.24v-.48h-.24v-.24h-.24v-.48h-.24v-.48h-.24v-.72h-.24v-.24h-.24v-.48h-.24v-.24h-.24v-.24h-.48v-.24h-.48v.24h-.24v3.12h-.24v5.52h-.24v-.72h-.24v-.72h-.24v-.96H318v-.96h-.24v-.48h-.24v1.92h.24v1.92h.24v1.68h.24v1.44h.24v1.2h.24v1.2h.24v.96H318v-.24h-.24v-.48h-.24v-.96h-.24v-.48h-.24v-.72h-.24v-.72h-.24v-.48h-.24v-.72h-.24v-.72h-.24v-.72h-.24v-.72h-.24v-.72h-.24v-.48h-.24v-.48h-.24v-.48h-.24v-.72h-.24v-.48h-.24v-.72h-.24v-.72h-.24v-.24h-.24v-.48h-.24v-.48h-.24v-.24h-.24v-.24h-.72v.72h-.24v10.56h-.24v-.48h-.24v-.48h-.24v-.48h-.24v-.48h-.24v-.72h-.24v-.72h-.24v-.48h-.24v-.72h-.24v-.72h-.24v-.48h-.24v-.72h-.24v-.72h-.24v-.72h-.24V456h-.24v-.48h-.24v-.48h-.24v-.24h-.24v-1.44h-.24v-1.2h-.24v-.48h-.24v.24h-.24v2.64H306v.24h-.24v.72h-.24v.96h-.24v5.76h.24v4.32h.24v1.2h-.48v-.24h-.24v-.72h-.24v-.72h-.24v-.48h-.24v-.72h-.24v-.48h-.24v-.72h-.24v-.48h-.24v-.72h-.24v-.72h-.24v-.72h-.24v-.96h-.24v-.96h-.24v-.96h-.24v-.96h-.24v-.96h-.24v-1.2h-.24v-1.68h-.48v.72h-.24v.96h-.24v3.84H300v5.04h-.24v-.72h-.24v-1.68h-.24v-1.2h-.24v-1.44h-.24v-2.64h-.24v-2.16h-.24v-.96h-.24v-.24h-.48v.24h-.24v.48h-.48v.48h-.24v.48h-.24v.96h-.24v4.32h-.24V462h-.24v1.2h-.24v1.68h-.24v.24h-.24v-1.68h-.24v-.96h-.24v-.96h-.24v-1.68H294v-1.2h-.24v-.96h-.24V456h-.24v-1.2h-.24v-1.92h-.24v-.48h-.48v.24h-.24v.96h-.24v1.44h-.24v1.68h-.24v1.68h-.24v2.64h-.24v7.44h-.48v.24h-.24v-1.44h-.24v-1.2h-.24v-1.44h-.24v-.72h-.24v-1.68h-.24v-.72h-.24v-1.44h-.24v-1.44h-.24v-2.16H288v-3.12h.24v-1.92h.24v-.96h.24V450h-.48v.96H288v.72h-.24v.72h-.24v.72h-.24v.48h-.24v1.2h-.24v.96h-.24v.96h-.24v1.44h-.24v1.44h-.24v1.2h-.48v-.24h-.24v-.24h-.24v-.24h-.24v-.24h-.24v-.24h-.24v-1.2h-.24v-.96h-.24V456h-.48v.48h-.24v1.2h-.24v1.44h-.24v1.2h-.24v.72H282v.48h-.24v.48h-.24v.96h-.24v.72h-.24v.96h-.24v.72h-.24v.72h-.24v1.2h-.24v.72h-.24v.24h-.48V468h-1.44v-.24h-.24v-.72h-.24v-9.36h-.24v-5.76h-.24v-.24h-.24v-.24h-.24v.24h-.24v.72H276v.48h-.24v1.2h-.24v.72h-.24v.72h-.24v1.2h-.24v.96h-.24v.96h-.24v-1.68h-.24v-1.2h-.24v-1.92h-.24v-.96h-.48v.24h-.24v.48h-.24v.24h-.24v.96h-.24v.48h-.24v.48h-.24v.72h-.24v.72h-.24v.72h-.24v.72h-.24v-1.44h.24v-2.16h.24v-1.44h.24v-2.16h.24v-1.68h.24v-2.16h-.48v.24h-.24v.24h-.24v.24h-.24v.24h-.24v.48h-.24v.24H270v.48h-.24v.48h-.24v.48h-.24v.48h-.24v.72h-.24v.48h-.24v.72h-.24v.72h-.24v.72h-.24v.72h-.24v.48h-.24v-.96h.24v-1.44h.24v-1.2h.24V450h-.24v-.24h-.72v.24h-.72v.24h-.24v.24h-.24v-1.44h.24v-2.88h-.24v-.48h-1.2v.24h-.24v.24h-.24v.48H264v.24h-.24v.72h-.24v.48h-.24v.24h-.24v.72h-.24v.72h-.24v.48h-.24v.72h-.24v.48h-.24v.72h-.24v.72h-.24v.72h-.24v.48h-.24v.72h-.24v.72h-.24v.72h-.24v.48h-.24v.48h-.24v.72h-.24v.72h-.24v.72h-.24v.72h-.24v.24h-.48v-.24H258v-.96h.24v-.96h.24v-.72h.24v-.96h.24v-.72h.24v-.48h.24v-.96h.24v-.72h.24v-.72h.24v-.72h.24v-.72h.24v-.72h.24v-.48h.24v-.72h.24v-.72h.24v-.72h.24v-.72h.24v-2.16h-1.68v.24h-.48v.24h-.48v-.48h.24v-.48h.24v-.48h.24v-.48h.24v-.48h.24v-.48h.24v-.24h-.48v.24h-.24v.48h-.24v.48h-.24v.24h-.24v.48h-.24v.24h-.24v.48h-.24v.48h-.24v.24h-.24v.48H258v.24h-.24v.24h-.24v.24h-.24v.24h-.24v.24h-.24v.24h-.24v.24h-.24v.24h-.24v.24h-.24v.24h-.24v.24h-.24v.24h-.24v.24h-.24v.24h-.24v.24h-.24v.24h-.24v.48h-.24v.24h-.24v.24h-.24v.48h-.24v.24h-.24v.48h-.24v.24h-.24v.24h-.24v.48H252v.48h-.24v.24h-.24v-.48h-.24v-.48h-.24v-.48h-.24v-.48h-.24v-.24h.24v-.72h.24v-.48h.24V450h.24v-.48h.24v-.72h.24v-.72h.24v-.72h.24v-.48h.24v-.96h.24v-.72h.24v-.48h.24V444h.24v-.48h.24v-.72h.24v-.24h.24v-.48h.24v-.48h.24v-.48h.24v-.24h.24v-.48h.24v-.24h.24v-.48h.24v-.48h.24v-.48h.24V438h-.48v.24h-.48v.24h-.24v.24h-.48v.24h-.24v.24h-.24v.24h-.24v.24h-.24v.24h-.48v.48h-.24v.24h-.24v.24h-.24v.24h-.24v.24h-.24v.24H252v.24h-.24v.24h-.24v.24h-.24v.24h-.24v.24h-.24v.24h-.24v.24h-.24v.24h-.24v.48h-.24v.24h-.24v.24h-.24v.24h-.24v.48h-.24v.24h-.24v.24h-.24v.48h-.24v.24h-.24v.24h-.24v.48h-.24v.24h-.24v.48h-.24v.24h-.24v.24H246v-.24h-.24v-.24h.24v-.72h.24v-.48h.24v-.48h.24v-.48h.24v-.48h.24v-.48h.24v-.48h.24v-.48h.24v-.48h.24v-.48h.24v-.48h.24v-.48h.24v-.48h.24v-.48h.24v-.48h.24v-.48h.24v-.48h.24v-.48h.24v-.48h.24V438h.24v-.72h.24v-.72h.24v-.48h-.24v-.24h-.48v.48h-.24v.48h-.24v.24h-.24v.48h-.24v.72h-.24v.24h-.24v.48h-.24v.48h-.24v.48h-.24v.48h-.24v.48h-.24v.24h-.24v.48h-.24v.72h-.24v.24h-.24v.48h-.24v.48h-.24v.48h-.24v.48H246v.24h-.24v.48h-.24v.48h-.24v.24h-.24v.48h-.24v.48h-.24v.24h-.24v-.48h-.24v-.48h.24v-.48h.24v-.72h.24v-.48h.24V444h.24v-.48h.24v-.24h.24v-.48h.24v-.24h.24v-.24h.24v-.48h.24v-.24h.24v-.24h.24v-.48h.24v-.48h.24v-.24h.24v-.48h.24v-.48h.24v-.24h.24v-.48h.24v-.24h.24v-.48h.24v-.48h.24v-.48h.24v-.48h.24v-.48h.24v-.48h.24v-.24h.24v-.72h.24v-.48h.24v-.48h.24v-.72h.24v-.48h.24V432h.24v-.96h.24v-.48h-.72v.24h-.48v.24h-.48v.24h-.24v.24h-.48v.24h-.24v.24h-.48v.24h-.24v.24h-.24v.24h-.48v.24h-.24v.24h-.24v.24h-.24v.24h-.48v.24h-.24v.24h-.24v.24h-.24v.24h-.24v.24H246v.24h-.24v.24h-.24v.24h-.48v.24h-.24v.24h-.24v.24h-.24v.24h-.24v.24h-.24v.24h-.24v.24h-.24v.24h-.24v.24h-.24v.24h-.24v.24h-.24v.24h-.24v.24h-.24v.24h-.24v.48h-.24v.24h-.24v.24h-.24v.24h-.24v.48h-.24v.24h-.24v.24H240v.24h-.24v.48h-.24v.24h-.24v.24h-.24v-.24h-.24v-.24h-.24v-.24h-.24v-.24h-.24v-.24h-.24v-.48h.24v-.48h.24v-.24h.24v-.24h.24v-.24h.24v-.48h.24v-.24h.24v-.24h.24V438h.24v-.24h.24v-.24h.24v-.24h.24v-.48h.24v-.24h.24v-.48h.24v-.24h.24v-.24h.24v-.48h.24v-.24h.24v-.24h.24v-.48h.24v-.24h.24v-.48h.24v-.24h.24v-.48h.24v-.24h.24V432h.24v-.48h.24v-1.2h.24v-.72h-.24v-.72h-2.16v.24h-.48v.24h-.72v.24h-.48v.24h-.48v.24h-.48v.24h-.48v.24h-.48v.24h-.24v.24h-.48v.24h-.24v.24h-.24v.24h-.48v.24h-.24v.24h-.24v.24h-.24v.24h-.48v.24h-.24v.24h-.24v.24h-.24v.24h-.48v.24h-.24v.24h-.24v.24H234v.24h-.24v-.24h-.24v-.24h-.24v-.24h.24v-.24h.24v-.24h.24v-.24h.24v-.24h.24v-.24h.24v-.24h.24v-.24h.24V432h.24v-.24h.24v-.24h.24v-.24h.24v-.24h.24v-.24h.24v-.24h.24v-.24h.24v-.24h.24v-.24h.24v-.24h.24v-.24h.24v-.24h.24v-.24h.24v-.24h.24v-.24h.24v-.24h.24v-.24h.24v-.24h.24v-.24h.24v-.24h.24v-.48h.24v-.24h.24V426h.24v-.24h.24v-.48h.24v-.24h.24v-.24h.24v-.48h.24v-.24h.24v-.24h.24v-.48h.24v-.72h.24v-.72h-.72v.24h-.72v.24h-.24v-.96h-.48v.24h-.48v.24H240v.24h-.24v.24h-.48v.24h-.24v.24h-.48v.24h-.24v.24h-.48v.24h-.24v.24h-.48v.24h-.48v.24h-.24v.24h-.48v.24h-.24v.24h-.48v.24h-.24v.24h-.48v.24H234v.24h-.24v.24h-.48v.24h-.48v.24h-.24v.24h-.48v-.24h.24v-.24h.24v-.24h.24v-.48h.24v-.24h.24v-.24h.24v-.24h.24v-.24h.24v-.24h.24v-.24h.24v-.48h.24v-.24h.24v-.48h.24v-.24h.24v-.24h.24v-.24h.24v-.48h.24v-.24h.24v-.48h.24v-.24h.24v-.48h.24v-.24h.24v-.48h.24v-.24h.24v-.72h-.48v-.24h.24v-.48h.24v-.48h.24v-.24h.24v-.48h.24v-.48h.24v-1.2h-1.68v.24h-.96v-.24h.24v-.24h.24v-.24h.24v-.48h.24V414h.24v-1.44h-1.44v.24h-.48v.24h-.48v.24h-.48v.24h-.24v.24h-.48v.24h-.48v.24h-.24v.24h-.48v.24h-.24v.24h-.48v.24h-.24v.24h-.24v.24h-.48v.24h-.24v.24h-.24v.24h-.48v.24h-.24v.24h-.24v.24h-.24v.24h-.48v-.24h.24v-.48h.24v-.24h.24v-.24h.24v-.24h.24v-.24h.24v-.24h.24v-.24h.24v-.24h.24v-.24h.24v-.24h.24v-.24h.24V414h.24v-.24h.24v-.24h.24v-.24h.24v-.48h.24v-.24h.24v-.24h4.32v-.24h.48v-.24h.24v-.24h.48v-.24h.24v-.24h.48v-.24h.24v-.24h.24v-.24h.24v-1.92h-.24v-.24h-.48V408h-3.12v.24h-1.44V408h-.24v-.24h-.24v-.24h-.96v-.24h-1.2v-.24h.48v-.24h.24v-.24h.24v-.24h.24v-.24h.48v-.24h.72v-.24h.48v-.24h.48v-.24h.48v-.24h.48v-.24h.48v-.24h.48v-.24h.72v-.24h.48v-.24h.48v-1.2h-.24v-.24h-.24V402h-.24v-.24h-.24v-.24h-.48v-.24h-.72v-.24h-3.6v.24h-.96v.24h-.96v.24h-.72v.24h-.96v-.24h.48v-.24h.24v-.24h.48v-.24h.48v-.24h.48v-.24h.48v-.24h.48v-.24h.24v-.24h.48v-.24h.48v-.24h.48v-.24h.48v-.24h.24v-.24h.48v-.24h.48v-.24h.48v-.24h.48v-.24h.48v-.24h.24v-.24h.72v-.24h.48v-.24h.48v-.24h.72v-.24h.48V396h.24v-.24h.24v-.24h.24v-.72h.24v-.96h.24v-.24h.48v-.24h.48v-.24h.24v-.24h.48v-.24h.24v-.24h.24v-.24h.24v-.24h.24v-.24h.24v-.48h.24v-.24h-.24v-.24h-.72v-.24h-1.2v-.96h-.24v-.24h-.24v-.24h-.24v-.24h-.48v-.24h-.48v-.24h-.72v-.24h-.72v-.24h-.72v-.24h-.96v-.24h-1.2v-.24h-1.68v-.24h-.48v-.24H234v-.24h-.48v-.24h-.72v-.24h-.48v-.24h.24v-.24h.72v-.24h.96v-.24h.72v-.24h1.2v-.24h1.2v-.24h6V384h.24v-.24h-.24v-.48h.24v-.48h.24v-.72h.24v-1.92h-.24v-.24h-.24v-.48h-.24v-.24h-.48v-.24h-.48v-.24h-.96v-.24h-.72v-.24h.24V378h.48v-.24h.48v-.24h.48v-.24h3.36v-.24h.48v-.48h.24v-.72h-.24v-.48H246v-.48h-.24v-.24h-.24v-.24h-.48v-.24h-.24v-.24h-.48v-.24h-.48v-.24h-.48v-.24h-.48v-.24h-.24v-.24h-.72v-.24h-.48v-.24h-.48V372h-.72v-.24h-.48v-.24h-.72v-.24h-.48v-.24h-.48v-.48h.24v-.48h.24v-.48h.24v-.24h.72v.24h.72v.24h.96v.24h1.2v.24h2.16v.24h2.4v-.24h3.12v.24h.48v-.96h1.2v.24h.96v.24h1.2v.24h1.92v-1.68h-.24v-.24h-.24v-.48h-.24v-.24h-.24v-.24h-.24v-.24h-.24v-.24h-.24v-.24h-.48v-.24h-.24v-.24h-.48V366h-.48v-.24h-.24v-.24h-.48v-.24h-.72v-.24h-.48v-.24h-.48v-.24h-.96v-.24h-.72v-.24h-.72v-.24h-.24v-.24h1.44v-.24h.96v-.24h.72v-.24h.48v-.24h.48v-.24h.24v-.24h.24v-.24h.24v-1.2h2.88v-.24h.48v-.24h.24v-.96h-.48v-.24h1.2v-.24h2.16v-.24h.96v-.24h.24v-.24h.24v-1.44h-.24v-.48h-.24v-.48h.24v-.48h.24v-.48h.24v.24h.96v.24h2.16v-.96h-.24v-.72h-.24v-.24h-.24v-.48h-.24v-.24h-.24v-.24h-.24v-.24h-.24v-.24h-.24v-.24h-.24v-.24h-.24v-.24h-.24v-.24h-.24v-.24h-.24v-.24h-.24v-.24h-.24v-.24h-.24v-.24h-.48v-.24h-.24v-.24h-.24v-.24h-.48v-.24H258v-.24h-.48v-.24h-.24V348h-.24v-.24h-.48v-.24h-.24v-.24h-.48v-.24h-.24v-.24h.24v-.24h.24v-.24h.96v.24h.24v.24h.48v.24h.48v.24h.24v.24h.24v.24h.24v.24h.48v.24h.24v.24h.24v.24h.48v.24h.24v.24h.24v.24h.24v.24h.24v.24h.24v.24h.24v.24h.24v.24h.48v.24h.24v.24h.24v.24h.24v.24h.24v.24h.24v.24h.24v.24h.48v-.24h.24v-.48h-.24v-.72h-.24v-.48H264v-.24h.48v.24h.72v.24h.48v.24h.72v.24h.72v.24h.48v.24h.96v.24h.48v.24h.48v.24h.24v.24h.24v.48h.24v.24h.24v.24h.24v.24h.48v.24h.96v-.72h-.24v-.96h-.24v-.48h-.24v-.48h-.24v-.48h-.24v-.72h-.24v-.48h-.24v-.72h-.24V348H270v-.48h-.24v-.48h-.24v-.96h-.24v-.48h-.24v-.48h-.24v-.72h-.24v-.48h-.24v-.48h-.24v-.48h-.24v-.48h-.24v-.24h-.24v-.48h-.24v-.24h-.24v-.48h-.24v-.48h-.24v-.24h-.24v-.24h-.24v-.24h-.24v-.24h.48v-.24h.48v-.24h.48v-.24h.24v-.24h.48v-.24h.48v-.24h.24v.48h.24v.24h.24v.24h.24v.48h.24v.48h.24v.72h.24v.24h.24v.48h.24v.48h.24v.48h.24v.24h.24v.48h.24v.48h.24v.24h.24v.48h.24v.24h.24v.48h.24v.48h.24v.24h.24v.48h.24v.24h.24v.24h.24v.48h.24v.24h.24v.24h.24v.72h.24v.48h.24v.48h.24v.24h.24v.48h.24v.48h.24v.24h.24v.24h.24v.24h.48v.24h.24v-.24h.24v-1.92h-.24v-.24h.72v-.24h.24v-.24h.48v-.24h.24v-2.4h-.24v-.24h.24v-4.32h-.24v-2.4h-.24v-1.68h-.24v-1.68h-.24v-1.44h.48v-.24h.48v1.2h.24v.96h.24v1.44h.24v1.2h.24v1.44h.24v.96h.24v.96h.24v1.2h.24v.96h.24v.96h.24v.72h.24v.48h.24v.48h.24v.24h.24v-3.6H282v-2.88h.24v.96h.24v.72h.24v.48h.24v.72h.24v.24h.48v-.48h.24v-.24h.24v-.48h.24v-.24h.24v-.24h.24v-.48h.24v-.48h.24v-.24h.24v-.24h.24v-.48h.24v-.48h.24v-.48h.24v.48h.24v2.88h.24v2.16h.24v1.44h.24v.48h.24v-2.16h.24v-5.76h.24v1.68h.24v.96h.24v.96h.24v.72h.24v.96h.24v.72h.24v.24h.24v.24h.72v-.24h.24v-.24h.24v-.24h.24v-.48h.24v-.48h.24v-.72h.24v-.72h.24v-.72h.24v-.96h.24v-1.92h.24v-2.16h-.24v-2.4h-.24v-1.68h-.24v-1.2h.96v.96h.24v1.2h.24v1.2h.24v1.2h.24v1.92h.24v1.68h.24v1.44h.24v1.68h.24v1.92h.24v1.68h.24v1.2h.24v.96h.24v.96h.24v.24h.72v-.72h.24v-.96h.24v-1.2h.24v-1.44h.24v-2.88h.24v-.96h.24v-.24h.24v-.96h.24v-.72h.24v-.96h.24v-.96h.24v-.48h.24V336h.24v-5.28m12.96 3.36h.24v.96h-.24v-.96m11.52.72h.24v.24h-.24v-.24m.24.24h.24v.24h-.24v-.24m-12 .96h.24v.96h-.24V336m11.28 2.16h.24v.48h-.24v-.48m14.4 10.32h.24v.24h-.24v-.24m-4.56.48h.24v.48h-.24v-.48m4.32 0h.24v.48h-.24v-.48m-.24.48h.24v.48h-.24v-.48m4.8 0h.24v.24h.48v.24h.24v.24h.48v.96h-.24v.72h-.24v.48h-.24v.72h-.24v.48h-.24v.48h-.24v.48h-.24v.72h-.24v.48h-.24v-1.92h.24v-1.68h.24v-1.92h.24v-.72m-.96 6.24h.24v.72H342v-.72m9.6.72h.24v.24h-.24v-.24m-.24.24h.24v.48h-.24v-.48m-10.32 1.68h.24v.24h-.24v-.24m-.24.48h.24v.24h-.24v-.24m8.4 9.36h.24v.24h-.24v-.24m-98.88 1.2h.24v.24h-.24v-.24m106.56 16.32h.24v.24h-.24v-.24m-.24.24h.24v.24h-.24v-.24m-128.16 31.44h.24v.24h-.24v-.24m3.36 9.6h.24v.24h-.24v-.24m126 8.88h.24v.24h.48v.24h.24v.24h.24v.24h-.24v.24h-.24v.24h-.48v-.96h-.24v-.48m-3.12.96h.24v.24h-.24v-.24m-95.52 8.88h.24v.24h-.24v-.24m77.28 3.6h.24v.24h-.24v-.24m.96 1.2h.24v.24h-.24v-.24m.24.24h.24v.24h-.24v-.24m.24.24h.24v.24h-.24v-.24m.24.24h.24v.24h-.24v-.24m.24.24h.24v.48h-.24v-.48m.24.48h.24v.24h-.24v-.24m.24.24h.24v.24h-.24v-.24m.24.24h.24v.24h.24v.24h.24v.24h.24v.24h.24v.24h.24v.24h.48v.24h-.24v.24h-.48v-.24h-.24v-.48h-.24v-.24h-.24v-.24h-.24v-.24h-.24v-.48m-8.88 1.68h.24v.24h-.24v-.24M267.12 456h.24v.72h-.24V456m3.36 2.64h.24v.48h-.24v-.48m55.44 2.64h.24v.24h-.24v-.24"/>
</svg>
