<svg xmlns="http://www.w3.org/2000/svg" viewBox="37.37759999999989 146.33759999999975 520.4448000000067 520.4448000000068">
  <path fill="currentColor" fill-rule="evenodd" d="M286.8 151.44v.24H282v.24h-3.6v.24h-2.88v.24h-2.64v.24h-2.4v.24h-2.16v.24h-2.16v.24h-1.92v.24h-1.68v.24h-1.68v.24h-1.68v.24h-1.68v.24h-1.44v.24h-1.44v.24h-1.44v.24h-1.44v.24h-1.2v.24h-1.2v.24h-1.2v.24h-1.2v.24h-1.2v.24h-1.2v.24h-1.2v.24h-.96v.24h-1.2v.24h-.96v.24h-1.2v.24h-.96v.24h-.96v.24h-.96v.24h-.96v.24h-.96v.24h-.96v.24h-.96v.24h-.72v.24h-.96v.24h-.96v.24h-.72v.24H228v.24h-.96v.24h-.72v.24h-.72v.24h-.96v.24h-.72v.24h-.72v.24h-.96v.24h-.72v.24h-.72v.24h-.72v.24h-.72v.24h-.72v.24h-.72v.24h-.96v.24h-.72v.24h-.72v.24h-.72v.24h-.48v.24h-.72v.24h-.72v.24h-.72v.24h-.72v.24h-.72v.24h-.48v.24h-.72v.24h-.72v.24h-.48v.24h-.72v.24h-.72v.24h-.48v.24h-.72v.24h-.72v.24h-.48v.24h-.72v.24h-.48v.24h-.72v.24h-.48v.24h-.72v.24h-.48v.24h-.48v.24h-.72v.24h-.48v.24h-.72v.24H198v.24h-.48v.24h-.72v.24h-.48v.24h-.48v.24h-.72v.24h-.48v.24h-.48v.24h-.48v.24h-.72v.24h-.48v.24H192v.24h-.48v.24h-.48v.24h-.72v.24h-.48v.24h-.48v.24h-.48v.24h-.48v.24h-.48v.24h-.48v.24h-.72v.24h-.48v.24h-.48v.24h-.48v.24h-.48v.24h-.48v.24h-.48v.24h-.48v.24h-.48v.24h-.48v.24h-.48v.24h-.48v.24h-.48v.24h-.48v.24h-.24v.24h-.48v.24h-.48v.24h-.48v.24h-.48v.24h-.48v.24h-.48v.24h-.48v.24h-.48v.24h-.48v.24h-.24v.24h-.48v.24h-.48v.24h-.48v.24H174v.24h-.48v.24h-.48v.24h-.48v.24h-.48v.24h-.24v.24h-.48v.24h-.48v.24h-.48v.24h-.24v.24h-.48v.24h-.48v.24h-.48v.24h-.24v.24H168v.24h-.48v.24h-.24v.24h-.48v.24h-.48v.24h-.24v.24h-.48v.24h-.48v.24h-.24v.24h-.48v.24h-.48v.24h-.24v.24h-.48v.24h-.24v.24h-.48v.24H162v.24h-.24v.24h-.48v.24h-.24v.24h-.48v.24h-.48v.24h-.24v.24h-.48v.24h-.24v.24h-.48v.24h-.24v.24h-.48v.24h-.24v.24h-.48v.24h-.24v.24h-.48v.24h-.24v.24h-.48v.24h-.24v.24h-.48v.24h-.24v.24h-.48v.24h-.24v.24h-.48v.24h-.24v.24h-.48v.24h-.24v.24h-.24v.24h-.48v.24h-.24v.24h-.48v.24h-.24v.24h-.48v.24h-.24v.24h-.48v.24h-.24v.24h-.24v.24h-.48v.24h-.24v.24h-.24v.24h-.48v.24h-.24v.24h-.48v.24h-.24v.24h-.24v.24h-.48v.24h-.24v.24h-.24v.24h-.48v.24h-.24v.24h-.24v.24h-.48v.24H144v.24h-.24v.24h-.48v.24h-.24v.24h-.24v.24h-.48v.24h-.24v.24h-.24v.24h-.48v.24h-.24v.24h-.24v.24h-.24v.24h-.48v.24h-.24v.24h-.24v.24h-.48v.24h-.24v.24h-.24v.24h-.24v.24h-.24v.24h-.48v.24h-.24v.24h-.24v.24h-.24v.24h-.48v.24h-.24v.24h-.24v.24h-.24v.24h-.48v.24h-.24v.24h-.24v.24h-.24v.24h-.24v.24h-.48v.24h-.24v.24h-.24v.24h-.24v.24h-.24v.24h-.48v.24h-.24v.24H132v.24h-.24v.24h-.24v.24h-.24v.24h-.48v.24h-.24v.24h-.24v.24h-.24v.24h-.24v.24h-.24v.24h-.24v.24h-.48v.24h-.24v.24h-.24v.24h-.24v.24h-.24v.24h-.24v.24h-.24v.24h-.24v.24h-.48v.24h-.24v.24h-.24v.24H126v.24h-.24v.24h-.24v.24h-.24v.24h-.24v.24h-.24v.24h-.24v.24h-.48v.24h-.24v.24h-.24v.24h-.24v.24h-.24v.24h-.24v.24h-.24v.24h-.24v.24h-.24v.24h-.24v.24h-.24v.24h-.24v.24h-.24v.24h-.24v.24h-.24v.24h-.24v.24h-.24v.24H120v.24h-.24v.24h-.24v.24h-.48v.24h-.24v.24h-.24v.24h-.24v.24h-.24v.24h-.24v.24h-.24v.24h-.24v.24h-.24v.24h-.24v.24h-.24v.24h-.24v.24h-.24v.24h-.24v.24h-.24v.24h-.24v.24h-.24v.24h-.24v.48h-.24v.24h-.24v.24h-.24v.24H114v.24h-.24v.24h-.24v.24h-.24v.24h-.24v.24h-.24v.24h-.24v.24h-.24v.24h-.24v.24h-.24v.24h-.24v.24h-.24v.24h-.24v.24h-.24v.24h-.24v.24h-.24v.24h-.24v.48h-.24v.24h-.24v.24h-.24v.24h-.24v.24h-.24v.24h-.24v.24h-.24v.24h-.24v.24H108v.24h-.24v.48h-.24v.24h-.24v.24h-.24v.24h-.24v.24h-.24v.24h-.24v.24h-.24v.24h-.24v.48h-.24v.24h-.24v.24h-.24v.24h-.24v.24h-.24v.24h-.24v.24h-.24v.48h-.24v.24h-.24v.24h-.24v.24h-.24v.24h-.24v.24h-.24v.48h-.24v.24h-.24v.24H102v.24h-.24v.24h-.24v.48h-.24v.24h-.24v.24h-.24v.24h-.24v.24h-.24v.48h-.24v.24h-.24v.24h-.24v.24h-.24v.48h-.24v.24h-.24v.24h-.24v.24h-.24v.48h-.24v.24h-.24v.24h-.24v.24h-.24v.24h-.24v.48h-.24v.24h-.24v.24h-.24v.48h-.24v.24H96v.24h-.24v.24h-.24v.48h-.24v.24h-.24v.24h-.24v.48h-.24v.24h-.24v.24h-.24v.48h-.24v.24h-.24v.24h-.24v.48h-.24v.24h-.24v.24h-.24v.48h-.24v.24h-.24v.24h-.24v.48h-.24v.24h-.24v.24h-.24v.48h-.24v.24h-.24v.48h-.24v.24h-.24v.24H90v.48h-.24v.24h-.24v.24h-.24v.48h-.24v.24h-.24v.48h-.24v.24h-.24v.48h-.24v.24h-.24v.48h-.24v.24h-.24v.24h-.24v.48h-.24v.24h-.24v.48h-.24v.24h-.24v.48h-.24v.24h-.24v.48h-.24v.24h-.24v.48h-.24v.24h-.24v.48h-.24v.24h-.24v.48H84v.24h-.24v.48h-.24v.24h-.24v.48h-.24v.24h-.24v.48h-.24v.24h-.24v.48h-.24v.48h-.24v.24h-.24v.48h-.24v.24h-.24v.48h-.24v.48h-.24v.24h-.24v.48h-.24v.24h-.24v.48h-.24v.48h-.24v.24h-.24v.48h-.24v.48h-.24v.24h-.24v.48h-.24v.48H78v.24h-.24v.48h-.24v.48h-.24v.24h-.24v.48h-.24v.48h-.24v.48h-.24v.24h-.24v.48h-.24v.48h-.24v.48h-.24v.24h-.24v.48h-.24v.48h-.24v.48h-.24v.48h-.24v.24h-.24v.48h-.24v.48h-.24v.48h-.24v.24h-.24v.48h-.24v.48h-.24v.48h-.24v.48H72v.48h-.24v.48h-.24v.48h-.24v.48h-.24v.48h-.24v.24h-.24v.48h-.24v.48h-.24v.48h-.24v.48h-.24v.48h-.24v.48h-.24v.48h-.24v.48h-.24v.48h-.24v.48h-.24v.48h-.24v.48h-.24v.48h-.24v.72h-.24v.48h-.24v.48h-.24v.48h-.24v.48h-.24v.48H66v.48h-.24v.72h-.24v.48h-.24v.48h-.24v.48h-.24v.48h-.24v.72h-.24v.48h-.24v.48h-.24v.48h-.24v.72h-.24v.48h-.24v.48h-.24v.72h-.24v.48h-.24v.48h-.24v.72h-.24v.48h-.24v.72h-.24v.48h-.24v.48h-.24v.72h-.24v.48h-.24v.72h-.24v.48H60v.72h-.24v.48h-.24v.72h-.24v.72h-.24v.48h-.24v.72h-.24v.72h-.24v.48h-.24v.72h-.24v.72h-.24v.48h-.24v.72h-.24v.72h-.24v.72h-.24v.72h-.24v.72h-.24v.48h-.24v.72h-.24v.72h-.24v.72h-.24v.96h-.24v.72h-.24v.72h-.24v.72h-.24v.72H54v.72h-.24v.72h-.24v.96h-.24v.72h-.24v.72h-.24v.96h-.24v.72h-.24v.72h-.24v.96h-.24v.96h-.24v.72h-.24v.96h-.24v.96h-.24v.72h-.24v.96h-.24v.96h-.24v.96h-.24v.96h-.24v.96h-.24v.96h-.24v.96h-.24v1.2h-.24v.96h-.24v1.2h-.24v.96H48v1.2h-.24v1.2h-.24v1.2h-.24v1.2h-.24v1.2h-.24v1.2h-.24v1.2h-.24v1.44h-.24v1.44h-.24v1.44h-.24v1.44h-.24v1.68h-.24v1.68h-.24v1.68h-.24v1.68h-.24v1.92h-.24v2.16h-.24v2.16h-.24v2.4h-.24v2.64h-.24v2.88h-.24v3.6h-.24v4.8h-.24v21.6h.24v4.8h.24v3.6h.24v2.88h.24v2.64h.24v2.4h.24v2.16h.24V438h.24v1.92h.24v1.68h.24v1.68h.24v1.68h.24v1.68h.24v1.44h.24v1.44h.24v1.44h.24v1.44h.24v1.2h.24v1.2h.24v1.2h.24v1.2h.24v1.2h.24v1.2H48v1.2h.24v.96h.24v1.2h.24v.96h.24v1.2h.24v.96h.24v.96h.24v.96h.24v.96h.24v.96h.24v.96h.24v.96h.24v.72h.24v.96h.24v.96h.24v.72h.24v.96h.24v.96h.24v.72h.24v.72h.24v.96h.24v.72h.24v.72h.24v.96h.24v.72H54v.72h.24v.72h.24v.72h.24v.72h.24v.72h.24v.96h.24v.72h.24v.72h.24v.72h.24v.48h.24v.72h.24v.72h.24v.72h.24v.72h.24v.72h.24v.48h.24v.72h.24v.72h.24v.48h.24v.72h.24v.72h.24v.48h.24v.72h.24v.72h.24v.48H60v.72h.24v.48h.24v.72h.24v.48h.24v.72h.24v.48h.24v.48h.24v.72h.24v.48h.24v.72h.24v.48h.24v.48h.24v.72h.24v.48h.24v.48h.24v.72h.24v.48h.24v.48h.24v.48h.24v.72h.24v.48h.24v.48h.24v.48h.24v.48h.24v.72H66v.48h.24v.48h.24v.48h.24v.48h.24v.48h.24v.48h.24v.72h.24v.48h.24v.48h.24v.48h.24v.48h.24v.48h.24v.48h.24v.48h.24v.48h.24v.48h.24v.48h.24v.48h.24v.48h.24v.48h.24v.24h.24v.48h.24v.48h.24v.48h.24v.48H72v.48h.24v.48h.24v.48h.24v.48h.24v.48h.24v.24h.24v.48h.24v.48h.24v.48h.24v.24h.24v.48h.24v.48h.24v.48h.24v.48h.24v.24h.24v.48h.24v.48h.24v.48h.24v.24h.24v.48h.24v.48h.24v.48h.24v.24h.24v.48h.24v.48H78v.24h.24v.48h.24v.48h.24v.24h.24v.48h.24v.48h.24v.24h.24v.48h.24v.48h.24v.24h.24v.48h.24v.24h.24v.48h.24v.48h.24v.24h.24v.48h.24v.24h.24v.48h.24v.48h.24v.24h.24v.48h.24v.24h.24v.48h.24v.24h.24v.48H84v.24h.24v.48h.24v.24h.24v.48h.24v.24h.24v.48h.24v.24h.24v.48h.24v.24h.24v.48h.24v.24h.24v.48h.24v.24h.24v.48h.24v.24h.24v.24h.24v.48h.24v.24h.24v.48h.24v.24h.24v.48h.24v.24h.24v.48h.24v.24h.24v.24H90v.48h.24v.24h.24v.24h.24v.48h.24v.24h.24v.48h.24v.24h.24v.24h.24v.48h.24v.24h.24v.24h.24v.48h.24v.24h.24v.24h.24v.48h.24v.24h.24v.24h.24v.48h.24v.24h.24v.24h.24v.48h.24v.24h.24v.24h.24v.48h.24v.24H96v.24h.24v.24h.24v.48h.24v.24h.24v.24h.24v.48h.24v.24h.24v.24h.24v.24h.24v.24h.24v.48h.24v.24h.24v.24h.24v.24h.24v.48h.24v.24h.24v.24h.24v.24h.24v.48h.24v.24h.24v.24h.24v.24h.24v.24h.24v.48h.24v.24h.24v.24h.24v.24h.24v.24h.24v.48h.24v.24h.24v.24h.24v.24h.24v.24h.24v.24h.24v.48h.24v.24h.24v.24h.24v.24h.24v.24h.24v.24h.24v.24h.24v.48h.24v.24h.24v.24h.24v.24h.24v.24h.24v.24h.24v.24h.24v.24h.24v.48h.24v.24h.24v.24h.24v.24h.24v.24h.24v.24h.24v.24h.24v.24h.24v.24h.24v.24h.24v.48h.24v.24h.24v.24h.24v.24h.24v.24h.24v.24h.24v.24h.24v.24h.24v.24h.24v.24h.24v.24h.24v.24h.24v.24h.24v.24h.24v.24h.24v.24h.24v.24h.24v.24h.24v.24h.24v.24h.24v.48h.24v.24h.24v.24h.24v.24h.24v.24h.24v.24h.24v.24h.24v.24h.24v.24h.24v.24h.24v.24h.24v.24h.24v.24h.24v.24h.24v.24h.24v.24h.24v.24h.24v.24h.48v.24h.24v.24h.24v.24h.24v.24h.24v.24h.24v.24h.24v.24h.24v.24h.24v.24h.24v.24h.24v.24h.24v.24h.24v.24h.24v.24h.24v.24h.24v.24h.24v.24h.24v.24h.24v.24h.24v.24h.48v.24h.24v.24h.24v.24h.24v.24h.24v.24h.24v.24h.24v.24h.24v.24h.24v.24h.24v.24h.48v.24h.24v.24h.24v.24h.24v.24h.24v.24h.24v.24h.24v.24h.24v.24h.48v.24h.24v.24h.24v.24h.24v.24h.24v.24h.24v.24h.24v.24h.48v.24h.24v.24h.24v.24h.24v.24h.24v.24h.24v.24h.48v.24h.24v.24h.24v.24h.24v.24h.24v.24h.48v.24h.24v.24h.24v.24h.24v.24h.24v.24h.48v.24h.24v.24h.24v.24h.24v.24h.48v.24h.24v.24h.24v.24h.24v.24h.48v.24h.24v.24h.24v.24h.24v.24h.24v.24h.48v.24h.24v.24h.24v.24h.48v.24h.24v.24h.24v.24h.24v.24h.48v.24h.24v.24h.24v.24h.48v.24h.24v.24h.24v.24h.48v.24h.24v.24h.24v.24h.48v.24h.24v.24h.24v.24h.48v.24h.24v.24h.24v.24h.48v.24h.24v.24h.24v.24h.48v.24h.24v.24h.48v.24h.24v.24h.24v.24h.48v.24h.24v.24h.24v.24h.48v.24h.24v.24h.48v.24h.24v.24h.48v.24h.24v.24h.48v.24h.24v.24h.24v.24h.48v.24h.24v.24h.48v.24h.24v.24h.48v.24h.24v.24h.48v.24h.24v.24h.48v.24h.24v.24h.48v.24h.24v.24h.48v.24h.24v.24h.48v.24h.24v.24h.48v.24h.24v.24h.48v.24h.24v.24h.48v.24h.48v.24h.24v.24h.48v.24h.24v.24h.48v.24h.48v.24h.24v.24h.48v.24h.24v.24h.48v.24h.48v.24h.24v.24h.48v.24h.48v.24h.24v.24h.48v.24h.48v.24h.24v.24h.48v.24h.48v.24h.24v.24h.48v.24h.48v.24h.48v.24h.24v.24h.48v.24h.48v.24h.48v.24h.24v.24h.48v.24h.48v.24h.48v.24h.48v.24h.24v.24h.48v.24h.48v.24h.48v.24h.24v.24h.48v.24h.48v.24h.48v.24h.48v.24h.48v.24h.48v.24h.48v.24h.48v.24h.48v.24h.24v.24h.48v.24h.48v.24h.48v.24h.48v.24h.48v.24h.48v.24h.48v.24h.48v.24h.48v.24h.48v.24h.48v.24h.48v.24h.48v.24h.72v.24h.48v.24h.48v.24h.48v.24h.48v.24h.48v.24h.48v.24h.72v.24h.48v.24h.48v.24h.48v.24h.48v.24h.72v.24h.48v.24h.48v.24h.48v.24h.72v.24h.48v.24h.48v.24h.72v.24h.48v.24h.48v.24h.72v.24h.48v.24h.72v.24h.48v.24h.48v.24h.72v.24h.48v.24h.72v.24h.48v.24h.72v.24h.48v.24h.72v.24h.72v.24h.48v.24h.72v.24h.72v.24h.48v.24h.72v.24h.72v.24h.48v.24h.72v.24h.72v.24h.72v.24h.72v.24h.72v.24h.48v.24h.72v.24h.72v.24h.72v.24h.96v.24h.72v.24h.72v.24h.72v.24h.72v.24h.72v.24h.72v.24h.96v.24h.72v.24h.72v.24h.96v.24h.72v.24h.72v.24h.96v.24h.96v.24h.72v.24h.96v.24h.96v.24h.72v.24h.96v.24h.96v.24h.96v.24h.96v.24h.96v.24h.96v.24h.96v.24h1.2v.24h.96v.24h1.2v.24h.96v.24h1.2v.24h1.2v.24h1.2v.24h1.2v.24h1.2v.24h1.2v.24h1.2v.24h1.44v.24h1.44v.24h1.44v.24h1.44v.24h1.68v.24h1.68v.24h1.68v.24h1.68v.24h1.92v.24h2.16v.24h2.16v.24h2.4v.24h2.64v.24h2.88v.24h3.6v.24h4.8v.24h21.6v-.24h4.8v-.24h3.6v-.24h2.88v-.24h2.64v-.24h2.4v-.24h2.16V660h2.16v-.24h1.92v-.24h1.68v-.24h1.68v-.24H336v-.24h1.68v-.24h1.44v-.24h1.44v-.24H342v-.24h1.44v-.24h1.2v-.24h1.2v-.24h1.2v-.24h1.2v-.24h1.2v-.24h1.2v-.24h1.2v-.24h.96v-.24h1.2v-.24h.96v-.24h1.2v-.24h.96v-.24h.96v-.24h.96v-.24h.96V654h.96v-.24h.96v-.24h.96v-.24h.72v-.24h.96v-.24h.96v-.24h.72v-.24h.96v-.24h.96v-.24h.72v-.24h.72v-.24h.96v-.24h.72v-.24h.72v-.24h.96v-.24h.72v-.24h.72v-.24h.72v-.24h.72v-.24h.72v-.24h.72v-.24h.96v-.24h.72v-.24h.72v-.24h.72V648h.48v-.24h.72v-.24h.72v-.24h.72v-.24h.72v-.24h.72v-.24h.48v-.24h.72v-.24h.72v-.24h.48v-.24h.72v-.24h.72v-.24h.48v-.24h.72v-.24h.72v-.24h.48v-.24h.72v-.24h.48v-.24h.72v-.24h.48v-.24h.72v-.24h.48v-.24h.48v-.24h.72v-.24h.48V642h.72v-.24h.48v-.24h.48v-.24h.72v-.24h.48v-.24h.48v-.24h.72v-.24h.48v-.24h.48v-.24h.48v-.24h.72v-.24h.48v-.24h.48v-.24h.48v-.24h.48v-.24h.72v-.24h.48v-.24h.48v-.24h.48v-.24h.48v-.24h.48v-.24h.48v-.24h.72v-.24h.48v-.24h.48V636h.48v-.24h.48v-.24h.48v-.24h.48v-.24h.48v-.24h.48v-.24h.48v-.24h.48v-.24h.48v-.24h.48v-.24h.48v-.24h.24v-.24h.48v-.24h.48v-.24h.48v-.24h.48v-.24h.48v-.24h.48v-.24h.48v-.24h.48v-.24h.24v-.24h.48v-.24h.48v-.24h.48v-.24h.48V630h.24v-.24h.48v-.24h.48v-.24h.48v-.24h.48v-.24h.24v-.24h.48v-.24h.48v-.24h.48v-.24h.24v-.24h.48v-.24h.48v-.24h.48v-.24h.24v-.24h.48v-.24h.48v-.24h.24v-.24h.48v-.24h.48v-.24h.24v-.24h.48v-.24h.48v-.24h.24v-.24h.48v-.24h.48V624h.24v-.24h.48v-.24h.24v-.24h.48v-.24h.48v-.24h.24v-.24h.48v-.24h.24v-.24h.48v-.24h.48v-.24h.24v-.24h.48v-.24h.24v-.24h.48v-.24h.24v-.24h.48v-.24h.24v-.24h.48v-.24h.24v-.24h.48v-.24h.24v-.24h.48v-.24h.24v-.24h.48v-.24h.24V618h.48v-.24h.24v-.24h.48v-.24h.24v-.24h.48v-.24h.24v-.24h.24v-.24h.48v-.24h.24v-.24h.48v-.24h.24v-.24h.48v-.24h.24v-.24h.48v-.24h.24v-.24h.24v-.24h.48v-.24h.24v-.24h.24v-.24h.48v-.24h.24v-.24h.48v-.24h.24v-.24h.24v-.24h.48V612h.24v-.24h.24v-.24h.48v-.24h.24v-.24h.24v-.24h.48v-.24h.24v-.24h.24v-.24h.48v-.24h.24v-.24h.24v-.24h.48v-.24h.24v-.24h.24v-.24h.48v-.24h.24v-.24h.24v-.24h.24v-.24h.48v-.24h.24v-.24h.24v-.24h.48v-.24h.24v-.24h.24v-.24h.24V606h.24v-.24h.48v-.24h.24v-.24h.24v-.24h.24v-.24h.48v-.24h.24v-.24h.24v-.24h.24v-.24h.48v-.24h.24v-.24h.24v-.24h.24v-.24h.24v-.24h.48v-.24h.24v-.24h.24v-.24h.24v-.24h.24v-.24h.48v-.24h.24v-.24h.24v-.24h.24v-.24h.24v-.24h.24V600h.48v-.24h.24v-.24h.24v-.24h.24v-.24h.24v-.24h.24v-.24h.24v-.24h.48v-.24h.24v-.24h.24v-.24h.24v-.24h.24v-.24h.24v-.24h.24v-.24h.24v-.24h.48v-.24h.24v-.24h.24v-.24h.24v-.24h.24v-.24h.24v-.24h.24v-.24h.24v-.24h.24v-.24h.24V594h.48v-.24h.24v-.24h.24v-.24h.24v-.24h.24v-.24h.24v-.24h.24v-.24h.24v-.24h.24v-.24h.24v-.24h.24v-.24h.24v-.24h.24v-.24h.24v-.24h.24v-.24h.24v-.24h.24v-.24h.24v-.24h.24v-.24h.24v-.24h.48v-.24h.24v-.24h.24v-.24h.24v-.24h.24V588h.24v-.24h.24v-.24h.24v-.24h.24v-.24h.24v-.24h.24v-.24h.24v-.24h.24v-.24h.24v-.24h.24v-.24h.24v-.24h.24v-.24h.24v-.48h.24v-.24h.24v-.24h.24v-.24h.24v-.24h.24v-.24h.24v-.24h.24v-.24h.24v-.24h.24v-.24h.24v-.24h.24V582h.24v-.24h.24v-.24h.24v-.24h.24v-.24h.24v-.24h.24v-.24h.24v-.24h.24v-.24h.24v-.48h.24v-.24h.24v-.24h.24v-.24h.24v-.24h.24v-.24h.24v-.24h.24v-.24h.24v-.24h.24v-.24h.24v-.48h.24v-.24h.24v-.24h.24v-.24h.24V576h.24v-.24h.24v-.24h.24v-.24h.24v-.48h.24v-.24h.24v-.24h.24v-.24h.24v-.24h.24v-.24h.24v-.24h.24v-.48h.24v-.24h.24v-.24h.24v-.24h.24v-.24h.24v-.24h.24v-.48h.24v-.24h.24v-.24h.24v-.24h.24v-.24h.24v-.48h.24v-.24h.24v-.24h.24v-.24h.24v-.24h.24v-.48h.24v-.24h.24v-.24h.24v-.24h.24v-.48h.24v-.24h.24v-.24h.24v-.24h.24v-.48h.24v-.24h.24v-.24h.24v-.24h.24v-.24h.24v-.48h.24v-.24h.24V564h.24v-.48h.24v-.24h.24v-.24h.24v-.24h.24v-.48h.24v-.24h.24v-.24h.24v-.48h.24v-.24h.24v-.24h.24v-.48h.24v-.24h.24v-.24h.24v-.48h.24v-.24h.24v-.24h.24v-.48h.24v-.24h.24V558h.24v-.48h.24v-.24h.24v-.24h.24v-.48h.24v-.24h.24v-.48h.24v-.24h.24v-.24h.24v-.48h.24v-.24h.24v-.24h.24v-.48h.24v-.24h.24v-.48h.24v-.24h.24v-.48h.24v-.24h.24v-.48h.24v-.24h.24v-.24h.24v-.48h.24v-.24h.24v-.48h.24v-.24h.24v-.48h.24v-.24h.24v-.48h.24v-.24h.24v-.48h.24v-.24h.24v-.48h.24v-.24h.24v-.48h.24v-.24h.24v-.48h.24v-.24h.24v-.48h.24v-.24h.24v-.48h.24v-.24h.24v-.48h.24v-.48h.24v-.24h.24v-.48h.24v-.24h.24v-.48h.24v-.48h.24v-.24h.24v-.48h.24v-.24h.24v-.48h.24v-.48h.24v-.24h.24v-.48h.24v-.48h.24v-.24h.24v-.48h.24v-.48h.24v-.24h.24v-.48h.24v-.48h.24v-.24h.24v-.48h.24v-.48h.24V534h.24v-.24h.24v-.48h.24v-.48h.24v-.48h.24v-.24h.24v-.48h.24v-.48h.24v-.48h.24v-.48h.24v-.24h.24v-.48h.24v-.48h.24v-.48h.24V528h.24v-.24h.24v-.48h.24v-.48h.24v-.48h.24v-.48h.24v-.48h.24v-.48h.24v-.48h.24v-.48h.24v-.24h.24v-.48h.24v-.48h.24v-.48h.24v-.48h.24v-.48h.24v-.48h.24v-.48h.24v-.48h.24v-.48h.24v-.48h.24v-.48h.24v-.48h.24v-.48h.24v-.72h.24v-.48h.24v-.48h.24v-.48h.24v-.48h.24v-.48h.24v-.48h.24v-.72h.24v-.48h.24v-.48h.24v-.48h.24v-.48h.24v-.72h.24V510h.24v-.48h.24v-.48h.24v-.72h.24v-.48h.24v-.48h.24v-.72h.24v-.48h.24v-.48h.24v-.72h.24v-.48h.24v-.72h.24v-.48h.24v-.48h.24v-.72h.24v-.48h.24v-.72h.24v-.48h.24v-.72h.24v-.48h.24v-.72h.24v-.72h.24v-.48h.24v-.72h.24v-.72h.24v-.48h.24v-.72h.24v-.72h.24v-.48h.24v-.72h.24V492h.24v-.72h.24v-.72h.24v-.72h.24v-.48h.24v-.72h.24v-.72h.24v-.72h.24v-.96h.24v-.72h.24v-.72h.24v-.72h.24v-.72h.24v-.72h.24v-.72h.24v-.96h.24v-.72h.24v-.72h.24v-.96h.24v-.72h.24v-.72h.24v-.96h.24v-.96h.24v-.72h.24v-.96h.24v-.96h.24v-.72h.24v-.96h.24v-.96h.24v-.96h.24V468h.24v-.96h.24v-.96h.24v-.96h.24v-1.2h.24v-.96h.24v-1.2h.24v-.96h.24v-1.2h.24v-1.2h.24v-1.2h.24V456h.24v-1.2h.24v-1.2h.24v-1.2h.24v-1.44h.24v-1.44h.24v-1.44h.24v-1.44h.24v-1.68h.24v-1.68h.24v-1.68h.24v-1.68h.24V438h.24v-2.16h.24v-2.16h.24v-2.4h.24v-2.64h.24v-2.88h.24v-3.6h.24v-4.8h.24v-21.6h-.24v-4.8h-.24v-3.6H552v-2.88h-.24v-2.64h-.24v-2.4h-.24v-2.16h-.24v-2.16h-.24v-1.92h-.24v-1.68h-.24v-1.68h-.24v-1.68h-.24v-1.68h-.24v-1.44h-.24v-1.44h-.24v-1.44h-.24v-1.44h-.24v-1.2h-.24v-1.2h-.24v-1.2h-.24v-1.2h-.24v-1.2h-.24v-1.2h-.24v-1.2h-.24v-.96h-.24v-1.2h-.24v-.96h-.24V348H546v-.96h-.24v-.96h-.24v-.96h-.24v-.96h-.24v-.96h-.24v-.96h-.24v-.96h-.24v-.72h-.24v-.96h-.24v-.96h-.24v-.72h-.24v-.96h-.24V336h-.24v-.72h-.24v-.72h-.24v-.96h-.24v-.72h-.24v-.72h-.24v-.96h-.24v-.72h-.24v-.72h-.24v-.72h-.24v-.72h-.24v-.72h-.24v-.72H540v-.96h-.24v-.72h-.24v-.72h-.24v-.72h-.24v-.48h-.24v-.72h-.24v-.72h-.24v-.72h-.24v-.72h-.24v-.72h-.24v-.48h-.24v-.72h-.24v-.72h-.24v-.48h-.24v-.72h-.24v-.72h-.24v-.48h-.24v-.72h-.24v-.72h-.24v-.48h-.24v-.72h-.24v-.48h-.24v-.72h-.24v-.48h-.24v-.72H534v-.48h-.24v-.48h-.24v-.72h-.24v-.48h-.24v-.72h-.24v-.48h-.24v-.48h-.24v-.72h-.24v-.48h-.24v-.48h-.24v-.72h-.24v-.48h-.24v-.48h-.24v-.48h-.24v-.72h-.24v-.48h-.24v-.48h-.24v-.48h-.24V300h-.24v-.72h-.24v-.48h-.24v-.48h-.24v-.48h-.24v-.48h-.24v-.48H528v-.48h-.24v-.72h-.24v-.48h-.24v-.48h-.24v-.48h-.24v-.48h-.24v-.48h-.24v-.48h-.24v-.48h-.24v-.48h-.24v-.48h-.24v-.48h-.24v-.48h-.24v-.48h-.24v-.48h-.24v-.24h-.24v-.48h-.24v-.48h-.24v-.48h-.24v-.48h-.24v-.48h-.24v-.48h-.24v-.48h-.24v-.48h-.24v-.24H522v-.48h-.24v-.48h-.24v-.48h-.24v-.48h-.24v-.24h-.24v-.48h-.24V282h-.24v-.48h-.24v-.48h-.24v-.24h-.24v-.48h-.24v-.48h-.24v-.48h-.24v-.24h-.24v-.48h-.24v-.48h-.24v-.48h-.24v-.24h-.24v-.48h-.24v-.48h-.24v-.24h-.24v-.48h-.24v-.48h-.24v-.24h-.24v-.48H516v-.48h-.24v-.24h-.24v-.48h-.24v-.48h-.24v-.24h-.24v-.48h-.24v-.24h-.24v-.48h-.24v-.48h-.24v-.24h-.24v-.48h-.24V270h-.24v-.48h-.24v-.48h-.24v-.24h-.24v-.48h-.24v-.24h-.24v-.48h-.24v-.24h-.24v-.48h-.24v-.24h-.24v-.48h-.24v-.24h-.24v-.48h-.24v-.24H510v-.48h-.24v-.24h-.24V264h-.24v-.24h-.24v-.48h-.24v-.24h-.24v-.48h-.24v-.24h-.24v-.48h-.24v-.24h-.24v-.24h-.24v-.48h-.24v-.24h-.24v-.48h-.24v-.24h-.24v-.48h-.24v-.24h-.24v-.48h-.24v-.24h-.24v-.24h-.24v-.48h-.24v-.24h-.24v-.24h-.24v-.48h-.24v-.24H504v-.48h-.24v-.24h-.24v-.24h-.24v-.48h-.24v-.24h-.24v-.24h-.24v-.48h-.24v-.24h-.24v-.24h-.24v-.48h-.24v-.24h-.24v-.24h-.24v-.48h-.24V252h-.24v-.24h-.24v-.48h-.24v-.24h-.24v-.24h-.24v-.48h-.24v-.24h-.24v-.24h-.24v-.24h-.24v-.48h-.24v-.24h-.24v-.24H498v-.48h-.24v-.24h-.24v-.24h-.24v-.24h-.24v-.24h-.24v-.48h-.24v-.24h-.24v-.24h-.24V246h-.24v-.48h-.24v-.24h-.24v-.24h-.24v-.24h-.24v-.48h-.24v-.24h-.24v-.24h-.24v-.24h-.24v-.24h-.24v-.48h-.24v-.24h-.24v-.24h-.24v-.24h-.24v-.24h-.24v-.48h-.24v-.24H492v-.24h-.24v-.24h-.24v-.24h-.24v-.24h-.24v-.48h-.24v-.24h-.24v-.24h-.24v-.24h-.24v-.24h-.24v-.24h-.24v-.24h-.24v-.48h-.24v-.24h-.24v-.24h-.24v-.24h-.24v-.24h-.24v-.24h-.24v-.24h-.24v-.24h-.24v-.48h-.24v-.24h-.24v-.24h-.24v-.24h-.24v-.24h-.24v-.24H486v-.24h-.24V234h-.24v-.24h-.24v-.24h-.24v-.48h-.24v-.24h-.24v-.24h-.24v-.24h-.24v-.24h-.24v-.24h-.24v-.24h-.24v-.24h-.24v-.24h-.24v-.24h-.24v-.24h-.24v-.24h-.24v-.24h-.24v-.24h-.24v-.24h-.24v-.24h-.24v-.24h-.24v-.24h-.24v-.24h-.24v-.24h-.24V228H480v-.24h-.24v-.24h-.24v-.24h-.24v-.24h-.24v-.24h-.24v-.24h-.24v-.24h-.24v-.24h-.24v-.24h-.24v-.24h-.24v-.24h-.24v-.24h-.24v-.24h-.24v-.24h-.24v-.24h-.24v-.24h-.24v-.24h-.48v-.24h-.24v-.24h-.24v-.24h-.24v-.24h-.24v-.24h-.24v-.24h-.24v-.24H474V222h-.24v-.24h-.24v-.24h-.24v-.24h-.24v-.24h-.24v-.24h-.24v-.24h-.24v-.24h-.24v-.24h-.24v-.24h-.24v-.24h-.24v-.24h-.24v-.24h-.48v-.24h-.24v-.24h-.24v-.24h-.24v-.24h-.24v-.24h-.24v-.24h-.24v-.24h-.24v-.24h-.24v-.24h-.24v-.24H468v-.24h-.24v-.24h-.24V216h-.24v-.24h-.24v-.24h-.24v-.24h-.24v-.24h-.24v-.24h-.48v-.24h-.24v-.24h-.24v-.24h-.24v-.24h-.24v-.24h-.24v-.24h-.24v-.24h-.48v-.24h-.24v-.24h-.24v-.24h-.24v-.24h-.24v-.24h-.24v-.24h-.48v-.24H462v-.24h-.24v-.24h-.24v-.24h-.24v-.24h-.48v-.24h-.24V210h-.24v-.24h-.24v-.24h-.24v-.24h-.48v-.24h-.24v-.24h-.24v-.24h-.24v-.24h-.48v-.24h-.24v-.24h-.24v-.24h-.24v-.24h-.48v-.24h-.24v-.24h-.24v-.24h-.24v-.24H456v-.24h-.48v-.24h-.24v-.24h-.24v-.24h-.48v-.24h-.24v-.24h-.24v-.24h-.24v-.24h-.48v-.24h-.24V204h-.24v-.24h-.48v-.24h-.24v-.24h-.24v-.24h-.48v-.24h-.24v-.24h-.24v-.24h-.48v-.24h-.24v-.24H450v-.24h-.48v-.24h-.24v-.24h-.24v-.24h-.48v-.24h-.24v-.24h-.24v-.24h-.48v-.24h-.24v-.24h-.48v-.24h-.24v-.24h-.24v-.24h-.48v-.24h-.24v-.24h-.24v-.24h-.48V198h-.24v-.24h-.48v-.24H444v-.24h-.48v-.24h-.24v-.24h-.48v-.24h-.24v-.24h-.24v-.24h-.48v-.24h-.24v-.24h-.48v-.24h-.24v-.24h-.48v-.24h-.24v-.24h-.48v-.24h-.24v-.24h-.48v-.24h-.24v-.24h-.48v-.24H438v-.24h-.48v-.24h-.24v-.24h-.48v-.24h-.24v-.24h-.48V192h-.24v-.24h-.48v-.24h-.24v-.24h-.48v-.24h-.48v-.24h-.24v-.24h-.48v-.24h-.24v-.24h-.48v-.24h-.48v-.24H432v-.24h-.48v-.24h-.24v-.24h-.48v-.24h-.48v-.24h-.24v-.24h-.48v-.24h-.48v-.24h-.24v-.24h-.48v-.24h-.48v-.24h-.24v-.24h-.48v-.24h-.48v-.24h-.24V186H426v-.24h-.48v-.24h-.48v-.24h-.24v-.24h-.48v-.24h-.48v-.24h-.48v-.24h-.24v-.24h-.48v-.24h-.48v-.24h-.48v-.24h-.48v-.24h-.24v-.24h-.48v-.24H420v-.24h-.48v-.24h-.24v-.24h-.48v-.24h-.48v-.24h-.48v-.24h-.48v-.24h-.48v-.24h-.48v-.24h-.48v-.24h-.48V180h-.48v-.24h-.24v-.24h-.48v-.24h-.48v-.24h-.48v-.24h-.48v-.24h-.48v-.24h-.48v-.24h-.48v-.24h-.48v-.24h-.48v-.24h-.48v-.24h-.48v-.24h-.48v-.24h-.48v-.24h-.72v-.24h-.48v-.24h-.48v-.24h-.48v-.24h-.48v-.24h-.48v-.24h-.48v-.24h-.72v-.24h-.48v-.24h-.48V174h-.48v-.24h-.48v-.24h-.72v-.24h-.48v-.24h-.48v-.24h-.48v-.24h-.72v-.24h-.48v-.24h-.48v-.24h-.72v-.24h-.48v-.24h-.48v-.24H396v-.24h-.48v-.24h-.72v-.24h-.48v-.24h-.48v-.24h-.72v-.24h-.48v-.24h-.72v-.24h-.48v-.24h-.72v-.24h-.48v-.24h-.72v-.24h-.72V168h-.48v-.24h-.72v-.24h-.72v-.24h-.48v-.24h-.72v-.24h-.72v-.24h-.48v-.24h-.72v-.24h-.72v-.24h-.72v-.24h-.72v-.24h-.72v-.24h-.48v-.24h-.72v-.24h-.72v-.24h-.72v-.24h-.96v-.24h-.72v-.24h-.72v-.24h-.72v-.24h-.72v-.24h-.72v-.24h-.72v-.24H372v-.24h-.72V162h-.72v-.24h-.96v-.24h-.72v-.24h-.72v-.24h-.96v-.24h-.96v-.24h-.72v-.24h-.96v-.24h-.96v-.24h-.72v-.24h-.96v-.24h-.96v-.24H360v-.24h-.96v-.24h-.96v-.24h-.96v-.24h-.96v-.24h-1.2v-.24H354v-.24h-1.2v-.24h-.96v-.24h-1.2v-.24h-1.2v-.24h-1.2v-.24h-1.2V156h-1.2v-.24h-1.2v-.24h-1.2v-.24H342v-.24h-1.44v-.24h-1.44v-.24h-1.44v-.24H336v-.24h-1.68v-.24h-1.68v-.24h-1.68v-.24h-1.92v-.24h-2.16v-.24h-2.16v-.24h-2.4v-.24h-2.64v-.24h-2.88v-.24h-3.6v-.24h-4.8v-.24h-21.6m14.88 133.68h.48v.24h-.24v1.44h-.24v2.16h-.24v1.2h-.24v2.4h-.24v2.16h-.24v3.36h.24v.48h.24v.24h.72v-.24h.24v-.24h.24v-.24h.24v-.48h.24v-.24h.24v-.48h.24v-.24h.24v-.48h.24v-.48h.24v-.48h.24v-.48h.24V294h.24v-.48h.24v-.48h.24v-.72h.24v-.72h.24v-.48h.24v-.72h.24v-.96h.24v-.72h.24V288h.24v-1.2h.24v-1.68h1.2v.24h.24V300h.24v1.2h.24v1.44h.24v.48h.24v.48h.48v-.24h.24v-.24h.24v-.48h.24v-.48h.24v-.48h.24v-.48h.24v-.72h.24V300h.24v-.72h.24v-.72h.24v-.72h.24v-.96h.24v-.72h.24v-.96h.24v-.72h.24v-.96h.24v-.96h.24v-1.44h.24v-.96h.24v-.96h.24v-1.92h.24v-1.2h.96v.24h.24v1.44h-.24v3.12h-.24v12.96h.24v.24h.96v-.24h.24v-.24h.24v-.24h.24v-.48h.24v-.24h.24v-.24h.24v-.48h.24v-.48h.24v-.48h.24v-.24h.24v-.48h.24v-.72h.24v-.48h.24v-.72h.24v-.48h.24v-.72h.24v-.48h.24v-.72h.24v-.72h.24v-.72h.24v-.96h.24v6.24h.24v.48h.72V300h.24v-.24h.24v-.24h.24v-.48h.24v-.72h.24v-.48h.24v-.48h.24v-.48h.24v-.96h.24v-.48h.24v-.24h.24v-.24h.24v-.48h.24v-.24h.24v-.48h.24v-.24h.24v-.48h.24v-.48h.24v-.48h.24v-.48h.24v-.48h.24v-.48h.24v-.24h.24v-.48h.24v1.44h.24v1.2h.24v.72h.72v-.24h.24v-.24h.24v-.24h.24v.96h-.24v.72h-.24v1.44H330v.96h-.24V300h.24v.24h.24v.96h.96v-.24h.24v-.24h.24v-.24h.48v-.24h.24V300h.24v-.24h.24v-.24h.24v-.24h.24v-.24h.24v-.24h.24v-.24h.24v-.24h.24v-.48h.24v-.24h.24v-.24h.24v-.48h.24v-.24h.24v-.48h.24v-.24h.24v-.24h.24v-.48h.24v-.48h.24v-.24h.24V294h.24v-.24h.24v-.48h.24v-.48h.24v-.48h.24v-.48h.24v-.24h.24v-.48h.24v-.24h.24v.48h-.24v1.2h-.24v.96h-.24v1.2h-.24v1.2h-.24v1.68h-.24v4.56h.24v.24h.72v-.24h.24v-.24h.24v-.24h.24v-.24h.24v-.48h.24v-.24h.24v-.48h.24v-.48h.24v-.48h.24v-.48h.24v-.48h.24v-.24h.24v-.48h.24v-.48h.24v-.48h.24v-.48h.24v-.48h.24v-.72h.24v-.48h.24V294h.24v-.48h.24v-.72h.24v-.48h.24v-.24h.48v.24h.48v.24h-.24v.72h-.24v.72h-.24v.96h-.24v.96h-.24v1.2h-.24v.96h-.24v1.2h-.24v1.92h-.24v3.12h.24v.48h.24v.24h.72v-.24h.48v-.24h.24v-.24h.24v-.48h.24v-.24h.24v-.48h.24v-.24h.24v-.24h.24v-.24h.24v-.48h.24v-.24h.24v-.48h.24v-.48h.24v-.24h.24V300h.24v-.24h.24v-.48h.24v-.24h.24v-.48h.24v-.48h.24v-.24h.24v.48h-.24v1.44h-.24v2.16h.24v.72h1.2v-.24h.24v-.24h.24v-.24h.24v-.24h.24v-.24h.24v-.24h.24v-.24h.24v.72h-.24v1.2h.72v-.24h.24v.48h-.24v.72h-.24v.72h-.24v.72h-.24v.72h-.24v1.2h.24v.24h.48v-.24h.48v-.24h.24v-.24h.48v-.24h.24v-.24h.24V306h.24v-.24h.24v-.24h.24v-.24h.24v-.48h.24v-.24h.24v-.24h.24v-.24h.24v-.24h.24v-.48h.24v-.24h.24v-.24h.24v-.48h.24v-.24h.24v-.48h.24v-.24h.24v-.24h.24v-.24h.24v.48h-.24v.48h-.24v.48h-.24v.48h-.24v.48h-.24v.48h-.24v.48h-.24v.48h-.24v.48h-.24v.48h-.24v.48h-.24v.48h-.24v.48h-.24v.72h-.24v.48h-.24v.48h-.24v.72h-.24v.72H354v.72h-.24v.48h-.24v.48h-.24v1.2h-.24v1.92h.24v.24h1.2v-.24h.48v-.24h.24v-.24h.48v-.24h.24v-.24h.24v-.24h.24v-.24h.24v-.24h.24v-.24h.24v-.24h.24v-.24h.24v-.24h.24V312h.24v-.24h.24v-.24h.24v-.24h.24v-.48h.24v-.24h.24v-.24h.24v-.24h.24v-.48h.24v-.24h.24v-.48h.24v-.24h.24v-.48h.24v-.24h.24v-.48h.24v-.24h.24v.48h-.24v.72h-.24v.48h-.24v.72h-.24v.48h-.24v.72h-.24v.72H360v.72h-.24v2.16h1.44v-.24h.48v-.24h.48v-.24h.24v-.24h.48v-.24h.24v-.24h.24v-.24h.48v-.24h.24v-.24h.24V312h.24v-.24h.24v-.24h.24v-.24h.24v-.24h.48v-.24h.24v-.24h.24v-.24h.24v-.48h.24v-.24h.24v-.24h.24v-.24h.24v-.24h.24v-.24h.24v-.24h.24v-.48h.24v-.24h.24v-.24h.24v-.24h.24v-.24h.24v-.24h.24v-.48h.24v.24h.24v.48h.24v.24h-.24v.48h-.24v.24h-.24v.48h-.24v.24h-.24v.24h-.24v.48h-.24v.24h-.24v.48h-.24v.48h-.24v.24h-.24v.48h-.24v.48h-.24v.48h-.24v.72h-.24v2.4h.24v.24h1.92v-.24h.48v-.24h.48v-.24h.48v-.24h.48v-.24h.24v-.24h.24v-.24h.48v-.24h.24v-.24h.24v-.24h.24v-.24h.24v-.24h.24v-.24h.24v-.24h.48V312h.24v-.24h.72v.24h.24v.24h-.24v.48h-.24v.24h-.24v.48h-.24v.48h-.24v.48h-.24v.48h-.24v.72h-.24v.24h-.24v.24h-.24v.48h-.24v.48H372v.48h-.24v.48h-.24v.48h-.24v.72h1.2v-.24h.48v-.24h.48v-.24h.48v-.24h.48V318h.48v-.24h.24v-.24h.48v-.24h.24v.48h-.24v.24h-.24v.48h-.24v.24h-.24v.48h-.24v.24h-.24v.48h-.24v.48h-.24v.24h-.24v.48h-.24v.48h-.24v.72h-.24v.72h-.24v1.68h.48v.24h1.44v-.24h.72v-.24h.48v-.24h.48V324h.24v-.24h.48v-.24h.48v-.24h.24v-.24h.24v-.24h.24v-.24h.48v-.24h.24v-.24h.24v-.24h.24v-.24h.24v-.24h.48v-.24h.24v-.24h.24v-.24h.24v-.24h.24v-.24h.24v-.24h.24v-.24h.24v-.24h.24v-.24h.24v-.24h.24v-.24h.24v-.24h.24v.48h-.24v.24h-.24v.24h-.24v.24h-.24v.24h-.24v.48h-.24v.24h-.24v.24h-.24v.48h-.24v.24h-.24v.24h-.24v.24h-.24v.48h-.24v.24h-.24v.24h-.24v.48h-.24v.24h-.24v.24h-.24v.48h-.24v.24h-.24v.48H378v.24h-.24v.48h-.24v.24h-.24v.96h-.24v.48h.24v.24h.24v.24h1.68v-.24h.48v-.24h.48v-.24h.48v-.24h.24v-.24h.24v-.24h.48v-.24h.24v-.24h.24v-.24h.48v-.24h.24v-.24h.24v-.24h.24v-.24h.48v-.24h.24v-.24h.24v-.24h.24V324h.24v-.24h.24v-.24h.48v-.24h.24v-.24h.24v-.24h.24v-.24h.24v-.24h.24v-.24h.24v-.24h.24v-.24h.24v.48h-.24v.24h-.24v.24h-.24v.48h-.24v.24h-.24v.48h-.24v.72h-.24v1.44h.24v.48h-.24v.24h-.24v.24h-.24v.24h-.24v.24h-.24v.48h-.24v.24h-.24v.24H384v.24h-.24v.72h-.24v.72h1.68v-.24h.72v-.24h.48v-.24h.72v-.24h.24v-.24h.48v-.24h.48v-.24h.48v-.24h.24v-.24h.48v-.24h.24v-.24h.48v-.24h.24v-.24h.48v.24h-.24v.24h-.24v.24h-.24v.24H390v.24h-.48v.24h-.24v.24h-.24v.24h-.24v.24h-.24v.24h-.24v.24h-.24v.24h-.24v.24h-.24v.24h-.24v.24h-.24v.24h-.24v.24h-.24v.24h-.24v.48h-.24v.24h-.24v.24h-.24v.24h-.24v.24h-.24v.24h-.24v.24h-.24v.48h-.24v.24h-.24v.24H384v.48h-.24v.24h-.24v.24h-.24v.48h-.24v.24h-.24v.48h-.24v1.68h.48v.24h.48v-.24h.72v-.24h.72v-.24h.24v-.24h.48v-.24h.48v-.24h.24v-.24h.48v-.24h.24V336h.24v.48h-.24v.24h-.24v.24h-.24v.24h-.24v.48h-.24v1.44h.24v.24h.24v.24h2.64v-.24h.96v-.24h.48v-.24h.48v.24h-.24v.24h-.24v.24h-.24v.24h-.24v.48H390v.96h.24v.24h.24v.24h.48v.24h2.16v-.24h.96v-.24h.72v-.24h.48v.24h-.24v.24h-.48v.48h-.24v.24h-.24v.24h-.48v.24h-.24v.24h-.24v.24h-.24v.48h-.24v.24h-.48v.24h-.24v.24h-.24v.24h-.24v.24h-.24v.24h-.24v.24h-.24v.24h-.24v.24h-.24v.24H390v.24h-.24v.24h-.24v.24h-.24v.24h.48v-.24h.48v-.24h.48v-.24h.24v-.24h.48v-.24h.48v-.24h.24v-.24h.48v-.24h.24v-.24h.48v-.24h.24v-.24h.24v-.24h.48v-.24h.24v-.24h.48v-.24h.24v-.24h.48v-.24h.24v-.24h.24v-.24h.48v-.24h.24v-.24h.48V342h.24v-.24h.48v-.24h.24v-.24h.48v-.24h.24v-.24h.48v-.24h.24v-.24h.48v-.24h.24v-.24h.24v.48h-.24v.24h-.24v.24h-.24v.48h-.24v.48h-.24v.48h-.24v.24h-.24v.48h-.24v.48h-.24v.24h-.24v.72h-.24v.48h-.24v.48h-.24v.72h-.24v.48h-.24v.72h-.24v1.92h.24v.48h2.16v-.24h.48v-.24h.72v-.24h.48v-.24h.48v-.24h.48v-.24h.48v.24h-.24v.24H402v.24h-.24v.24h-.24v.24h-.24v.24h-.24v.24h-.24v.48h-.24v.24h-.24v.24h-.24v.24h-.24v.24h-.24v.24h-.24v.48h-.24v.24h-.24v.24h-.24v.24h-.24v.24h-.24v.24h-.24v.48h-.24v.24h-.24v.24h-.24v.24h-.24v.24h-.24v.24h-.24v.72h.24v-.24h.24v-.24h.24v-.24h.48v-.24h.24v-.24h.24v-.24h.24V354h.48v.24h-.24v.72h.24v.24h.96v.96h2.4v-.24h.72v-.24h.72v-.24h.96v-.24h.48v-.24h.72v-.24h.72v-.24h.48v-.24h.72V354h.48v-.24h.48v-.24h.72v-.24h.48v-.24h.48v.24h-.24v.24h-.48v.24h-.24v.24h-.24v.24h-.24v.24h-.24v.24h-.48v.24H408v.24h-.24v.24h-.24v.24h-.24v.24h-.24v.24h-.48v.24h-.24v.24h-.24v.24h-.24v.24h-.24v.24h-.48v.24h-.24v.24h-.24v.24h-.48v.24h-.24v.24h-.48v.24h-.24v.24h-.24v.24h-.24v.24h-.48v.24H402v.24h-.24v.24h-.24v.24h-.24v.48h-.24v.24h-.24v.24h-.48v.24h-.24v.24h-.24v.24h-.24v.24h-.24v.24h-.24v.24h.48v-.24h.24v-.24h.48v2.16h.24v.24h.24v.24h.24v.24h.72v.24h.72v.24h.24v.24h.72v.24h1.68v.24h2.16v-.24h1.2V366h.96v-.24h.72v-.24h.72v-.24h.48v-.24h.72v-.24h.72v-.24h.72v-.24h.72v-.24h.24v.96h.24v.72h.24v1.2h.24v1.2h.24v.24h-.48v.24h-.72v.24h-.72v.24h-.72v.24h-.72v.24h-.72v.24h-.72v.24h-.72v.24h-.48v.24h-.72v.24h-.48v.24h-.48v.24h-.72v.24h-.48v.24h-.48v.24h-.48v.24h-.48v.24h-.48v.24h-.24v.24h-.48v.24h-.24v.24h-.48v.24h-.24v.24h-.24v.24h-.24v.24h-.24v.24H402v.48h-.24v.48h.24v.48h.72v.24h1.2v-.24h1.92v-.24h1.2v-.24h.96v-.24h.96v-.24h.96v-.24h.96v-.24h.96v-.24h.96v-.24h.72v-.24h.96v-.24h.96v-.24h.96v-.24h.24v1.2h.24v1.92h-.48v.24h-.48v.24h-.48v.24h-.72v.24h-.48v.24h-.48v.24h-.48v.24h-.48v.24h-.48v.24h-.48v.24h-.24v.24h-.48v.24h-.24v.24h-.48v.24h-.48v.24h-.48v.24h-.48v.24h-.48v.24h-.24v.24h-.72v.24h-.48v.24h-.72v.24h-1.2v.48h.48v-.24h.96v-.24h.96v-.24h.96v.24h-.72v.24h-.48v.24h-.48v.24h-.24v.24h-.48v.24h-.24v.24h-.24v.96h.24v.24h-.48v.24h-.72v.24h-.48v.24h-.48v.24h-.48v.24h-.48v.24h-.24v.24H402v.24h-.24v.24h-.24v.24h-.24v.96h.96v.24h6.72v-.24h2.4v-.24h1.92v-.24h1.44v-.24h1.44v-.24h1.44v-.24h.24v.24h.24v1.68h.24v.24h-.48v.24h-1.2v.24h-1.44v.24h-1.68v.24h-1.68v.24h-1.44v.24h-1.2v.24h-1.44v.24h-.96v.24h-1.2v.24h-.72v.24h-.72v.24h-.24v.48h.48v.24h.72v.24h.72v.24h1.44v.24h2.4v.24h4.56v.24h1.44v.24h3.36v.48h.24v2.64h.24v.48h-4.8v.24h-9.6v.24h-.24v.24h.48v.24h.72v.24h.72v.24h.72v.24h.72v.24h.96v.24h.72v.24h.72v.24h.96v.24h.96v.24h.96v.48h-1.44v.24h-1.2v.24h-.48v.24h-.72v.48h-.48v.96h.24v.24h.24v.24h.48v.24h.48v.24h.96v.24h1.68v.24h6.48v.96h-3.12v.24h-2.16v.24h-1.44v.24h-1.2v.24h-.96v.24h-.96v.24h-.72v.24h-.48v.24h-.48v.24h-.48v.24h-.48v.24h-.24v.72h.24v.24h.24v.24h.24v.24h.24v.24h.48v.24h.48v.24h.48v.24h.48v.24h.72v.24h-1.44v.24H408v.24h-.72v.24h-.48v.24h-.24v.96h.24v.24h.24v.24h.24v.24h.48v.24h.48v.24h.72v.24h.72v.24h1.2v.24h1.2v.24h3.84v.24h1.92v.24h-.48v.24h-.72v.24h-.48v.24h-.72v.24h-.72v.24h-.48v.24h-.72v.24h-.48v.24h-.48v.24h-.48v.24h-.72v.24h-.48v.24h-.48v.24h-.24v.24h-.24v.48h.24v.24h.24v.24h.48v.24h.24v.24h.48v.24h.72v.24h.48v.24h.96v.24h.72v.24h.72v.24h.72v.24h.72v.24h.96v.24h-3.36v-.24h-4.8v.24h-.24v.48h.24v.48h.24v.24h.24v.24h.24v.24h.48v.24h.24v.24h.24v.24h.24v.24h-1.2v.24h-.72v.24h-.72v.24h-.24v.24h-.24v.72h.24v.24h.24v.24h.48v.24h.72v.24h.48v.24h.72v.24h.72v.24h.72v.24h.72v.24h.96v.24h.96v.24h.96v.24h.96v.24h.24v1.44h-.24v1.2h-.24v.48h-.96v.24H414v.24h-2.88v-.24h-2.16v-.24h-1.44v-.24h-.96v1.92h.24v.48h.24v.24h.24v.24h.24v.24h.24v.24h.24v.24h.48v.24h.48v.24h.24v.24h.48v.24h.48v.24h.48v.24h.72v.24h.48v.24h.72v.24h.96v.24h.72v.24h.72v.48h-.24v.48h-.24v.72H414v-.24h-.48v-.24h-.48v-.24h-.48v-.24h-.72v-.24h-.48v-.24h-.72v-.24h-.48v-.24h-.72v-.24h-.72v-.24h-.96V438h-.96v-.24h-1.2v-.24h-1.92v-.24h-3.12v.24h-.96v.24h-.48v.24h-.24v.24h-.24v.96h.24v.72h.24v.24h.24v.24h.24v.24h.24v.24h.48v.24h.24v.24h.24v.24h.48v.24h.24v.24h.24v.24h.48v.24h.48v.24h.24v.24h.48v.24h.48v.24h.48v.24h.48v.24h.48v.24h.24v.24h.48v.24h.48v.24h.48v.24h.48v.24h.48v.24h.48v.24h.48v.24h.48v.24h.48v.24h.48v.24h.48v.24h.24v.24h-.24v.48h-.24v.48h-.48v-.24h-.24v-.24h-.48v-.24h-.48v-.24h-2.4v.24h-.48v.24h-.24v.24h-.24v.24h-.24v.24h-.24v.48H402v.48h.24v.24h.48v.24h.24v.24h.24v.24h.48v.24h.24v.24h.24v.24h.48v.24h.24v.48h.24v.48h.24v.48h.24v.24h.24v.48h.24v.24h.24v.24h.24v.48h-.24v.24h-.24v.48h-.24v.24h-.24v.24h-.48v-.24h-.24v-.24h-.24v-.24h-.24v-.24h-.24v-.24h-.48v-.24h-.24v-.24h-.24v-.24h-.24v-.24h-.48v-.24h-.24v-.24H402v-.24h-.24v-.24h-.24v-.24h-.24v-.24h-.24v-.24h-.48v-.24h-.24v-.24h-.24v-.24h-.24v-.24h-.24v-.24h-.24v-.24h-.48v-.24h-.48V450h-.48v-.24h-.48v-.24h-.24v.24h-.24v.96h.24v.48h.24v.72h.24v.48h.24v.72h.24v.48h.24v.48h.24v.48h.24v.48h.24v.48h.24v.24h.24v.48h.24v.24h.24v.24h.24v.48h.24v.24h-.72v-.24h-1.2v-.24h-1.2v-.24h-1.2v-.24h-1.2v-.24h-1.2V456h-2.16v.24h-.48v.24h-.24v.24h-.24v.72h-.24v1.92h.24v.48h.24v.72h.24v.48h.24v.48h.24v.24h.24v.48h.24v.24h.24v.48h.24v.24h.24v.24h.24v.24h.24v.24h.24v.24h.24v.24h.24v.24h.48v.24h.24v.24h.24v.24h.24v.24h.48v.24h.24v.48h-.24v.24h-.24v.24h-.24v.24h-.24v.24h-.24v.24h-.24v.24h-.24v.24h-.24v.24h-.24V468h-.24v-.24h-.48v-.24h-.24v-.24h-.48v-.24h-.24v-.24h-.48v-.24h-.48v-.24h-.48v-.24H390v2.64h-.24v-.24h-.24v-.24h-.24V468h-.24v-.24h-.24v-.48h-.48v-.24h-.48v.24h-.24v.48h-.24v.96h.24v.96h.24v.72h.24v.48h.24v.48h.24v.48h.24v.24h.24v.48h.24v.72h-.24v.24h-.24v.24h-.24v.24h-.24v.24h-.24v.48h-.24v.24h-.24v.24h-.48v-.24h-.24v-.48h-.24v-.24h-.24v-.48h-.24v-.24h-.24v-.48h-.24v-.24h-.24v-.24h-.24v-.48h-.24v-.24h-.24v-.48h-.24v-.24h-.24v-.48H384v-.24h-.24v-.24h-.24v-.48h-.24v-.24h-.24v-.24h-.24v-.48h-.24v-.24h-.24V468h-.24v-.48h-.24v-.24h-.24v-.24h-.48v1.44h.24v1.2h.24v1.44h.24v.72h.24v.48h-.24v-.24h-.48v-.24h-.48v-.24h-.24v-.24h-.96v-.24h-.72v.24h-.24v.24h-.24v1.44h.24v.96h.24v.96h.24v.72h.24v.72h-.24v-.24h-.48v-.24h-.48v-.24H378v-.24h-.48v-.24h-.48v-.24h-.48v-.24h-.48v-.24h-2.4v.24h-.24v.48h-.24v1.2h.24v.96h.24v.48h.24v.48h.24v.24h.24v.48h.24v.24h.24v.24h.24v.24h.24v.24h.24v.24h.24v.24h.24v.24h.24v.24h.24v.24h.48v.24h.24v.24h.48v.24h.24v.24h.48v.24h.24v.24h.48v.24h.48v.24h.48v.24h.24v.24h.48v.24h-.24v.24h-.24v.24h-.24v.24h-.24v.24h-.24v-.24h-.48v-.24h-.24v-.24h-.48v-.24H378v-.24h-.48v-.24h-.48v-.24h-.48v-.24h-.48v-.24h-.48v-.24h-.48v-.24h-.48v-.24h-.72v-.24h-.24v-.24h-.48v-.24h-.24v-.24h-.48v-.24h-.24v-.24h-.48v-.24h-.72v.72h-.96v.24h-.48v-.24h-.24v-.48h-.24v-.24h-.24V480h-.24v-.24h-.24v-.24h-.24v-.48h-.24v-.48h-.48v-.24h-.24v-.24h-.24v-.24h-.24v-.24h-.24v-.24h-.24v-.24h-.48v-.24h-.96v.48h-.24v3.6h.24v1.2h.24v.96h.24v.48h-.24v-.24h-.24v-.24h-.24v-.24h-.24v-.24h-.48v-.24h-.24v-.24h-.24v-.24h-.48v-.24h-.24v-.24h-.48v-.24h-.48v-.24h-.48v-.24H360v.48h-.24v3.84h.24v1.2h.24v.96h.24v.72h.24v.72h-.48v-.24H360v-.24h-.24v-.24h-.48v-.24h-.24v-.24h-.24v-.24h-.24v-.24h-.24v-.24h-.24v-.24h-.48v-.24h-.24V486h-.24v-.24h-.24v-.48h-.24v-.24h-.24v-.24h-.24v-.24h-.24v-.24h-.24v-.24h-.24v-.24h-.24v-.24h-.24v-.48h-.24v-.24h-.24v-.24h-.24v-.24H354v-.24h-.24v-.48h-.24v-.24h-.24v-.48h-.24v-.24h-.24v-.24h-.24v-.24h-.96v2.16h.24v.72h.24v.72h.24v.72h.24v.72h.24v.72h-.24v-.24h-.48v-.24h-.24v-.24h-.24v-.24h-.24v-.24h-.48v-.24h-.72v.24h-.48v.24h-.24v.48h-.24v.48h-.24v1.2h-.24v3.84h.24v.72h.24v.72h.24v.48h.24v.48h.24v.24h.24v.48h.24v.24h.24v.48h.24v.24h-1.2v-.24h-3.12v.48h.24v.24h.24v.72h-.24v-.24h-.24v-.48h-.24v-.24h-.24v-.24h-.24v-.24h-.24v-.24h-.24v-.24h-.24v-.24h-.24v-.24h-.24v-.24h-.24v-.24h-.72v1.2h.24v.48h.24v.72h.24v.48h.24v.72h.24v.48h.24v.72h.24v.48h.24v.48h.24v.48h.24v.72h.24v.48h.24v.48h.24v.48h.24v.48h.24v.72h.24v.48h.24v.48h.24v.48h.24v.48h.24v.48h.24v.48h-.24v.24H348v.24h-.48v.24h-.24v-.24h-.24v-.96h-.24v-.72h-.24v-.48h-.24v-.48h-.24v-.72h-.24v-.72h-.24v-.24h-.24v-.48h-.24v-.48h-.24v-.48h-.24v-.72h-.24v-.24h-.24v-.72h-.24v-.24h-.48v.96h.24v1.92h.24v2.16h.24v1.92h.24v1.68h.24v.48h-.24v.24h-.48v-1.44h-.24v-.96h-.24v-.72h-.24V504h-.24v-.72h-.24v-.48h-.24v-.48h-.24v-.48H342v-.24h-.24v-.48h-.24v-.24h-.24v-.24h-.24v-.24h-.24v-.24h-.24v-.24h-.48v-.24h-.24v-.24h-.24v-.24h-.24v-.72h-.24v-.72h-.24v-.72h-.24v-.72h-.24v-.48h-.24v-.48h-.24v-.72h-.24v-.72h-.24v-.72h-.24v-.48h-.24V492h-.24v-.72h-.24v-.72h-.24v-.72H336v-.48h-.24v-.72h-.24v-.48h-.24v-.48h-.24v-.24h-.48v1.2h.24v1.92h.24v.72h.24v1.92h.24v1.2h.24v.96h.24v1.44h.24v1.44h.24v.96h.24v.96h-.24v.96h-.24v3.36h.24v1.68h-.24v-.72H336v-.72h-.24V504h-.24v-.72h-.24v-.48h-.24v-.72h-.24v-.72h-.24v-.48h-.24v-.48h-.24v-.48h-.24v-.24h-.24v-.24h-.24v-.24h-.96v.24h-.24v.72h-.24v1.2h-.24v1.2h-.24v4.08h-.24v-.48h-.24v-.24h-.24v-.24h-.24v-.24h-.24v-.24H330v-.24h-.24v-.24h-.24v-.48h-.24V504h-.24v-.24h-.24v-.24h-.24v-.24h-.24v-.24h-.24v-.24h-.24v-.24h-.24v-.24h-.48v-.24h-.24v-.24h-1.2v1.2h.24v.96h.24v.48h.24v.72h.24v.72h.24v.72h.24v.48h.24v.48h.24v.72h.24v.24h.24v.48h.24v.48h.24v.72h.24v.24h.24v.48h.24v.48h.24v.48h.24v.48h-.72v.24h-.96v.24h-.48v-.48h-.24v-.72h-.24v-.72h-.24v-.48h-.24V510h-.24v-.48h-.24v-.72h-.24v-.72h-.24v-.72h-.24v-.72h-.24v-.48h-.24v-.72h-.24v-.48h-.24v-.72h-.24v-.72H324v-.72h-.24v-.72h-.24v-.96h-.24v-.72h-.24v-.72h-.24v-.72h-.24V498h-.24v-.96h-.24v-1.2h-.24v-.72h-.24v-.72h-.24v-.48h-.48v.24h-.24v1.68h-.24v10.32h.24v1.68h.24v1.2h.24v.96h.24v.72h.24v.96h-.24v-.72h-.24v-.48h-.24v-.96h-.24v-.72h-.24v-.96h-.24v-1.2h-.24v-.72h-.24v-.72h-.24v-.72h-.24v-.24h-.24V504h-.24v-.24h-.48v.24H318v.48h-.24v1.68h-.24v2.16h-.24v-1.2h-.24v-.96h-.24v-.96h-.24V504h-.24v-1.44h-.24v-.72h-.24v-.24h-.48v2.4h-.24v8.16h.24v2.16h-.24v-1.2h-.24v-.96h-.24v-.72h-.24v-.72h-.24v-.96h-.24v-.72h-.24v-.48h-.24v-.72h-.24v-.72h-.24v-.72h-.24v-.48h-.24v-.48h-.24v-.72H312v-.24h-.72v4.32h-.24v-.96h-.24v-.48h-.24v-.72h-.24v-.24h-.24v-.48h-.24v-.24h-.24v-.24h-1.2v.24h-.24v8.64h-.24v-.72h-.24v-.96h-.24v-.96h-.24v-1.2h-.24v-.72h-.24v-.96h-.24v-.72h-.24v-1.2H306v-.72h-.24v-.96h-.24v-.72h-.24v-1.2h-.24v-1.2h-.24v-1.44h-.24v-1.2h-.24v-1.2h-.24v-.96h-.24v-.48h-.24v-.24h-.24v.24h-.24v.72h-.24v1.92h-.24v8.64h.24v2.88h-.24v6.48h-1.68v-1.2h-.24v-.96h-.24v-1.2h-.24v-.96H300v-1.2h-.24v-.96h-.24v-.72h-.24v-.72h-.24v-.72h-.24v-.72h-.24v-.48h-.24v-.48h-.24v-.96h-.24v-.24h-.24v2.16h-.24v.48h-.24v.24h-.24v.72h-.24v1.2h-.24v6.24h.24v.96h-.24v.24h-1.68v-1.2h-.24v-1.92h-.24v-.96H294v-.96h-.24v-.96h-.24v-1.2h-.24v-.72h-.24v-.72h-.24v-.96h-.24v-.96h-.24v-1.2h-.24v-.72h-.24v-.96h-.24v-.48h-.24v-.48h-.24v-.48h-.24v-.24h-.48v.48h-.24v.48h-.24v.24h-.24v-.48h-.24v-.72h-.24v-.48h-.24v-.48h-.24v-.24h-.24v-.72H288v2.64h-.24v9.12h-.24v-1.44h-.24v-1.2h-.24v-1.2h-.24v-.96h-.24v-.48h-.24v-.48h-.24v-.48h-.24v-.24h-.24v-.24h-.48v.48h-.24v.72h-.24v.96h-.24v.96h-.24v1.2h-.24v1.44h-.24v1.44h-.24v-1.2h-.24v-1.2h-.24V510h-.24v-1.44h-.24v-7.2h-.24v.48H282v.96h-.24v1.2h-.24v.96h-.24v.96h-.24v1.2h-.24v1.2h-.24v1.44h-.24v1.44h-.24v1.2h-.96v-1.92h-.24v-1.2h-.24v-.96h-.24v-.72h-.24v-.48h-.24v-.48h-.24v-.24h-.24v-.24h-.24v-.24h-.24v.24h-.24v.72h-.24v.48h-.24v.48H276v.72h-.24v.48h-.24v.72h-.24v.72h-.24v.72h-.24v.48h-.24v.72h-.24v.96h-.24v.48h-.24v.72h-.24v.48h-.24v.96h-.24v.72h-.24v.48h-.24v.96h-.24v-6.96h.24v-3.84h-.24v-3.84h-.24v-.24h-.24v-.24h-.24v.24h-.48v.24h-.24v.24h-.24v.24h-.24v.24h-.24v.48H270v.24h-.24v.48h-.24v.48h-.24v.48h-.24v.24h-.24v.72h-.24v.72h-.24v.48h-.24v.72h-.24v.72h-.24v.96h-.24v.48h-.24v-.96h.24v-3.6h.24v-1.92h.24v-.48h-.48v.48h-.24v.48h-.24v.48h-.24v.48h-.24v-3.6h-.24v-.72h-.24v-.24h-.48v.24h-.24v.24h-.24v.48h-.24v.72h-.24v.48h-.24v.96H264v.48h-.24v.72h-.24v.96h-.24v.96h-.24v.48h-.24v-1.92h-.24v-1.2h-.24v-.72h-.24v-.24h-.24v-.24h-.48v-2.64h-.24v.48h-.24v.24h-.24v.72h-.24v.24h-.24v.48h-.24v.72h-.24v.96h-.24v.48h-.24v.72h-.24v.48h-.24v.72h-.24v.72h-.24v.72H258v.48h-.24v.72h-.24v.72h-.24v.72h-.24v.72h-.24v.72h-1.2v-.24h-.48v-.72h.24v-1.44h.24v-1.68h.24v-3.12h-.24v-.24h-.48v-2.16h.24v-1.68h-.24v-.72h-.24v-.24h-.24v.24h-.24v.24h-.24v.48h-.24v.72h-.24v.24h-.24v.24h-.24v.72h-.24v.48h-.24v.48h-.24v.48h-.24v.48H252v.72h-.24v.48h-.24v.48h-.24v.48h-.24v.48h-.24v.48h-.24v.72h-.24v.48h-.24v.72h-.24v.48h-.48v-.24h-.24v-.48h.24V510h.24v-.72h.24v-.72h.24v-.72h.24v-.96h.24v-.96h.24v-.72h.24v-.96h.24v-.96h.24v-1.44h.24v-1.2h.24v-.96h.24v-1.44h.24v-1.44h.24v-1.44h.24v-1.44h.24v-1.2h.24v-1.2h.24v-1.68h.24v-1.44h-.24v.24h-.24v.72h-.24v.48h-.24v.72h-.24v.72h-.24v.48h-.24v.72H252v.72h-.24v.48h-.24v.72h-.24v.72h-.24v.48h-.24v.72h-.24v.48h-.24v.72h-.24v.72h-.24v.72h-.24v.48h-.24v.72h-.24v.48h-.24v.72h-.24v.72h-.24v.72h-.24v.72h-.24v-1.68h-.48v.24h-.48v.48h-.24v.24h-.24v.24h-.24v.48H246v.24h-.24v.48h-.24v.24h-.24v.24h-.24v.48h-.24v.24h-.24v.48h-.24v.48h-.24v.48h-.24v.24h-.24v.48h-.24v.72h-.48v-1.2h.24v-2.16h.24v-1.44h.24v-1.92h.24v-.96h-.48v.48h-.24v.48h-.24v.72h-.24v.48h-.24v.48h-.24v.48h-.24v.72h-.24v.72h-.24v-.96h.24v-.96h.24v-.72h.24v-.72h.24v-1.2h.24v-1.2h.24V498h.24v-3.6h-.48v.24h-.24v.24h-.24v.48h-.24v.24h-.24v.48h-.24v.48h-.24v.48h-.24v.48h-.24v.24h-.24v.48h-.24v.48H240v.48h-.24v-.96h.24v-.72h.24v-.96h.24v-1.44h.24v-.72h.24V492h-.24v.24h-.24v-2.64h-.24v-.24h-.96v.24h-.48v.24h-.24v.24h-.24v.24h-.24v.24h-.24v.24h-.24v.48h-.24v.24h-.24v.24h-.24v.48h-.24v.24h-.24v.24h-.24v.24h-.24v.48h-.24v.24h-.24v.48h-.24v.24h-.24v.24h-.24v.48h-.24v.24h-.24v.48H234v.24h-.24v.48h-.24v.24h-.24v.48h-.24v.24h-.24v-.72h.24v-.72h.24v-.72h.24v-.96h.24v-1.68h.24V492h-.48v.24h-.24v.24h-.24v.48h-.24v.24h-.24v.48h-.24v.24h-.24v.48h-.24v.24h-.24v.48h-.24v.24h-.24v.48h-.24v.24h-.24v.48h-.24v.48h-.24v.24h-.24v.48h-.24v.24h-.24v.48h-.24v.48h-.24v.24h-.24v.48h-.48v-.48H228v-.24h-.24v-.24h.24V498h.24v-.48h.24v-.72h.24v-.72h.24v-.72h.24v-.48h.24v-.72h.24v-.72h.24v-.72h.24v-.96h.24v-.96h.24v-.72h.24v-.72h.24v-.96h.24v-.96h.24v-.96h-.72v.24h-.24v.24h-.24v.24h-.24v.24h-.24v.48h-.24v.24h-.24v.48h-.24v.24h-.24v.24h-.24v.24h-.24v.24h-.24v.48H228v.48h-.24v.24h-.24v.48h-.24v.24h-.24v.48h-.24v.48h-.24v.24h-.24v.48h-.24v.48h-.24v.48h-.24v.48h-.24v.48h-.24v.48h-.24v.24h-.24v.24h-.24v-.24h-.48v-.24h-.24v-.24h-.24v-.24h-.24v-.24h-.24v-.24h-.24v-.24h-.48v-.24H222v-.48h.24v-.48h.24v-.72h.24V492h.24v-.48h.24v-.48h.24v-.72h.24v-.72h.24v-.48h.24v-.48h.24v-.96h.24v-.48h.24V486h.24v-.48h-.96v.48h-.48v.24h-.24v.48h-.24v.24h-.24v.24h-.24v.48h-.24v.24h-.24v.48H222v.24h-.24v.24h-.24v.48h-.24v.48h-.24v.24h-.24v.48h-.24v.48h-.24v.24h-.24v.48h-.24v.24h-.24v-.24h-.24v-.24h-.24v-.24h-.24v-.24h-.24v-.24h-.24v-.24h-.48v-.24h-.24v-.24h.24v-.48h.24v-.72h.24v-.24h.24v-.48h.24v-.24h.24v-.48h.24v-.48h.24v-.48h.24V486h.24v-.48h.24v-.48h.24v-.48h.24v-.48h.24v-.48h.24v-.72h.24v-.72h.24v-1.2h-.72v.24h-.24v.24h-.24v.24h-.24v.24h-.24v.24h-.24v.24h-.24v.24h-.24v.24h-.24v.24h-.24v.24h-.24v.24h-.24v.24h-.24v.48h-.24v.24h-.24v.24h-.24v.24h-.24v.24h-.24v.48h-.24v.24h-.24v.24h-.24v.24H216v.48h-.24v.24h-.24v.24h-.24v.48h-.24v.24h-.24v-.24h-.24v-.24h-.48v-.24h-.24v-.24h-.24v-.24h-.48v-.24h-.24v-.24h-.24v-.24h-.24V486h-.24v-.24h-.48v-.24h-.24v-.24h-.24v-.24h-.24v-.24h.24v-.24h.24v-.24h.24v-.24h.24v-.24h.24v-.24h.24v-.24h.24v-.24h.24v-.24h.24v-.24h.24v-.24h.24v-.24h.24v-.24h.24v-.24h.24v-.24h.24v-.48h.24v-.24h.24v-.24h.24v-.24h.24v-.48h.24v-.48h.24v-.24h.24v-.48h.24v-.72h-.96v.24h-.24v.24h-.48v.24h-.24v.24h-.24v.24h-.48v.24h-.24v.24h-.24v.24h-.24v.24h-.48v.24h-.24v.24h-.48v.24h-.24v.24h-.24v.24h-.24v.24h-.24v.24h-.24v.24h-.48v.24H210v.24h-.24v.24h-.24v.24h-.24v.24h-.24v-.24h-.24v-.24h-.24v-.24h-.24v-.24h-.24v-.24h-.24v-.24h-.24v-.48h-.24v-.24h-.24v-.24h-.24v-.24h-.24V480h.24v-.24h.24v-.24h.24v-.24h.24v-.24h.24v-.24h.24v-.24h.24v-.24h.24v-.24h.24v-.24h.24v-.24h.24v-.24h.24v-.24h.24v-.24h.24v-.24h.24v-.24h.24v-.24h.24v-.24h.24v-.24h.24v-.24h.24v-.24h.24v-.24h.24v-.24h.24v-.24h.24v-.24h.24V474h.24v-.48h.24v-.24h.24v-.24h.24v-.96h-1.2v.24h-.72v.24h-.48v.24h-.48v.24h-.48v.24h-.48v.24h-.48v.24h-.24v.24h-.48v.24h-.24v.24h-.48v.24h-.24v.24h-.24v.24h-.48v.24h-.24v.24h-.24v.24h-.24v.24h-.24v.24h-.48v.24h-.24v.24h-.24v.24h-.24v.24h-.48v-.48H204v-.24h-.24v-.48h-.24v-.24h-.24v-.24h-.24v-.48h-.24v-.24h-.24v-.48h-.24v-.24h-.24V474h-.24v-.48h-.24v-.24h.24v-.24h.24v-.24h.24v-.24h.24v-.24h.24v-.24h.24v-.24h.24v-.24h.24v-.24h.24v-.24h.24v-.24h.24v-.24h.48v-.24h.24v-.24h.24v-.24h.24v-.24h.24v-.24h.24v-.24h.24v-.24h.48v-.24h.24v-.24h.24v-.24h.48V468h.24v-.24h.24v-.24h-.48v.24h-.24v.24h-.48v.24h-.24v.24h-.24v.24h-.48v.24h-.24v.24h-.24v.24h-.24v.24h-.24v.24h-.48v.24h-.24v.24H204v.24h-.24v.24h-.48v.24h-.24v.24h-.24v.24h-.24v.24h-.24v.24h-.24v.24h-.24v.24h-.48v.24h-.24v-.24h-.24v-.24h-.24v-.48h-.24v-.24h-.24v-.24h-.24v-.72h.24v-.24h.24v-.24h.24v-.24h.24v-.48h.24v-.24h.24v-.48h.24v-.24h.24V468h.24v-.24h.24v-.48h.24v-.24h.24v-.48h.24v-.48h.24v-.24h.24v-.48h.24v-.48h.24v-.48h.24v-.48h.24v-.48h.24v-.48h.24v-.48h.24V462h.24v-.24h.24v-.48h.24v-.48h.24v-.48h.24v-.24h.24v-.48h.24v-.48h.24v-.24h.24v-.24h-.72v.24h-.24v.24h-.24v-.48h.24v-.48h.24v-.24h.24v-.24h.24v-.48h.24v-.48h.24v-.48h-.96v.24h-.48v.24h-.48v.24h-.48v.24h-.48v.24h-.48v.24h-.48v.24h-.24v.24h-.48v.24h-.48v.24h-.48v.24h-.24v.24h-.48v.24h-.24v.24h-.48v.24h-.48v.24h-.24v.24h-.48v.24h-.24v.24h-.48v.24h-.24v.24H198v.24h-.24v.24h-.48v.24h-.24v.24h-.48v.24h-.24v.24h-.48v.24h-.24v-.24h-.24V462h-.24v-.48h-.24v-.72h-.24v-.48h.24v-.24h.24v-.24h.24v-.24h.24v-.24h.24v-.24h.24v-.24h.24v-.24h.48v-.24h.24v-.24h.24v-.24h.24v-.24h.24v-.24h.24v-.24h.24v-.24h.24v-.24h.48v-.24h.24v-.24h.24V456h.24v-.24h.24v-.24h.24v-.48h.24v-.24h.24v-.24h.24v-.24h.24v-.24h.24v-.24h.24v-.24h.24v-.24h.24v-.24h.24v-.24h.24v-.24h.24v-.24h.24v-.48h.24v-.24h.24v-.48h.24v-.24h.24v-.24h.24v-.48h.24V450h.24v-.72h.24v-.24H204v.24h-.48v.24h-.48v.24h-.24v.24h-.48v.24h-.24v.24h-.24v.24h-.24v.24h-.48v.24h-.24v.24h-.24v.24h-.48v.24h-.24v.24h-.24v.24h-.24v.24h-.24v.24h-.48v.24h-.24v.24h-.24v.24H198v.24h-.24v.24h-.48v.24h-.24v.24h-.24v.24h-.24v.24h-.24v.24h-.48v.24h-.24v.24h-.24v.24h-.24v.24h-.24v.24h-.24v.24h-.48v.24h-.24v.24h-.24v-.24h-.24v-.72h-.24v-.96h-.24v-.96h.48v-.24h.24v-.24h.48v-.24h.24v-.24h.48v-.24h.24v-.24h.24v-.24h.48v-.24h.24v-.24h.48v-.24h.24v-.24h.24v-.24h.48v-.24h.24v-.24h.24v-.24h.48v-.24h.24v-.24h.48V450h.24v-.24h.24v-.24h.24v-.24h.48v-.24h.24v-.24h.24v-.24h.24v-.24h.24v-.24h.24v-.24h.24v-.24h.24v-.24h.24v-.48h.24v-.24h.24v-.48h.24v-.48h.24v-.48h.24v-.48h.24v-.48h-1.2v.24h-.48v.24h-.48v.24h-.72v.24h-.48v.24h-.48v.24h-.48v.24h-.48v.24h-.72v.24h-.48v.24h-.48v.24h-.48v.24h-.48v.24h-.48v.24h-.72v.24h-.48v.24h-.48v.24h-.48v.24h-.72v.24h-.48v.24H192v.24h-.48v.24h-.24v-.24h-.24v-.72h-.24v-.72h-.24v-1.2h.72v-.24h.72v-.24h.72v-.24h.72v-.24h.72v-.24h.48v-.24h.48v-.24h.72v-.24h.48v-.24h.72v-.24h.48V444h.48v-.24h.48v-.24h.48v-.24h.48v-.24h.24v-.24h.24v-.24h.24v-.72h-.24v-.24h-.24v-.24h-1.2v-.24h-3.12v.24h-1.92v.24H192v.24h-1.44v-.24h.72v-.24h.48v-.24h.72v-.24h.48v-.24h.72v-.24h.72v-.24h.48v-.24h.72v-.24h.48v-.24h.48v-.24h.48v-.24h.72v-.24h.48v-.24h.48v-.24h.48V438h.48v-.24h.48v-.24h.24v-.24h.48v-.24h.24v-.24h.48v-.24h.24v-.24h.24v-.24h.24v-.24h.24v-.48h.24v-.96h-.24v-.24h-.48v-.24h-1.2v-.24h-.96v.24h-1.68v.24h-1.2v-.24h.24v-.24h.24v-.24h.24v-.72h-.24v-.24h-1.44v.24h-1.2v.24h-.96v.24h-.72v.24h-.72v.24h-.72v.24h-.72v-.24h.24v-.24h.48v-.24h.48v-.24h.48v-.24h.48v-.24h.48v-.24h.24V432h.48v-.24h.48v-.24h.24v-.24h.48v-.24h.48v-.24h.48v-.24h.24v-.24h.48v-.24h.24v-.24h.24v-.24h.24v-.24h.24v-.24h.24v-.24h.24v-.24h.24v-.24h.24v-.48h-1.92v.24h-1.2v.24h-.96v.24h-.72v.24h-.72v.24h-.72v-.24h.24v-.24h.24v-.24h.24v-.48h.24v-.48h-3.6v.24h-.72v-.24h.24v-.24h.24v-.24h.24v-.24h.24v-.24h.24v-.24h.24V426h.24v-.24h.24v-.24h.24v-.48h.24v-.24h.24v-.24h.24v-.48h.24v-.24h.24v-.24h.24v-.24h.24v-.24h.24v-.48h.24v-.48h.24v-.24h.24V420h-.72v-.24h-2.16v.24h-.96v.24h-.72v.24h-.72v.24h-2.64v.24h-.96v-.24h.24v-.24h.48v-.24h.24V420h.24v-.24h.24v-.24h.24v-.24h.24v-.24h.48v-.24h.24v-.24h.24v-.24h.24v-.24h.48v-.24h.24v-.24h.24v-.24h.24v-.96h.24v-.24h.48v-.24h.72v-.24h.48v-.24h.48v-.24h.48v-.24h.24v-.24h.48v-.24h.24v-.24h.24v-.96h-.24v-.24h-.24v-.24h-.72v-.24h-1.44v.24h-1.44v.24h-.96v.24h-.72v-.24h.48v-.24h.24v-.24h.48v-.24h.24v-.24h.48v-.24h.24v-.24h.48v-.24h.24v-.24h.24v-.24h.24v-.24h.24v-.24h.24v-.24h.24v-.24h.24v-.96h-2.88v.24h-.72v-1.44h-.24v-.24h-1.68v.24h-.72v.24h-.72v.24h-.72v.24h-.72v.24h-.72v.24h-.48v.24h-.72v-.24h.48v-.24h.48v-.24h.24v-.24h.48V408h.24v-.24h.24v-.24h.24v-.24h.48v-.24h.24v-.24h.48v-.24h.48v-.24h.48v-.24h.48v-.24h.48v-.24h.48v-.24h.48v-.24h.24v-.24h.48v-.24h.24v-.24h.24v-.24h.48v-.24h.24v-.72h-.24v.24h-1.2v.24h-.72v-.48h-.24v-.24h-.24v-.24h-.48v-.24h-.24v-.24h-2.64v.24h-.96v.24h-.72v.24h-.72v.24h-.48v.24h-.48v.24h-.48v.24h-.48v.24h-.72v.24h-.48v.24h-.24v-.24h-.24v-.24h-.24v-.24h.24v-.24h.24v-.24h.24v-.24h.48v-.24h.48v-.24h.24v-.24h.24v-.24h.24V402h.24v-.24h.24v-.24h.48v-.24h.24v-.24h.48v-.24h.24v-.24h.24v-.24h.48v-.24h.24v-.24h.24v-.24h.24v-.24h.24v-.24h.24v-.24h.24v-.24h.48v-.24h.24v-.24h.24v-.24h.24v-.48h.24v-.24h.24v-.24h.24v-.24h.24v-.48h.24v-.48h.24v-1.2h-.48v-.24h-.72v.24h-1.44v.24h-.96v.24h-.72v-.48h.24v-.24h.24v-.72h.24v-.48h.24v-.24h.48v-.24h.48v-.24h.48v-.24h.48v-.24h.24v-.24h.48v-.24h.24v-.24h.24v-.24h.24v-.24h.24v-.24h.24v-.24h.24V390h.24v-.48h.24v-.72h.24v-1.2h-.24v-.24h-.48v-.24h-.96v-.24h.48v-.24h.48v-.24h.24v-.24h.24v-.24h.24v-.72h-.24v-.24h-.48v-.24h.24v-.24h.24v-.24h.24V384h.24v-.24h.24v-.24h.24v-.24h.24v-.48h.24v-.24h.24v-1.2h-.24v-.24h-.24v-.24h-.48v-.24h-.96v-.24h-.96v.24H186v.24h-.96v.24h-.72v.24h-.72v.24h-.48v.24h-.72v.24h-.48v.24h-.48v.24h-.72v.24h-.48v.24h-.48v-.24h.24v-.24h.24v-.24h.48v-.24h.24v-.24h.24v-.24h.24v-.24h.48v-.24h.96v-.24h.72v-.24h.96v-.24h.72v-.24h.48v-.24h.72v-.24h.48v-.24h.48v-.24h.48v-.24h.48v-.24h.48v-.24h.48v-.24h.24V378h.24v-.24h.24v-.24h-.24v-.48h-.48v-.24h-.48v-.24h-.48v-.24h-.72v-.24h-.96v-.24h-1.2v-.24h-4.8v-.24h.72v-.24h.72v-.24h.72v-.24h.72v-.24h1.68v-.24h1.92v-.24h1.92v-.24h1.2v-.24h.96v-.24h.48v-.24h.24v-.24h.24v-.24h.24v-.72h.48v-.48h-.24v-.24h-.24v-.24H192v-.24h-.72v-.24h-.48v-.24h-.72v-.24h-.48v-.24h-.96v-.24h-1.68v-.24h-.48v-.24h-.72v-.24h-.48v-.24h-.72v-.24h-.72v-.24h-.48v-.24h-.96v-.48h2.4v.24h2.16v.24h1.68v.24h1.2v.24h1.2v.24h.96v.24h1.2v.24h1.44v-.72h-.24v-.24h-.24v-.24h-.24v-.24h-.24v-.24h-.24v-.24h-.24v-.24h-.48v-.24h-.24v-.24H192V366h-.24v-.24h-.48v-.24h-.48v-.24h-.48v-.24h.48v-.24h.72v-.24h.48v-.24h.72v-.24h.48v-.24h.24v-.24h.48v-.24h.24v-.24h.24v-.72h-9.6v.24h-2.4v.24h-1.44v.24h-.72v-1.2h.24v-.48h.72v-.24h1.2v-.24h.96v-.24h.96v-.24h.96v-.24h.72V360h.72v-.24h.48v-.24h.48v-.24h.48v-.24h.72v-.24h.24v-.24h.48v-.24h.24v-.24h.24v-.24h.24v-.24h.24v-.24h.24v-.48h.24v-.72h-.24v-.48h-.48v-.24h-.48v-.24h-1.2v-.24h-3.6v.24h-2.64v-.24h.24v-.48h.24V354h.24v-.48h2.64v-.24h2.4v-.24h1.44v-.24h1.2v-.24h.96v-.24h.72v-.24h.48v-.24h.72v-.24h.24v-.24h.24v-1.2h-.24v-.24h-.24v-.24h-.24v-.24h-.48v-.24h-.48v-.24h-.72v-.24h-2.64v-.24h-.72v.24h-3.36v.24h-.48v-.48h.24v-.72h.48v-.24h1.44v-.24h1.2v-.24h1.2v-.24h.96v-.24h.72v-.24h.96v-.24h.48v-.24h.72v-.24h.48v-.24h.48v-.24h.24v-.24h.24v-.24h.24v-.72h-.48v-.24h-.96v-.24h-5.04v.24h-1.92v-.72h.24v-.48h.24V342h.24v-.24h2.88v-.24h1.44v.24h.72v.24h.48v.24h.48v.24h.24v.24h.48v.24h.48v.24h.24v.24h.48v.24h.24v.24h.48v.24h1.2v-.24h.48v-.24h.24v-.24h.48v-.24h.24v-.24h.24v-.24h.24v-.24h.24v-.24h.24v-1.44h-.24v-.48h-.24v-.72h2.88v-.24h1.2v-.24h.72v-.24h.48v-.24h.48v-.24h.24v-.24h.24v-.24h.24v-.24h.24v-.24h.24v-.24h.24v-.48h.24v-.24h.24v-.72h.24v-2.4h.24v-.24h.24v-.96h-.24v-.24h-.24v-.24h-.24v-.24h-.24v-.24h-.24v-.24h.48v.24h.24v.24h.48v.24h.48v.24h.48v-.96h-.24v-.24h-.24v-.48h-.24V330h-.24v-.24h.48v.24h.48v.24h.24v.24h.48v.24h.48v.24h.48v.24h.24v.24h.48v.24h.48v.24h.48v.24h1.44v-2.4h-.24v-.48h-.24v-.48h-.24v-.48h-.24v-.48h-.24v-.24h-.24v-.24h-.24v-.24h-.24v-.48h-.24v-.24h-.24v-.24h-.24v-.24H210v-.24h-.24v-.24h.48v.24h.24v.24h.48v.24h.24v.24h.48v.24h.24v.24h.24v.24h.48v.24h.24v.24h.24v.24h.48v.24h.24v.24h.48v.24h.48v.24h1.44v-.24h.24v-1.44h-.24v-.72H216v-.48h-.24v-.24h-.24v-.48h-.24v-.24h-.24v-.24h-.24v-.24h-.24v-.24h-.24V324h-.24v-.24h-.24v-.24h-.24v-.24h-.24v-.24h-.24v-.24h-.24v-.24h-.24v-.24h-.24v-.24h-.48v-.24h-.24v-.24h-.24v-.24h-.24v-.24h-.24v-.24h-.48v-.24h-.24v-.24H210v-.24h-.48v-.24h-.24v-.24h-.24v-.24h-.24v-.24h.24v-.24h.48v-.24h.24v-.24h.24v-.24h.24V318h.48v.24h.48v.24h.24v.24h.24v.24h.48v.24h.24v.48h.24v.24h.24v.24h.48v.24h.24v.24h.24v.24h.24v.24h.24v.24h.24v.24h.24v.24h.24v.24h.24v.24h.24v.24h.24v.24h.24v.24h.24v.24h.24v.24h.24v.24h.24v.24h.24v.24h.24v.48h.24v.24h.24v.48h.24v.24h.24v.48h.24v.24h.24v.48h.24v.24h.24v.24h.24v-.48h-.24v-.24h-.24v-.48h-.24v-.48h-.24v-.24h-.24v-.48h-.24v-.48h-.24v-.24h-.24v-.48h-.24v-.48h-.24v-.24h-.24v-.48h-.24v-.24h-.24v-.24h-.24v-.24H216v-.24h-.24v-.24h-.24v-.24h-.24v-.24h-.24v-.24h-.24v-.24h-.48v-.24h-.24v-.24h.48v.24h.48v.24h.24v.24h.48v.24h.24v.24h.48v.24h.48v.24h.24v.24h.48v.24h.24v.24h.48v.24h.24v.24h.48v.24h.24v.24h.48v.24h.72v-.96h-.24v-.48h.24v.24h.24v.24h.24v.24h.48v.24h.24v.24h.24v.24h.48v.24h.24v.24h.24v.24h.24v.24h.24v.24h.48v.24h.24v.24h.24v.24h.48v-.48h-.48v-.24h-.24v-.24h-.24v-.24h-.48V324h-.24v-.24h-.24v-.24h-.24v-.24h-.24v-.24h-.24v-.24H222v-.24h-.24v-.24h-.24v-.24h-.24v-.24h-.24v-.24h-.24v-.24h-.24v-.24h-.24v-.24h-.24v-.24h-.24v-.24h-.24v-.72h-.24v-.48h-.24v-.48h-.24v-.24h-.24V318h-.24v-.24h-.24v-.48h-.24v-.48h-.24v-.24h-.24v-.48h-.24v-.24h-.24v-.48h-.24v-.24h-.24v-.24h-.24v-.72h.24v-.24h.48v-.24h.48v-.24h.48v.48h.24v.48h.24v.48h.24v.48h.24v.24h.24v.48h.24v.48h.24v.24h.24v.48h.24v.48h.24v.24h.24v.24h.24v.48h.24v.24h.24v.24h.24v.24h.24v.24h.24v.24h.24v.24h.24v.24h.48v.24h.24v.24h.72v.24h.48v-.24h.48v-.24h.24v-.48h.24v-3.84h-.24v-.96h-.24v-.96h-.24v-.72h-.24v-.48h-.24v-.72h-.24v-.72h-.24v-.48h-.24v-.72h-.24v-.48h-.24v-.24h.24v-.24h.48v-.24h.24v-.24h.48v-.24h.24v-.24h.24v-.24h.24v-.24h.48v.48h.24v.48h.24v.72h.24v.48h.24v.48h.24v.48h.24v.48h.24v.48h.24v.48h.24v.48h.24v.24h.24v.48h.24v.24h.24v.24h.24v.48h.24v.24h.24v.24h.24v.24h.24v.24h.24v.24h.24v.24h.48v.24h1.68v-.48h.24v-1.2h.24v-1.2h-.24v-2.16h-.24v-.96h-.24v-.96h-.24v-.72h-.24v-.48h-.24v-.72h-.24v-.48h-.24v-1.44h-.24v-1.68h-.24v-.72h.24v-.24h.24v.24h.24v.96h.24v.72h.24v.72h.24v.72h.24v.72h.24v.72h.24v.72h.24v.48h.24v.72h.24v.72h.24v.72h.24v.48h.24v.48h.24v.48h.24v.48h.24v.48h.24v.72h.24v.24h.24v.48h.24v.48h.24v.24h.24v.48h.24v.24h.24v.24h.24v.48h.24v.24h.24v.24h.48v.24h.24v.24h.72V318h.24v-.48h.24v-3.36h-.24v-1.2h-.24V312h-.24v-.96h-.24v-.96h-.24v-.72h-.24v-.72h-.24v-.72h-.24v-.72h-.24v-.96h-.24v-.48h-.24v-.72h-.24v-.72h-.24v-.72h-.24v-.72h-.24v-.72h-.24v-.96h-.24v-.72h-.24v-.24h.24V300h.24v-.24h.48v-.24h.24v.24h.24v.72h.24v.72h.24v.72h.24v.48h.24v.48h.24v.72h.24v.96h.24v.48h.24v.48h.24v.72h.24v.72h.24v.48h.24v.48h.24v.48h.24v.48h.24v.48h.24v.48h.24v.48h.24v.48h.24v.48h.24v.24h.24v.48h.24v.24h.72v-3.36h-.24v-1.92h-.24v-2.4h-.24v-1.2h-.24v-1.2h.24v.72h.24v.72h.24v.72h.24v.24h.24v.24h.48v-.72h.24v-.96h.24v.72h.24v.48h.24v.72h.24v.48h.24v.48h.24v.48h.24v.24h.72v-.48h.24v-7.2H246v-1.2h-.24v-1.44h-.24v-.48h-.24v-1.2h.24v.24h.24v.96h.24v.96h.24v.72h.24v.72h.24v.72h.24v.96h.24v.72h.24v.48h.24v.72h.24v.48h.24v.72h.24v.24h.24v.48h.72v-.24h.24v-.72h.24v-.24h.24v-.96h.24v.48h.24v.72h.24v.96h.24v.48h.24v.72h.24v.48h.24v.48h.24v.24h.24v.24h.24v.48h.24v.24h.48v.24h.72v-.48h.24v-.24h.24v-.48h.24v-1.44h.24v-1.92h.24v-1.68h-.24v-2.88h-.24v-1.92h-.24v-.72h-.24v-.96h-.24v-1.44h-.24v-.72h-.24v-1.2h.72v-.24h.24v.48h.24v1.2h.24v.96h.24v.96h.24v1.2h.24v.72h.24v.72h.24v.24h.24v.48h.48v-.24h.24v-.24h.24v-.48h.48v.48h.24v.48h.24v.96h.24v.72h.24v.72h.24v.48h.24v.24h.24v.24h.72v-.24h.24v-.48h.24V300h.24v-5.76h.24v.48h.24v.72h.24v.96h.24v.48h.24v.24h.24v-.24h.24v-.72h.24v-.96h.24v-.48h.24v-1.44h.24v-1.68h.24v-1.92h.24v-1.2h.24v.24h.24v1.2h.24v.96h.24v1.2h.24v.96h.24v1.2h.24v.48h.24v.72h.24v.96h.24v.96h.24v.72h.24v.72h.24v.48h.24v.48h.24v.48h.24v.48h.24v.24h.24v.24h1.2v-.24h.24v-.24h.24v-.48h.24v-.72h.24v-.72h.24v-.96h.24v-2.64h.48v1.92h.24v1.92h.24v1.44h.24v.48h.24v.72h.24v.48h.24v.24h.48v-.24h.24v-.24h.24v-.24h.24v-.72h.24v-.72h.24v-.96h.24v-1.2h.24v-.96h.24v-.96h.24v-1.92h.24v-2.4h.24v-4.32h.24v-.72h1.44v.24h.24v1.44h.24v1.44h.24v2.4h.24v1.44h.24v.96h.24v.72h.24v.96h.24v.48h.24v.24h.72v-.48h.24v-.48h.24v-.72h.24v-.72h.24v-1.2h.24v-1.68h.24v-.48h.24v-.48h.24v-.72h.24v-.72h.24v-.48h.24v-.48h.24v-.72h.24v-.48h.24v-.72h.24v-.48h.24v2.16h.24v3.6h.24v1.44h.24v2.4h.24v1.68h.24v1.44h.24v1.2h.24v.96h.24v.96h.24v.96h.24v.72h.24v.24h.24v.48h.48v-.24h.24v-.24h.24v-.24h.24v-.48h.24v-.72h.24v-.72h.24v-.96h.24v-.48h.24v-1.2h.24v-1.2h.24v-1.2h.24v-1.2h.24V294h.24v-2.64h.24v1.2h.24v1.2h.24v.72h.24v1.2h.24v.48h.24v.48h.24v.48h.24v.24h1.2v-.24h.24v-.24h.24v-.24h.24v-.48h.24v-.72h.24v-.72h.24v-1.2h.24v-1.2h.24v-1.2h.24v-1.44h.24v-2.4h.24v2.4h.24v2.64h.24v1.92h.24v.96h.24v.72h.24v.24h.48v-.24h.24v-.24h.24v-.48h.24v-.48h.24v-.48h.24v-.72h.24v-.48h.24v-.96h.24v-.48h.24v-.72h.24v-1.2h.24v-.96h.24v-1.2h.24v-1.68h.24v-.72m29.04 7.2h.24v.24h-.24v-.24m-90.48 4.8h.24v.48h-.24v-.48m.24.72h.24v.48h-.24v-.48m.24.96h.24v.24h-.24v-.24m.24.72h.24v.24h-.24v-.24m117.84.24h.24v.24h-.24v-.24m-.24.48h.24v.24h-.24v-.24m-.24.24h.24v.48h-.24v-.48m-117.12.24h.24v.24h-.24v-.24m110.88 0h.24v.24h-.24v-.24m-110.64.72h.24v.72h-.24v-.72M362.16 306h.24v.24h-.24V306m-.24.48h.24v.24h-.24v-.24m-.24.24h.24v.48h-.24v-.48m14.16 10.32h.24v.24h-.24v-.24m7.68.72h.24v.24h-.24v-.24m-.24.24h.24v.24h-.24V318m-.24.24h.24v.24h-.24v-.24m-169.92.96h.24v.24h-.24v-.24m.24.24h.24v.24h-.24v-.24m.48.24h.24v.24h-.24v-.24m-8.4 2.16h.24v.24h.24v.24h.24v.24h.24v.24h.48v.24h.24v.24h-.48v-.24h-.48v-.24h-.24v-.24h-.48v-.24h-.24v-.24h.24v-.24m1.68 1.44h.24v.24h-.24v-.24m.24.24h.24v.24h-.24v-.24m.72.48h.24v.24h-.24V324m.24.24h.24v.24h-.24v-.24m.24.24h.48v.24h-.48v-.24m.48.24h.24v.24h-.24v-.24m.24.24h.24v.24h-.24v-.24m.24.24h.24v.24h-.24v-.24m182.64.48h.24v.24h-.24v-.24m-.96.72h.24v.24h-.24v-.24m-192.24.24h.24v.24h.48v.24h.24v.24h-.24v.24h-.24v-.24h-.48v-.24h-.48v-.24h.48v-.24m192 0h.24v.24h-.24v-.24m-192.96.72h.24v.24h.24v.24h-.72v-.24h.24v-.24m2.4.24h.24v.24h.48v.24h.24v.24h-.48v-.24h-.48v-.48m.96.72h.48v.24h-.48v-.24m.48.24h.48v.24h-.48v-.24m.48.24h.24v.24h-.24v-.24m.48.24h.24v.24h-.24v-.24m.48.24h.24v.24h-.24v-.24m3.6.24h.24v.24h-.24v-.24m-2.4.48h.24v.24h-.24V330m1.2.72h.24v.24h-.24v-.24m181.68 5.04h.24v.24h-.24v-.24m3.84 2.88h.24v.24h-.24v-.24m-192.72.72h.24v.24h-.24v-.24m208.8 7.92h.48v.48h.24v.24h-.48v.24h-.24v.24h-.24v.24h-.48v.24h-.24v.24h-.48v.24h-.48v.24h-.48v.24h-.48v.24h-.48v-.24h.24v-.24h.48v-.24h.24v-.24h.24v-.24h.24v-.24h.48v-.24h.24v-.24h.24V348h.48v-.24h.24v-.24h.24v-.24m-4.8.72h.24v.24h-.24V348m1.2 2.16h.24v.24h-.24v-.24m-.48.24h.24v.24h-.24v-.24m-.72.48h.24v.24h-.24v-.24m-.72.48h.24v.24h-.24v-.24m8.64 2.4h.24v.48h.24v.48h.24v.48h-.48v.24h-.72v.24h-.48v.24h-.72v.24H408v.24h-.48v-.24h.24v-.24h.24v-.24h.24v-.24h.24v-.24h.24v-.24h.24v-.24h.48v-.24h.24v-.24h.24V354h.48v-.24m-3.12 2.64h.24v.24h-.24v-.24m-228.72 13.2h2.16v.24h-.96v.24h-1.2v-.48m237.84 8.64h.96v.72h-.24v.24h-1.2v.24h-.96v.24H414v.24h-.96v-.24h.48v-.24h.72v-.24h.48v-.24h.72v-.24h.48v-.24h.48v-.24m-4.08 1.68h.72v.24h-.72v-.24m-.72.24h.48v.24h-.48v-.24m-.72.24h.48v.24h-.48v-.24m-.72.24h.24v.24h-.24v-.24m-.96.24h.48v.24h-.48v-.24m-.72.24h.72v.24h-.72v-.24m-228.96 1.92h.24v.24h-.24v-.24m-.48.24h.24v.24h-.24v-.24m7.44 3.84h.72v.24h-.72v-.24m-.72.24h.24v.24h-.24v-.24m-2.88 7.68h.24v.24h-.24v-.24m-.96 14.16h.24v.24h-.24v-.24m6.72 0h.24v.24h-.24v-.24m-.96 4.08h.48v.24h-.48v-.24m1.68 14.4h.24v.24h-.24v-.24m3.36 1.44h.24v.24h-.24v-.24m-2.16 4.8h.48v.24h-.48v-.24m6.24.24h.24v.24h-.24v-.24m-6.96 7.68h.72v.24h-.72v-.24m-.72.24h.48v.24h-.48v-.24m16.56 17.04h.48v.24h-.24v.24h-.24v-.48m-.24.48h.24v.24h-.24v-.24m-6.24 5.52h.24v.24h-.24v-.24m-.24.24h.24v.24h-.24v-.24m-.24.24h.24v.24h-.24v-.24m-.72.48h.24v.24H198v-.24m-.48.24h.48v.24h-.24v.24h-.48v-.24h.24v-.24m181.92 10.08h.24v.24h-.24v-.24M352.8 486h.24v.24h-.24V486m7.92 2.64h.24v.24h-.24v-.24m-9.84 6.48h.24v.24h-.24v-.24m-3.84 1.2h.24v.24h.24v.48h-.24v-.24h-.24v-.48m.48.72h.24v.48h-.24v-.48m-108 2.16h.24v.24h-.24v-.24m1.68 6h.24v.48h-.24v-.48m-.24.96h.24v.24h-.24v-.24m-.24.48h.24v.48h-.24v-.48m70.56 2.4h.24v.48h-.24v-.48m-3.12 5.28h.24v.96h-.24v-.96"/>
</svg>
