<svg xmlns="http://www.w3.org/2000/svg" viewBox="37.37759999999989 146.33759999999975 520.4448000000067 520.4448000000068">
  <path fill="currentColor" fill-rule="evenodd" d="M286.8 151.44v.24H282v.24h-3.6v.24h-2.88v.24h-2.64v.24h-2.4v.24h-2.16v.24h-2.16v.24h-1.92v.24h-1.68v.24h-1.68v.24h-1.68v.24h-1.68v.24h-1.44v.24h-1.44v.24h-1.44v.24h-1.44v.24h-1.2v.24h-1.2v.24h-1.2v.24h-1.2v.24h-1.2v.24h-1.2v.24h-1.2v.24h-.96v.24h-1.2v.24h-.96v.24h-1.2v.24h-.96v.24h-.96v.24h-.96v.24h-.96v.24h-.96v.24h-.96v.24h-.96v.24h-.72v.24h-.96v.24h-.96v.24h-.72v.24H228v.24h-.96v.24h-.72v.24h-.72v.24h-.96v.24h-.72v.24h-.72v.24h-.96v.24h-.72v.24h-.72v.24h-.72v.24h-.72v.24h-.72v.24h-.72v.24h-.96v.24h-.72v.24h-.72v.24h-.72v.24h-.48v.24h-.72v.24h-.72v.24h-.72v.24h-.72v.24h-.72v.24h-.48v.24h-.72v.24h-.72v.24h-.48v.24h-.72v.24h-.72v.24h-.48v.24h-.72v.24h-.72v.24h-.48v.24h-.72v.24h-.48v.24h-.72v.24h-.48v.24h-.72v.24h-.48v.24h-.48v.24h-.72v.24h-.48v.24h-.72v.24H198v.24h-.48v.24h-.72v.24h-.48v.24h-.48v.24h-.72v.24h-.48v.24h-.48v.24h-.48v.24h-.72v.24h-.48v.24H192v.24h-.48v.24h-.48v.24h-.72v.24h-.48v.24h-.48v.24h-.48v.24h-.48v.24h-.48v.24h-.48v.24h-.72v.24h-.48v.24h-.48v.24h-.48v.24h-.48v.24h-.48v.24h-.48v.24h-.48v.24h-.48v.24h-.48v.24h-.48v.24h-.48v.24h-.48v.24h-.48v.24h-.24v.24h-.48v.24h-.48v.24h-.48v.24h-.48v.24h-.48v.24h-.48v.24h-.48v.24h-.48v.24h-.48v.24h-.24v.24h-.48v.24h-.48v.24h-.48v.24H174v.24h-.48v.24h-.48v.24h-.48v.24h-.48v.24h-.24v.24h-.48v.24h-.48v.24h-.48v.24h-.24v.24h-.48v.24h-.48v.24h-.48v.24h-.24v.24H168v.24h-.48v.24h-.24v.24h-.48v.24h-.48v.24h-.24v.24h-.48v.24h-.48v.24h-.24v.24h-.48v.24h-.48v.24h-.24v.24h-.48v.24h-.24v.24h-.48v.24H162v.24h-.24v.24h-.48v.24h-.24v.24h-.48v.24h-.48v.24h-.24v.24h-.48v.24h-.24v.24h-.48v.24h-.24v.24h-.48v.24h-.24v.24h-.48v.24h-.24v.24h-.48v.24h-.24v.24h-.48v.24h-.24v.24h-.48v.24h-.24v.24h-.48v.24h-.24v.24h-.48v.24h-.24v.24h-.48v.24h-.24v.24h-.24v.24h-.48v.24h-.24v.24h-.48v.24h-.24v.24h-.48v.24h-.24v.24h-.48v.24h-.24v.24h-.24v.24h-.48v.24h-.24v.24h-.24v.24h-.48v.24h-.24v.24h-.48v.24h-.24v.24h-.24v.24h-.48v.24h-.24v.24h-.24v.24h-.48v.24h-.24v.24h-.24v.24h-.48v.24H144v.24h-.24v.24h-.48v.24h-.24v.24h-.24v.24h-.48v.24h-.24v.24h-.24v.24h-.48v.24h-.24v.24h-.24v.24h-.24v.24h-.48v.24h-.24v.24h-.24v.24h-.48v.24h-.24v.24h-.24v.24h-.24v.24h-.24v.24h-.48v.24h-.24v.24h-.24v.24h-.24v.24h-.48v.24h-.24v.24h-.24v.24h-.24v.24h-.48v.24h-.24v.24h-.24v.24h-.24v.24h-.24v.24h-.48v.24h-.24v.24h-.24v.24h-.24v.24h-.24v.24h-.48v.24h-.24v.24H132v.24h-.24v.24h-.24v.24h-.24v.24h-.48v.24h-.24v.24h-.24v.24h-.24v.24h-.24v.24h-.24v.24h-.24v.24h-.48v.24h-.24v.24h-.24v.24h-.24v.24h-.24v.24h-.24v.24h-.24v.24h-.24v.24h-.48v.24h-.24v.24h-.24v.24H126v.24h-.24v.24h-.24v.24h-.24v.24h-.24v.24h-.24v.24h-.24v.24h-.48v.24h-.24v.24h-.24v.24h-.24v.24h-.24v.24h-.24v.24h-.24v.24h-.24v.24h-.24v.24h-.24v.24h-.24v.24h-.24v.24h-.24v.24h-.24v.24h-.24v.24h-.24v.24h-.24v.24H120v.24h-.24v.24h-.24v.24h-.48v.24h-.24v.24h-.24v.24h-.24v.24h-.24v.24h-.24v.24h-.24v.24h-.24v.24h-.24v.24h-.24v.24h-.24v.24h-.24v.24h-.24v.24h-.24v.24h-.24v.24h-.24v.24h-.24v.24h-.24v.48h-.24v.24h-.24v.24h-.24v.24H114v.24h-.24v.24h-.24v.24h-.24v.24h-.24v.24h-.24v.24h-.24v.24h-.24v.24h-.24v.24h-.24v.24h-.24v.24h-.24v.24h-.24v.24h-.24v.24h-.24v.24h-.24v.24h-.24v.48h-.24v.24h-.24v.24h-.24v.24h-.24v.24h-.24v.24h-.24v.24h-.24v.24h-.24v.24H108v.24h-.24v.48h-.24v.24h-.24v.24h-.24v.24h-.24v.24h-.24v.24h-.24v.24h-.24v.24h-.24v.48h-.24v.24h-.24v.24h-.24v.24h-.24v.24h-.24v.24h-.24v.24h-.24v.48h-.24v.24h-.24v.24h-.24v.24h-.24v.24h-.24v.24h-.24v.48h-.24v.24h-.24v.24H102v.24h-.24v.24h-.24v.48h-.24v.24h-.24v.24h-.24v.24h-.24v.24h-.24v.48h-.24v.24h-.24v.24h-.24v.24h-.24v.48h-.24v.24h-.24v.24h-.24v.24h-.24v.48h-.24v.24h-.24v.24h-.24v.24h-.24v.24h-.24v.48h-.24v.24h-.24v.24h-.24v.48h-.24v.24H96v.24h-.24v.24h-.24v.48h-.24v.24h-.24v.24h-.24v.48h-.24v.24h-.24v.24h-.24v.48h-.24v.24h-.24v.24h-.24v.48h-.24v.24h-.24v.24h-.24v.48h-.24v.24h-.24v.24h-.24v.48h-.24v.24h-.24v.24h-.24v.48h-.24v.24h-.24v.48h-.24v.24h-.24v.24H90v.48h-.24v.24h-.24v.24h-.24v.48h-.24v.24h-.24v.48h-.24v.24h-.24v.48h-.24v.24h-.24v.48h-.24v.24h-.24v.24h-.24v.48h-.24v.24h-.24v.48h-.24v.24h-.24v.48h-.24v.24h-.24v.48h-.24v.24h-.24v.48h-.24v.24h-.24v.48h-.24v.24h-.24v.48H84v.24h-.24v.48h-.24v.24h-.24v.48h-.24v.24h-.24v.48h-.24v.24h-.24v.48h-.24v.48h-.24v.24h-.24v.48h-.24v.24h-.24v.48h-.24v.48h-.24v.24h-.24v.48h-.24v.24h-.24v.48h-.24v.48h-.24v.24h-.24v.48h-.24v.48h-.24v.24h-.24v.48h-.24v.48H78v.24h-.24v.48h-.24v.48h-.24v.24h-.24v.48h-.24v.48h-.24v.48h-.24v.24h-.24v.48h-.24v.48h-.24v.48h-.24v.24h-.24v.48h-.24v.48h-.24v.48h-.24v.48h-.24v.24h-.24v.48h-.24v.48h-.24v.48h-.24v.24h-.24v.48h-.24v.48h-.24v.48h-.24v.48H72v.48h-.24v.48h-.24v.48h-.24v.48h-.24v.48h-.24v.24h-.24v.48h-.24v.48h-.24v.48h-.24v.48h-.24v.48h-.24v.48h-.24v.48h-.24v.48h-.24v.48h-.24v.48h-.24v.48h-.24v.48h-.24v.48h-.24v.72h-.24v.48h-.24v.48h-.24v.48h-.24v.48h-.24v.48H66v.48h-.24v.72h-.24v.48h-.24v.48h-.24v.48h-.24v.48h-.24v.72h-.24v.48h-.24v.48h-.24v.48h-.24v.72h-.24v.48h-.24v.48h-.24v.72h-.24v.48h-.24v.48h-.24v.72h-.24v.48h-.24v.72h-.24v.48h-.24v.48h-.24v.72h-.24v.48h-.24v.72h-.24v.48H60v.72h-.24v.48h-.24v.72h-.24v.72h-.24v.48h-.24v.72h-.24v.72h-.24v.48h-.24v.72h-.24v.72h-.24v.48h-.24v.72h-.24v.72h-.24v.72h-.24v.72h-.24v.72h-.24v.48h-.24v.72h-.24v.72h-.24v.72h-.24v.96h-.24v.72h-.24v.72h-.24v.72h-.24v.72H54v.72h-.24v.72h-.24v.96h-.24v.72h-.24v.72h-.24v.96h-.24v.72h-.24v.72h-.24v.96h-.24v.96h-.24v.72h-.24v.96h-.24v.96h-.24v.72h-.24v.96h-.24v.96h-.24v.96h-.24v.96h-.24v.96h-.24v.96h-.24v.96h-.24v1.2h-.24v.96h-.24v1.2h-.24v.96H48v1.2h-.24v1.2h-.24v1.2h-.24v1.2h-.24v1.2h-.24v1.2h-.24v1.2h-.24v1.44h-.24v1.44h-.24v1.44h-.24v1.44h-.24v1.68h-.24v1.68h-.24v1.68h-.24v1.68h-.24v1.92h-.24v2.16h-.24v2.16h-.24v2.4h-.24v2.64h-.24v2.88h-.24v3.6h-.24v4.8h-.24v21.6h.24v4.8h.24v3.6h.24v2.88h.24v2.64h.24v2.4h.24v2.16h.24V438h.24v1.92h.24v1.68h.24v1.68h.24v1.68h.24v1.68h.24v1.44h.24v1.44h.24v1.44h.24v1.44h.24v1.2h.24v1.2h.24v1.2h.24v1.2h.24v1.2h.24v1.2H48v1.2h.24v.96h.24v1.2h.24v.96h.24v1.2h.24v.96h.24v.96h.24v.96h.24v.96h.24v.96h.24v.96h.24v.96h.24v.72h.24v.96h.24v.96h.24v.72h.24v.96h.24v.96h.24v.72h.24v.72h.24v.96h.24v.72h.24v.72h.24v.96h.24v.72H54v.72h.24v.72h.24v.72h.24v.72h.24v.72h.24v.96h.24v.72h.24v.72h.24v.72h.24v.48h.24v.72h.24v.72h.24v.72h.24v.72h.24v.72h.24v.48h.24v.72h.24v.72h.24v.48h.24v.72h.24v.72h.24v.48h.24v.72h.24v.72h.24v.48H60v.72h.24v.48h.24v.72h.24v.48h.24v.72h.24v.48h.24v.48h.24v.72h.24v.48h.24v.72h.24v.48h.24v.48h.24v.72h.24v.48h.24v.48h.24v.72h.24v.48h.24v.48h.24v.48h.24v.72h.24v.48h.24v.48h.24v.48h.24v.48h.24v.72H66v.48h.24v.48h.24v.48h.24v.48h.24v.48h.24v.48h.24v.72h.24v.48h.24v.48h.24v.48h.24v.48h.24v.48h.24v.48h.24v.48h.24v.48h.24v.48h.24v.48h.24v.48h.24v.48h.24v.48h.24v.24h.24v.48h.24v.48h.24v.48h.24v.48H72v.48h.24v.48h.24v.48h.24v.48h.24v.48h.24v.24h.24v.48h.24v.48h.24v.48h.24v.24h.24v.48h.24v.48h.24v.48h.24v.48h.24v.24h.24v.48h.24v.48h.24v.48h.24v.24h.24v.48h.24v.48h.24v.48h.24v.24h.24v.48h.24v.48H78v.24h.24v.48h.24v.48h.24v.24h.24v.48h.24v.48h.24v.24h.24v.48h.24v.48h.24v.24h.24v.48h.24v.24h.24v.48h.24v.48h.24v.24h.24v.48h.24v.24h.24v.48h.24v.48h.24v.24h.24v.48h.24v.24h.24v.48h.24v.24h.24v.48H84v.24h.24v.48h.24v.24h.24v.48h.24v.24h.24v.48h.24v.24h.24v.48h.24v.24h.24v.48h.24v.24h.24v.48h.24v.24h.24v.48h.24v.24h.24v.24h.24v.48h.24v.24h.24v.48h.24v.24h.24v.48h.24v.24h.24v.48h.24v.24h.24v.24H90v.48h.24v.24h.24v.24h.24v.48h.24v.24h.24v.48h.24v.24h.24v.24h.24v.48h.24v.24h.24v.24h.24v.48h.24v.24h.24v.24h.24v.48h.24v.24h.24v.24h.24v.48h.24v.24h.24v.24h.24v.48h.24v.24h.24v.24h.24v.48h.24v.24H96v.24h.24v.24h.24v.48h.24v.24h.24v.24h.24v.48h.24v.24h.24v.24h.24v.24h.24v.24h.24v.48h.24v.24h.24v.24h.24v.24h.24v.48h.24v.24h.24v.24h.24v.24h.24v.48h.24v.24h.24v.24h.24v.24h.24v.24h.24v.48h.24v.24h.24v.24h.24v.24h.24v.24h.24v.48h.24v.24h.24v.24h.24v.24h.24v.24h.24v.24h.24v.48h.24v.24h.24v.24h.24v.24h.24v.24h.24v.24h.24v.24h.24v.48h.24v.24h.24v.24h.24v.24h.24v.24h.24v.24h.24v.24h.24v.24h.24v.48h.24v.24h.24v.24h.24v.24h.24v.24h.24v.24h.24v.24h.24v.24h.24v.24h.24v.24h.24v.48h.24v.24h.24v.24h.24v.24h.24v.24h.24v.24h.24v.24h.24v.24h.24v.24h.24v.24h.24v.24h.24v.24h.24v.24h.24v.24h.24v.24h.24v.24h.24v.24h.24v.24h.24v.24h.24v.24h.24v.48h.24v.24h.24v.24h.24v.24h.24v.24h.24v.24h.24v.24h.24v.24h.24v.24h.24v.24h.24v.24h.24v.24h.24v.24h.24v.24h.24v.24h.24v.24h.24v.24h.24v.24h.48v.24h.24v.24h.24v.24h.24v.24h.24v.24h.24v.24h.24v.24h.24v.24h.24v.24h.24v.24h.24v.24h.24v.24h.24v.24h.24v.24h.24v.24h.24v.24h.24v.24h.24v.24h.24v.24h.24v.24h.48v.24h.24v.24h.24v.24h.24v.24h.24v.24h.24v.24h.24v.24h.24v.24h.24v.24h.24v.24h.48v.24h.24v.24h.24v.24h.24v.24h.24v.24h.24v.24h.24v.24h.24v.24h.48v.24h.24v.24h.24v.24h.24v.24h.24v.24h.24v.24h.24v.24h.48v.24h.24v.24h.24v.24h.24v.24h.24v.24h.24v.24h.48v.24h.24v.24h.24v.24h.24v.24h.24v.24h.48v.24h.24v.24h.24v.24h.24v.24h.24v.24h.48v.24h.24v.24h.24v.24h.24v.24h.48v.24h.24v.24h.24v.24h.24v.24h.48v.24h.24v.24h.24v.24h.24v.24h.24v.24h.48v.24h.24v.24h.24v.24h.48v.24h.24v.24h.24v.24h.24v.24h.48v.24h.24v.24h.24v.24h.48v.24h.24v.24h.24v.24h.48v.24h.24v.24h.24v.24h.48v.24h.24v.24h.24v.24h.48v.24h.24v.24h.24v.24h.48v.24h.24v.24h.24v.24h.48v.24h.24v.24h.48v.24h.24v.24h.24v.24h.48v.24h.24v.24h.24v.24h.48v.24h.24v.24h.48v.24h.24v.24h.48v.24h.24v.24h.48v.24h.24v.24h.24v.24h.48v.24h.24v.24h.48v.24h.24v.24h.48v.24h.24v.24h.48v.24h.24v.24h.48v.24h.24v.24h.48v.24h.24v.24h.48v.24h.24v.24h.48v.24h.24v.24h.48v.24h.24v.24h.48v.24h.24v.24h.48v.24h.48v.24h.24v.24h.48v.24h.24v.24h.48v.24h.48v.24h.24v.24h.48v.24h.24v.24h.48v.24h.48v.24h.24v.24h.48v.24h.48v.24h.24v.24h.48v.24h.48v.24h.24v.24h.48v.24h.48v.24h.24v.24h.48v.24h.48v.24h.48v.24h.24v.24h.48v.24h.48v.24h.48v.24h.24v.24h.48v.24h.48v.24h.48v.24h.48v.24h.24v.24h.48v.24h.48v.24h.48v.24h.24v.24h.48v.24h.48v.24h.48v.24h.48v.24h.48v.24h.48v.24h.48v.24h.48v.24h.48v.24h.24v.24h.48v.24h.48v.24h.48v.24h.48v.24h.48v.24h.48v.24h.48v.24h.48v.24h.48v.24h.48v.24h.48v.24h.48v.24h.48v.24h.72v.24h.48v.24h.48v.24h.48v.24h.48v.24h.48v.24h.48v.24h.72v.24h.48v.24h.48v.24h.48v.24h.48v.24h.72v.24h.48v.24h.48v.24h.48v.24h.72v.24h.48v.24h.48v.24h.72v.24h.48v.24h.48v.24h.72v.24h.48v.24h.72v.24h.48v.24h.48v.24h.72v.24h.48v.24h.72v.24h.48v.24h.72v.24h.48v.24h.72v.24h.72v.24h.48v.24h.72v.24h.72v.24h.48v.24h.72v.24h.72v.24h.48v.24h.72v.24h.72v.24h.72v.24h.72v.24h.72v.24h.48v.24h.72v.24h.72v.24h.72v.24h.96v.24h.72v.24h.72v.24h.72v.24h.72v.24h.72v.24h.72v.24h.96v.24h.72v.24h.72v.24h.96v.24h.72v.24h.72v.24h.96v.24h.96v.24h.72v.24h.96v.24h.96v.24h.72v.24h.96v.24h.96v.24h.96v.24h.96v.24h.96v.24h.96v.24h.96v.24h1.2v.24h.96v.24h1.2v.24h.96v.24h1.2v.24h1.2v.24h1.2v.24h1.2v.24h1.2v.24h1.2v.24h1.2v.24h1.44v.24h1.44v.24h1.44v.24h1.44v.24h1.68v.24h1.68v.24h1.68v.24h1.68v.24h1.92v.24h2.16v.24h2.16v.24h2.4v.24h2.64v.24h2.88v.24h3.6v.24h4.8v.24h21.6v-.24h4.8v-.24h3.6v-.24h2.88v-.24h2.64v-.24h2.4v-.24h2.16V660h2.16v-.24h1.92v-.24h1.68v-.24h1.68v-.24H336v-.24h1.68v-.24h1.44v-.24h1.44v-.24H342v-.24h1.44v-.24h1.2v-.24h1.2v-.24h1.2v-.24h1.2v-.24h1.2v-.24h1.2v-.24h1.2v-.24h.96v-.24h1.2v-.24h.96v-.24h1.2v-.24h.96v-.24h.96v-.24h.96v-.24h.96V654h.96v-.24h.96v-.24h.96v-.24h.72v-.24h.96v-.24h.96v-.24h.72v-.24h.96v-.24h.96v-.24h.72v-.24h.72v-.24h.96v-.24h.72v-.24h.72v-.24h.96v-.24h.72v-.24h.72v-.24h.72v-.24h.72v-.24h.72v-.24h.72v-.24h.96v-.24h.72v-.24h.72v-.24h.72V648h.48v-.24h.72v-.24h.72v-.24h.72v-.24h.72v-.24h.72v-.24h.48v-.24h.72v-.24h.72v-.24h.48v-.24h.72v-.24h.72v-.24h.48v-.24h.72v-.24h.72v-.24h.48v-.24h.72v-.24h.48v-.24h.72v-.24h.48v-.24h.72v-.24h.48v-.24h.48v-.24h.72v-.24h.48V642h.72v-.24h.48v-.24h.48v-.24h.72v-.24h.48v-.24h.48v-.24h.72v-.24h.48v-.24h.48v-.24h.48v-.24h.72v-.24h.48v-.24h.48v-.24h.48v-.24h.48v-.24h.72v-.24h.48v-.24h.48v-.24h.48v-.24h.48v-.24h.48v-.24h.48v-.24h.72v-.24h.48v-.24h.48V636h.48v-.24h.48v-.24h.48v-.24h.48v-.24h.48v-.24h.48v-.24h.48v-.24h.48v-.24h.48v-.24h.48v-.24h.48v-.24h.24v-.24h.48v-.24h.48v-.24h.48v-.24h.48v-.24h.48v-.24h.48v-.24h.48v-.24h.48v-.24h.24v-.24h.48v-.24h.48v-.24h.48v-.24h.48V630h.24v-.24h.48v-.24h.48v-.24h.48v-.24h.48v-.24h.24v-.24h.48v-.24h.48v-.24h.48v-.24h.24v-.24h.48v-.24h.48v-.24h.48v-.24h.24v-.24h.48v-.24h.48v-.24h.24v-.24h.48v-.24h.48v-.24h.24v-.24h.48v-.24h.48v-.24h.24v-.24h.48v-.24h.48V624h.24v-.24h.48v-.24h.24v-.24h.48v-.24h.48v-.24h.24v-.24h.48v-.24h.24v-.24h.48v-.24h.48v-.24h.24v-.24h.48v-.24h.24v-.24h.48v-.24h.24v-.24h.48v-.24h.24v-.24h.48v-.24h.24v-.24h.48v-.24h.24v-.24h.48v-.24h.24v-.24h.48v-.24h.24V618h.48v-.24h.24v-.24h.48v-.24h.24v-.24h.48v-.24h.24v-.24h.24v-.24h.48v-.24h.24v-.24h.48v-.24h.24v-.24h.48v-.24h.24v-.24h.48v-.24h.24v-.24h.24v-.24h.48v-.24h.24v-.24h.24v-.24h.48v-.24h.24v-.24h.48v-.24h.24v-.24h.24v-.24h.48V612h.24v-.24h.24v-.24h.48v-.24h.24v-.24h.24v-.24h.48v-.24h.24v-.24h.24v-.24h.48v-.24h.24v-.24h.24v-.24h.48v-.24h.24v-.24h.24v-.24h.48v-.24h.24v-.24h.24v-.24h.24v-.24h.48v-.24h.24v-.24h.24v-.24h.48v-.24h.24v-.24h.24v-.24h.24V606h.24v-.24h.48v-.24h.24v-.24h.24v-.24h.24v-.24h.48v-.24h.24v-.24h.24v-.24h.24v-.24h.48v-.24h.24v-.24h.24v-.24h.24v-.24h.24v-.24h.48v-.24h.24v-.24h.24v-.24h.24v-.24h.24v-.24h.48v-.24h.24v-.24h.24v-.24h.24v-.24h.24v-.24h.24V600h.48v-.24h.24v-.24h.24v-.24h.24v-.24h.24v-.24h.24v-.24h.24v-.24h.48v-.24h.24v-.24h.24v-.24h.24v-.24h.24v-.24h.24v-.24h.24v-.24h.24v-.24h.48v-.24h.24v-.24h.24v-.24h.24v-.24h.24v-.24h.24v-.24h.24v-.24h.24v-.24h.24v-.24h.24V594h.48v-.24h.24v-.24h.24v-.24h.24v-.24h.24v-.24h.24v-.24h.24v-.24h.24v-.24h.24v-.24h.24v-.24h.24v-.24h.24v-.24h.24v-.24h.24v-.24h.24v-.24h.24v-.24h.24v-.24h.24v-.24h.24v-.24h.24v-.24h.48v-.24h.24v-.24h.24v-.24h.24v-.24h.24V588h.24v-.24h.24v-.24h.24v-.24h.24v-.24h.24v-.24h.24v-.24h.24v-.24h.24v-.24h.24v-.24h.24v-.24h.24v-.24h.24v-.24h.24v-.48h.24v-.24h.24v-.24h.24v-.24h.24v-.24h.24v-.24h.24v-.24h.24v-.24h.24v-.24h.24v-.24h.24v-.24h.24V582h.24v-.24h.24v-.24h.24v-.24h.24v-.24h.24v-.24h.24v-.24h.24v-.24h.24v-.24h.24v-.48h.24v-.24h.24v-.24h.24v-.24h.24v-.24h.24v-.24h.24v-.24h.24v-.24h.24v-.24h.24v-.24h.24v-.48h.24v-.24h.24v-.24h.24v-.24h.24V576h.24v-.24h.24v-.24h.24v-.24h.24v-.48h.24v-.24h.24v-.24h.24v-.24h.24v-.24h.24v-.24h.24v-.24h.24v-.48h.24v-.24h.24v-.24h.24v-.24h.24v-.24h.24v-.24h.24v-.48h.24v-.24h.24v-.24h.24v-.24h.24v-.24h.24v-.48h.24v-.24h.24v-.24h.24v-.24h.24v-.24h.24v-.48h.24v-.24h.24v-.24h.24v-.24h.24v-.48h.24v-.24h.24v-.24h.24v-.24h.24v-.48h.24v-.24h.24v-.24h.24v-.24h.24v-.24h.24v-.48h.24v-.24h.24V564h.24v-.48h.24v-.24h.24v-.24h.24v-.24h.24v-.48h.24v-.24h.24v-.24h.24v-.48h.24v-.24h.24v-.24h.24v-.48h.24v-.24h.24v-.24h.24v-.48h.24v-.24h.24v-.24h.24v-.48h.24v-.24h.24V558h.24v-.48h.24v-.24h.24v-.24h.24v-.48h.24v-.24h.24v-.48h.24v-.24h.24v-.24h.24v-.48h.24v-.24h.24v-.24h.24v-.48h.24v-.24h.24v-.48h.24v-.24h.24v-.48h.24v-.24h.24v-.48h.24v-.24h.24v-.24h.24v-.48h.24v-.24h.24v-.48h.24v-.24h.24v-.48h.24v-.24h.24v-.48h.24v-.24h.24v-.48h.24v-.24h.24v-.48h.24v-.24h.24v-.48h.24v-.24h.24v-.48h.24v-.24h.24v-.48h.24v-.24h.24v-.48h.24v-.24h.24v-.48h.24v-.48h.24v-.24h.24v-.48h.24v-.24h.24v-.48h.24v-.48h.24v-.24h.24v-.48h.24v-.24h.24v-.48h.24v-.48h.24v-.24h.24v-.48h.24v-.48h.24v-.24h.24v-.48h.24v-.48h.24v-.24h.24v-.48h.24v-.48h.24v-.24h.24v-.48h.24v-.48h.24V534h.24v-.24h.24v-.48h.24v-.48h.24v-.48h.24v-.24h.24v-.48h.24v-.48h.24v-.48h.24v-.48h.24v-.24h.24v-.48h.24v-.48h.24v-.48h.24V528h.24v-.24h.24v-.48h.24v-.48h.24v-.48h.24v-.48h.24v-.48h.24v-.48h.24v-.48h.24v-.48h.24v-.24h.24v-.48h.24v-.48h.24v-.48h.24v-.48h.24v-.48h.24v-.48h.24v-.48h.24v-.48h.24v-.48h.24v-.48h.24v-.48h.24v-.48h.24v-.48h.24v-.72h.24v-.48h.24v-.48h.24v-.48h.24v-.48h.24v-.48h.24v-.48h.24v-.72h.24v-.48h.24v-.48h.24v-.48h.24v-.48h.24v-.72h.24V510h.24v-.48h.24v-.48h.24v-.72h.24v-.48h.24v-.48h.24v-.72h.24v-.48h.24v-.48h.24v-.72h.24v-.48h.24v-.72h.24v-.48h.24v-.48h.24v-.72h.24v-.48h.24v-.72h.24v-.48h.24v-.72h.24v-.48h.24v-.72h.24v-.72h.24v-.48h.24v-.72h.24v-.72h.24v-.48h.24v-.72h.24v-.72h.24v-.48h.24v-.72h.24V492h.24v-.72h.24v-.72h.24v-.72h.24v-.48h.24v-.72h.24v-.72h.24v-.72h.24v-.96h.24v-.72h.24v-.72h.24v-.72h.24v-.72h.24v-.72h.24v-.72h.24v-.96h.24v-.72h.24v-.72h.24v-.96h.24v-.72h.24v-.72h.24v-.96h.24v-.96h.24v-.72h.24v-.96h.24v-.96h.24v-.72h.24v-.96h.24v-.96h.24v-.96h.24V468h.24v-.96h.24v-.96h.24v-.96h.24v-1.2h.24v-.96h.24v-1.2h.24v-.96h.24v-1.2h.24v-1.2h.24v-1.2h.24V456h.24v-1.2h.24v-1.2h.24v-1.2h.24v-1.44h.24v-1.44h.24v-1.44h.24v-1.44h.24v-1.68h.24v-1.68h.24v-1.68h.24v-1.68h.24V438h.24v-2.16h.24v-2.16h.24v-2.4h.24v-2.64h.24v-2.88h.24v-3.6h.24v-4.8h.24v-21.6h-.24v-4.8h-.24v-3.6H552v-2.88h-.24v-2.64h-.24v-2.4h-.24v-2.16h-.24v-2.16h-.24v-1.92h-.24v-1.68h-.24v-1.68h-.24v-1.68h-.24v-1.68h-.24v-1.44h-.24v-1.44h-.24v-1.44h-.24v-1.44h-.24v-1.2h-.24v-1.2h-.24v-1.2h-.24v-1.2h-.24v-1.2h-.24v-1.2h-.24v-1.2h-.24v-.96h-.24v-1.2h-.24v-.96h-.24V348H546v-.96h-.24v-.96h-.24v-.96h-.24v-.96h-.24v-.96h-.24v-.96h-.24v-.96h-.24v-.72h-.24v-.96h-.24v-.96h-.24v-.72h-.24v-.96h-.24V336h-.24v-.72h-.24v-.72h-.24v-.96h-.24v-.72h-.24v-.72h-.24v-.96h-.24v-.72h-.24v-.72h-.24v-.72h-.24v-.72h-.24v-.72h-.24v-.72H540v-.96h-.24v-.72h-.24v-.72h-.24v-.72h-.24v-.48h-.24v-.72h-.24v-.72h-.24v-.72h-.24v-.72h-.24v-.72h-.24v-.48h-.24v-.72h-.24v-.72h-.24v-.48h-.24v-.72h-.24v-.72h-.24v-.48h-.24v-.72h-.24v-.72h-.24v-.48h-.24v-.72h-.24v-.48h-.24v-.72h-.24v-.48h-.24v-.72H534v-.48h-.24v-.48h-.24v-.72h-.24v-.48h-.24v-.72h-.24v-.48h-.24v-.48h-.24v-.72h-.24v-.48h-.24v-.48h-.24v-.72h-.24v-.48h-.24v-.48h-.24v-.48h-.24v-.72h-.24v-.48h-.24v-.48h-.24v-.48h-.24V300h-.24v-.72h-.24v-.48h-.24v-.48h-.24v-.48h-.24v-.48h-.24v-.48H528v-.48h-.24v-.72h-.24v-.48h-.24v-.48h-.24v-.48h-.24v-.48h-.24v-.48h-.24v-.48h-.24v-.48h-.24v-.48h-.24v-.48h-.24v-.48h-.24v-.48h-.24v-.48h-.24v-.48h-.24v-.24h-.24v-.48h-.24v-.48h-.24v-.48h-.24v-.48h-.24v-.48h-.24v-.48h-.24v-.48h-.24v-.48h-.24v-.24H522v-.48h-.24v-.48h-.24v-.48h-.24v-.48h-.24v-.24h-.24v-.48h-.24V282h-.24v-.48h-.24v-.48h-.24v-.24h-.24v-.48h-.24v-.48h-.24v-.48h-.24v-.24h-.24v-.48h-.24v-.48h-.24v-.48h-.24v-.24h-.24v-.48h-.24v-.48h-.24v-.24h-.24v-.48h-.24v-.48h-.24v-.24h-.24v-.48H516v-.48h-.24v-.24h-.24v-.48h-.24v-.48h-.24v-.24h-.24v-.48h-.24v-.24h-.24v-.48h-.24v-.48h-.24v-.24h-.24v-.48h-.24V270h-.24v-.48h-.24v-.48h-.24v-.24h-.24v-.48h-.24v-.24h-.24v-.48h-.24v-.24h-.24v-.48h-.24v-.24h-.24v-.48h-.24v-.24h-.24v-.48h-.24v-.24H510v-.48h-.24v-.24h-.24V264h-.24v-.24h-.24v-.48h-.24v-.24h-.24v-.48h-.24v-.24h-.24v-.48h-.24v-.24h-.24v-.24h-.24v-.48h-.24v-.24h-.24v-.48h-.24v-.24h-.24v-.48h-.24v-.24h-.24v-.48h-.24v-.24h-.24v-.24h-.24v-.48h-.24v-.24h-.24v-.24h-.24v-.48h-.24v-.24H504v-.48h-.24v-.24h-.24v-.24h-.24v-.48h-.24v-.24h-.24v-.24h-.24v-.48h-.24v-.24h-.24v-.24h-.24v-.48h-.24v-.24h-.24v-.24h-.24v-.48h-.24V252h-.24v-.24h-.24v-.48h-.24v-.24h-.24v-.24h-.24v-.48h-.24v-.24h-.24v-.24h-.24v-.24h-.24v-.48h-.24v-.24h-.24v-.24H498v-.48h-.24v-.24h-.24v-.24h-.24v-.24h-.24v-.24h-.24v-.48h-.24v-.24h-.24v-.24h-.24V246h-.24v-.48h-.24v-.24h-.24v-.24h-.24v-.24h-.24v-.48h-.24v-.24h-.24v-.24h-.24v-.24h-.24v-.24h-.24v-.48h-.24v-.24h-.24v-.24h-.24v-.24h-.24v-.24h-.24v-.48h-.24v-.24H492v-.24h-.24v-.24h-.24v-.24h-.24v-.24h-.24v-.48h-.24v-.24h-.24v-.24h-.24v-.24h-.24v-.24h-.24v-.24h-.24v-.24h-.24v-.48h-.24v-.24h-.24v-.24h-.24v-.24h-.24v-.24h-.24v-.24h-.24v-.24h-.24v-.24h-.24v-.48h-.24v-.24h-.24v-.24h-.24v-.24h-.24v-.24h-.24v-.24H486v-.24h-.24V234h-.24v-.24h-.24v-.24h-.24v-.48h-.24v-.24h-.24v-.24h-.24v-.24h-.24v-.24h-.24v-.24h-.24v-.24h-.24v-.24h-.24v-.24h-.24v-.24h-.24v-.24h-.24v-.24h-.24v-.24h-.24v-.24h-.24v-.24h-.24v-.24h-.24v-.24h-.24v-.24h-.24v-.24h-.24v-.24h-.24V228H480v-.24h-.24v-.24h-.24v-.24h-.24v-.24h-.24v-.24h-.24v-.24h-.24v-.24h-.24v-.24h-.24v-.24h-.24v-.24h-.24v-.24h-.24v-.24h-.24v-.24h-.24v-.24h-.24v-.24h-.24v-.24h-.24v-.24h-.48v-.24h-.24v-.24h-.24v-.24h-.24v-.24h-.24v-.24h-.24v-.24h-.24v-.24H474V222h-.24v-.24h-.24v-.24h-.24v-.24h-.24v-.24h-.24v-.24h-.24v-.24h-.24v-.24h-.24v-.24h-.24v-.24h-.24v-.24h-.24v-.24h-.24v-.24h-.48v-.24h-.24v-.24h-.24v-.24h-.24v-.24h-.24v-.24h-.24v-.24h-.24v-.24h-.24v-.24h-.24v-.24h-.24v-.24H468v-.24h-.24v-.24h-.24V216h-.24v-.24h-.24v-.24h-.24v-.24h-.24v-.24h-.24v-.24h-.48v-.24h-.24v-.24h-.24v-.24h-.24v-.24h-.24v-.24h-.24v-.24h-.24v-.24h-.48v-.24h-.24v-.24h-.24v-.24h-.24v-.24h-.24v-.24h-.24v-.24h-.48v-.24H462v-.24h-.24v-.24h-.24v-.24h-.24v-.24h-.48v-.24h-.24V210h-.24v-.24h-.24v-.24h-.24v-.24h-.48v-.24h-.24v-.24h-.24v-.24h-.24v-.24h-.48v-.24h-.24v-.24h-.24v-.24h-.24v-.24h-.48v-.24h-.24v-.24h-.24v-.24h-.24v-.24H456v-.24h-.48v-.24h-.24v-.24h-.24v-.24h-.48v-.24h-.24v-.24h-.24v-.24h-.24v-.24h-.48v-.24h-.24V204h-.24v-.24h-.48v-.24h-.24v-.24h-.24v-.24h-.48v-.24h-.24v-.24h-.24v-.24h-.48v-.24h-.24v-.24H450v-.24h-.48v-.24h-.24v-.24h-.24v-.24h-.48v-.24h-.24v-.24h-.24v-.24h-.48v-.24h-.24v-.24h-.48v-.24h-.24v-.24h-.24v-.24h-.48v-.24h-.24v-.24h-.24v-.24h-.48V198h-.24v-.24h-.48v-.24H444v-.24h-.48v-.24h-.24v-.24h-.48v-.24h-.24v-.24h-.24v-.24h-.48v-.24h-.24v-.24h-.48v-.24h-.24v-.24h-.48v-.24h-.24v-.24h-.48v-.24h-.24v-.24h-.48v-.24h-.24v-.24h-.48v-.24H438v-.24h-.48v-.24h-.24v-.24h-.48v-.24h-.24v-.24h-.48V192h-.24v-.24h-.48v-.24h-.24v-.24h-.48v-.24h-.48v-.24h-.24v-.24h-.48v-.24h-.24v-.24h-.48v-.24h-.48v-.24H432v-.24h-.48v-.24h-.24v-.24h-.48v-.24h-.48v-.24h-.24v-.24h-.48v-.24h-.48v-.24h-.24v-.24h-.48v-.24h-.48v-.24h-.24v-.24h-.48v-.24h-.48v-.24h-.24V186H426v-.24h-.48v-.24h-.48v-.24h-.24v-.24h-.48v-.24h-.48v-.24h-.48v-.24h-.24v-.24h-.48v-.24h-.48v-.24h-.48v-.24h-.48v-.24h-.24v-.24h-.48v-.24H420v-.24h-.48v-.24h-.24v-.24h-.48v-.24h-.48v-.24h-.48v-.24h-.48v-.24h-.48v-.24h-.48v-.24h-.48v-.24h-.48V180h-.48v-.24h-.24v-.24h-.48v-.24h-.48v-.24h-.48v-.24h-.48v-.24h-.48v-.24h-.48v-.24h-.48v-.24h-.48v-.24h-.48v-.24h-.48v-.24h-.48v-.24h-.48v-.24h-.48v-.24h-.72v-.24h-.48v-.24h-.48v-.24h-.48v-.24h-.48v-.24h-.48v-.24h-.48v-.24h-.72v-.24h-.48v-.24h-.48V174h-.48v-.24h-.48v-.24h-.72v-.24h-.48v-.24h-.48v-.24h-.48v-.24h-.72v-.24h-.48v-.24h-.48v-.24h-.72v-.24h-.48v-.24h-.48v-.24H396v-.24h-.48v-.24h-.72v-.24h-.48v-.24h-.48v-.24h-.72v-.24h-.48v-.24h-.72v-.24h-.48v-.24h-.72v-.24h-.48v-.24h-.72v-.24h-.72V168h-.48v-.24h-.72v-.24h-.72v-.24h-.48v-.24h-.72v-.24h-.72v-.24h-.48v-.24h-.72v-.24h-.72v-.24h-.72v-.24h-.72v-.24h-.72v-.24h-.48v-.24h-.72v-.24h-.72v-.24h-.72v-.24h-.96v-.24h-.72v-.24h-.72v-.24h-.72v-.24h-.72v-.24h-.72v-.24h-.72v-.24H372v-.24h-.72V162h-.72v-.24h-.96v-.24h-.72v-.24h-.72v-.24h-.96v-.24h-.96v-.24h-.72v-.24h-.96v-.24h-.96v-.24h-.72v-.24h-.96v-.24h-.96v-.24H360v-.24h-.96v-.24h-.96v-.24h-.96v-.24h-.96v-.24h-1.2v-.24H354v-.24h-1.2v-.24h-.96v-.24h-1.2v-.24h-1.2v-.24h-1.2v-.24h-1.2V156h-1.2v-.24h-1.2v-.24h-1.2v-.24H342v-.24h-1.44v-.24h-1.44v-.24h-1.44v-.24H336v-.24h-1.68v-.24h-1.68v-.24h-1.68v-.24h-1.92v-.24h-2.16v-.24h-2.16v-.24h-2.4v-.24h-2.64v-.24h-2.88v-.24h-3.6v-.24h-4.8v-.24h-21.6m0 17.76h1.92v.24h.96v.24h1.44v.24h.96v.24h.96v.24h.72v.24h.48v.24h.72v.24h.48v.24h.24v.24h.48v.24h.24v.24h.48v.24h.48v.24h.48v.24h.48v.24h.24v.24h.48v.24h.48v.24h.24v.24h.48v.24h.48v.24h.24v.24h.48v.24h.24v.24h.24v.24h.24v.24h.24v.24h.48v.24h.24v.24h.24v.24h.24v.24h.24v.24h.48v.24h.48v.24h.24v.24h.48v.24h.48v.24h.48v.24h.72v.24h.48v.24h.72v.24h.48v.24h.48v.24h.72v.24h.48v.24h.48v.24h.48v.24h.48v.24h.48v.24h.48v.24h.48v.24h.48v.24h.48v.24h.48v.24h.48v.24h.48v.24h.72v.24h.72v.24h.48v.24h.72v.24h.72v.24h.96v.24h1.2v.24h1.44v.24h2.4v.24h1.68v.24h1.44v.24h.96v.24h1.2v.24h1.68v.24h3.36V186h2.64v-.24h1.44v-.24h1.2v-.24h.96v-.24h1.2v-.24h.72v-.24h.72v-.24h.72v-.24h.72v-.24h.48v-.24h.48v-.24h.72v-.24h.72v-.24h.48v-.24h.48v-.24h.72v-.24h2.88v-.24h1.2v-.24h.96v-.24h.72v-.24h.72v-.24h.72v-.24h.48v-.24h.72v-.24h.96V180h5.04v.24h1.2v.24h1.44v.24h.72v.24h.96v.24h.96v.24h.96v.24h1.2v.24h1.2v.24h1.2v.24h1.2v.24h.96v.24h.72v.24h.48v.24h.72v.24h.48v.24h.72v.24h.72v.24h.48v.24h.72v.24h.48v.24h.72v.24h.48v.24h.72v.24h.72v.24h.96v.24h3.6V186h.72v-.24h.72v-.24h.72v-.24h.48v-.24h.96v-.24h.48v-.24h.48v-.24h.72v-.24h.24v-.24h.48v.24h.24v.24h.48v.48h.24v.24h.24v.24h.24v.24h.24v.24h.24v.24h.24v.24h.24v.24h.24v.24h.24v.24h.24v.24h.24v.24h.24v.24h.24v.24h.48v.48h.48v.24h.24v.24h.48v.24h.24v.24h.48v.24h.48v.24h.48v.24h.24v.24h.72v.24h.48v.24h.48v.24h.48v.24h.72v.24h.72v.24h.96v.24h.96v.24h.72v.24h.72v.24h1.44v.24h6v.24h2.64v.24h.72v.24h.48v.24h.24v.24h.48v.24h.48v.24h.24v.24h.24v.24h.48v.24h.24v.24h.24v.24h.48v.24h.24v.48h.48v.24h.24v.24h.24v.24h.24v.24h.24v.24h.24v.24h.24v.24h.24v.48h.48v.48h.24v.24h.24v.24h.24v.48h.24v.48h.24v.48h.24v.48h.24v.48h.24v.24h.24v.48h.24v.48h.24v.72h.24v.48h.24v.72h.24v.96h.24v.72h.24v.72h.24v1.2h.24v.96h.24v.72h.24v1.2h.24v.72h.24v.72h.24v.72h.24v.72h.24v.48h.24v.72h.24v.72h.24v.48h.24v.72h.24v.24h.24v.72h.24v.48h.24v.24h1.2v.24h.96v.24h.96v.24h1.68v.24h1.2v.24h.96v.24h.72v.24h.48v.24h.24v.24h.48v.24h.48v.24h.72v.96h.24v.72h.24v1.44h.24v.48h.24v.48h.24v.48h.24v.72h.24v.48h.24v1.44h.24v2.4h.24v1.92h.24v1.68h.24v.96h.24v.72h.24v.48h.24v.72h.24v.48h.24v.72h.24v.24h.24v.48h.24v.48h.24v.24h.24v.24h.24v.48h.24v.24h.24v.24h.24v.24h.24v.48h.24v.24h.24v.24h.24v.24h.24v.24h.24v.24h.24v.48h.24v.24h.48v.48h.24v.24h.24v.24h.24v.24h.24v.24h.24v.24h.24v.24h.48v.24h.24v.24h.24v.24h.24v.24h.48v.48h.24v.24h.24v.24h.24v.48h.24v.24h.24v.24h.24v.24h.24v.24h.48v.24h.24v.24h.24v.24h.24v.24h.24v.24h.24v.48h.48v.24h.24v.24h.24v.24h.24v.24h.48v.24h.48v.24h.48v.24h.48v.24h.48v.24h.72v.24h.48v.24h.72v.24h.72v.24h.48v.24h.96v.24h.48v.24h.48v.24h.48v.24h.48v.24h.48v.24h.48v.24h.48v.24h.48v.24h.48v.24h.48v.24h.24v.72h.24v.72h.24v.24h.24v.72h.24v.96h.24v2.16h.24v.96h.24v.48h.24v.24h.24v.48h.24v.24h.24v.72h.24v.48h.24v.24h.24v.48h.24v.48h.24v.48h.24v.24h.24v.48h.24v.48h.24v.24h.24v.48h.24v.48h.24v.48h.24v.24h.24v.48h.24v.48h.24v.24h.24v.24h.24v.48h.24v.24h.24v.48h.24v.24h.24v.24h.24v.24h.24v.24h.24v.24h.24v.24h.24v.24h.24v.48h.24v.24h.24v.24h.24v.24h.24v.24h.24v.24h.24v.24h.24v.24h.24v.24h.24v.24h.24v.24h.24v.24h.24v.24h.24v.24h.24v.24h.24v.24h.24v.24h.48v.24h.48v.24h.24v.24h.24v.24h.24v.24h.24v.24h.24v.24h.48v.24h.24v.24h.24v.24h.24v.24h.24v.24h.24v.24h.24v.24h.24v.24h.24v.48h.24v.24h.48v.48h.24v.24h.24v.24h.24v.24h.24v.24h.24v.24h.24v.48h.24v.24h.24v.24h.24v.48h.24v.24h.24v.48h.24v.24h.24v.24h.24v.24h.24v.24h.24v.24h.24v.24h.24v.24h.24v.48h.24v.48h.24v.24h.24v.48h.24v.24h.24v.48h.24v.48h.24v1.2h.24v1.2h.24v2.4h.24v.24h-.24v3.12h-.24v1.68h-.24v1.68h-.24v.96h-.24v1.2h-.24v1.68h-.24v1.92h-.24v4.56h.24v1.2h.24v.96h.24v.96h.24v.48h.24v.48h.24v.48h.24v.48h.24v.48h.24v.48h.24v.24h.24v.24h.24v.24h.24v.24h.24v.24h.24v.24h.24v.24h.24v.24h.24v.24h.48v.48h.24v.24h.48v.24h.24v.24h.24v.24h.48v.24h.24v.24h.48v.24h.24v.24h.48v.24h.24v.24h.24v.24h.48v.24h.24v.24h.24v.24h.24v.24h.24v.24h.24v.24h.24v.24h.24v.24h.24v.24h.24v.24h.24v.24h.24v.24h.24v.24h.24v.24h.24v.24h.24v.24h.24v.24h.48v.24h.24v.24h.24v.24h.24v.24h.24v.24h.24v.24h.24v.24h.24v.24h.24v.24h.24v.24h.24v.48h.48v.24h.24v.48h.24v.48h.24v.24h.24v.48h.24v.24h.24v.24h.24v.24h.24v.48h.24v.24h.24v.72h.24v.48h.24v.96h.24v.72h.24v.96h.24v.72h.24v.72h.24v1.2h.24v1.2h.24v.72h-.24v2.64h-.24v2.4H516v3.6h-.24v6.48h.24v1.2h.24v.48h.24v.72h.24v.48h.24v.48h.24v.48h.24v.48h.24v.48h.24v.72h.24v.24h.24v.48h.24v.48h.24v.24h.24v.24h.24v.24h.24v.48h.24v.24h.48v.24h.24v.24h.24v.24h.24v.24h.24v.24h.24v.24h.24v.24h.24v.24h.24v.24h.24v.24h.48v.24h.24v.24h.24v.48h.24v.24h.48v.48h.24v.48h.24v.72h.24v.24h.24v.48h.24v.24h.24v.24h.24v.24h.24v.48h.48v1.2h.24v1.2h.24v2.16h.24v.96h.24v1.2h.24v.96h.24v1.44h.24v.96h.24v15.12h-.24v2.4H528v1.92h-.24v.96h-.24v.96h-.24v.96h-.24v1.2h-.24v.72h-.24v1.2h-.24v.48h-.24v1.2h-.24v1.2h-.24v.96h-.24v.96h-.24v1.44h-.24v1.2h-.24v.72h-.24v1.44h-.24v5.28h.24v2.16h.24v.96h.24v1.44h.24v1.44h.24v1.44h.24v1.2h.24v2.16h.24v.72h.24v.48h.24v.96h.24v.72h.24v.96h.24v.72h.24v.96h.24v.72h.24v.72h.24v.48h.24v.72h.24v.72h.24v.48h.24v.48h.24v.72h.24v.24h.24v.24h.24v.48h-.24v.24h-.24v.24h-.24v.24h-.24v.24h-.24v.24h-.24v.48h-.24v.24h-.24v.48H528v.24h-.24v.48h-.24v.24h-.24v.48h-.24v.24h-.24v.48h-.24v.24h-.24v.72h-.24v.48h-.24v.24h-.24v.48h-.24v.24h-.24v.48h-.24v.24h-.24v.48h-.24v.48h-.24v.48h-.24v.72h-.24v.24h-.24v.72h-.24v.48h-.24v.72h-.24v.48h-.24v.72h-.24v.48H522v.48h-.24v.72h-.24v.72h-.24v.72h-.24v.48h-.24v.96h-.24v.72h-.24v1.44h-.24v1.2h-.24v8.88h.24v1.68h.24v1.2h-.24v2.88h-.24v3.36h.24v1.92h.24v4.32h-.24v1.92h-.24v1.68h-.24v1.44h-.24v.96h-.24v1.2h-.24v.72h-.24v1.2h-.24v.48h-.24v.48h-.24v.72h-.24v.48h-.24v.48h-.24v.72h-.24v.72h-.24v.24h-.24v.48h-.24v.72H516v.48h-.24v.48h-.24v.72h-.24v.48h-.24v.72h-.24v.48h-.24v.72h-.24v.48h-.24v.48h-.24v.24h-.24v.72h-.24v.48h-.24v.24h-.24v.72h-.24v.48h-.24v.48h-.24v.48h-.24v.48h-.24v.72h-.24v.48h-.24v.48h-.24v.48h-.24v.48h-.24v.48h-.24v.24H510v.48h-.24v.48h-.24v.24h-.24v.24h-.24v.48h-.24v.24h-.24v.24h-.24v.24h-.24v.24h-.24v.24h-.24v.24h-.24v.24h-.24v.24h-.24v.48h-.24v.24h-.24v.24h-.24v.48h-.24v.24h-.24v.24h-.24v.24h-.24v.24h-.24v.24h-.24v.24h-.48v.24H504v.24h-.24v.24h-.24v.24h-.24v.24h-.48v.24h-.24v.24h-.48v.24h-.24v.24h-.48v.24h-.48v.24h-.48v.24h-.24v.24h-.48v.24h-.24v.24h-.48v.24h-.24v.24h-.24v.24H498v.24h-.24v.24h-.48v.24h-.24v.24h-.24v.24h-.24v.24h-.24v.24h-.24v.24h-.48v.24h-.48v.24h-.24v.24h-.24v.24h-.48v.24h-.24v.24h-.48v.24h-.24v.24h-.24v.24h-.48v.24h-.24v.24H492v.24h-.48v.24h-.24v.24h-.24v.24h-.24v.24h-.24v.24h-.24v.24h-.24v.24h-.24v.24h-.48v.24h-.24v.24h-.24v.24h-.24v.24h-.24v.24h-.24v.24h-.48v.24h-.24v.24h-.24v.24h-.24v.24h-.24v.24h-.24v.24h-.24v.24H486v.24h-.24v.24h-.48v.48h-.24v.24h-.48v.24h-.24v.24h-.24v.48h-.24v.24h-.24v.24h-.24v.24h-.24v.24h-.24v.48h-.24v.24h-.24v.24h-.24v.24h-.24v.48h-.24v.48h-.24v.48h-.24v.24h-.24v.48h-.24v.72h-.24v.48h-.24v.48H480v.48h-.24v.72h-.24v.72h-.24v.96h-.24v1.2h-.24v1.92h-.24v1.44h-.24v.96h-.24v.72h-.24v.96h-.24v.72h-.24v2.16h-.24v.48h-.24v.48h-.24v.24h-.24v.24h-.24v.48h-.24v.48h-.24v.24h-.24v.48h-.24v.24h-.24v.24h-.24v.24h-.24v.24h-.24v.24H474v.24h-.48v.24h-.24v.24h-.24v.24h-.24v.24h-.24v.24h-.24v.24h-.24v.24h-.24v.24h-.24v.48h-.24v.24h-.24v.48h-.24v.24h-.24v.48h-.48v.48h-.24v.24h-.24v.24h-.24v.48h-.24v.24h-.24v.24h-.24v.24h-.24v.48h-.24v.24H468v.24h-.24v.24h-.24v.48h-.24v.24h-.24v.24h-.24v.24h-.24v.24h-.24v.24h-.24v.48h-.24v.48h-.24v.24h-.24v.24h-.24v.24h-.24v.24h-.24v.48h-.24v.24h-.24v.48h-.24v.24h-.24v.24h-.24v.24h-.24v.24h-.24v.24h-.24v.24h-.24v.24h-.24v.24H462v.24h-.24v.24h-.24v.48h-.48v.24h-.24v.24h-.24v.24h-.24v.24h-.48v.24h-.24v.24h-.24v.24h-.24v.24h-.48v.24h-.24v.24h-.24v.24h-.48v.24h-.24v.24h-.48v.24h-.24v.24h-.48v.24h-.48v.24h-.48v.24h-.24v.24h-.48v.24h-.24v.24h-.24v.24h-.48v.24h-.24v.24h-.24v.24h-.48v.24h-.24v.24h-.48v.24h-.24v.24h-.24v.24h-.72v.24h-.48v.24h-.72v.24h-.72v.24h-.72v.24h-.96v.24h-.72v.24h-.48v.24h-.72v.24h-.48v.24h-.48v.24h-.48v.24h-.72v.24h-1.2v.24h-1.68v.24H438v.24h-2.64v.24h-3.84v.24h-2.4v.24h-2.4v.24h-1.44v.24h-2.64v.24h-1.44v.24h-.72v.24h-.72v.24h-.48v.24h-.48v.24h-.24v.24h-.48v.24h-.24v.24h-.72v.24h-.96v.24h-.72v.24h-.96v.24h-.72v.24h-.72v.24h-.72v.24h-.72v.24h-.72v.24h-.72v.24h-.48v.24h-.72v.24h-.72v.24h-.48v.24h-.72v.24h-.48v.24h-.72v.24h-.48v.24h-.72v.24h-.48v.24h-.48v.24h-.48v.24h-.48v.24h-.48v.24h-.48v.24h-.48v.24h-.24v.24h-.48v.24h-.24v.24h-.48v.24h-.24v.24h-.48v.24h-.24v.24h-.24v.24h-.48v.24h-.24v.24h-.24v.24h-.48v.24h-.24v.24h-.24v.24h-.48v.24H396v.24h-.24v.24h-.48v.24h-.24v.24h-.24v.24h-.24v.24h-.24v.24h-.48v.48h-.24v.24h-.24v.24h-.24v.24h-.24v.24h-.24v.24h-.24v.24h-.24v.24h-.24v.24h-.24v.24h-.24v.24h-.24v.24h-.24v.24h-.24v.24h-.24v.24h-.24v.24H390v.48h-.48v.24h-.24v.24h-.24v.24h-.24v.24h-.24v.24h-.24v.24h-.24v.24h-.24v.24h-.24v.24h-.48v.24h-.24v.24h-.24v.24h-.24v.24h-.24v.24h-.24v.24h-.24v.24h-.48v.24h-.24v.24h-.24v.24h-.48v.24H384v.24h-.24v.24h-.24v.24h-.24v.24h-.24v.24h-.24v.24h-.48v.24h-.24v.24h-.24v.24h-.24v.24h-.48v.24h-.24v.24h-.24v.24h-.24v.24h-.24v.24h-.24v.24h-.24v.24h-.48v.24h-.24v.24h-.24v.24h-.24v.24H378v.24h-.24v.24h-.24v.24h-.24v.24h-.48v.24h-.24v.24h-.24v.24h-.24v.24h-.24v.24h-.48v.24h-.24v.24h-.48v.24h-.24v.24h-.24v.24h-.48v.24h-.48v.24h-.24v.24h-.24v.24h-.48v.24h-.48v.24h-.48v.24h-.48v.24h-.24v.24h-.48v.24h-.48v.24h-.48v.24h-.48v.24h-.48v.24h-.48v.24h-.48v.24h-.24v.24h-.48v.24H366v.24h-.48v.24h-.48v.24h-.48v.24h-.48v.24h-.48v.24h-.72v.24h-.48v.24h-.72v.24h-.72v.24h-.72v.24h-.72v.24h-.72v.24h-.72v.24h-.48v.24h-.48v.24h-.72v.24h-.72v.24h-.72v.24H354v.24h-.96v.24h-.96v.24h-1.2v.24h-4.56v.24h-2.16v.24h-1.92v.24h-2.4v.24h-2.4v.24h-1.92v.24h-1.68v.24h-1.68v.24H330v.24h-8.16v-.24h-1.44v-.24h-1.68v-.24h-1.44v-.24h-2.88v-.24h-1.68v-.24h-5.76V636h-3.12v-.24h-1.68v-.24h-1.68v-.24h-8.64v.24h-1.68v.24h-1.2v.24h-1.68v.24h-1.2v.24h-1.2v.24h-.72v.24h-.96v.24h-.72v.24h-.72v.24h-.96v.24h-.72v.24h-.48v.24h-.96v.24h-.48v.24h-.72v.24h-.72v.24H276v.24h-.72v.24h-.48v.24h-.72v.24h-.72v.24h-.96v.24h-.72v.24h-.72v.24H270v.24h-.72v.24h-.72v.24h-.72v.24h-.48v.24h-.72v.24h-.48v.24h-.72v.24h-.72v.24H264v.24h-.96v.24h-.72v.24h-1.2v.24h-1.44v.24h-3.12v.24h-1.2v-.24h-3.6v-.24h-1.92v-.24h-1.44v-.24h-.72v-.24h-.96v-.24H246v-.24h-.48v-.24h-.72v-.24h-.48v-.24h-.72v-.24h-.48V642h-.24v-.24h-.48v-.24h-.48v-.24h-.48v-.24h-.24v-.24h-.48v-.24h-.48v-.24H240v-.24h-.48v-.24h-.48v-.24h-.48v-.24h-.48v-.24h-.48v-.24h-.48v-.24h-.48v-.24h-.48v-.24h-.48v-.24h-.24v-.24h-.48v-.24h-.48v-.24H234v-.24h-.24v-.24h-.48v-.24h-.48v-.24h-.48V636h-.48v-.24h-.48v-.24h-.72v-.24h-.72v-.24h-.96v-.24h-1.2v-.24h-1.2v-.24h-1.2v-.24h-6v.24h-6v-.24h-2.4v-.24h-1.2v-.24h-.96v-.24h-.96v-.24h-1.2v-.24h-1.44v-.24h-1.44v-.24h-1.44v-.24h-1.2v-.24h-.96v-.24h-1.2v-.24h-1.44v-.24h-2.16v-.24h-1.2v-.24h-.72v-.24h-.72v-.24h-.48V630h-.48v-.24h-.24v-.24h-.48v-.24h-.72v-.24h-.48v-.24h-.72v-.24h-.48v-.24h-.48v-.24h-.24v-.24h-.48v-.24h-.24v-.24h-.24v-.24h-.24v-.24h-.24v-.24h-.24v-.24H186v-.24h-.24v-.24h-.24v-.24h-.24v-.24h-.24v-.24h-.24v-.24h-.24v-.24h-.24v-.24h-.48V624h-.48v-.24h-.24v-.24h-.24v-.24h-.24v-.24h-.24v-.24h-.24v-.24h-.24v-.24h-.24v-.48h-.24v-.24h-.48v-.48h-.48v-.24h-.24v-.24h-.48v-.24h-.24v-.24h-.24v-.24h-.24v-.24h-.48v-.48h-.24v-.24h-.24v-.24h-.24v-.48h-.24V618h-.24v-.24h-.24v-.48h-.24v-.24h-.24v-.24h-.24v-.48h-.24v-.24h-.24v-.48h-.24v-.48h-.48v-.48h-.24v-.72h-.24v-.48h-.24v-.48h-.24v-.24H174v-.48h-.24v-.48h-.24v-.24h-.24v-.48h-.24v-.48h-.24v-.24h-.24v-.48h-.24v-.24h-.24v-.72h-.24v-.48h-.24v-.48h-.24v-.48h-.24v-.48h-.24v-.48h-.24v-.24h-.24v-.48h-.24v-.48h-.24v-.48h-.24v-.72h-.24v-.48h-.24v-.48h-.24v-.24h-.24v-.72h-.24v-.24h-.24v-.48H168v-.24h-.24v-.48h-.24V600h-.24v-.48h-.24v-.48h-.24v-.24h-.24v-.72h-.24v-.48h-.24v-.24h-.24v-.72h-.24v-.24h-.24v-.72h-.24v-.48h-.24v-.48h-.24V594h-.24v-.24h-.24v-.48h-.24v-.24h-.24v-.48h-.24v-.24h-.24v-.48h-.24v-.48h-.24v-.48h-.24v-.72h-.24v-.72H162v-.72h-.24v-1.2h-.24v-.96h-.24v-1.68h-.24v-.96h-.24v-1.2h-.24v-1.2h-.24v-.48h-.24v-.72h-.24v-.72h-.24v-1.2h-.24v-.72h-.24v-.96h-.24v-.96h-.24v-.72h-.24v-.48h-.24v-.48h-.24v-.48h-.24v-.48h-.24v-.24h-.24v-.48h-.24v-.48h-.24v-.24h-.24v-.48h-.24v-.48H156v-.24h-.24V570h-.24v-.24h-.24v-.24h-.24v-.24h-.24v-.24h-.24v-.48h-.24v-.24h-.24v-.24h-.24v-.24h-.24v-.24h-.24v-.24h-.24v-.24h-.48v-.24h-.24v-.24h-.24v-.24h-.24v-.24h-.48v-.24h-.24v-.24h-.24v-.24h-.24v-.24h-.24v-.24h-.24v-.24h-.48v-.24h-.24v-.24h-.24V564h-.24v-.24h-.24v-.24h-.24v-.24h-.48v-.24h-.24v-.24h-.48v-.24h-.24v-.24h-.48v-.24h-.48v-.24h-.24v-.24h-.48v-.24h-.24v-.24h-.48v-.24h-.48v-.24H144v-.24h-.48v-.24h-.24v-.24h-.48v-.24h-.24v-.24h-.48v-.24h-.48v-.24h-.48v-.24h-.24v-.24h-.72v-.24h-.48V558h-.72v-.24H138v-.24h-.72v-.24h-.96v-.24h-.72v-.24h-.48v-.24h-.48v-.24h-.48v-.24h-.48v-.24h-.48v-.24h-.48v-.24h-.48v-.24h-.48v-.24h-.48v-.24h-.48v-.24h-.48v-.24h-.48v-.24h-.48v-.24h-.24v-.24h-.48v-.24h-.24v-.24h-.48v-.24h-.48v-.24h-.24v-.24h-.48V552h-.48v-.24h-.48v-.24h-.48v-.24h-.72v-.24h-.48v-.24h-.48v-.24h-.48v-.24h-.48v-.24h-.24v-.24h-.48v-.24h-.24v-.24h-.24v-.24h-.48v-.24h-.24v-.24h-.24v-.24h-.24v-.24H120v-.24h-.24v-.24h-.24v-.24h-.24v-.24h-.24v-.24h-.24v-.24h-.24v-.48h-.24V546h-.24v-.24h-.24v-.48h-.24v-.24h-.24v-.48h-.24v-.48h-.24v-.24h-.24v-.48h-.24v-.72h-.24v-.72h-.24v-.72h-.24v-.48h-.24V540h-.24v-.48h-.24v-.48h-.24v-.48h-.24v-.48h-.24v-.48H114v-.48h-.24v-.72h-.24v-.24h-.24v-.48h-.24v-.48h-.24v-.48h-.24v-.24h-.24v-.24h-.24v-.48h-.24v-.24h-.24v-.24h-.24v-.48h-.24v-.24h-.24v-.24h-.24v-.48h-.24v-.24h-.24v-.24h-.24v-.24h-.24v-.48h-.24v-.24h-.24v-.24h-.24v-.24h-.24v-.24h-.24v-.24h-.24v-.24H108v-.24h-.48v-.48h-.48v-.24h-.24V528h-.48v-.24h-.48v-.24h-.24v-.24h-.48v-.24h-.24v-.24h-.48v-.24h-.24v-.24h-.48v-.24h-.24v-.24h-.48v-.24h-.24v-.24h-.48v-.24h-.48v-.24h-.24v-.24h-.48v-.24h-.24v-.24h-.48v-.24h-.48v-.24h-.24v-.24h-.24v-.24h-.48v-.24h-.48v-.24h-.24v-.24h-.24v-.24h-.48V522h-.24v-.24h-.48v-.24h-.48v-.24H96v-.24h-.48v-.24h-.24v-.24h-.48v-.24h-.24v-.24h-.24v-.24h-.24v-.24h-.24v-.24h-.24v-.24h-.24v-.24h-.24v-.24h-.24v-.24h-.24v-.24h-.24v-.24h-.24v-.24h-.24v-.24h-.24v-.24h-.24v-.24h-.48v-.24h-.24v-.24h-.48v-.24H90V516h-.24v-.24h-.24v-.24h-.48v-.24h-.24v-.24h-.24v-.24h-.24v-.24h-.24v-.24h-.24v-.24h-.24v-.24h-.48v-.24h-.24v-.24h-.24v-.24h-.48v-.24h-.24v-.24h-.24v-.24h-.24v-.24h-.24v-.24h-.24v-.24h-.24v-.24h-.24v-.24h-.24v-.24H84v-.24h-.24v-.24h-.24v-.24h-.24v-.48h-.24v-.24h-.24v-.24h-.24v-.24h-.24v-.24h-.24v-.24h-.24v-.24h-.24v-.48h-.48v-.48h-.24v-.24h-.24v-.48h-.24v-.24h-.24v-.24h-.24v-.48h-.24v-.48h-.24v-.24h-.24v-.24h-.24v-.48h-.24V504h-.24v-.24h-.24v-.48H78v-.24h-.24v-.24h-.24v-.48h-.24v-.24h-.24v-.48h-.24v-.24h-.24v-.24h-.24v-.48h-.24v-.48h-.24v-.48h-.24v-.24h-.24v-.48h-.24v-.48h-.24V498h-.24v-.96h-.24v-.48h-.24v-.72h-.24v-.72h-.24v-.96h-.24v-.48h-.24v-1.44h-.24v-.96h-.24v-.96h-.24v-1.2h-.24v-1.44H72v-.96h-.24v-1.44h-.24V475.2h.24v-3.12H72v-2.16h.24v-3.6h.24v-3.36h.24v-4.08h.24v-2.16h.24v-2.16h.24v-1.2h.24v-1.44h.24v-1.2h.24v-1.68h.24v-2.16h.24v-.96h.24v-.72h.24v-1.44h.24v-1.44h.24v-.96h.24v-1.2h.24v-1.68h.24v-3.12h.24v-1.68h-.24v-2.16h-.24v-1.92h-.24v-1.44h-.24v-.72h-.24v-.72h-.24V426h-.24v-.72h-.24v-.96h-.24v-.96h-.24v-.48h-.24v-.72h-.24v-.96h-.24v-.48h-.24v-.96h-.24v-.48h-.24v-.48h-.24v-.96h-.24v-.72H72v-.48h-.24v-.48h-.24v-.96h-.24v-.48h-.24v-.24h-.24v-.72h-.24v-.48h-.24v-.48h-.24v-.48h-.24v-.48h-.24v-.48h-.24v-.48h-.24v-.24h-.24v-.72h-.24v-.72h-.24v-.48h-.24v-.96h-.24v-.96h-.24v-.96h-.24v-.96h-.24v-.72h-.24v-1.68h.24v-.72h.24v-1.2h.24v-.96h.24v-.96h.24v-1.44h.24V396h.24v-1.44h.24v-1.2h.24v-.96h.24v-.96h.24v-.72h.24v-1.2h.24v-.96h.24v-1.44h.24v-1.44h.24v-1.2h.24v-1.2h.24v-.96h.24v-1.92h.24v-1.68H72V378h.24v-1.92h.24v-1.44h.24v-1.44h.24v-.72h.24v-1.44h.24v-.96h.24v-1.44h.24v-.72h.24v-1.2h.24v-.96h.24v-.72h.24v-.72h.24v-.96h.24v-.72h.24v-.24h.24v-.96h.24v-1.2h.24v-.72h.24v-.72h.24v-.72h.24v-.48h.24v-.48h.24v-.72h.24v-.48H78v-.72h.24v-.24h.24v-.72h.24v-.72h.24v-.48h.24v-.72h.24v-.24h.24v-.72h.24v-.72h.24v-.48h.24v-.48h.24v-.72h.24v-.48h.24v-.72h.24v-.24h.24v-.48h.24v-.96h.24v-.24h.24v-.72h.24v-.72h.24v-.48h.24v-.48h.24v-.48h.24v-.48h.24v-.72H84v-.48h.24v-.24h.24v-.72h.24v-.48h.24v-.48h.24v-.48h.24v-.48h.24v-.48h.24v-.48h.24v-.48h.24v-.48h.24V336h.24v-.48h.24v-.48h.24v-.24h.24v-.48h.24v-.48h.24v-.24h.24v-.48h.24v-.48h.24v-.48h.24v-.24h.24v-.48h.24v-.48h.24v-.48H90V330h.24v-.24h.24v-.24h.24v-.48h.24v-.72h.24v-.24h.24v-.48h.24v-.48h.24v-.24h.24v-.48h.24v-.24h.24v-.48h.24v-.24h.24v-.48h.24v-.24h.24v-.48h.24V324h.24v-.48h.24v-.48h.24v-.24h.24v-.24h.24v-.48h.24v-.24h.24v-.24h.24v-.48H96v-.24h.24v-.24h.24v-.48h.24v-.24h.24v-.24h.24v-.48h.24v-.48h.24v-.24h.24v-.24h.24v-.48h.24v-.24h.24v-.24h.24v-.24h.24v-.24h.24v-.48h.24v-.24h.24v-.48h.24v-.24h.24v-.24h.24v-.24h.24v-.24h.24v-.48h.24v-.24h.24v-.24h.24v-.24h.24v-.48h.24v-.24h.24v-.24h.24v-.24h.24v-.48h.24v-.24h.24v-.48h.24v-.48h.24v-.24h.24v-.48h.24v-.48h.24v-.48h.24v-.24h.24v-.48h.24v-.48h.24v-.24h.24v-.48h.24v-.24h.24v-.24h.24v-.24h.24V306h.24v-.24h.24v-.24h.48v-.24h.24v-.24h.24v-.24h.48v-.24h.24v-.24h.48v-.24h.24v-.24h.48v-.24h.24v-.24h.24v-.24h.48v-.24h.48v-.24h.24v-.24h.48v-.24h.24v-.24h.48v-.24h.24v-.24h.24v-.24h.48v-.24h.24v-.24h.48v-.24h.24v-.24h.24V300h.48v-.24h.48v-.24h.24v-.24h.48v-.24h.24v-.24h.48v-.24h.24v-.24h.24v-.24h.48v-.24h.24v-.24h.24v-.24h.24v-.24h.48v-.24h.24v-.24h.24v-.24h.24v-.24h.24v-.24h.24v-.24h.24v-.24h.24v-.24h.24v-.24h.24v-.24h.24v-.24h.24v-.24h.24V294h.24v-.48h.24v-.24h.24v-.48h.24v-.24h.24v-.48h.24v-.24h.24v-.48h.24v-.48h.24v-.48h.24v-.48h.24v-.48h.24v-.48h.24v-.72h.24v-.48h.24v-.72h.24v-.48h.24v-.96h.24v-.72h.24v-.96h.24v-.96h.24v-1.2h.24v-.72h.24v-1.2h.24v-.72h.24v-1.2h.24v-1.2h.24V276h.24v-.72h.24v-.96h.24v-.72h.24v-.72h.24v-.72h.24v-.48h.24v-.48h.24v-.24h.24v-.24h.24v-.24h.24v-.24h.24V270h.24v-.24h.24v-.24h.24v-.24h.24v-.24h.24v-.24h.24v-.24h.24v-.24h.24v-.24h.24v-.24h.24v-.24h.24v-.24h.24v-.24h.24v-.24h.24v-.24h.48v-.24h.24v-.24h.24v-.24h.24v-.48h.24v-.24h.24v-.24h.24v-.24h.24v-.24h.24v-.24h.24V264h.24v-.24h.24v-.24h.24v-.24h.24v-.24h.24v-.24h.24v-.24h.24v-.48h.24v-.24h.24v-.24h.24v-.24h.24v-.24h.24v-.24h.24v-.48h.24v-.24h.24v-.24h.24v-.48h.24v-.48h.24v-.24h.24v-.48h.24v-.48h.24v-.48h.24v-.24h.24v-.72h.24v-.48h.24v-.48h.24v-.72h.24v-.48h.24v-.48h.24v-.48h.24v-.72h.24V252h.24v-.48h.24v-.96h.24v-.48h.24v-.72h.24v-.48h.24v-.96h.24v-.48h.24v-.72h.24V246h.24v-.72h.24v-.72h.24v-.72h.24v-.72h.24v-.96h.24v-.48h.24v-.96h.24V240h.24v-1.44h.24v-.72h.24v-.72h.24v-.72h.24v-.72h.24v-1.2h.24V234h.24v-.72h.24v-.48h.24v-.72h.24v-.48h.24v-.72h.24v-.48h.24v-.72h.24v-.48h.24v-.72h.24v-.72h.24v-.24h.24v-.48h.24v-.72h.24v-.24h.24v-.48h.24v-.48h.24v-.48h.24v-.24h.24v-.24h.24v-.48h.24v-.24h.24v-.48h.24v-.24h.24v-.48h.24v-.48h.24v-.24h.24v-.24h.24v-.48h.24v-.24h.24v-.24h.24v-.24h.24v-.48h.24v-.24h.24v-.48h.24v-.24h.24v-.48h.24v-.24h.24v-.48h.24v-.24h.24v-.48h.24v-.24h.24V216h.24v-.48h.24v-.24h.24v-.48h.24v-.24h.24v-.48h.24v-.48h.24v-.24h.24v-.24h.24v-.48h.24v-.48h.24v-.48h.24v-.24h.24v-.24h.24v-.24h.24v-.48h.24v-.24h.24v-.48h.24v-.24h.24v-.24h.24v-.48h.24v-.24h.24v-.24h.24v-.24h.24v-.24h.24v-.48h.24v-.24h.24v-.24h.24v-.24h.24v-.24h.24v-.48h.48v-.24h.24v-.48h.48v-.24h.24v-.24h.24v-.24h.48v-.24h.24V204h.48v-.24h.24v-.24h.48v-.24h.48v-.24h.48v-.24h.24v-.24h.48v-.24h.48v-.24h.48v-.24h.48v-.24h.72v-.24h.48v-.24h.72v-.24h.72v-.24h.72v-.24h.72v-.24h.72v-.24h.72v-.24h.72v-.24h.96v-.24h.72v-.24h.96v-.24h.72v-.24h.72v-.24h.72V198h.72v-.24h.48v-.24h.96v-.24h.72v-.24h.72v-.24h.48v-.24h.72v-.24h.72v-.24h.48v-.24h.72v-.24h.72v-.24h.48v-.24h.72v-.24h.48v-.24h.72v-.24h.72v-.24h.72v-.24h.72v-.24h.72v-.24h.72v-.24h.72v-.24h.72v-.24h.72v-.24h.72v-.24h.72V192h.48v-.24h.72v-.24h.48v-.24h.96v-.24h.48v-.24h.72v-.24h.96v-.24h.72v-.24h.72v-.24h.72v-.24h1.2v-.24h.96v-.24h.96v-.24h.72v-.24h.96v-.24h.72v-.24h.72v-.24h.48v-.24h.96v-.24h.48v-.24h.48v-.24h.72v-.24h.48v-.24h.72v-.24h.48V186h.48v-.24h.48v-.24h.48v-.24h.48v-.24h.48v-.24h.24v-.24h.48v-.24h.24v-.24h.48v-.24h.48v-.24h.24v-.24h.48v-.24h.24v-.24h.24v-.24h.24v-.24h.48v-.24h.24v-.24h.24v-.24h.48v-.24h.24v-.24h.48v-.24h.24v-.24h.24v-.24h.48v-.24h.24V180h.48v-.24h.48v-.24h.48v-.24h.48v-.24h.72v-.24h.48v-.24h.96v-.24h.96v-.24h1.68v-.24h5.04v-.24h.48v.24h.72v.24h.48v.24h.48v.24h.24v.24h.48v.24h.48v.24h.24v.24h.48v.24h.48v.24h.24v.24h.48v.24h.48v.24h.48v.24h.48v.24h.48v.24h.24v.24h.48v.24h.48v.24h.48v.24h.48v.24h.48v.24h.48v.24h.48v.24h5.52v-.24h.96v-.24h.48v-.24h.72v-.24h.72v-.24h.48v-.24h.72v-.24h.48v-.24h.48v-.24h.48v-.24h.72v-.24h.48v-.24h.48v-.24h.48V180h.48v-.24h.48v-.24h.72v-.24h.48v-.24h.48v-.24h.48v-.24h.48v-.24h.48v-.24h.48v-.24h.24v-.24h.72v-.24h.24v-.24h.48v-.24h.48v-.24h.48v-.24h.24v-.24h.48v-.24h.48v-.24h.24v-.24h.48v-.24h.24v-.24h.24v-.24h.48v-.24h.48v-.24h.24V174h.48v-.24h.24v-.24h.48v-.24h.48v-.24h.24v-.24h.24v-.24h.48v-.24h.48v-.24h.48v-.24h.48v-.24h.48v-.24h.48v-.24h.48v-.24h.48v-.24h.48v-.24h.72v-.24h.72v-.24h.48v-.24h.72v-.24h.72v-.24m39.36.72h1.68v.24h.48v.24h.24v.24h.48v.24h.24v.24h.24v.24h.24v.24h.24v.48h.24v.72H330v.24h-.24v.24h-.24v.72h-.24v.24h-.24v.24h-.24v.24h-.24v.24h-.24v.24h-.24v.24h-.72v.24h-.48v.24h-.96v.24h-.96v.24H324v.24h-.96v.24h-2.88v-.24h-.24v-.24h-.24v-.24h-.48v-.96h.24v-.24h.48v-.24h.48v-.24h-.24v-.24h-.24V174h-.24v-.24h-.24v-.96h.24v-.48h.24v-.24h.24v-.24h.24v-.24h.48v-.24h.24v-.24h.48v-.24h.72v-.24h.72v-.24h.72v-.24h2.4v-.24m-63.12.24h.24v.24h.48v.24h.24v.24h.24v.24h.24v.72h-.24v.24H264v.48h-.48v.24h-.24v.24h-.24v.24h-.24v.24h-.48v.24h-.48v.24h-.48v.24h-.72v.24h-1.44v.24h-2.4v-.24h-.72v-.24h-.48v-.72h.24v-.24h.24v-.24h.24v-.24h.24v-.24h.48v-.24h.48v-.24h.48v-.24h.48v-.24h.72v-.24h.48v-.24h.72v-.24h2.4v-.48h.24v-.24m80.64 1.68h.96v.24h.48v.24h.24v.24h.24v.48h.24v.48h.24v.24h-.24v.48h.24v.24h.24v.72h-.24v.48h-.24v.24h-.24v.24h-.48v.24h-.24v.24h-.48v.24h-.72v.24h-.24v.24h-.72v.24H342v.24h-.48v.24h-.72v.24h-.72v.24h-.96v.24h-1.92v-.24h-.24v-.48h-.24v-.72h.24v-.24h.48v-.48h-.24v-.96h.24v-.48h.24v-.24h.24v-.24h.24v-.24h.24v-.24h.24V174h.24v-.24h.48v-.24h.24v-.24h.24v-.24h.48v-.24h.72v-.24h.72v-.24h1.44v-.24h.48v-.24M136.08 246h.24v.24h.24v.24h.24v.48h.24v.48h.24v.48h.24v.48h.24v.96h.24v.24h-.24v1.2h-.24v.48h-.24v.72h-.24v.24h-.24v.24h-.24v.48h-.24v.24h-.24v.24h-.24v.24h-.24v.24h-.24v.24h-.24v.24h-.24v.24h-.24v.24h-.24v.24h-.24v.24h-.48v.24h-.24v.24h-.48v.24h-.48v.24h-.72v.24h-1.2v-.24h-.24v-.24h-.24v-2.88h.24v-.72h.24v-.72h.24v-.48h.24v-.48h.24v-.48h.24v-.24h.24v-.48h.24v-.48h.24v-.48h.48v-.48h.24v-.24h.24v-.24h.24v-.24h.24v-.24h.24v-.24h.24v.48h.24v.48h.48v-.48h.24v-.48h.24v-.24h.24v-.24h.24v-.24h.24V246m348.96 12.24h.48v.24h.48v.48h.24v.24h.24v.24h.24v.24h.24v.48h.24v.24h.24v.72h.24v.48h.24v.48h.24v.24h.24v.72h.24v.96h.24v1.2h.24v.48h-.24v.72h-.24v.48h-.24v.24h-.24v.24h-.24v.24h-.24v.24h-.48v.24h-.48v.24h-.48v.24h-.72v.24h-.96v-.24h-.72v-.24h-.48v-.24h-.24v-.24h-.24v-.24h-.24v-.24h-.24v-.24h-.48v-.24h-.24v-.48h-.24v-.48h-.24v-1.44h-.24v-1.92h.24v-.24h.24v.24h.24v-.24h.48v-.24h.24v-.24h.24v-.24h.48v-.24h.24v-.24h.24v-.24h.48v-.72h.24v-.96h.24v-.48h.24v-.24h.24v-.24m5.28 14.16h.24v.24h1.68v-.24h.72v.24h.24v.24h.24v.48h.24v.24h.24v.24h.24v.48h.24v.24h.24v1.2h-.24v.48h-.24v.24h-.48v.24h-.96v.24H492v-.24h-.48v-.24h-.48V276h-.24v-.24h-.24v-.72h-.24v-.48h-.24v-1.92h.24v-.24m-376.08 6.48h.24v.24h.72v-.24h1.44v1.68h-.24v.72h-.24v.96h-.24v.48h-.24v.24h-.24v.48h-.24v.24h-.24v.24h-.24v.24h-.24v.48h-.24v.24H114v.24h-.24v.24h-.24v.24h-.24v.24h-.24v.24h-.24v.24h-.24v.24h-.48v.24h-.24v.24h-.48v.24h-.24v.24h-.48v.24h-.72v.24h-.48v-.24h-.72v-.24h-.48v-.48H108v-.24h-.24v-.48h-.24v-.48h-.24v-.72h.24v-.72h.24v-.72h.24v-.48h.24v-.72h.24v-.24h.24v-.48h.24v-.24h.24v-.24h.24v-.24h.24v-.24h.24v-.24h.24v-.24h.48v-.24h.24v-.24h.48v-.24h.72v-.24H114v-.24h.24v-.24m-9.12 16.08h.72v.24h.24v.24h.24v1.2h-.24v.72h-.24v.24h-.24v.48h-.24v.48h-.24v.24h-.24v.24h-.24v.24h-.24v.24h-.24v.24h-.24v.24h-.24v.24h-.24v.24h-.24v.24h-.48v.24h-.24v.24h-.24v.24h-.48v.24h-.72v.24h-1.68v-.24h-.48v-.24h-.24v-.24h-.48v-.48h-.24v-.24h-.24v-1.44h.24v-.48h.24v-.24h.24v-.24h.24v-.24h.24v-.24h.24v-.24h.24v-.24h.48v-.24h.24v-.24h.48v-.24h.48v-.24h.48v-.24h.48v-.24h.72v-.24h.72v-.24h1.2v.24h.48v.24h.72v-.24h-.24v-.24h-.48v-.24m431.28 115.2h.96v.48h.24v1.92h-.24v.96h-.24v1.2h-.24v.96h-.24v.72h-.24v.72h-.24v.48h-.24v.72h-.24v.48h-.24v.72h-.24v.24h-.24v.48h-.24v.48h-.24v.24h-.24v.24H534v.24h-.24v.24h-.48v.24h-.24v.24h-.48v.24h-.24v-.24h-.24v-.24h-.24v-1.44h.24v-.72h.24v-1.44h.24v-2.16h.24v-1.2h.24V414h.24v-.72h.24v-.48h.24v-.48h.24v-.48h.24v-.48h.24v-.24h.24v-.24h.48v-.24h.24v-.24h.96v-.24m-1.92 15.36h.24v.72h.24v1.2h.24v2.16h-.24v.72h-.24v.24h-.24v.24h-.24v.24H534v.24h-.24v.24h-.48v.24h-.48v.24h-.72v-.48h-.24v-2.16h.24v-.96h.24v-1.2h.24v-.48h.48v-.24h.24v-.24h.48V426h.24v-.24h.48v-.24m-466.32 8.16h.72v.24h-.72v-.24m-.72.48h.48v.24h.24v.24h.24v.24h.24v.24h.24v.72h.24v.48h.24v1.44h-.24v1.2h-.24v1.92h-.24v.72h-.24v.48h-.24v.48h-.24v.24h-.24v.24h-.72v-.24h-.24v-.24h-.24v-.24h-.24v-1.2H66V438h.24v-1.44h.24v-.72h.24v-.48h.24v-.48h.24v-.48h.24v-.24m32.64 99.12h.96v.24h.24v.24h.48v.24h.48v.48h.48v.48h.24v.24h.48v.48h.48v-.24h.24v.24h.24v.48h.24v.48h.24v.24h-.24v.48h-.24v.24h-.24v.48h-.24v.24h-.24v.24h-.48v.24h-2.88v-.24h-.24v-.24h-.24v-.48h-.24v-.24h-.24v-.72h-.24v-2.16h.24V534h.24v-.24h.24v-.24h.24v-.24m7.44 11.52h.24v.24h.48v.24h.48v.24h.24v.24h.24v.24h.24v.24h.24v.72h.24v.48h-.24v.72h-.24v.48h-.24v.72h-.24v.24h-.24v.48h-.24v.24h-.24v.48H108v.24h-.24v.24h-.24v.24h-.48v.24h-.72v-.24h-.24v-.24h-.24v-.48h-.24v-.72h-.24v-2.16h.24v-.48h.24v-.48h.24v-.24h.24v-.24h.24v-.24h.24V546h.24v-.24h.48v-.96m384.96 1.92h.48v.48h-.24v.72h.24v.48h-.24v.96h-.24v1.2h-.24v.48H492v.24h-.24v.48h-.24v.24h-.24v.48h-.24v.24h-.24v.24h-.24v.24h-.24v.24h-.48v.24h-.24v.24h-.48v.24h-.72v-.24h-.24v-.24h-.24V552h.24v-.48h.24v-.24h.24v-.48h.24v-.24h.24v-.48h.24v-.24h.24v-.24h.24v-.48h.24v-.48h.48v-.48h.48v-.24h.24v-.24h.24v-.24h.24v-.24h.48v-.24h.24v-.24M121.44 552h.24v.24h.72v.24h.24v.24h.24v.24h.24v.48h.24v.24h.24v.96h.24v.96h-.24v.72h-.24v.24h-.24v.24h-.24v.24h-.24v.24h-.72v.24h-.48v.24h-.48v.24H120v-.24h-.24v-.24h-.24v-.24h-.24v-.24h-.24v-.48h-.24v-.24h-.24v-.72h-.24v-.72h.24v-.48h.24v-.48h.24v-.48h.24v-.48h.24v-.24h.24v-.24h.72v-.24h.96V552m308.64 46.56h.48v.24h.96v.24h.24v.24h.24v.48h.24v.48h.24v.48h-.24v.96H432v.24h-.24v.24h-.24v.24h-.24v.24h-.24v.24h-.24v.24h-.24v.24h-.48v.24h-.48v.24h-.24v.24h-.48v.24h-.48v.24h-.96v.24h-.96v.24h-1.44v-.24h-1.2v-.24h-.24v-.24h-.48v-.24h-.24v-.48h-.24v-.24h-.24v-1.44h.48v-.24h.24v-.24h.48v-.24h.24v-.24h.48v-.24h.48v-.24h.48v-.24h.48V600h.48v-.24h.72v-.24h.72v-.24h.72v-.24h.96v-.24h.72v-.24m-13.92 6h.24v.24h-.24v-.24m-.72.24h.48v.48h.72v.48h.24v.48h-.24v.72h-.24v.48h-.24v.24h-.24v.24h-.24v.48h-.24v.24h-.24v.24h-.48v.24h-.24v.24h-.24v.24h-.72v.24h-.96v-.24h-.24v-.72h.24v-.48h.24v-.48h.24v-.72h.24v-.48h.24V606h.24v-.24h.48v-.24h.24v-.24h.48v-.24h.48v-.24m-126 36h.24v.48h.24v.24h.24v.48h.24v.48h.24v.48h1.92v.24h.24v.24h.24v.24h-.24v.72h-.24v.24h-.24v.48h-.24v.24h-.24v.24h-.24v.24h-.24v.24h-.24v.24h-.48v.24h-.24v.24h-.48v.24h-.48v.24h-.48v.24h-.48v.24h-1.2v.24h-.96v.24h-1.44v.24h-1.68v-.24h-.48V648h-.48v-.24H282v-.72h.24v-.72h.24v-.24h.24v-.24h.24v-.48h.24v-.24h.24v-.24h.24v-.24h.24v-.24h.48v-.24h.24v-.24h.24v-.24h.24v-.24h.24v-.24h.24v-.24h.48v-.24h.24v-.24h.24v-.24h.48V642h.24v-.24h.48v-.24h.48v-.24h.48v-.24h.72v-.24m13.2 1.44h1.92v.24h.48v.72h.24v1.68h-.24v.48h-.24v.24h-.48v.24h-.48v.24h-.24v.24h-.48v.24h-.48v.24h-.72v.24h-1.68v-.24h-.48v-.24h-.24v-.24h-.24v-.24h-.24v-.96h.24v-.48h.24v-.24h.24v-.24h.24v-.24h.24v-.24h.24v-.24h.24v-.24h.24v-.24h.48v-.24h.48v-.24h.72v-.24"/>
</svg>
