<svg xmlns="http://www.w3.org/2000/svg" viewBox="311.6855999999999 383.0664 203.42880000000045 70.74720000000245">
  <path fill="currentColor" fill-rule="evenodd" d="M325.2 383.76v.24h-.72v.24h-1.44v.24h-1.92v.24h-1.2v.24h-2.4v.24h-.72v.24h-.72v.24h-1.2v.96h-.24v.24h-.48v.48h-.24v.48h-.24v2.88h.24v.72h.24v.96h.24v.72h.24v.48h.24v.48h.24v.48h.24v.24h.24v.48h.24v.24h.24v.48h.24v.48h.24v.48h.24v.48h.24v.48h.24v.24h.24v.72h.24v.48h.24v.72h.24v.48h.24v.48h.24v.72h.24v.48h.24v.48h.24v.24h.24v.48h.24v.24h.24v.72h.24v.24h.24v.24h.24v.72h.24v.24h.24v.24h.24v.48h.24v.24h.24v.24h.24v.24h.24v.24h.24v.24h.24v.24h.24v.24h.24v.24h.24v.24h.24v.48h.48v.24h.24v.24h.24v.24h.24v.24h.48v.24h.24v.24h.24v.24h.48v.24h.48v.24h.24v.24h.48v.24h.48v.24h.24v.24h.48v.24h.24v.24h.48v.24h.24v.24h.48v.24h.24v.24h.48v.24h.24v.24h.48v.24h.24v.24h.24v.24h.48v.24h.24v.24h.48v.24h.24v.24h.24v.24h.48v.24h.24v.24h.48v.24h.24v.24h.24v.24h.72v.24h.24v.24h.48v.24h.48v.24h.24v.24h.48v.24h.48v.24h.24v.24h.48v.24h.48v.24h.48v.24h.48v.24h.24v.24h.48v.24h.48v.24h.24v.24h.24v.24h.48v.24h.24v.24h.48v.24h.24v.24h.48v.24h.48v.24h.48v.24h.48v.24h.48v.24h.48v.24h.48v.24h.48v.24h.48v.24h.24v.24h.48v.24h.24v.24h.48v.24h.24v.24h.48v.24h.24v.24h.24v.24h.48v.24h.48v.24h.24v.24h.48v.24h.48v.24h.48v.24h.24v.24h.48v.24h.24v.24h.24v.24h.48v.24h.24v.24h.24v.24h.48v.24h.24v.24h.24v.24h.48v.24h.48v.24h.24v.24h.48v.24h.24v.24h.48v.24h.24v.24h.24v.24h.24v.24h.24v.24h.24v.24h.24v.24h.24v.24h.24v.24h.24v.24h.24v.24h.24v.24h.24v.24h.24v.24h.24v.24h.24v.24h.24v.24h.24v.48h.24v.24h.24v.24h.24v.48h.24v.24h.24v.24h.24v.48h.24v.24h.24v.48h.24v.24h.24v.24h.24v.24h.24v.24h.24v.24h.24v.24h.24v.48h.24v.24h.24v.24h.24v.48h.24v.24h.24v.48h.24v.24h.24v.48h.24v.48h.24v.24h.24v.24h.24v.48h.24v.24h.24v.24h.24v.24h.24v.48h.48v.24h.24v.48h.24v.24h.24v.48h.24v.24h.24v.48h.24v.24h.24v.24h.24v.48h.24v.24h.24v.48h.24v.24h.24v.48h.24v.24h.24v.48h.48v.48h.24v.24h.24v.24h.24v.24h.24v.24h.24v.24h.48v.24h.48v.24h4.08v-.24h.96v-.24h.24v-.24h.24v-.24h.24v-.24h.24v-.24h.24v-.24h.24v-.24h.24v-.48h.24v-.24h.24v-.24h.24V450h.24v-.24h.24v-.24h.24v-.48h.24v-.24h.24v-.48h.24v-.48h.24v-.48h.24v-.48h.24v-.24h.24v-.48h.24v-.24h.24v-.72h.24v-.24h.24v-.24h.24v-.48h.24v-.72h.24v-.96h.24v-.48h.24v-.72h.24v-1.2h.24v-.72h.24v-1.2h.24v-2.4h-.24v-.96h-.24v-1.2h-.24v-.96h-.24v-1.44h.24v-.24h.48v-.24h.48v-.24h.48v-.24h.72v-.24h1.68v-.24h1.92v-.24h2.64v-.24h4.08v.24h1.68v.24h1.2v.24h1.44v.24h2.64v.24h10.32v.24h4.32v-.24h2.4v-.24h1.68v-.24h2.4v-.24h.96v-.24h1.2v-.24h.72v-.24h.72v-.24h.96v-.24h.72v-.24h.72v-.24h.48v-.24h.48v-.24h.72v-.24h.96v-.24h.48v-.24h.72v-.24h.72v-.24h.72v-.24h.96V426h.48v-.24h.96v-.24h.96v-.24h.72v-.24h.72v-.24h.72v-.24h.72v-.24h.48v-.24h.48v-.24h.72v-.24h.48v-.24h.48v-.24h.72v-.24h.24v-.24h.72v-.24h.48v-.24h.48v-.24h.48v-.24h.48v-.24h.24v-.24h.24v-.24h.48v-.24h.24v-.24h.48v-.24h.48V420h.24v-.24h.48v-.24h.48v-.24h.48v-.24h.24v-.24h.72v-.24h.24v-.24h.48v-.24h.72v-.24h.48v-.24h.48v-.24h.48v-.24h.48v-.24h.48v-.24h.48v-.24h.48v-.24h.48v-.24h.72v-.24h.72v-.24h.48v-.24h.48v-.24h.72v-.24h.48v-.24h.96v-.24h.96V414h1.2v-.24h.96v-.24h3.36v.24h2.64v.24h1.68v.24h.24v.24h.24v.24h.24v.24h.24v.24h.24v.48h.24v.24h.24v.24h.24v.24h.24v.24h.24v.24h.48v.24h.24v.24h.24v.24h.48v.48h.24v.24h.24v.24h.48v.24h.24v.24h.24v.48h.24v.24h.24v.24h.24v.24h.24v.24h.24v.24h.24v.24h.24v.48h.24v.24h.24v.24h.24v.24h.24v.24h.24v.48h.48v.24h.24v.24h.48v.24h.24v.24h.48v.24h.24v.24h.48v.24h.24v.24h.24v.24h.24v.24h.24v.24h.24v.48h.24v.24h.24v.24h.24v.24h.24v.24h.24v.24h.48v.24h.24v.24h.24v.24h.24v.24h.48v.24h.48v.24h.48v.24h.24v.24h.72v.24h.48v.24h.24v.24h.24v.24h.24v.48h.48v.24h.24v.24h.48v.24h.72v.24h.48v.24h.24v.24h.24v.24h.24v.24h.24v.24h.72v.24h.48v.24h.48v.24h.24v.24h.24v.24H504v-.24h1.2v-.24h.72v-.96h-.24V432h-.24v-.24h-.24v-.48h-.24v-.24h-.24v-.72h-.24v-.24h-.24v-.24H504v-.24h-.24v-.24h-.24v-.24h-.24v-.72h-.24v-.48h-.24v-.48h-.24v-.24h-.24v-.48h-.24v-.48h-.24V426h-.24v-.48h-.48v-.48h-.24v-.24h-.24v-.48h-.24v-.48h-.24v-.72h-.24v-.48h-.24v-2.4h.24v-.72h-.24v-2.16h-.24v-2.4h.24v-2.64h.72v-.24h.24v-.24h.24v-.24h.48v-.24h.24v-.24h.48v-.24h.48v-.24h.48v-.24h.48v-.24h.48v-.24h.72v-.24h.24v-.24h.48v-.24h.48v-.24h.72v-.24h.72v-.24h.48v-.24h.72V408h.72v-.24h.48v-.24h.24v-.24h.24v-.24h.48v-.24h.48v-.24h.48v-.24h.24v-.24h.24v-.24h.48v-.24h.24v-.24h.24v-.24h-.24v-.48h-.24v-.24h-.24v-.24h-.48v-.48h-.48v-.48h-.48v-.24h-.72v-.24h-.72v-.24h-.24v-.24h-.48V402h-.24v-.24h-.96v-.24h-2.4v-.24h-5.76v.24h-2.16v.24h-1.2v.24h-.96v.24h-1.44v.24h-3.84v.24h-6.24v.24h-3.12v-.24h-1.92v.24h-2.16v-.24h-1.2v-.24h-.48v-.24h-1.2V402h-.96v-.24h-.96v-.24h-.96v-.24h-.24v-.24h-.48v-.24h-.48v-.24h-.72v-.24h-.48v-.24h-.48v-.24h-.24v-.24h-.48v-.24h-.24v-.24h-.72v-.24h-.72v-.24h-.72v-.24h-.72v-.24h-1.2v-.24H462v-.24h-.96v-.24h-1.44v-.24h-1.92v-.24h-.72v-.24h-.48v-.24h-.96v-.24h-1.44V396h-.96v-.24h-.96v-.24h-1.2v-.24h-3.84v-.24h-1.44v-.24h-1.44v-.24h-1.2v-.24h-1.2v-.24h-1.92v-.24h-2.16v-.24h-.96v-.24h-1.2v-.24h-1.2v-.24h-1.68v-.24h-1.2v-.24h-2.16v-.24h-1.2v-.24h-1.68v-.24h-1.44v-.24h-1.44v-.24h-1.68v-.24h-3.12v-.24h-1.44v-.24h-1.92V390h-.48v-.24H414v-.24h-2.16v-.24h-.96v-.24h-1.44v-.24h-.72v-.24H408v-.24h-.72v-.24h-1.68v-.24h-.96v-.24h-.72v-.24h-.24v-.24h-.48v-.24h-2.64v.24h-2.4v-.24h-3.36v-.24h-1.44v-.24h-1.68v.24h-5.28v.24h-3.6v-.24h-4.08v.24h-.96v-.24h-.96v-.24h-2.64v.24h-4.32v-.24h-1.44v-.24h-4.8v-.24h-3.12v-.24h-5.52v-.24H354v-.24h-6.48v-.24h-1.68v-.24h-4.32v-.24h-1.92v-.24h-3.12V384h-2.16v-.24h-9.12"/>
</svg>
