<svg xmlns="http://www.w3.org/2000/svg" viewBox="124.64880000000002 481.4375999999998 235.74240000000157 73.6848000000028">
  <path fill="currentColor" fill-rule="evenodd" d="M183.12 482.16v.24h-2.4v.24h-3.12v.24h-1.92v.24H174v.24h-1.44v.24h-1.2v.24h-1.2v.24h-3.6v-.24h-.72v-.24h-1.68v.24h-1.2v.24h-.72v.24h-.72v.24h-.96v.24h-1.68v.24h-1.44v.24h-4.8v.24h-.96v.24h-.96v.24h-.96v.24h-.48v.24h-.96v.24h-.72v.24h-.72v.24h-1.2v.24h-6v.24h-.72v.24h-.72v.24h-.48v.24h-.72v.24h-.48v.24h-.48v.24h-.48v.24h-.48v.24h-.48v.24h-.48v.24h-.48v.24H132v.24h-.48v-.48h-.24v.48h-.48v.24h-.96v.24h-.48v.24h-.48v.24h-.48v.24h-.48v.24h-.48v.24h-.24v.48h-.24v1.44h.24v1.44h.24v1.2h.24v.24h.24v.24h.24v.48h.24v.24h.48v.24h.24v.48h.24v.72h.24v.48h.24v.48h.24v.48h.24v.48h.24v.48h.24v.24h.24v.48h.24v.24h.24v.24h.24v.48h.24v.48h.24v.24h.24v.48h.48v.24h.24v.24h.24v.48h.24v.24h.24v.48h.24v.24h.24v.48h.24v.48h.24v.24h.48v.24h.24v.48h.48v.24h.24v.48h.24v.24h.24v.24h.24v.24h.24v.24h.24v.48h.24v.24h.24v.24h.48v.24h.24v.48h.24v.24h.48v.24h.24v.24h.48v.24h.24v.48h.24v.24h.24v.48h.24v.24h.24v.24h.24v.24h.72v.24h.24v.24h.24v.24h.24v.24h.24v.24h.24v.24h.48v.24h1.2v.24h.72v.24h.24v.24h.48v.24h2.64v.24h.96v.24h2.64v.24h1.2v.24h1.2v.24h1.2v.24h1.92v.24h.96v.24h1.68v.24h1.44v.24h3.12v.24h.48v.24h.48v.24h.72v.24h.48v.24h.72v.24h.48v.24h.24v.24h.48v.24h.48v.24h.48v.24h.24v.24h.48v.24h.48v.24h.24v.24h.48v.24h.24v.24h.72v.24h.24v.24h.48v.24h.48v.24h.48v.24h.24v.24h.48v.24h.24v.24h.48v.24h.48v.24h.24v.24h.48v.24h.48v.24h.48v.24h.24v.24h.48v.24h.24v.24h.24v.24h.48v.24h.24v.48h.24v.24h.48v.24h.24v.24h.24v.48h.48v.24h.24v.48h.48v.24h.24v.24h.24v.24h.24v.24h.24v.24h.24v.48h.24v.24h.24v.24h.24v.48h.24v.24h.24v.48h.24v.24h.24v.48h.24v.48h.24v.24h.24v.24h.24v.48h.24v.48h.24v.48h.24v.24h.24v.48h.24v.72h.24v.24h.24v.48h.24v.48h.24v.48h.24v.48h.24v.48h.24v.48h.24v.72h.24v.48h.24v.96h.24v.24h.24v.48h.24v.72h.24v.24h.24v.48h.24v.24h.24v.48h.24v.48h.24v.48h.24v.24h.24v.24h.24v.48h.24v.24h.48v.24h.24v.24h.24v.24h.48v.24h.24v.24h.48v.24h.24v.24h.24v.24h.48v.24h.48v.24h.48v.24h.24v.24h.48v.24h.48v.24h.48v.24h.48v.24h.48v.24h.72v.24h.48v.24h.24v.24h.72v.24H204v.24h1.92v-.24h.48v-.24h.48v-.24h.24v-.24h.48v-.48h.24v-1.44h-.24v-1.68h-.24v-.48h-.24v-.72h-.24v-.24h-.24v-.48h-.24v-.24h-.24v-.24h-.24v-.48h-.24v-.24h-.24v-.48h-.24v-.48h-.24v-.24h-.24v-.48h-.24v-.48h-.24v-.72H204v-.72h-.24v-.96h-.24v-.72h-.24v-.72h-.24v-1.2h-.24v-.72h-.24v-.96h-.24v-4.8h.24v-.96h.24v-.24h.24v-.72h.24v-.24h.24v-.24h.48v-.24h4.8v.24h1.44v.24h.72v.24h.72v.24h.48v.24h.48v.24h.48v.24h.72v.24h.48v.24h.48v.24h.96v.24h.72v.24h.48v.24h.72v.24h.24v.24h.48v.24h.48v.24h.96v.24h.72v.24h.72v.24h.48v.24h.72v.24h.72v.24h.96v.24h.72v.24h.72v.24h.72v.24h.72v.24h.72v.24h.96v.24h.96v.24h.96v.24h.72v.24h.48v.24h.48v.24h.72v.24h.72v.24h1.2v.24h1.2v.24h1.44v.24h1.2v.24h1.2v.24h8.16v-.24h6.96V540h2.64v-.24h1.44v-.24h.96v-.24h1.2v-.24h.96v-.24h.96v-.24h.96v-.24h1.44v-.24h1.92v-.24h.72v-.24h.96v-.24h.72v-.24h1.2v-.24h.96v-.24h2.4v-.24h.72v-.24h.72v-.24h.96v-.24h.72v-.24h.96v-.24h.96v-.24h.72v-.24h.96v-.24h.72v-.24h.96V534h.96v-.24h.48v-.24h.96v-.24h.72v-.24h.96v-.24h.72v-.24h.96v-.24h1.2v-.24h.96v-.24h.72v-.24h.72v-.24h.72v-.24h.72v-.24h.72v-.24h.48v-.24h.72v-.24h.48v-.24h.72v-.24h.72v-.24h.96v-.24h.96v-.24h.72v-.24h.96v-.24h.72v-.24h.72V528h.72v-.24h.72v-.24h.48v-.24h.72v-.24h.72v-.24h.72v-.24h.96v-.24h.72v-.24h.96v-.24h.72v-.24h.72v-.24h.72v-.24h.72v-.24h.72v-.24h1.2v-.24h3.36v.24h.72v.24h.96v.24h.48v.24h.72v.24h.72v.24h.72v.24h.24v.24h.48v.24h.48v.24h.24v.24h.48v.24h.48v.24h.24v.24h.48v.24h.48v.24h.48v.24h.72v.24h.48v.24h.48v.24h.48v.24h.48v.24h.72v.24h.48v.24h.48v.24h.48v.24h.48v.24h.24v.24h.24v.24h.24v.24h.48v.24h.24v.24h.24v.24h.24v.24h.24v.24h.48v.48h.48v.24h.24v.24h.24v.24h.24v.24h.24v.24h.24v.24h.24v.24h.24v.24h.48v.24h.24v.24h.48v.24h.24v.24h.24v.24h.24v.24h.24v.24h.24v.24h.48v.24h.72v.24h.48v.24h.72v.24h.48v.24h.72v.24h1.2v.24h1.92v.24h.72v.24h.72v.24h.72v.24h.72v.24h.48v.24h.72v.24h.48v.24h.48v.24h.48v.24h.48v.24h.72v.24h.48v.24h2.4v-.24h.48v-.24h.48v-.24h.48v-.24h.48v-.24h.48v-.24h.24v-.24h.24V540h.24v-.72h.24v-.48h-.24v-.72h-.24v-.48h-.24v-.24h-.24v-.24h-.24v-.48h-.24v-.48h-.24v-.24h-.24v-.24h-.24v-.24h-.24v-.48h-.24v-.24h-.24v-.24h-.24v-.24h-.48V534H354v-.24h-.48v-.24h-.72v-.24h-.72v-.24h-.48v-.24h-.48v-.24h-.72v-.24h-.48v-.24h-.48v-.24h-.72v-.24h-.48v-.24h-.48v-.24h-.48v-.24h-.48v-.24h-.48v-.24h-.48v-.24h-.24v-.24h-.48v-.24h-.24v-.24h-.48v-.24h-.48v-.24h-.24v-.24h-.48v-.24h-.24v-.24h-.48V528h-.24v-.24H342v-.24h-.24v-.24h-.24v-.24h-.24v-.24h-.24v-.24h-.48v-.24h-.24v-.24h-.24v-.24h-.24v-.24h-.24v-.24h-.24v-.24h-.24v-.24h-.24v-.24h-.24v-.24h-.24v-.24h-.24v-.24h-.24v-.24h-.48v-.24h-.24v-.24h-.24v-.24h-.24v-.24h-.24v-.24h-.24v-.24H336V522h-.24v-.24h-.24v-.24h-.24v-.24h-.48v-.24h-.24v-.24h-.24v-.24h-.24v-.24h-.24v-.24h-.24v-.24h-.24v-.48h-.24v-.24h-.24v-1.2h.24v-.48h.24v-.24h.24v-.24h.48v-.24h.24v-.24h.24v-.24h.24V516h.24v-.24h.24v-.24h.24v-.24h.24v-.24h.48v-.24h.24v-.24h.48v-.24h.24v-.24h.48v-.24h.24v-.24h.48v-.72h.48v-.24h.24v-.24h.24v-.24h.72v-.24h.48v-.24h.48v-.24h.48v-.24h.72v-.24h.72v-.24h.24v-.24h.48v-.24h.24V510h.48v-.24h.72v-.24h.24v-.24h.48v-.24h.48v-.24h.24v-.24h.48v-.24h.24v-.24h.24v-.24h.24v-.24h.48v-.24h.24v-.48h.48v-.24h.24v-.24h.24v-.48h.48v-.48h.24v-.24h.24v-.24h.24v-.24h.24v-.48h.24v-1.2h-1.44v.24h-1.2v.24h-.72v.24h-.72v.24h-.72v.24h-.72v.24h-.48v.24h-.72v.24h-.72v.24h-3.12v-.24h-2.64v.24h-1.44v.24h-1.44v.24h-.96v.24h-.72v.24h-.96v.24h-.96v.24h-1.2v.24h-.96v.24h-.96v.24h-.96v.24h-.96v.24h-.72v.24h-1.2v.24h-.96v.24h-.96v.24h-.72v.24h-.96v.24h-.72v.24h-.72v.24h-.72v.24h-1.2v.24h-.96v.24h-.96v.24h-1.44v.24h-.96v.24h-1.68v.24h-1.92v-.24h-1.2v-.24h-1.2v-.24h-.48v-.24H306v-.24h-.72V510h-.48v-.24h-.48v-.24h-1.2v-.24h-2.16v-.24h-1.2v-.24h-1.2v-.24h-1.68v-.24h-.96v-.24h-.72v-.24h-.96v-.24h-.96v-.24h-.96v-.24h-1.2v-.24h-2.16v-.24h-1.68v-.24h-1.92v-.24h-2.64v-.24h-1.68v-.24h-1.44v-.24h-1.2v-.24h-1.68v-.24h-.96v-.24h-.72v-.24h-.96v-.24h-1.2V504h-1.68v-.24H270v-.24h-.96v-.24h-.96v-.24h-1.2v-.24h-2.16v-.24h-4.8v-.24h-1.2v-.24H258v-.24h-.48v-.24h-.24v-.24h-.48v-.24h-.96v-.24h-.96v-.24h-.96v-.24h-.96v-.24H252v-.24h-1.2v-.24h-.96v-.24h-.72v-.24h-1.44v-.24h-.96v-.24H246v-.24h-.48v-.24h-.48V498h-.72v-.24h-.72v-.24h-2.4v-.24h-1.68v-.24h-.72v-.24h-.24v-.24h-.48v-.24h-.48v-.24h-.48v-.24h-.48v-.24h-2.88v.24h-.48v-.24h-2.16v-.24h-1.2v-.24h-1.2v-.24h-.96v-.24h-.96v-.24h-.48v-.24h-.72v-.24h-.24v-.24h-.48v-.24h-.96v-.24h-.96v-.24h-.72v-.24h-.96v-.24h-.72v-.24h-.72V492h-.96v-.24h-.72v-.24h-.72v-.24h-.96v-.24h-.72v-.24h-.48v-.24h-.72v-.24h-.72v-.24h-.48v-.24h-.48v-.24h-.72v-.24h-.48v-.24h-.48v-.24h-.48v-.24h-.48v-.24h-.48v-.24h-.48v-.24h-.24v-.24h-.48v-.24h-.48v-.24h-.48v-.24h-.48v-.24h-.48v-.24h-.48v-.24h-.48V486h-.48v-.24h-.48v-.24h-.48v-.24H204v-.24h-.48v-.24h-.48v-.24h-.48v-.24h-.48v-.24h-.72v-.24h-.48v-.24h-.96v-.24h-1.44v-.24h-1.2v-.24h-.96v-.24h-1.44v-.24h-3.6v-.24h-8.16m-53.04 10.32h.48v.24h.48v.24h-.96v-.48"/>
</svg>
