<svg xmlns="http://www.w3.org/2000/svg" viewBox="37.37759999999989 146.33759999999975 520.4448000000067 520.4448000000068">
  <path fill="currentColor" fill-rule="evenodd" d="M286.8 151.44v.24H282v.24h-3.6v.24h-2.88v.24h-2.64v.24h-2.4v.24h-2.16v.24h-2.16v.24h-1.92v.24h-1.68v.24h-1.68v.24h-1.68v.24h-1.68v.24h-1.44v.24h-1.44v.24h-1.44v.24h-1.44v.24h-1.2v.24h-1.2v.24h-1.2v.24h-1.2v.24h-1.2v.24h-1.2v.24h-1.2v.24h-.96v.24h-1.2v.24h-.96v.24h-1.2v.24h-.96v.24h-.96v.24h-.96v.24h-.96v.24h-.96v.24h-.96v.24h-.96v.24h-.72v.24h-.96v.24h-.96v.24h-.72v.24H228v.24h-.96v.24h-.72v.24h-.72v.24h-.96v.24h-.72v.24h-.72v.24h-.96v.24h-.72v.24h-.72v.24h-.72v.24h-.72v.24h-.72v.24h-.72v.24h-.96v.24h-.72v.24h-.72v.24h-.72v.24h-.48v.24h-.72v.24h-.72v.24h-.72v.24h-.72v.24h-.72v.24h-.48v.24h-.72v.24h-.72v.24h-.48v.24h-.72v.24h-.72v.24h-.48v.24h-.72v.24h-.72v.24h-.48v.24h-.72v.24h-.48v.24h-.72v.24h-.48v.24h-.72v.24h-.48v.24h-.48v.24h-.72v.24h-.48v.24h-.72v.24H198v.24h-.48v.24h-.72v.24h-.48v.24h-.48v.24h-.72v.24h-.48v.24h-.48v.24h-.48v.24h-.72v.24h-.48v.24H192v.24h-.48v.24h-.48v.24h-.72v.24h-.48v.24h-.48v.24h-.48v.24h-.48v.24h-.48v.24h-.48v.24h-.72v.24h-.48v.24h-.48v.24h-.48v.24h-.48v.24h-.48v.24h-.48v.24h-.48v.24h-.48v.24h-.48v.24h-.48v.24h-.48v.24h-.48v.24h-.48v.24h-.24v.24h-.48v.24h-.48v.24h-.48v.24h-.48v.24h-.48v.24h-.48v.24h-.48v.24h-.48v.24h-.48v.24h-.24v.24h-.48v.24h-.48v.24h-.48v.24H174v.24h-.48v.24h-.48v.24h-.48v.24h-.48v.24h-.24v.24h-.48v.24h-.48v.24h-.48v.24h-.24v.24h-.48v.24h-.48v.24h-.48v.24h-.24v.24H168v.24h-.48v.24h-.24v.24h-.48v.24h-.48v.24h-.24v.24h-.48v.24h-.48v.24h-.24v.24h-.48v.24h-.48v.24h-.24v.24h-.48v.24h-.24v.24h-.48v.24H162v.24h-.24v.24h-.48v.24h-.24v.24h-.48v.24h-.48v.24h-.24v.24h-.48v.24h-.24v.24h-.48v.24h-.24v.24h-.48v.24h-.24v.24h-.48v.24h-.24v.24h-.48v.24h-.24v.24h-.48v.24h-.24v.24h-.48v.24h-.24v.24h-.48v.24h-.24v.24h-.48v.24h-.24v.24h-.48v.24h-.24v.24h-.24v.24h-.48v.24h-.24v.24h-.48v.24h-.24v.24h-.48v.24h-.24v.24h-.48v.24h-.24v.24h-.24v.24h-.48v.24h-.24v.24h-.24v.24h-.48v.24h-.24v.24h-.48v.24h-.24v.24h-.24v.24h-.48v.24h-.24v.24h-.24v.24h-.48v.24h-.24v.24h-.24v.24h-.48v.24H144v.24h-.24v.24h-.48v.24h-.24v.24h-.24v.24h-.48v.24h-.24v.24h-.24v.24h-.48v.24h-.24v.24h-.24v.24h-.24v.24h-.48v.24h-.24v.24h-.24v.24h-.48v.24h-.24v.24h-.24v.24h-.24v.24h-.24v.24h-.48v.24h-.24v.24h-.24v.24h-.24v.24h-.48v.24h-.24v.24h-.24v.24h-.24v.24h-.48v.24h-.24v.24h-.24v.24h-.24v.24h-.24v.24h-.48v.24h-.24v.24h-.24v.24h-.24v.24h-.24v.24h-.48v.24h-.24v.24H132v.24h-.24v.24h-.24v.24h-.24v.24h-.48v.24h-.24v.24h-.24v.24h-.24v.24h-.24v.24h-.24v.24h-.24v.24h-.48v.24h-.24v.24h-.24v.24h-.24v.24h-.24v.24h-.24v.24h-.24v.24h-.24v.24h-.48v.24h-.24v.24h-.24v.24H126v.24h-.24v.24h-.24v.24h-.24v.24h-.24v.24h-.24v.24h-.24v.24h-.48v.24h-.24v.24h-.24v.24h-.24v.24h-.24v.24h-.24v.24h-.24v.24h-.24v.24h-.24v.24h-.24v.24h-.24v.24h-.24v.24h-.24v.24h-.24v.24h-.24v.24h-.24v.24h-.24v.24H120v.24h-.24v.24h-.24v.24h-.48v.24h-.24v.24h-.24v.24h-.24v.24h-.24v.24h-.24v.24h-.24v.24h-.24v.24h-.24v.24h-.24v.24h-.24v.24h-.24v.24h-.24v.24h-.24v.24h-.24v.24h-.24v.24h-.24v.24h-.24v.48h-.24v.24h-.24v.24h-.24v.24H114v.24h-.24v.24h-.24v.24h-.24v.24h-.24v.24h-.24v.24h-.24v.24h-.24v.24h-.24v.24h-.24v.24h-.24v.24h-.24v.24h-.24v.24h-.24v.24h-.24v.24h-.24v.24h-.24v.48h-.24v.24h-.24v.24h-.24v.24h-.24v.24h-.24v.24h-.24v.24h-.24v.24h-.24v.24H108v.24h-.24v.48h-.24v.24h-.24v.24h-.24v.24h-.24v.24h-.24v.24h-.24v.24h-.24v.24h-.24v.48h-.24v.24h-.24v.24h-.24v.24h-.24v.24h-.24v.24h-.24v.24h-.24v.48h-.24v.24h-.24v.24h-.24v.24h-.24v.24h-.24v.24h-.24v.48h-.24v.24h-.24v.24H102v.24h-.24v.24h-.24v.48h-.24v.24h-.24v.24h-.24v.24h-.24v.24h-.24v.48h-.24v.24h-.24v.24h-.24v.24h-.24v.48h-.24v.24h-.24v.24h-.24v.24h-.24v.48h-.24v.24h-.24v.24h-.24v.24h-.24v.24h-.24v.48h-.24v.24h-.24v.24h-.24v.48h-.24v.24H96v.24h-.24v.24h-.24v.48h-.24v.24h-.24v.24h-.24v.48h-.24v.24h-.24v.24h-.24v.48h-.24v.24h-.24v.24h-.24v.48h-.24v.24h-.24v.24h-.24v.48h-.24v.24h-.24v.24h-.24v.48h-.24v.24h-.24v.24h-.24v.48h-.24v.24h-.24v.48h-.24v.24h-.24v.24H90v.48h-.24v.24h-.24v.24h-.24v.48h-.24v.24h-.24v.48h-.24v.24h-.24v.48h-.24v.24h-.24v.48h-.24v.24h-.24v.24h-.24v.48h-.24v.24h-.24v.48h-.24v.24h-.24v.48h-.24v.24h-.24v.48h-.24v.24h-.24v.48h-.24v.24h-.24v.48h-.24v.24h-.24v.48H84v.24h-.24v.48h-.24v.24h-.24v.48h-.24v.24h-.24v.48h-.24v.24h-.24v.48h-.24v.48h-.24v.24h-.24v.48h-.24v.24h-.24v.48h-.24v.48h-.24v.24h-.24v.48h-.24v.24h-.24v.48h-.24v.48h-.24v.24h-.24v.48h-.24v.48h-.24v.24h-.24v.48h-.24v.48H78v.24h-.24v.48h-.24v.48h-.24v.24h-.24v.48h-.24v.48h-.24v.48h-.24v.24h-.24v.48h-.24v.48h-.24v.48h-.24v.24h-.24v.48h-.24v.48h-.24v.48h-.24v.48h-.24v.24h-.24v.48h-.24v.48h-.24v.48h-.24v.24h-.24v.48h-.24v.48h-.24v.48h-.24v.48H72v.48h-.24v.48h-.24v.48h-.24v.48h-.24v.48h-.24v.24h-.24v.48h-.24v.48h-.24v.48h-.24v.48h-.24v.48h-.24v.48h-.24v.48h-.24v.48h-.24v.48h-.24v.48h-.24v.48h-.24v.48h-.24v.48h-.24v.72h-.24v.48h-.24v.48h-.24v.48h-.24v.48h-.24v.48H66v.48h-.24v.72h-.24v.48h-.24v.48h-.24v.48h-.24v.48h-.24v.72h-.24v.48h-.24v.48h-.24v.48h-.24v.72h-.24v.48h-.24v.48h-.24v.72h-.24v.48h-.24v.48h-.24v.72h-.24v.48h-.24v.72h-.24v.48h-.24v.48h-.24v.72h-.24v.48h-.24v.72h-.24v.48H60v.72h-.24v.48h-.24v.72h-.24v.72h-.24v.48h-.24v.72h-.24v.72h-.24v.48h-.24v.72h-.24v.72h-.24v.48h-.24v.72h-.24v.72h-.24v.72h-.24v.72h-.24v.72h-.24v.48h-.24v.72h-.24v.72h-.24v.72h-.24v.96h-.24v.72h-.24v.72h-.24v.72h-.24v.72H54v.72h-.24v.72h-.24v.96h-.24v.72h-.24v.72h-.24v.96h-.24v.72h-.24v.72h-.24v.96h-.24v.96h-.24v.72h-.24v.96h-.24v.96h-.24v.72h-.24v.96h-.24v.96h-.24v.96h-.24v.96h-.24v.96h-.24v.96h-.24v.96h-.24v1.2h-.24v.96h-.24v1.2h-.24v.96H48v1.2h-.24v1.2h-.24v1.2h-.24v1.2h-.24v1.2h-.24v1.2h-.24v1.2h-.24v1.44h-.24v1.44h-.24v1.44h-.24v1.44h-.24v1.68h-.24v1.68h-.24v1.68h-.24v1.68h-.24v1.92h-.24v2.16h-.24v2.16h-.24v2.4h-.24v2.64h-.24v2.88h-.24v3.6h-.24v4.8h-.24v21.6h.24v4.8h.24v3.6h.24v2.88h.24v2.64h.24v2.4h.24v2.16h.24V438h.24v1.92h.24v1.68h.24v1.68h.24v1.68h.24v1.68h.24v1.44h.24v1.44h.24v1.44h.24v1.44h.24v1.2h.24v1.2h.24v1.2h.24v1.2h.24v1.2h.24v1.2H48v1.2h.24v.96h.24v1.2h.24v.96h.24v1.2h.24v.96h.24v.96h.24v.96h.24v.96h.24v.96h.24v.96h.24v.96h.24v.72h.24v.96h.24v.96h.24v.72h.24v.96h.24v.96h.24v.72h.24v.72h.24v.96h.24v.72h.24v.72h.24v.96h.24v.72H54v.72h.24v.72h.24v.72h.24v.72h.24v.72h.24v.96h.24v.72h.24v.72h.24v.72h.24v.48h.24v.72h.24v.72h.24v.72h.24v.72h.24v.72h.24v.48h.24v.72h.24v.72h.24v.48h.24v.72h.24v.72h.24v.48h.24v.72h.24v.72h.24v.48H60v.72h.24v.48h.24v.72h.24v.48h.24v.72h.24v.48h.24v.48h.24v.72h.24v.48h.24v.72h.24v.48h.24v.48h.24v.72h.24v.48h.24v.48h.24v.72h.24v.48h.24v.48h.24v.48h.24v.72h.24v.48h.24v.48h.24v.48h.24v.48h.24v.72H66v.48h.24v.48h.24v.48h.24v.48h.24v.48h.24v.48h.24v.72h.24v.48h.24v.48h.24v.48h.24v.48h.24v.48h.24v.48h.24v.48h.24v.48h.24v.48h.24v.48h.24v.48h.24v.48h.24v.48h.24v.24h.24v.48h.24v.48h.24v.48h.24v.48H72v.48h.24v.48h.24v.48h.24v.48h.24v.48h.24v.24h.24v.48h.24v.48h.24v.48h.24v.24h.24v.48h.24v.48h.24v.48h.24v.48h.24v.24h.24v.48h.24v.48h.24v.48h.24v.24h.24v.48h.24v.48h.24v.48h.24v.24h.24v.48h.24v.48H78v.24h.24v.48h.24v.48h.24v.24h.24v.48h.24v.48h.24v.24h.24v.48h.24v.48h.24v.24h.24v.48h.24v.24h.24v.48h.24v.48h.24v.24h.24v.48h.24v.24h.24v.48h.24v.48h.24v.24h.24v.48h.24v.24h.24v.48h.24v.24h.24v.48H84v.24h.24v.48h.24v.24h.24v.48h.24v.24h.24v.48h.24v.24h.24v.48h.24v.24h.24v.48h.24v.24h.24v.48h.24v.24h.24v.48h.24v.24h.24v.24h.24v.48h.24v.24h.24v.48h.24v.24h.24v.48h.24v.24h.24v.48h.24v.24h.24v.24H90v.48h.24v.24h.24v.24h.24v.48h.24v.24h.24v.48h.24v.24h.24v.24h.24v.48h.24v.24h.24v.24h.24v.48h.24v.24h.24v.24h.24v.48h.24v.24h.24v.24h.24v.48h.24v.24h.24v.24h.24v.48h.24v.24h.24v.24h.24v.48h.24v.24H96v.24h.24v.24h.24v.48h.24v.24h.24v.24h.24v.48h.24v.24h.24v.24h.24v.24h.24v.24h.24v.48h.24v.24h.24v.24h.24v.24h.24v.48h.24v.24h.24v.24h.24v.24h.24v.48h.24v.24h.24v.24h.24v.24h.24v.24h.24v.48h.24v.24h.24v.24h.24v.24h.24v.24h.24v.48h.24v.24h.24v.24h.24v.24h.24v.24h.24v.24h.24v.48h.24v.24h.24v.24h.24v.24h.24v.24h.24v.24h.24v.24h.24v.48h.24v.24h.24v.24h.24v.24h.24v.24h.24v.24h.24v.24h.24v.24h.24v.48h.24v.24h.24v.24h.24v.24h.24v.24h.24v.24h.24v.24h.24v.24h.24v.24h.24v.24h.24v.48h.24v.24h.24v.24h.24v.24h.24v.24h.24v.24h.24v.24h.24v.24h.24v.24h.24v.24h.24v.24h.24v.24h.24v.24h.24v.24h.24v.24h.24v.24h.24v.24h.24v.24h.24v.24h.24v.24h.24v.48h.24v.24h.24v.24h.24v.24h.24v.24h.24v.24h.24v.24h.24v.24h.24v.24h.24v.24h.24v.24h.24v.24h.24v.24h.24v.24h.24v.24h.24v.24h.24v.24h.24v.24h.48v.24h.24v.24h.24v.24h.24v.24h.24v.24h.24v.24h.24v.24h.24v.24h.24v.24h.24v.24h.24v.24h.24v.24h.24v.24h.24v.24h.24v.24h.24v.24h.24v.24h.24v.24h.24v.24h.24v.24h.48v.24h.24v.24h.24v.24h.24v.24h.24v.24h.24v.24h.24v.24h.24v.24h.24v.24h.24v.24h.48v.24h.24v.24h.24v.24h.24v.24h.24v.24h.24v.24h.24v.24h.24v.24h.48v.24h.24v.24h.24v.24h.24v.24h.24v.24h.24v.24h.24v.24h.48v.24h.24v.24h.24v.24h.24v.24h.24v.24h.24v.24h.48v.24h.24v.24h.24v.24h.24v.24h.24v.24h.48v.24h.24v.24h.24v.24h.24v.24h.24v.24h.48v.24h.24v.24h.24v.24h.24v.24h.48v.24h.24v.24h.24v.24h.24v.24h.48v.24h.24v.24h.24v.24h.24v.24h.24v.24h.48v.24h.24v.24h.24v.24h.48v.24h.24v.24h.24v.24h.24v.24h.48v.24h.24v.24h.24v.24h.48v.24h.24v.24h.24v.24h.48v.24h.24v.24h.24v.24h.48v.24h.24v.24h.24v.24h.48v.24h.24v.24h.24v.24h.48v.24h.24v.24h.24v.24h.48v.24h.24v.24h.48v.24h.24v.24h.24v.24h.48v.24h.24v.24h.24v.24h.48v.24h.24v.24h.48v.24h.24v.24h.48v.24h.24v.24h.48v.24h.24v.24h.24v.24h.48v.24h.24v.24h.48v.24h.24v.24h.48v.24h.24v.24h.48v.24h.24v.24h.48v.24h.24v.24h.48v.24h.24v.24h.48v.24h.24v.24h.48v.24h.24v.24h.48v.24h.24v.24h.48v.24h.24v.24h.48v.24h.48v.24h.24v.24h.48v.24h.24v.24h.48v.24h.48v.24h.24v.24h.48v.24h.24v.24h.48v.24h.48v.24h.24v.24h.48v.24h.48v.24h.24v.24h.48v.24h.48v.24h.24v.24h.48v.24h.48v.24h.24v.24h.48v.24h.48v.24h.48v.24h.24v.24h.48v.24h.48v.24h.48v.24h.24v.24h.48v.24h.48v.24h.48v.24h.48v.24h.24v.24h.48v.24h.48v.24h.48v.24h.24v.24h.48v.24h.48v.24h.48v.24h.48v.24h.48v.24h.48v.24h.48v.24h.48v.24h.48v.24h.24v.24h.48v.24h.48v.24h.48v.24h.48v.24h.48v.24h.48v.24h.48v.24h.48v.24h.48v.24h.48v.24h.48v.24h.48v.24h.48v.24h.72v.24h.48v.24h.48v.24h.48v.24h.48v.24h.48v.24h.48v.24h.72v.24h.48v.24h.48v.24h.48v.24h.48v.24h.72v.24h.48v.24h.48v.24h.48v.24h.72v.24h.48v.24h.48v.24h.72v.24h.48v.24h.48v.24h.72v.24h.48v.24h.72v.24h.48v.24h.48v.24h.72v.24h.48v.24h.72v.24h.48v.24h.72v.24h.48v.24h.72v.24h.72v.24h.48v.24h.72v.24h.72v.24h.48v.24h.72v.24h.72v.24h.48v.24h.72v.24h.72v.24h.72v.24h.72v.24h.72v.24h.48v.24h.72v.24h.72v.24h.72v.24h.96v.24h.72v.24h.72v.24h.72v.24h.72v.24h.72v.24h.72v.24h.96v.24h.72v.24h.72v.24h.96v.24h.72v.24h.72v.24h.96v.24h.96v.24h.72v.24h.96v.24h.96v.24h.72v.24h.96v.24h.96v.24h.96v.24h.96v.24h.96v.24h.96v.24h.96v.24h1.2v.24h.96v.24h1.2v.24h.96v.24h1.2v.24h1.2v.24h1.2v.24h1.2v.24h1.2v.24h1.2v.24h1.2v.24h1.44v.24h1.44v.24h1.44v.24h1.44v.24h1.68v.24h1.68v.24h1.68v.24h1.68v.24h1.92v.24h2.16v.24h2.16v.24h2.4v.24h2.64v.24h2.88v.24h3.6v.24h4.8v.24h21.6v-.24h4.8v-.24h3.6v-.24h2.88v-.24h2.64v-.24h2.4v-.24h2.16V660h2.16v-.24h1.92v-.24h1.68v-.24h1.68v-.24H336v-.24h1.68v-.24h1.44v-.24h1.44v-.24H342v-.24h1.44v-.24h1.2v-.24h1.2v-.24h1.2v-.24h1.2v-.24h1.2v-.24h1.2v-.24h1.2v-.24h.96v-.24h1.2v-.24h.96v-.24h1.2v-.24h.96v-.24h.96v-.24h.96v-.24h.96V654h.96v-.24h.96v-.24h.96v-.24h.72v-.24h.96v-.24h.96v-.24h.72v-.24h.96v-.24h.96v-.24h.72v-.24h.72v-.24h.96v-.24h.72v-.24h.72v-.24h.96v-.24h.72v-.24h.72v-.24h.72v-.24h.72v-.24h.72v-.24h.72v-.24h.96v-.24h.72v-.24h.72v-.24h.72V648h.48v-.24h.72v-.24h.72v-.24h.72v-.24h.72v-.24h.72v-.24h.48v-.24h.72v-.24h.72v-.24h.48v-.24h.72v-.24h.72v-.24h.48v-.24h.72v-.24h.72v-.24h.48v-.24h.72v-.24h.48v-.24h.72v-.24h.48v-.24h.72v-.24h.48v-.24h.48v-.24h.72v-.24h.48V642h.72v-.24h.48v-.24h.48v-.24h.72v-.24h.48v-.24h.48v-.24h.72v-.24h.48v-.24h.48v-.24h.48v-.24h.72v-.24h.48v-.24h.48v-.24h.48v-.24h.48v-.24h.72v-.24h.48v-.24h.48v-.24h.48v-.24h.48v-.24h.48v-.24h.48v-.24h.72v-.24h.48v-.24h.48V636h.48v-.24h.48v-.24h.48v-.24h.48v-.24h.48v-.24h.48v-.24h.48v-.24h.48v-.24h.48v-.24h.48v-.24h.48v-.24h.24v-.24h.48v-.24h.48v-.24h.48v-.24h.48v-.24h.48v-.24h.48v-.24h.48v-.24h.48v-.24h.24v-.24h.48v-.24h.48v-.24h.48v-.24h.48V630h.24v-.24h.48v-.24h.48v-.24h.48v-.24h.48v-.24h.24v-.24h.48v-.24h.48v-.24h.48v-.24h.24v-.24h.48v-.24h.48v-.24h.48v-.24h.24v-.24h.48v-.24h.48v-.24h.24v-.24h.48v-.24h.48v-.24h.24v-.24h.48v-.24h.48v-.24h.24v-.24h.48v-.24h.48V624h.24v-.24h.48v-.24h.24v-.24h.48v-.24h.48v-.24h.24v-.24h.48v-.24h.24v-.24h.48v-.24h.48v-.24h.24v-.24h.48v-.24h.24v-.24h.48v-.24h.24v-.24h.48v-.24h.24v-.24h.48v-.24h.24v-.24h.48v-.24h.24v-.24h.48v-.24h.24v-.24h.48v-.24h.24V618h.48v-.24h.24v-.24h.48v-.24h.24v-.24h.48v-.24h.24v-.24h.24v-.24h.48v-.24h.24v-.24h.48v-.24h.24v-.24h.48v-.24h.24v-.24h.48v-.24h.24v-.24h.24v-.24h.48v-.24h.24v-.24h.24v-.24h.48v-.24h.24v-.24h.48v-.24h.24v-.24h.24v-.24h.48V612h.24v-.24h.24v-.24h.48v-.24h.24v-.24h.24v-.24h.48v-.24h.24v-.24h.24v-.24h.48v-.24h.24v-.24h.24v-.24h.48v-.24h.24v-.24h.24v-.24h.48v-.24h.24v-.24h.24v-.24h.24v-.24h.48v-.24h.24v-.24h.24v-.24h.48v-.24h.24v-.24h.24v-.24h.24V606h.24v-.24h.48v-.24h.24v-.24h.24v-.24h.24v-.24h.48v-.24h.24v-.24h.24v-.24h.24v-.24h.48v-.24h.24v-.24h.24v-.24h.24v-.24h.24v-.24h.48v-.24h.24v-.24h.24v-.24h.24v-.24h.24v-.24h.48v-.24h.24v-.24h.24v-.24h.24v-.24h.24v-.24h.24V600h.48v-.24h.24v-.24h.24v-.24h.24v-.24h.24v-.24h.24v-.24h.24v-.24h.48v-.24h.24v-.24h.24v-.24h.24v-.24h.24v-.24h.24v-.24h.24v-.24h.24v-.24h.48v-.24h.24v-.24h.24v-.24h.24v-.24h.24v-.24h.24v-.24h.24v-.24h.24v-.24h.24v-.24h.24V594h.48v-.24h.24v-.24h.24v-.24h.24v-.24h.24v-.24h.24v-.24h.24v-.24h.24v-.24h.24v-.24h.24v-.24h.24v-.24h.24v-.24h.24v-.24h.24v-.24h.24v-.24h.24v-.24h.24v-.24h.24v-.24h.24v-.24h.24v-.24h.48v-.24h.24v-.24h.24v-.24h.24v-.24h.24V588h.24v-.24h.24v-.24h.24v-.24h.24v-.24h.24v-.24h.24v-.24h.24v-.24h.24v-.24h.24v-.24h.24v-.24h.24v-.24h.24v-.24h.24v-.48h.24v-.24h.24v-.24h.24v-.24h.24v-.24h.24v-.24h.24v-.24h.24v-.24h.24v-.24h.24v-.24h.24v-.24h.24V582h.24v-.24h.24v-.24h.24v-.24h.24v-.24h.24v-.24h.24v-.24h.24v-.24h.24v-.24h.24v-.48h.24v-.24h.24v-.24h.24v-.24h.24v-.24h.24v-.24h.24v-.24h.24v-.24h.24v-.24h.24v-.24h.24v-.48h.24v-.24h.24v-.24h.24v-.24h.24V576h.24v-.24h.24v-.24h.24v-.24h.24v-.48h.24v-.24h.24v-.24h.24v-.24h.24v-.24h.24v-.24h.24v-.24h.24v-.48h.24v-.24h.24v-.24h.24v-.24h.24v-.24h.24v-.24h.24v-.48h.24v-.24h.24v-.24h.24v-.24h.24v-.24h.24v-.48h.24v-.24h.24v-.24h.24v-.24h.24v-.24h.24v-.48h.24v-.24h.24v-.24h.24v-.24h.24v-.48h.24v-.24h.24v-.24h.24v-.24h.24v-.48h.24v-.24h.24v-.24h.24v-.24h.24v-.24h.24v-.48h.24v-.24h.24V564h.24v-.48h.24v-.24h.24v-.24h.24v-.24h.24v-.48h.24v-.24h.24v-.24h.24v-.48h.24v-.24h.24v-.24h.24v-.48h.24v-.24h.24v-.24h.24v-.48h.24v-.24h.24v-.24h.24v-.48h.24v-.24h.24V558h.24v-.48h.24v-.24h.24v-.24h.24v-.48h.24v-.24h.24v-.48h.24v-.24h.24v-.24h.24v-.48h.24v-.24h.24v-.24h.24v-.48h.24v-.24h.24v-.48h.24v-.24h.24v-.48h.24v-.24h.24v-.48h.24v-.24h.24v-.24h.24v-.48h.24v-.24h.24v-.48h.24v-.24h.24v-.48h.24v-.24h.24v-.48h.24v-.24h.24v-.48h.24v-.24h.24v-.48h.24v-.24h.24v-.48h.24v-.24h.24v-.48h.24v-.24h.24v-.48h.24v-.24h.24v-.48h.24v-.24h.24v-.48h.24v-.48h.24v-.24h.24v-.48h.24v-.24h.24v-.48h.24v-.48h.24v-.24h.24v-.48h.24v-.24h.24v-.48h.24v-.48h.24v-.24h.24v-.48h.24v-.48h.24v-.24h.24v-.48h.24v-.48h.24v-.24h.24v-.48h.24v-.48h.24v-.24h.24v-.48h.24v-.48h.24V534h.24v-.24h.24v-.48h.24v-.48h.24v-.48h.24v-.24h.24v-.48h.24v-.48h.24v-.48h.24v-.48h.24v-.24h.24v-.48h.24v-.48h.24v-.48h.24V528h.24v-.24h.24v-.48h.24v-.48h.24v-.48h.24v-.48h.24v-.48h.24v-.48h.24v-.48h.24v-.48h.24v-.24h.24v-.48h.24v-.48h.24v-.48h.24v-.48h.24v-.48h.24v-.48h.24v-.48h.24v-.48h.24v-.48h.24v-.48h.24v-.48h.24v-.48h.24v-.48h.24v-.72h.24v-.48h.24v-.48h.24v-.48h.24v-.48h.24v-.48h.24v-.48h.24v-.72h.24v-.48h.24v-.48h.24v-.48h.24v-.48h.24v-.72h.24V510h.24v-.48h.24v-.48h.24v-.72h.24v-.48h.24v-.48h.24v-.72h.24v-.48h.24v-.48h.24v-.72h.24v-.48h.24v-.72h.24v-.48h.24v-.48h.24v-.72h.24v-.48h.24v-.72h.24v-.48h.24v-.72h.24v-.48h.24v-.72h.24v-.72h.24v-.48h.24v-.72h.24v-.72h.24v-.48h.24v-.72h.24v-.72h.24v-.48h.24v-.72h.24V492h.24v-.72h.24v-.72h.24v-.72h.24v-.48h.24v-.72h.24v-.72h.24v-.72h.24v-.96h.24v-.72h.24v-.72h.24v-.72h.24v-.72h.24v-.72h.24v-.72h.24v-.96h.24v-.72h.24v-.72h.24v-.96h.24v-.72h.24v-.72h.24v-.96h.24v-.96h.24v-.72h.24v-.96h.24v-.96h.24v-.72h.24v-.96h.24v-.96h.24v-.96h.24V468h.24v-.96h.24v-.96h.24v-.96h.24v-1.2h.24v-.96h.24v-1.2h.24v-.96h.24v-1.2h.24v-1.2h.24v-1.2h.24V456h.24v-1.2h.24v-1.2h.24v-1.2h.24v-1.44h.24v-1.44h.24v-1.44h.24v-1.44h.24v-1.68h.24v-1.68h.24v-1.68h.24v-1.68h.24V438h.24v-2.16h.24v-2.16h.24v-2.4h.24v-2.64h.24v-2.88h.24v-3.6h.24v-4.8h.24v-21.6h-.24v-4.8h-.24v-3.6H552v-2.88h-.24v-2.64h-.24v-2.4h-.24v-2.16h-.24v-2.16h-.24v-1.92h-.24v-1.68h-.24v-1.68h-.24v-1.68h-.24v-1.68h-.24v-1.44h-.24v-1.44h-.24v-1.44h-.24v-1.44h-.24v-1.2h-.24v-1.2h-.24v-1.2h-.24v-1.2h-.24v-1.2h-.24v-1.2h-.24v-1.2h-.24v-.96h-.24v-1.2h-.24v-.96h-.24V348H546v-.96h-.24v-.96h-.24v-.96h-.24v-.96h-.24v-.96h-.24v-.96h-.24v-.96h-.24v-.72h-.24v-.96h-.24v-.96h-.24v-.72h-.24v-.96h-.24V336h-.24v-.72h-.24v-.72h-.24v-.96h-.24v-.72h-.24v-.72h-.24v-.96h-.24v-.72h-.24v-.72h-.24v-.72h-.24v-.72h-.24v-.72h-.24v-.72H540v-.96h-.24v-.72h-.24v-.72h-.24v-.72h-.24v-.48h-.24v-.72h-.24v-.72h-.24v-.72h-.24v-.72h-.24v-.72h-.24v-.48h-.24v-.72h-.24v-.72h-.24v-.48h-.24v-.72h-.24v-.72h-.24v-.48h-.24v-.72h-.24v-.72h-.24v-.48h-.24v-.72h-.24v-.48h-.24v-.72h-.24v-.48h-.24v-.72H534v-.48h-.24v-.48h-.24v-.72h-.24v-.48h-.24v-.72h-.24v-.48h-.24v-.48h-.24v-.72h-.24v-.48h-.24v-.48h-.24v-.72h-.24v-.48h-.24v-.48h-.24v-.48h-.24v-.72h-.24v-.48h-.24v-.48h-.24v-.48h-.24V300h-.24v-.72h-.24v-.48h-.24v-.48h-.24v-.48h-.24v-.48h-.24v-.48H528v-.48h-.24v-.72h-.24v-.48h-.24v-.48h-.24v-.48h-.24v-.48h-.24v-.48h-.24v-.48h-.24v-.48h-.24v-.48h-.24v-.48h-.24v-.48h-.24v-.48h-.24v-.48h-.24v-.48h-.24v-.24h-.24v-.48h-.24v-.48h-.24v-.48h-.24v-.48h-.24v-.48h-.24v-.48h-.24v-.48h-.24v-.48h-.24v-.24H522v-.48h-.24v-.48h-.24v-.48h-.24v-.48h-.24v-.24h-.24v-.48h-.24V282h-.24v-.48h-.24v-.48h-.24v-.24h-.24v-.48h-.24v-.48h-.24v-.48h-.24v-.24h-.24v-.48h-.24v-.48h-.24v-.48h-.24v-.24h-.24v-.48h-.24v-.48h-.24v-.24h-.24v-.48h-.24v-.48h-.24v-.24h-.24v-.48H516v-.48h-.24v-.24h-.24v-.48h-.24v-.48h-.24v-.24h-.24v-.48h-.24v-.24h-.24v-.48h-.24v-.48h-.24v-.24h-.24v-.48h-.24V270h-.24v-.48h-.24v-.48h-.24v-.24h-.24v-.48h-.24v-.24h-.24v-.48h-.24v-.24h-.24v-.48h-.24v-.24h-.24v-.48h-.24v-.24h-.24v-.48h-.24v-.24H510v-.48h-.24v-.24h-.24V264h-.24v-.24h-.24v-.48h-.24v-.24h-.24v-.48h-.24v-.24h-.24v-.48h-.24v-.24h-.24v-.24h-.24v-.48h-.24v-.24h-.24v-.48h-.24v-.24h-.24v-.48h-.24v-.24h-.24v-.48h-.24v-.24h-.24v-.24h-.24v-.48h-.24v-.24h-.24v-.24h-.24v-.48h-.24v-.24H504v-.48h-.24v-.24h-.24v-.24h-.24v-.48h-.24v-.24h-.24v-.24h-.24v-.48h-.24v-.24h-.24v-.24h-.24v-.48h-.24v-.24h-.24v-.24h-.24v-.48h-.24V252h-.24v-.24h-.24v-.48h-.24v-.24h-.24v-.24h-.24v-.48h-.24v-.24h-.24v-.24h-.24v-.24h-.24v-.48h-.24v-.24h-.24v-.24H498v-.48h-.24v-.24h-.24v-.24h-.24v-.24h-.24v-.24h-.24v-.48h-.24v-.24h-.24v-.24h-.24V246h-.24v-.48h-.24v-.24h-.24v-.24h-.24v-.24h-.24v-.48h-.24v-.24h-.24v-.24h-.24v-.24h-.24v-.24h-.24v-.48h-.24v-.24h-.24v-.24h-.24v-.24h-.24v-.24h-.24v-.48h-.24v-.24H492v-.24h-.24v-.24h-.24v-.24h-.24v-.24h-.24v-.48h-.24v-.24h-.24v-.24h-.24v-.24h-.24v-.24h-.24v-.24h-.24v-.24h-.24v-.48h-.24v-.24h-.24v-.24h-.24v-.24h-.24v-.24h-.24v-.24h-.24v-.24h-.24v-.24h-.24v-.48h-.24v-.24h-.24v-.24h-.24v-.24h-.24v-.24h-.24v-.24H486v-.24h-.24V234h-.24v-.24h-.24v-.24h-.24v-.48h-.24v-.24h-.24v-.24h-.24v-.24h-.24v-.24h-.24v-.24h-.24v-.24h-.24v-.24h-.24v-.24h-.24v-.24h-.24v-.24h-.24v-.24h-.24v-.24h-.24v-.24h-.24v-.24h-.24v-.24h-.24v-.24h-.24v-.24h-.24v-.24h-.24v-.24h-.24V228H480v-.24h-.24v-.24h-.24v-.24h-.24v-.24h-.24v-.24h-.24v-.24h-.24v-.24h-.24v-.24h-.24v-.24h-.24v-.24h-.24v-.24h-.24v-.24h-.24v-.24h-.24v-.24h-.24v-.24h-.24v-.24h-.24v-.24h-.48v-.24h-.24v-.24h-.24v-.24h-.24v-.24h-.24v-.24h-.24v-.24h-.24v-.24H474V222h-.24v-.24h-.24v-.24h-.24v-.24h-.24v-.24h-.24v-.24h-.24v-.24h-.24v-.24h-.24v-.24h-.24v-.24h-.24v-.24h-.24v-.24h-.24v-.24h-.48v-.24h-.24v-.24h-.24v-.24h-.24v-.24h-.24v-.24h-.24v-.24h-.24v-.24h-.24v-.24h-.24v-.24h-.24v-.24H468v-.24h-.24v-.24h-.24V216h-.24v-.24h-.24v-.24h-.24v-.24h-.24v-.24h-.24v-.24h-.48v-.24h-.24v-.24h-.24v-.24h-.24v-.24h-.24v-.24h-.24v-.24h-.24v-.24h-.48v-.24h-.24v-.24h-.24v-.24h-.24v-.24h-.24v-.24h-.24v-.24h-.48v-.24H462v-.24h-.24v-.24h-.24v-.24h-.24v-.24h-.48v-.24h-.24V210h-.24v-.24h-.24v-.24h-.24v-.24h-.48v-.24h-.24v-.24h-.24v-.24h-.24v-.24h-.48v-.24h-.24v-.24h-.24v-.24h-.24v-.24h-.48v-.24h-.24v-.24h-.24v-.24h-.24v-.24H456v-.24h-.48v-.24h-.24v-.24h-.24v-.24h-.48v-.24h-.24v-.24h-.24v-.24h-.24v-.24h-.48v-.24h-.24V204h-.24v-.24h-.48v-.24h-.24v-.24h-.24v-.24h-.48v-.24h-.24v-.24h-.24v-.24h-.48v-.24h-.24v-.24H450v-.24h-.48v-.24h-.24v-.24h-.24v-.24h-.48v-.24h-.24v-.24h-.24v-.24h-.48v-.24h-.24v-.24h-.48v-.24h-.24v-.24h-.24v-.24h-.48v-.24h-.24v-.24h-.24v-.24h-.48V198h-.24v-.24h-.48v-.24H444v-.24h-.48v-.24h-.24v-.24h-.48v-.24h-.24v-.24h-.24v-.24h-.48v-.24h-.24v-.24h-.48v-.24h-.24v-.24h-.48v-.24h-.24v-.24h-.48v-.24h-.24v-.24h-.48v-.24h-.24v-.24h-.48v-.24H438v-.24h-.48v-.24h-.24v-.24h-.48v-.24h-.24v-.24h-.48V192h-.24v-.24h-.48v-.24h-.24v-.24h-.48v-.24h-.48v-.24h-.24v-.24h-.48v-.24h-.24v-.24h-.48v-.24h-.48v-.24H432v-.24h-.48v-.24h-.24v-.24h-.48v-.24h-.48v-.24h-.24v-.24h-.48v-.24h-.48v-.24h-.24v-.24h-.48v-.24h-.48v-.24h-.24v-.24h-.48v-.24h-.48v-.24h-.24V186H426v-.24h-.48v-.24h-.48v-.24h-.24v-.24h-.48v-.24h-.48v-.24h-.48v-.24h-.24v-.24h-.48v-.24h-.48v-.24h-.48v-.24h-.48v-.24h-.24v-.24h-.48v-.24H420v-.24h-.48v-.24h-.24v-.24h-.48v-.24h-.48v-.24h-.48v-.24h-.48v-.24h-.48v-.24h-.48v-.24h-.48v-.24h-.48V180h-.48v-.24h-.24v-.24h-.48v-.24h-.48v-.24h-.48v-.24h-.48v-.24h-.48v-.24h-.48v-.24h-.48v-.24h-.48v-.24h-.48v-.24h-.48v-.24h-.48v-.24h-.48v-.24h-.48v-.24h-.72v-.24h-.48v-.24h-.48v-.24h-.48v-.24h-.48v-.24h-.48v-.24h-.48v-.24h-.72v-.24h-.48v-.24h-.48V174h-.48v-.24h-.48v-.24h-.72v-.24h-.48v-.24h-.48v-.24h-.48v-.24h-.72v-.24h-.48v-.24h-.48v-.24h-.72v-.24h-.48v-.24h-.48v-.24H396v-.24h-.48v-.24h-.72v-.24h-.48v-.24h-.48v-.24h-.72v-.24h-.48v-.24h-.72v-.24h-.48v-.24h-.72v-.24h-.48v-.24h-.72v-.24h-.72V168h-.48v-.24h-.72v-.24h-.72v-.24h-.48v-.24h-.72v-.24h-.72v-.24h-.48v-.24h-.72v-.24h-.72v-.24h-.72v-.24h-.72v-.24h-.72v-.24h-.48v-.24h-.72v-.24h-.72v-.24h-.72v-.24h-.96v-.24h-.72v-.24h-.72v-.24h-.72v-.24h-.72v-.24h-.72v-.24h-.72v-.24H372v-.24h-.72V162h-.72v-.24h-.96v-.24h-.72v-.24h-.72v-.24h-.96v-.24h-.96v-.24h-.72v-.24h-.96v-.24h-.96v-.24h-.72v-.24h-.96v-.24h-.96v-.24H360v-.24h-.96v-.24h-.96v-.24h-.96v-.24h-.96v-.24h-1.2v-.24H354v-.24h-1.2v-.24h-.96v-.24h-1.2v-.24h-1.2v-.24h-1.2v-.24h-1.2V156h-1.2v-.24h-1.2v-.24h-1.2v-.24H342v-.24h-1.44v-.24h-1.44v-.24h-1.44v-.24H336v-.24h-1.68v-.24h-1.68v-.24h-1.68v-.24h-1.92v-.24h-2.16v-.24h-2.16v-.24h-2.4v-.24h-2.64v-.24h-2.88v-.24h-3.6v-.24h-4.8v-.24h-21.6m47.76 48.72h1.68v.24h.24v.48h.24v.72h.24v1.2h-.24v.48h-.24v.24h-.72v.24h-.48v.24h-.96v.24h-.24V204h-.72v-.24h-.48v-.24h-.48v-.24h-.24v-.24h-.48v-.24h-.24v-.96h.24v-.24h.24v-.24h.24v-.24h.48v-.24h.48v-.24h.96v-.24h.48v-.24m15.12.48h2.64v.48h-.24v.24h-.24v.24h-.24v.48h-.24v.24h-.24v.24h.48v.72h-.24v.48h-.24v.24h-.24v.24h-.24v.24h-.24v.24h-.24v.24h-.48v.24h-2.64v-.24h-1.2v-.24h-.72v-.24h-.48v-.24h-.24V204h-.24v-.72h.24v-.48h.24v-.24h.24v-.24h.48v-.24h.24v-.24h.48v-.24h.48v-.24h.48v-.24h1.2v-.24h1.44v-.24m19.92 0h.96v.24h.24v.24h.24v.24h.24v.72h-.24v.24h-.24v.24h-.24v.24h-.24v.24h-.48v.24h-.24v.24h-.48v.24h-.72v.24h-.48v.24h-3.36V204h-1.44v-.24h-.72v-.24h-.48v-.24h-.24v-.24h-.24v-.24h.24v-.24h.48v-.24h.48v-.24h.96v-.24h.96v-.24h1.2v-.24h3.84v-.24h-.24v-.24h.24v-.24m-85.92 10.32h1.68v1.2h.24v1.92h.24v1.68h.24v1.44h.24v1.44h.24v.24h.24v-.48h-.24v-1.2h-.24v-1.92h-.24v-2.16h-.24v-1.92h-.24v-.24h.72v.72h.24v.96h.24v.96h.24v.96h.24v.72h.24v.72h.24v.48h.24v.48h.24v.24h.24v.48h.24v.48h.24v1.44h.24v.96h.24v.72h.24v1.2h.24v.96h.24v.48h.24v.48h.48v-.72h.24v-.96h.24v-1.92h.24v-1.2h-.24v-2.64h-.24v-1.44h.24v.24h.24v.48h.24v.48h.24v.24h.24v.24h.24v.48h.24v.48h.24v.24h.24v.24h.24v.24h.24v-.24h.24v.24h.24v.48h.24v.48h.24v.48h.24v.48h.24v.48h.24v.48h.24v.48h.24v.48h.24v.24h.24v.24h.24v.24h.24v.24h.24v.24h.24v.24h1.2v-.24h.24v-.24h.24v-.48h.24v-.72h.24v-.72h.24v-1.2h.24v-1.68h.24v-3.12h.24v.72h.24v1.44h.24v.24h.24v.24h.72v-.48h.24v-.24h.24v-.24h.24v-.24h.24v-.48h-.24v-1.68h-.24v-1.44h-.24v-1.68h-.24v-.72h.24v.48h.24v.96h.24v.96h.24v.96h.24v.96h.24v.72h.24v.96h.24v.48h.24v.72h.24v.48h.24v.48h.24v.72h.24v.24h.24v.24h.24v.24h.72v-.24h.24v-.48h.24v-.24h.24v-.96h.24v-.72h.24v-.24h.24v-.24h.24v-.48h.24v-.24h.24v-.48h.24V216h.24v-.72h.24v-.72h.24v-.72h.24v-.72h.24v-.72h.72v.96h.24v.24h.24v.24h.24v.24h.24v1.2h.24v1.2h.24v.96h.24v.72h.24v.72h.24v.48h.24v.48h.24v.48h.24v.48h.24v.48h.24v.48h.24v.24h.24v.48h.24v.24h.48v-.24h.24V222h.24v-.96h.24v-.72h.24v-1.44h.24v-.24h.24v.72h.24v.48h.24v.48h.24v.48h.24v.48h.24v.24h.24v.24h.24v.24h.24v.24h.48v.24h.48v.96h.24v.48h.24v.72h.24v.24h.24v.24h.24v.24h.24v.24h.48v-.24h.48v-.48h.24v-.24h.24v-.72h.24v-.72h.24v-.72h.24v-1.2h.24v-1.68h.24v-2.16h.24v-.24h.24v.24h1.2v5.04h.24v.96h.24v-.96h.24v-1.68h.24v-1.92h.48v1.2h.24v.48h.24v.96h.24v.24h.24v.24h.72v-.72h.24v-2.16h.24v-.96h.24v-.96h.24v-.96h.24v-.96h.24v-.96h.24v-.96h.24v-.48h1.2v.24h-.24v.96h-.24v2.64h.24v1.2h.24v.72h.24v.24h.24v.48h.48v-.48h.24v-.24h.24v-1.2h.24v-2.16h.24v-2.16h2.88v.24h.48v.96h-.24v1.2h-.24v1.92H336v1.92h-.24V222h.24v1.2h.24v.48h.24v.24h.48v-.24h.72v1.2h.24v1.2h.24v.48h.24v.48h.24v.48h.24v.24h1.68v-.24h.24v-.24h.24v-.24h.24v-.24h.24v-.48h.24v-.24h.24v-.48h.24v-.72h.24v-4.32h.24v-4.32h.24v-3.12h.24v-.24h.96v-.24h1.2v-.24h.72v.48h-.24v.96h-.24v1.2h-.24v1.2h-.24v1.2h-.24v.96h-.24v.96h-.24v.96h-.24v.96h-.24v1.44h-.24v1.2h-.24v5.04h.24v.48h.24v.48h.48v-.24h.48v-.24h.24v-.96h.24v-1.2h.24v-.96h.24v-1.2h.24v-.96h.24v-1.2h.72v-.24h.24v-.24h.48v-.24h.24V222h.24v-.48h.24v-.48h.24v-.24h.24v-.48h.24v-.24h.24v-.72h.24v-.96h.24v-.72h.24v-.96h.24v.72h.24v1.44h.24v.96h.24v.96h.24v1.44h.24v.96h.24v1.2h.24v.48h.24v.72h.24v.48h.24v-.24h.24v-.24h.24v-.48h.24v-.48h.24v-.96h.24v-.72h.24v-.72h.24v-.96h.24v-.96h.24v-1.2h.24V222h.72v-.24h.24v-.24h.24v-.72h.24v-.96h.24v-.72h.24v4.56h.24v1.92h.24v.72h.24v.96h.24v.72h.24v.72h.24v.48h.24v.24h.24v.48h.72v-.48h.24v-.24h.24v-.48h.24V228h.24v-.72h.24v-.72h.24v-.72h.24v-.72h.24v-.96h.24v-.96h.24V222h.24v-1.2h.24v-.96h.24v-.96h.24v-.96h.24v-.72h.24v1.2h-.24v1.2h-.24v.96h-.24v5.52h.24v.72h.24v.48h.24v.48h.24v.48h.48v.24h.96v-.24h.48V228h.24v-.24h.24v-.24h.24v-.48h.24v-.24h.24v-.48h.24v3.12h.24v.72h.24v.48h.96v-.24h.24v-.24h.48v-.48h.24v-.48h.24v-.72h.24V228h.24v-.48h.24v-1.92h.24v-2.16h.24v-2.4h.24v-2.16h.24v-2.16h.24v-2.16h.24v-1.68h.48v.24h.24v.24h-.24v2.4h-.24v4.8h.24v2.16h.24v1.92h.24v.72h.24v.72h.24v.48h.24v.24h.24v.24h.24v.24h.24v.72h.24v.72h.24v.72h.24v.48h.48v.24h1.2v-.24h.48v-.24h.24v-.48h.24v-.24h.24v-.48h.24v-.72h.24v-.48h.24v-12.72h.72v.24h.72v11.04h.24v1.2h.24v1.2h.24v.96h.24v.48h.24v.48h.24v.24h.24v.24h.72v-.24h.24v-.24h.24v.24h.48v-.24h.24v-.24h.24v-.24h.24v-.72h.24v-.48h.24v-.72h.24v-1.2h.24v-1.44h.24v-.24h-.24v-1.68h-.24v-1.68h-.24v-1.68h-.24v-1.68h-.24v-.96h.48v.24h.48v.24h.48v.24h.24v1.2h-.24v8.64h.24v1.44h.24v1.2h.24v.48h.24v.24h.24v.24h.72v-.24h.24v-.72h.24v-.48h.24v-1.2h.24v-1.2h.24v-1.68h.24v-4.32h-.24v-1.44h.48v.24h.48v.24h.24v.24h.48v.24h-.24v.96H390v2.16h-.24v7.2h.24v.48h.48v-.24h.24v-.24h.24v-.72h.24v-.72h.24v-.96h.24v-1.44h.24v-1.92h.24v-1.92h.24V222h.24v.24h.24v.24h.24v.24h.24v.48h.24v.24h.24v.48h.48v.48h.48v1.68h-.24v1.2h-.24v1.92h-.24v5.52h.24v.24h.72v-.24h.24v-.24h.24v-.24h.24v-.48h.24v-.48h.24v-.48h.24v-.72h.24v-1.44h.24v-2.16h.24v-1.92h.24v-.72h.72v.24h.48v.24h.24v.96h-.24v1.44h-.24v1.92h-.24v1.44h-.24V234h-.24v2.64h.24v1.2h.48v-.24h.48v-.48h.24v-.24h.24v-.48h.24v-.72h.24v-1.2h.24v-1.2h.24v-1.2h.24v-1.2h.24v-1.2h.24v-1.2h.24v-.96h.24v.24h.24v.72h-.24v1.44h-.24v1.92h-.24v6.24h.24v1.2h-4.56v.24h-1.68v.24H390v.24h-3.12v.24h-2.64v.24h-.96v.24h-.72v.24h-.72v.24h-.72v.24h-.72v.24h-.48v.24h-.96v.24h-.48v.24H378v.24h-.48v.24h-.72v.24h-.24v.24h-.48v.24h-.24v.24h-.48v.24h-.48v.24h-.48v.24h-.48v.24h-.48v.24h-.48v.96h.48v.24h3.12v.24h3.36v-.24h4.32V246h5.28v-.24h1.2v-.24h.72v-.24h.72v-.24h.72v-.24h.72v-.24h.96v-.24h.48v-.24h.72v-.24h.72v-.24h.72v-.24h.72v-.24h1.92v.24h1.44v.24h.96v.24h1.2v1.2h-.24v.48h-.24v.24h-.24v.24h-.24v.48h-.24v.24H402v.24h-.24v.24h-.24v.24h-.24v.24h-.24v.24h-.24v.24h-.24v.24h-.48v.24h-.24v.24h-.24v.24h-.24v.24h-.24v.24h-.24v.24h-.24v.24h-.48v.48h-.48v.24h-.24v.24h-.24v.24h-.24v.24h-.24v.24h-.24v.24h-.24v.24H396v.24h-4.8v-.24h-.96V252h-.72v-.24h-.96v-.24h-4.32v.24h-1.68v.24h-2.64v-.24h-5.28v.24h-1.68v.24h-.48v.24H372v.24h-.24v.24h-.48v.24h-.24v.24h-.48v.24h-.24v.24h-.24v.24h-.24v.24h-.24v.24h-.48v.24h-.24v.48h-.24v.48h-.24V258h.24v.48h.24v.24h.24v.24h.72v.24h3.12v-.24h1.44v-.24h1.44v-.24h1.68v-.24h1.44V258h1.2v-.24h1.44v-.24h1.92v-.24h3.12v-.24H390v-.24h2.64v.24h.24v.24h.24v.24h-.24v.24h-.24v1.92h-.24v.24h-.24v.24h-.24v.24h-.24v.48h-.24v.48h-.24v.24h-.24v.24h-.24v.24h-.24v.24h-.24v.48H390v.48h-.24v.24h-.24v.24h-.24v.24h-.24v.24h-.48v.24h-.24v.24h-.48v.24h-.24v.24h-.48v.24h-.48v.24h-.48v.24h-.48v.24h-.48v.24h-.72v.24h-.96v.24h-.72v.24h-.72v.24h-.72v.24h-.72v.24h-.48v.24h-.72v.24h-.72v.24H378v.24h-.48v.24h-.48v.24h-.48v.24h-.48v.24h-.48v.24h-.24v.24h-.48v.24h-.24v.24h-.48v.24h-.24v.24h-.48v.24h-.24v.24h-.24v.24h-.24v.24h-.48v.24H372v.24h-.24v.24h-.24v.24h-.24v.24h-.24v.24h-.48v.24h-.24v.24h-.48v.24h-.24v.24h-.24v.24h-.24v.24h-.24v.24h-.24v.24h-.24v.24h-.48v.24h-.24v.24h-.24v.24h-.24v.24h-.24v.24h-.24v.24h-.24v.24h-.24v.48H366v.24h-.24v.72h-.24v.48h-.24v.72h-.24v.48h-.24v.72h-.24v.48h-.24v.48h-.24v.72h-.24v.96h-.24v.72h-.24v.48h-.24v.48h-.24v.48h-.24v.96h.48v-.24h.48v-.24h.48v-.24h.24v-.24h.48v-.24h.24v-.24h.48v-.24h.24v-.24h.48v-.24h.24v-.24h.24v-.24h.48v-.24h.24v-.24h.48v-.24h.24v-.24h.48v-.24h.24v-.24h.48v-.24h.24v-.24h.24v-.24h.48V282h.48v-.24h.24v-.24h.24v-.24h.48v-.24h.24v-.24h.24v-.24h.48v-.24h.48v-.24h.24v-.24h.48v-.24h.24v-.24h.48v-.24h.48v-.24h.24v-.24h.48v-.24h.48v-.24h.24v-.24h.24v-.24h.48v-.24h.24v-.24h.48v-.24h.24v-.24h.48v-.24h.24v-.24h.24V276h.48v-.24h.24v-.24h.24v-.24h.48v-.24h.24v-.24h.24v-.24h.24v-.24h.48v-.24h.24v-.24h.24v-.24h.48v-.24h.24v-.24h.24v-.24h.24v-.24h.48v-.24h.24v-.24h.24v-.24h.24v-.24h.24v-.48h.24v-.24h.24v-.48h.24v-.24h.24V270h.24v-.24h.24v-.48h.24v-.24h.24v-.24h.24v-.48h.24v-.24h.24v-.48h.24v-.48h.24v-.48h.24v-.24h.24v-.72h.24v-.48h.24v-.24h.24v-.24h.24v-.48h.24V264h.24v-.24h.24v-.24h.24v-.24h.24v-.24h.24v-.24h.24v-.24h.24v-.24h.24v-.24h.24v-.48h.24v-.48h.24v-.24h.24v-.48h.24v.24h.24v4.08h.24v2.88h.24v2.88h.24v2.16h.24v5.76h.24v1.2h.24v1.68h.24v.96h.24v.72h.24v.96h.24v.48h.24v.48h.24v.24h.72v-.48h.24v-.48h.24v-.96h.24v-.96h.24v-.72h.24v-.96h.24v-1.44h.24v-2.16h-.24v-1.44h-.24v-1.2h-.24v-.72h-.24v-1.44h-.24v-.48h-.24v-.96h-.24v-.48h-.24v-.72h-.24v-.96H396v-1.2h-.24v-.48h-.24v-1.44h-.24V264h-.24v-1.44h-.24v-2.4h-.24v-2.88h.24v-.48h.24v-.24h.24v-.24h.24v-.24h.24v-.24h.24v-.24h.24v-.24h.24v-.24h.24v-.24h.24v-.48h.24v-.24h.24v-.24h.24v-.24h.24v-.48h.24v-.24h.24v-.24h.24v-.24h.24v-.24h.24V252h.48v-.24h.24v-.24h.24v-.48h.48v-.24h.24v-.24h.24v-.24h.24v-.24h.72v-.24h.48v.24h.48v.48h.24v.48h.24v.24h.24v.48h.24v.24h.24v.72h.24v.48h.24v.96h.24v1.44h.24v1.44h.24v.96h.24v1.2h.24v1.44h.24v1.44h.24v1.2h.24v1.2h.24v.96h.24v.96h.24v.72h.24v.96h.24v.72h.24v.72h.24v.48h.24v.24h.24v.24h.48v-.24h.24V270h.24v-.24h.24v-.48h.24v-.48h.24v-1.2h.24v-1.92h-.24v-5.52h-.24v-1.2h-.24V258h-.24v-1.2h-.24v-1.2h-.24v-.72h-.24v-.72h-.24v-.96h-.24v-.48h-.24v-.48H408v-.72h-.24v-.72h-.24v-.48h-.24v-.48h-.24V246h.24v-1.44h.24v-.48h.24v-.24h.24v-.72h.24v-.72h.24v-.48h.24v-.48h.24v.72h.24v.24h.72v-.24h.48v-.48h.24v-.24h.24v-.24h.24v-.48h.24v-.48h.24v-.72h.24v-.48h.24v-.72h.24v-.72h.24v-1.2h.24v-.96h.24v-.96h.24v.24h.48v.24h.48v.24h.72v.24h.48v.24h.48v.24h.24v.24h.24v.48h-.24v.48h-.24v.48h-.24v.48h-.24v.48h-.24v.48h-.24v.48h-.24v.48h-.24v.48h-.24v.48H414v.48h-.24v.72h-.24v.48h-.24v.72h-.24v.72h-.24v.72h-.24v3.84h.24v.48h.24v.24h.24v.48h-.24v.72h-.24v3.36h.24v.24h.24v.24h.48v.24h.48v-.24h.96v-.24h.24v-.24h.24v-.24h.24v-.24h.24v-.24h.24v-.24h.24v-.24h.24v-.24h.24V252h.24v-.24h.24v-.24h.24v-.48h.24v-.24h.24v-.96h.24v-.96h.24v-.96h.24v-.96h.24V246h.24v-.96h.24v-.96h.24v-.96h.24v-.96h.24v-.72h.24v-.48h.24v.24h.24v.48h.24v.48h.24v.48h.24v.72h.24v1.2h-.24v.24h-.24v.48h-.24v.48h-.24v.48h-.24v.48h-.24v.48h-.24v.48h-.24v.48H420v.48h-.24v.48h-.24v.48h-.24v.48h-.24v.48h-.24v.48h-.24v.48h-.24v.48h-.24v.48h-.24v.48h-.24v.72h-.24v1.68h.24v.24h.96v-.24h.48v-.24h.24v-.24h.24v-.24h.48v-.24h.24v-.24h.24v-.24h.24v-.24h.24v-.24h.24v-.48h.24v-.24h.24v-.24h.24v-.24h.24v-.48h.24v-.24h.24v-.24h.24v-.48h.24v-.24h.24v-.24h.24v-.48h.24v-.48h.24v.24h.24v.48h.24v.48h.24v.24h-.24v.72h-.24v.48h-.24v.24h-.24v.24h-.24v.48h-.24v.24h-.24v.24h-.24v.48h-.24v.24h-.24v.72h-.24v.72h.24v.24h-.24v.96h-.24v.48h-.24v1.68h.24v.24h.48v-.24h.72v-.24h.24v-.24h.48v-.24h.24V258h.24v-.24h.24v-.24h.24v-.24h.24v-.24h.48v-.24h.24v-.24h.24v-.24h.24v-.24h.24v-.24h.24v-.48h.24v-.24h.24v-.24h.24v-.24h.24v.48h.24v.24h.24v.24h-.24v.24h-.24v.48h-.24v.24h-.24v.24h-.24v.24h-.24v.24h-.24v.24h-.24v.24H426v.48h-.24v.48h-.24v.48h-.24v1.92h-.24v.24h-.24v.48h-.24v.24h-.24v.48h-.24v.48h-.24v.48h-.24v.24h-.24v.48h-.24v.48h-.24v.48h-.24v.48h-.24v.72h-.24v.48h-.24v1.92h.48v.24h.48v-.24h.72v-.24h.48v-.24h.48v-.24h.24v-.24h.24v1.2h-.24v.48h-.24v.24h-.24v.24h-2.16v.24h-.96v.24h-2.88v.24h-.96v.24h-.72v.24h-.48v.24h-.72v.24h-.48v.24h-.72v.24h-.48v.24h-.48v.24h-.72v.24h-.48v.24h-.48v.24h-.72v.24h-.24v.24h-.48v.24h-.48v.24h-.24v.24h-.48v.24h-.48v.24H408v.24h-.24v.24h-.48v.24h-.72v.24h-.24v.24h-.24v.24h-.48v.24h-.24v.24h-.24v.24h-.48v.24h-.24v.24h-.48v.24h-.24v.24h-.24v.24h-.24v.24h-.24v.24h-.24v.24h-.24v.24h-.24v.24H402v.24h-.24v.48h-.24v.24h-.24v.72h1.2v-.24h.96v-.24h.72v-.24h.72v-.24h.48v-.24h.48v-.24h.72v-.24h.48v-.24h.48v-.24h.72v-.24h.48v-.24h.24v-.24h.48v-.24h.48v-.24h.48v-.24h.48v-.24h.48v-.24h.48v-.24h.72v-.24h.48v-.24h.72v-.24h.72V276h.48v-.24h.48v-.24h.48v-.24h.48v-.24h.24v-.24h.48v-.24h.48v-.24h.48v-.24h.48v-.24h.72v-.24h.48v-.24h.48v-.24h.48v-.24h.72v.24h.24v.48h.24v.24h-.48v.24h-.24v.48h-.48v.24h-.24v.24h-.24v.24H420v.48h-.24v.48h-.24v.48h-.24v.24h-.24v.48h-.24v.24h-.24v.48h-.24v.48h-.24v.48h-.24v.24h-.24v.48h-.24v.24h-.48v.24h-.48v.24h-.72v.24h-.24v.24h-.48v.24h-.24v.24H414v.24h-.24v.24h-.24v.24h-.48v.24h-.24v.24h-.48v.24h-.24v.24h-.48v.24h-.48v.24h-.48v.24h-.24v.24h-.48v.24h-.48v.24h-.48v.24h-.48v.24H408v.24h-.48v.24h-.48v.24h-.48v.24h-.72v.24h-.24v.24h-.48v.24h-.72v.24h-.48v.24h-.72v.24h-.72v.24h-.72v.24h-.72v.24h-.48v.24h-.72v.24h-.48v.24h-.24v.24h-.48v.24h-.48v.24h-.48v.24h-.24v.24h-.48v.24h-.24v.24h-.48v.24H396v.24h-.24v.24h-.24v.24h-.24v.24h-.24v.24h-.24v.24h-.24v.24h-.24v.24h-.24v.48h-.24v.24h-.24v.24h-.24v.24h-.24v.48h-.24v.48h-.24v.24h-.24v.24h-.24v.72h-.24v1.2h.48v.24h2.4v-.24h.96v-.24h.72v-.24h.48v-.24h.48v-.24h.24v-.24h.48v-.24h.24v-.24h.48v-.24h.24v-.24h.48v-.24h.24v-.24h.48v-.24h.24v-.24h.48V294h.24v-.24h.24v-.24h.48v-.24h.24v-.24h.24v-.24h.48v-.24h.24v-.24h.24v-.24h.24v-.24h.24v-.24h.48v-.24h.24v-.24h.24v-.24h.48v-.24h.24v-.24h.48v-.24h.24v-.24h.24v-.24h.48v-.24h.24v-.24h.48v-.24h.24v-.24h.48v-.24h.24v-.24h.48V288h.24v-.24h.48v-.24h.24v-.24h.24v-.24h.24v-.24h.24v-.24h.24v-.24h.24v-.24h.24v-.24h.24v-.24h.24v-.24h.24v-.24h.48v-.24h.24v-.24h.24v-.24h.24v-.24h.24v-.24h.48v-.24h.24v-.24h.72v.24h.48v.24h.24v.48h.24v2.16h-.24v.96h-.24v.48h-.24v.48h-.24v.72h-.24v.48h-.24v.72h-.24v.48h-.24v.72H414v.72h-.24v.72h-.24v.72h-.24v.72h-.24v.96h-.24v.96h-.24v.72h-.24v1.68h-.24v1.68h-.24v10.32h.24v2.88h.24v1.44h.24v.96h.24v1.68h.24v.96h.24v1.2h.24v.72h.24v1.44h.24v.72h.24v.48h.24v.48h.24v.24h.72v-.24h.24v-.48h.24v-.96h.24v-1.2h.24v-1.44h.24v-1.44h.24v-1.92h.24v-3.36h-.24v-2.4h-.24v-2.88h-.24v-5.76h-.24v-3.84h-.24v-6.72h.24v-3.12h.24V288h.24v-.48h.24v-.96h.24v-.24h.24v.48h.24v.48h.24v.48h.24v.96h.24v.72h.24v.72h.24v.48h.24v.72h.24v.72h.24v.24h.24v.48h.24v.72h.24v.48h.24v.48h.24v.48h.24v.72h.24v.48h.24v.48h.24v.48h.24v.24h.24v.48h.24v.48h.24v.24h.24v.24h.24v.24h.24v.24h.24v.24h.24v.48h.24v.24h.24v.24h.24v.24h.24v.24h.24v.24h.24v.24h.24v.24h.24v.24h1.92v-2.4h-.24v-1.2h-.24v-.72h-.24v-.72h-.24v-.72h-.24v-.48h-.24v-.48H426v-.72h-.24v-.72h-.24v-.72h-.24v-.48h-.24v-.24h-.24v-.48h-.24v-.24h-.24v-.48h-.24v-.24h-.24v-.24h-.24v-.48h-.24v-.48h-.24v-.24h-.24v-.24h-.24v-.48h-.24v-.48h-.24v-.48h-.24v-.24h-.24v-.48h-.24v-.24h-.24v-.72h-.24v-.24h-.24v-.24h-.24v-.24h-.24v-.48h-.48v-.48h-.24v-.48h-.24v-.48h-.24v-.24h-.24v-.24h-.24v-.48h-.24v-.24h-.24V282h-.24v-1.44h.24v-.24h.48v-.24h.48v-.24h.24v-.48h.24v-.24h.24v-.24h.24v-.24h.24v-.48h.24v-.24h.24v-.24h.24v-.24h.24v-.24h.24v-.24h.24v-.24h.48v.48h.24v.24h.24v.24h.24v.24h.24v.48h.24v.24h.24v.24h.24v.24h.24v.48h.24v.24h.24v.24h.24v.24h.24v.48h.24v.24h.24v.48h.24v.24h.24v.24h.24v.48h.24v.24h.24v.48h.24v.24h.24v.48h.24v.24h.24v.48h.24v.24h.24v.48h.24v.48h.24v.24h.24v.48h.24v.48h.24v.24h.24v.24h.24v.24h.24v.24h.24v.24h.48v.24h.24v.24h.48v.24h.24v.24h.72v.48h-.24v.24H432v.24h-.24v1.2h2.4v-.24h.96v-.24h.48v-.24h.72v-.24h.48v-.24h.48v-.24h.48v-.24h.48v-.24h.24v-.24h.48v-.24h.48v-.24h.48v-.24h.48v-.24h.24V288h.48v-.24h.24v-.24h.48v-.24h.24v-.24h.24v-.24h.48v-.24h.24v-.24h.24v-.24h.48v.24h-.24v.24h-.24v.48h-.24v.48h-.24v.48h-.24v.48h-.24v.72h-.24v.48h-.24v.72h-.24v.48h-.24v.24h-.24v.24h-.24v.48h-.24v.24h-.24v.24h-.24v.24h-.24v.24h-.24v.48h-.24v.24h-.24v.24h-.24v.48h-.24v.96h.48v.24h2.4v-.24h.72v-.24h.72v-.24h1.2v-.24h.96v-.24h.72V294h.96v-.24h.72v-.24h.72v-.24h.72v-.24h1.2v.24h.24v.48h-.24v.96H450v.24h-.24v.24h-.24v.24h-.24v.48h-.24v.24h-.24v.24h-.24v.48h-.24v.24h-.24v.24h-.24v.48h-.24v.48h-.24v.24h-.24v.48h-.24v.48h-.24v.48h-.24v.48h-.24v.48h-.24v.72h-.24v.48h-.24v.72h-.24v.96h.24v.24h.72v-.24h.72v-.24h.24v-.24h.48v-.24h.48v-.24h.48v-.24h.24v-.24h.48v-.24h.24v-.24h.48v-.24h.24v-.24h.48v-.24h.24v-.24h.48v-.24h.24v-.24h.48v-.24h.24V300h.48v-.24h.48v-.24h.24v-.24h.48v-.24h.48v-.24h.48v.24h.24v.24h-.24v.24h-.24v.24h-.24v.24h-.24v.48h-.24v.24h-.24v.24h-.24v.24h-.24v.24h-.24v.24h-.24v.48h-.24v.24h-.24v.24h-.24v.48h-.24v.24h-.24v.48h-.24v.24h-.24v.48h-.24v.24h-.24v.24h-.24v.48h-.24v.24H450v.48h-.24v.48h-.24v.24h-.24v.72h.24v.24h.96v.24h.72v.24h3.12v.48h-.24v.72h-.24v.96h-.24V312h.24v.24h.48v.24H456v-.24h1.92V312h1.68v-.24h1.44v-.24h.96v-.24h.96v-.24h.24v.48h.24v.48h.24v.24h.24v.48h.24v.96h-.24v.24h-.24v.24h-.24v.24h-.24v.24h-.24v.24h-.24v.24h-.24v.24h-.24v.24H462v.48h-.24v.24h-.24v.24h-.24v.24h-.24v.24h-.24v.48h-.24v.24h-.24v.48h-.24v.48h-.24v.24h-.24v1.92h.24v.48h.24v.24h.48v.24h.24v.24h4.8v-.24h1.44v-.24h.72v-.24h.96v-.24h.72v.24h.24v.24h.24v.48h.24v.48h.24v.48h.24v.24h.24v.48h.24v.48h.24v.48h.24v.24h.24v.48h-.48v-.48h-.24v-.24h-.24v-.48h-.24v-.48h-.24v-.24h-.24v-.48h-.24v-.48h-.48v.24h-.96v.24H468v.24h-.24v.24h-.48v.24h-.48v.24h-.24v.24h-.48v.24h-.24v.24h-.24v.24h-.24v.24h-.24v.24h-.24v.24h-.24v.24h-.24v.24h-.24v.48h-.24v.24h-.24v.24h-.24v.24h-.24v.24h-.24v.24h-.24v.48h-.24v.24h-.24v.48H462v.24h-.24v1.2h1.2v-.24h.72V330h.72v-.24h.72v-.24h.48v-.24h.48v-.24h.48v-.24h.48v-.24h.48v-.24h.48v-.24h.48v-.24h.24v-.24h.48v-.24h.48v-.24h.24v-.24h.48v-.24h.48v-.24h.48v-.24h.24v.24h.24v.48h.24v.24h.24v.24h-.24v.24h-.24v.24h-.24v.24h-.24v.24h-.48v.24h-.24v.24h-.24v.24h-.48v.24h-.48v.24h-.24v.24h-.24v.24h-.24v.24h-.24v.24h-.24v.24H468v.24h-.48v.48h-.24v.24h-.24v.24h-.24v.24h-.24v.24h-.24v.24h-.24v.24h-.24v.24h-.24v.24h-.24v.24h-.24v.24h-.24v.24h-.24v.48h-.24v.24h-.24v.24h-.24v.72h.48v.24h5.28v-.24h1.2v-.24h.48v-.24h.48v-.24h.72v-.24h.24v-.24h.48v-.24h.72v-.24h.72v-.24h.48v.24h-.24v.24h-.48v.24h-.24v.24H474v.24h-.48v.24h-.24v.24h-.24v.24h-.24v.24h-.24v.24h-.48v.24h-.24v.24h-.24v.24h-.24v.24h-.24v.24h-.24v.24h-.24v.24h-.24v.24h-.24v.24h-.24v.24h-.24v.24h-.24v.24h-.24v.24h-.24v.48h-.24v.24h-.24v.24h-.24v.48H468v.24h-.24v.48h-.24v1.2h3.12v-.24h1.2v-.24h.72v.24h-.48v.24h-.24v.24h-.24v.24h-.24v.24h-.24v.24h-.24v.24h-.24v.24h-.24v.24h-.24v.24h-.24v.24h-.24v.24h-.24v.24h-.24v.24h-.24v.48h-.24v.48h-.24v.96h1.2v-.24h.96v-.24h.72v-.24h.72v-.24h.96v-.24h.48v-.24h.72v-.24h.48v.24h-.24v.48h-.24v1.92h.96v.24h-.48v.24h-.24v.24h-.24v.24h-.48v.24h-.24v.24h-.24v.24h-.24v.24h-.48v.24h-.24v.24h-.24v.24h-.24v.24h-.24v.24h-.24v.24h-.24v.48h.24v-.24h.96v-.24h.72v-.24h.72v-.24h.72v-.24h.72v-.24h.72v-.24h.72v-.24h.72v-.24h.96v-.24h.72v-.24h.72v-.24h.96v-.24h.96v-.24h.72v-.24h2.4v-.24h.96v.24h.24v.48h.24v.24h.24v.48h.24v.24h.24v.24h-.72v.24h-.72v.24h-.48v.24h-.48v.24h-.72v.24h-.72v.24h-.48v.24h-.48v.24h-.48v.24h-.48v.24h-.48v.24h-.48v.24H480v.24h-.24v.24h-.24v.24h-.24v.24h-.24v.24h-.24v.24h-.24v.96h4.56v.24h-.48v.24h-.48v.24h-.48v.24h-.48v.24h-.72v.24H480v.24h-.48v.24h-.48v.24h-.48v.24h-.48v.24h-.48v.24h-.48v.24h-.24v.24h-.48v.24h-.48v.24h-.24v.24h-.48v.24h-.48v.24h-.24v.24H474v.24h-.24v.24h-.48v.24h-.24v.24h-.24v.24h-.24v.24h-.24v.24h-.24v.24h-.24v.72h1.2v-.24h.96v-.24h.48v-.24h.72v-.24h.48v-.24h.72v-.24h.72v-.24h.72v-.24h.72v-.24h.96v-.24h.72v-.24h.72v-.24h.72V360h.72v-.24h.48v.24h-.24v.24h-.24v.48h-.24v.24h-.24v.72h-.24v1.68h.24v.24h.48v.24h8.16v-.24H492v-.24h.72v-.24h1.2v-.24h1.44v.24h.24v.24h.48v-.72h.24v.48h.24v.24h.24v.48h.24v.24h.24v.48h.24v.24h-1.92v.24h-1.92v.24h-1.44v.24h-1.2v.24h-.96v.24h-.72v.24h-.72v.24h-.72v.24h-.48v.24h-.48v.24h-.24v.24h-.24v.24h-.24v.24H486v.96h.24v.24h.24v.24h.24v.24h.24v.24h.48v.24h.48v.24h.48v.24h.48v.24h.72v.24h.48v.24h.48v.24h.72v.24h.72v.24h-.48v.24h-1.92v.24h-.96v.24h-.48v.24h-.48v.96h.24v.24h.48v.24h.96v.24h1.44v.24h1.44v.24h1.44v.24h1.44v.24h-7.68v.24H486v.24h-.72v.24h-.72v.24h-.48v.24h-.24v.24h-.24v.48h-.24v1.92h.24v.72h.24v.72h.24v.24h.24v.48h.24v.24h.24v.24h.24v.24h.24v.24h.48v.24h.48v.24h.48v.24h.48v.24h.72v.24h.96v.24h1.2v.24H492v.24h1.68v.24h1.92v.24h6.24v.24h.24v.72h-2.88v-.24h-3.6v.24h-1.2v.24h-.48v.24h-.24v.24h-.24v1.2h.24v.24h.24v.48h.24v.24h.48v.24h.24v.24h.48v.24h.48v.24h.48v.24h.72v.24h.48v.24h.96v.24h.96v.24h2.16v.24h1.92v.72h-.96v-.24h-1.44v-.24h-4.32v.24h-6v.24h-1.2v.24h-.72v.24h-.72v.24h-.72v.24h-.48v.24h-.48v.24H486v.24h-.24v.96h.72v.24h.96v-.24h1.44v-.24h.72v.24h-.48v.24h-.72v.24h-.96v.24h-.48v.24h-.72v.24H486v.24h-.24v.24h-.24v.48h-.24v.96h.24v.48h-.48v-.24h-.48v-.24h-.48v.48h.24v.24h.48v.24h.24v.24h.24v.24h.24v.24h.24v.24h.48v.24h.24v.24h.24v.24h.48v.24h.24v.24h.48v.24h.48v.24h.24v.24h.24v.24h.48v.24h.24v.24h.24v.48h.24v.24h.24v.48h.24v.24h.24v.24h.24v.24h.24v.48h.24v.24h.24v.48h-.72v.24h-.96v.24h-.72v.24h-.72v.24h-.48v.24h-.48v.24h-.72v.24h-.48v.24h-.24v-.24h-.48v-.24h-.96v-.24h-.96v-.24h-2.16v.24h-.24v1.2h.24v.24h.24v.48h.24v.24h.24v.24h.24v.24h.24v.24h.24v.24h.24v.24h.24v.24h.24v.24h.24v.24h.48v.24h.24v.24h.24v.24h.24v.24h.48v.24h.24v.24h.24v.24h.48v.24h.24v.24h.48v.24h.48v.24h.24v.24h.48v.24h.24v.24h.48v.24h.48v.24h.48v.24h.48v.24h.48v.24h.48v.24h.72v.24h-1.2v.24h-5.04v-.24h-.72v-.24h-.72v-.24h-3.12v.24h-1.92v-.24h-1.2v-.24h-.72v-.24h-1.44v.48h.24v.24h.48v.24h.48v.24h.72v.24h.96v.48h-.24v.48h.24v.72h.24v1.44h.24v.24h.24v.48h.24v.48h.24v.24h.24v.24h.24v.24h.24v.24h.24v.24h.24v.24h.48v.24h.24v.24h.48v.24h.24v.24h.48v.24h.24v.24h.24v.24h-1.2v.24h-3.84v.24h-.96v-.24h-2.4v-.24h-1.2v.24h.72v.24h1.44v.24h1.44v.24h.96v.24h.96v.24h.72v.24h.72v.24h.72v.24h.72v.24h.72v.24h.72v.24h.72v.24h.72v.24h.72v.24h.72v.24h.72v.24h.72v.24h.72v.24h.72v.24h.24v.24h-.24v.48h-.24v.24h-.24v.24h-.48v-.24h-.48v-.24h-.48v-.24h-.48v-.24h-.72v-.24h-.72v-.24h-.72v-.24h-.96v-.24h-.96v-.24h-1.44v-.24h-2.4v.24h-.48v.48h-.24v1.2h.24v.48h.24v.48h.24v.48h.24v.24h.24v.48h.24v.24h.24v.24h.24v.24h.24v.24h.24v.24h.24v.24h.24v.24h.24v.24h.24v.24h.24v.24h.24v.24h.48v.24h.24v.24h.24v.24h.24v.24h-.48v-.24h-4.32v.24h-.24v1.92h.24v.48h.24v.48h.24v.48h.24v.24h.24v.24h.24v.48h.24v.24h.48v.24h.24v.24h.48v.24h.48v.24h.24v.24h-.24v.48h-.24v.48h-.24v.72h-.24v.48h-.24v.72h-.24v-.24h-.24v-.24h-.24v-.24h-.24v-.24h-.24v-.24H480v-.24h-.24v-.24h-.24v-.24h-.24v-.24h-.24v-.48h-.24v-.24h-.24v-.24h-.24v-.24h-.24v-.24h-.24v-.24h-.48v-.24h-.24v-.24h-.24v-.24h-.48v-.24h-.48v-.24H474v.24h-.72v.24h-.48v.24h-.24v.24h-.24v.24h-.24v.24h-.24v.96h.24v.48h.24v.24h.24v.48h.24v.24h.24v.24h.48v.24h.24v.24h.48v.24h.24v.24h.48v.24h.48v.24h.48v.24h.48v.24h.72v.24h.48v.24h.72v.24h.72v.24h.48v.24h.72v.24h.24v.24h-.24v.72H480v.48h-.24v.72h-.24v.72h-.24v.48h-.24v.48h-.24v.48h-.24v.48h-.24v.48h-.96v-.24h-.72v-.24h-.72v-.24h-.72v-.24h-.72V450h-.72v-.24h-.72v-.24h-.72v-.24h-.72v-.24h-1.68v.96h.24v.24h.24v.24h.24v.48h.24v.48h.24v.48h.24v.48h.24v.48h.24v.48h.24v.48h-3.12v1.2h.24v.48h.24v.72h.24v.24h.24v.96h.24v.96h.24v.48h.24v.48h.24v.48h.24v.48h.24v.24h.24v.48h.24v.24h.48v.24h.24v.24h.48v.24h.48v.24h.72v.24h1.44v.24h-.24v.48h-1.2v-.24h-4.56v.24h-.96v-10.32h-.24V450h-.24v-2.16H468v-5.04h.24v-2.4h.24v-2.64h.24v-1.92h-.24v-2.16h-.24v-1.2H468v-.24h-.24v-.72h-.24v-.48h-.24v-.48h-.24v-.24h-.24v-.24h-.24v-.24h-.48v-.24h-1.44v.24h-.24v.24h-.48v.24h-.24v.24h-.24v.24h-.24v.24h-.24v.24h-.24v.24h-.24v.48h-.24v.24H462v.48h-.24v.24h-.24v.48h-.24v.48h-.24v.24h-.24v.48h-.24v.72h-.24v.48h-.24v.48h-.24v.48h-.24v.48h-.24v.24h-.24v.24h-.24v.48h-.24v.24h-.24v.24h-.24v.24h-.48v.24h-.24v-.48h-.24v-.48h-.24v-.96h-.24v-1.68h-.24v-.96h-.24v-.96H456v-.96h-.24v-.48h-.24v-.48h-.24v-.24h-.96v.24h-.24v.24h-.48v.24h-.24v.24h-.24v.24h-.24v.24h-.24v.48h-.24v.24h-.24v.24h-.24v.48h-.24v.48h-.24v.24h-.24v.24h-.24v.24h-.24v.48h-.24v.24h-.24v.48H450v.48h-.24v.48h-.24v.48h-.24v.48h-.24v.24h-.24v.48h-.24v.48h-.24v.48h-.24v.24h-.24v.48h-.24v.72h-.24v.24h-.24v.24h-.24v.24h-.24v.24h-.24v.24h-.24v.24h-.48v-.24h-.24v-.24h-.24v-.24h-.24v-.24h-.48v-.48h-.24v-.48H444v-.24h-.24v-.48h-.24v-.48h-.24v-.48h-.24v-.48h-.24v-.24h-.24v-.48h-.24v-.24h-.24V438h-.24v-.24h-.24v-.24h-.48v-.24h-.48v.24h-.48v.24h-.24v.48h-.24v.48h-.24v.48h-.24v.72h-.24v1.92h-.24v.96h-.24v1.2h-.24v1.44H438v3.84h-.24v.48h-.24v.24h-.96v-.24h-.24v-.24h-.24v-.24h-.24v-.24h-.24v-.48h-.24v-.24h-.24v-.24h-.24v-.48h-.24v-.48h-.24v-.72h-.24v-.48h-.24v-.48h-.24v-.48h-.24v-.48h-.48v3.12h.24v1.92h.24v1.68h.24v1.2h.24v.48h.24v.96h.24v.72h.24v1.2h.24v.72h.24v1.2h.24v.72h.24v.72h.24v.48h.24v.96h.24v.48h.24v.72h.24v.96h.24v.48h.24v.72h.24v.72h.24v.48h.24v.72h.24v.48h.24v.48h.24v.48h.24v.48h.24v.48h.24v.48h.24v.48h.24v.48h.24v.48h.24v.72h.24v.48h-.24v.24h-.24v.24h-.24v.48h-.24v1.44h-.24v.96h-.24v.48h-.24v.48h-.24v.24h-.48v.24h-.72v-.24h-.96v.48h-.24v.48h-.24v.48h-.24v.48h-.24v.48h-.24v.72h-.24v.72h-.24v.48h-.24v.72h-.24v2.88h.24v.96h.24v.72h.24v.24h.24v.72h.24v.48h.24v.24h.24v.48h.24v.72h.24v.48h.24v.72h.24v.72h.24v.72h.24v.48h.24v.24h-.24v.48h-.24v.48h-.24v.24h-.24v.24h-.24v.24h-.24v.24h-.48v.24h-.48v.24h-.24v.24h-.48v.48h-.24v2.88h.24v3.36h.24v.96h.24v.72h.24v.96h.24v.24h.24v.72h.24v.72h.24v.24h.24v.48h.24v.48h.24v.48h.24v.48h.24v.72h.24v.96h.24v2.64h-.24v.96h-.24v.48h-.24v.72h-.24v.72h-.24v.48h-.24v.48h-.24v.96h.48v.24h.96v-.24h1.92v-.24h1.2v-.24h.96V516h1.2v-.24h1.2v-.24h1.2v-.24h.96v-.24h.96v-.24h1.2v-.24h1.2v-.24h.96v-.24h1.2v-.24h.96v-.24h1.68v-.24h.24v.24h.48v.24h.48v.24h.72v.24h.48v.24h.72v.24h.72v.24h.72v.24h.96v.48h-.24v.48h-.24v.72h-.24v.48h-.24v.48h-.24v.72h-.24v.48h-.24v.24h-1.44v-.24h-.72v.24h.24v.48H456v.96h.48v.24h.24v.24h.24v.24h.24v.48h-.24v.48h-.24v.48H456v-.24h-.48v-.24h-.24v-.24h-.48V522h-.48v-.24h-.48v-.24h-.72v-.24h-1.92v1.44h.24v.48h.24v.48h.24v.24h.24v.24h.24v.24h.24v.24h.24v.24h.24v.24h.24v.24h.24v.24h.24v.24h.48v.24h.24v.24h-.48v.24h-4.56v.24h-1.2v-.24h-4.08v.24h-.72v.24h-.24v.24h-.48v.24h-.24v.24h-.24v.24h-.24v.24h-.24v.24h-.24v.96h.24v.24h.24v.48h.24v.24h.24v.24h.24v.24h.24v.24h.24v.24h.24v.24h.48v.24h.24v.24h.24v.24h.24v.24h.48v.24h.48v.24h.24v.24h.48v.24h.48v.24h.24v.24h.48v.24h.48v.24h.48v.24h.48v.24h.48v.24h.48v.24h.48v.24h.48v.24h-.24v.48h-.24v.72h-.24v.72H450v.48h-.24v-.24h-.24v-.24h-.24v-.24h-.24v-.24h-.48v-.24h-.24v-.24h-.48v-.24h-.24v-.24h-.96v-.24h-1.2v.24h-.72v.24H444v.24h-.72v.24h-.48v.24h-.24v.24h-.48v.24h-.24v.24h-.24v.48h.48v.24h.72v.24h.24v.24h.48v.24h.24v.24h.24v.24h.24v.24h.48v.24h.24v.24h.24v.24h.24v.24h.24v.24h.24v.24h.48v.24h.24v.24h.24v.24h.24v.24h.24v.24h.24v.24h-.24v.48h-.24v.48h-.24v.24h-.24v.48h-.24v.48h-.24v.48h-.24v.48h-.24v.48h-.24v.72h-.24v.72h-.24v.48h-.24v.48h-.24v.48h-.24v.72H444v.48h-.24v.48h-.24v.48h-.24v.48h-.24v.24h-.24v.48h-.24v.24h-.24v.48h-.24v.24h-.24v.24h-.24v.24h-.24v.48h-.24v.24h-.24v.24h-.24v.48h-.24v.24h-.24v.48h-.24v.24h-.24v.48h-.24v.24h-.24v.24h-.24v.24h-.24v.24h-.24v.48h-.24v.24H438v.24h-.24v.24h-.24v.24h-.24v.24h-.24v.48h-.24v.24h-.24v.24h-.24v.24h-.24v.24h-.24v.24h-.24v.24h-.24v.24h-.24v.24h-.24v.24h-.24v.24h-.24v.24h-.24v.24h-.24v.24h-.24v.24h-.24v.24h-.24v.24h-.24v.24h-.24v.24h-.48v.24H432v.24h-.24v.48h-.24v.24h-.48v.24h-.24v.24h-.24v.24h-.24v.24h-.24v.24h-.24v.24h-.48v.24h-.24v.24h-.24v.24h-.48v.24h-.24v.24h-.24v-.24h-.24v-.24h-.24v-.24h-.24v-.24h-.24v-.24h-.48v-.24h-.24v-.24H426v-.24h-.48v-.24h-.48v-.24h-.48v-.24h-1.2v-.24h-.96v-.24h-1.68v1.68h.24v.24h.24v.24h.24v.24h.24v.48h.24v.24h.24v.24h.24v.48h.48v.24h.24v.24h.24v.24h.24v.24h.24v.24h.24v.24h.24v.24h-.24v.24h-.48v.24h-.24v.24h-.48v.24h-.24v.24h-.48v.24h-.48v.24h-.48v.24h-.24v-.24h-.48v-.24h-.24v-.24h-.48v-.24h-.48v-.24h-.48v-.24h-.48v-.24h-.72v-.24h-.72v-.24h-.96v-.24h-1.68v.24H414v1.2h.24v.48h.24v.48h.24v.72h.24v.48h.24v.48h-.24v-.24h-.48v-.24H414v-.24h-.72v-.24h-.96v-.24h-.48v-.24h-.72v-.24h-.48v-.24h-1.68v.48h.24v.72h.24v.48h.24v.48h.24v.48h.24v.48h.24v.48h.24v.72h.24v.48h.24v.72h.24v.24h.24v.48h-.48v.24h-.48v.24h-.48v.24h-.48v.24h-.72v.24h-.72v.24h-.96v.24h-.96v.24h-.72v.24h-.72v.24h-.72v.24h-.72v.24h-.72v.24H402v.24h-.48v.24h-.96v.24h-.72v.24h-.72v.24h-1.2v.24h-.72v.24h-.96v.24h-.72v.24h-.72v.24h-.96v.24h-.96v.24h-1.2v.24h-.72v.24h-1.2v.24h-.96v.24h-.72v.24h-.96v.24h-.96v.24h-1.2v.24h-1.2v.24h-1.68v.24h-1.44v.24h-1.2v.24h-1.2v.24h-1.44v.24h-1.44v.24h-1.2v.24h-1.2v.24H372v.24h-.72v.24h-.72v.24h-.72v.24h-.48v.24h-.72v.24h-.48v.24h-.48v.24h-.72v.24h-.48v.24H366v.24h-.48v.24h-.48v.24h-.48v.24h-.48v.24h-.48v.24h-.48v.24h-.48v.24h-.48v.24h-.48v.24h-.48v.24h-.48v.24h-.48v.24h-.48v.24h-.48v.24h-.48v.24h-.48v.24h-.72v.24h-.72v.24h-.72v.24h-.48v.24h-.72v.24h-.72v.24h-.72v.24h-.48v.24h-.72v.24h-.48v.24h-.72v.24h-.72v.24h-.72v.24h-.72v.24h-.48v.24h-.96v.24h-.48v.24h-.96v.24h-.72v.24h-.72v.24h-.48v.24h-.96v.24h-.72v.24h-.72v.24h-.96v.24h-.96v.24h-1.2v.24h-1.44v.24h-1.44v.24h-.96v.24h-1.2v.24h-.96v.24h-1.2v.24h-1.2v.24h-1.44v.24h-1.44v.24h-1.44v.24h-1.2v-1.68h-.24v-.96h-.24v-.48H324v-.24h-.24v-.48h-.24V600h-.24v-.24h-.24v-.24h-.48v-.24h-.24v.24h-.48v.24h-.24v.48h-.24v.96h-.24v.96h-.24v.72h-.24v1.68h-.24v1.2h-1.2v.24H318v-.48h-.24v-1.44h-.24v-.96h-.24v-.72h-.24v-.24h-.24v-.24h-.24v-.24h-1.68v.24h-.24v.24h-.24v.72h-.24v4.56h-.72v.24h-.72v.24H312v.24h-.48v-.72h-.24v-.96h-.24V606h-.24v-.72h-.24v-.24h-.24v-.24h-.48v.48h-.24v.48h-.24v.48h-.24v.48h-.24v.48h-.24v.24h-.24v.96h-.24v.72h-.24v.24h-.24v.24h-.72v.24h-.48v.24h-.72v.24h-.24v-.48h-.24v-.72h-.24v-.72h-.24v-.72h-.24v-.24h-.24v-.48h-.24v-.24h-.24v-.24h-.24v-.24h-.72v.72h-.24v.96h-.24v1.2h-.24v1.2h-.24v1.44h-.48v.24h-.72v.24h-.48v.24H300v-.24h-.24v-.48h-.24v-.72h-.24v-.96h-.24v-.96h-.24v-.72h-.24v-.96h-.24v-.72h-.24V606h-.24v-.48h-.24v-.48h-.24v-.48h-.24v-.24h-.48v.24h-.24v1.2h-.24v4.56h.24v2.16h.24v.72h.24v.24h-.48v.24h-.96v.24h-.72v-1.2h-.24v-1.2h-.24v-.96H294v-.72h-.24v-.48h-.24v-.72h-.24v-.48h-.24v-.48h-.24v-.48h-.24v-.48h-.24v-.24h-.24V606h-.24v-.24h-.24v-.24h-.24v-.24h-.24v-.48h-.48v-.24h-.24v-.24h-.96v.24h-.24v.24h-.24v.48h-.24v.72h-.24v.72h-.24v2.64H288v-.48h-.24v-.72h-.24v-.48h-.24v-.48h-.24v-.24h-.24v-.48h-.24V606h-.24v-.24h-.24v-.24h-.24v-.24h-.48v-.24h-.72v-.24h-.72v.24h-.48v.24h-.24v.24h-.24v.48h-.24v.48h-.24v.96h-.24v1.44H282v2.16h-.24v4.32h-5.52v-1.92H276v-2.4h-.24v-1.2h-.24v-.72h-.24v-.48h-.24v-.24h-.24v-.24h-.72v.72h-.24v.48h-.24v.96h-.24v1.44h-.24v1.2h-.24v1.92h-1.2v-.24h-1.2v-.24h.24V612h.24v-1.92h.24v-4.32h-.24v-.24h-.72v.24H270v.24h-.24v.24h-.24v.48h-.24v.24h-.24v.24h-.24v.48h-.24v.24h-.24v.48h-.24v.24h-.24v.48h-.24v.48h-.24v.24h-.24v.48h-.24v.48h-.24v.48h-.24v.48h-.24v.48h-.24v.72h-.24v.72h-.96v-.24h-.48v-.24h-.72v-.24h-.72v-.24h-.24v-.24h-.24v-.24h-.48v-2.64h.24v-.72h-.24v-3.84h-.24v-.96h-.24v-.24h-1.2v.24h-.24v.24h-.24v.24h-.24v.24h-.24v.24h-.24v.24h-.24v.24h-.24v.24h-.24v.48H258v.24h-.24v.48h-.24v.24h-.24v.48h-.24v.24h-.24v.48h-.48v-.24h-.24v-.24h.24v-.48h.24v-.48h.24v-.48h.24v-.72h.24v-.48h.24v-.72h.24v-.24h.24v-.96h.24v-.24h.24v-.72h.24v-.48h.24v-.72h.24v-.48h.24v-.48h.24V600h.24v-.24h.24v-.48h.24v-.48h.24v-.24h.24v-.48h.24v-.24h.24v-.48h.24v-.24h.24v-.48h.24v-.24h.24v-.48h.24v-.48h.24v-.24h.24v-.48h.24v-.48h.24v-.48h.24v-.24h.24v-.48h.24v-.48h.24v-.24h.24v-.24h.24v-.24h.24v-.24h.24v-.24h.24v-.24h.24v-.24h.48v-.24h.24v-.24h.48v-.24h.72v-.24h.96v-.24h.48v-.24h.96v-.24h3.12v-.24h5.04v-.24h4.56v-.24h1.2v-.24h1.2V588h.72v-.24h.48v-.24h.72v-.24h.48v-.24h.72v-.24h.48v-.24h.72v-.24h.48v-.24h.48v-.24h.72v-.24h.72v-.24h.48v-.24h.72v-.24h.48v-.24h.24v-.24h.24v-.24h.24v-.24h.48v-.48h.24v-.24h-.24v-.24H294v-.24h-3.6v-.24h-3.12v-.24h-2.64v.24h-1.92v.24h-1.2v.24h-.96v.24h-.96v.24h-.72v.24h-.72v.24h-.72v.24h-.72v.24h-.48v.24h-.48v.24h-.48v.24h-.48v.24h-.48v.24h-.48v.24h-.24v.24h-.48v.24h-.48v.24h-.48v.24h-.24v.24h-.72v.24h-.48v.24h-.48v.24h-.48v.24h-.48v.24h-.48v.24h-.48v.24h-.48v.24h-.48v-.24h-.24v-.96h.24v-.24h.24v-.24h.24v-.48h.24v-.24h.24v-.48h.24v-.48h.24v-.24h.24v-.24h.24v-.24h.24v-.48h.24v-.24h.24v-.24h.24v-.24h.24v-.24h.24v-.48h.24v-.24h.24v-.48h.24V582h.24v-.24h.24v-.48h.24v-.48h.24v-.48h.24v-.24h.24v-.24h.24v-.24h.24v-.24h.24v.24h.72v-.24h.24v-.24h.48v-.48h.24v.24h.48v.24h.96v.24h1.44v.24h.96v.24h1.68v-.24h4.8v-.24h.72v-.24h.48v-.24h.48v-.24h.24v-.24h.48v-.24h.24v-.24h.24v-.24h.24v-.24h.24v-.24h.24v-.24h.48v-.24h.24v-.24h.24v-.24h.24V576h.24v-.24h.24v-.24h.24v-.24h.48v-.48h.24v-.24h.24v-.24h.24v-.24h.24v-.48h.24v-.24h.24v-.24h.24v-.24h.24v-.24h.24v-.24h.24v-.24h.24v-.24h.24v-.24h.48v-.24h.24v-.24h.24v-.24h.48v-.24h.72v-.24h.24v-.24h.48V570h.48v-.24h.24v-.24h.48v-.48h.24v-.72h-.24v-.24h-.24v-.48h-2.16v.24h-1.2v.24H294v.24h-1.44v.24h-1.2v.24h-.96v.24h-.96v.24h-.72v.24H288v.24h-.72v.24h-.48v.24h-.48v.24h-.48v.24h-.48v.24h-.48v.24h-.48v.24h-.48v.24h-.48v.24h-.48v.24h-.48v.24h-.24v.24h-.48v.24h-.48v.24h-.24v.24h-.24v.24h-.48v.24h-.24v.24h-.48v.24h-.24v.24h-.24v.24h-.24v.24h-.24v.24h-.24v.24h-.48v.24h-.24v.24h-.24v.24h-.24v.24h-.24v.24h-.24v.24h-.24v.24h-.24v.24H276v.24h-.24v.24h-.24v.24h-.48v-.24h-.24v-.48h.24v-.24h.24v-.48h.24v-.24h.24v-.24h.24V576h.24v-.48h.24v-.48h.24v-.24h.24v-.48h.24v-.48h.24v-.48h.24v-.24h.24v-.48h.24v-.48h.24v-.48h.24v-.24h.24v-.48h.24v-.24h.24v-.24h.24V570h.24v-.48h.24v-.24h.24v-.48h.24v-.48h.24v-.48h.24v-.48h.24v-.24h.24v-.48h.24v-.24h.24v-.24h.24v-.48h.24v-.48h.24v-.48h.24v-.48h.24v-.48h.24v-.48h.24v-.48h.24v-.48h.24v-.48h.24v-.72h.24v-.24h.24v-.48h.24v-.72h.24v-1.92h.24v-1.44h.24v-6.96h.24v-1.44h.24v-1.2h.24v-.96h.24v-2.4h.24v-1.68h.24v-1.2h.24v-.96h.24v-3.36h-.24v.24h-.48v.48h-.24v.24h-.24v.24h-.24v.24h-.24v.24h-.24v.24h-.24v.48h-.24v.24h-.24v.24h-.24v.24h-.24v.24h-.24v.48h-.24v.24h-.24v.24h-.24v.24h-.24v.48h-.24v.24h-.24v.24h-.24v.48h-.24v.24h-.24v.24H282v.24h-.24v.48h-.24v.24h-.24v.48h-.24v.24h-.24v.24h-.24v.48h-.24v.48h-.24v.48h-.24v.24h-.24v.48h-.24v.48h-.24v.48h-.24v.72h-.24v.48h-.24v.48h-.24v.24h-.24v.72h-.24v.72h-.24v.48h-.24v.72h-.24v.48h-.24v.72h-.24v.72h-.24v.96H276v3.6h.24v4.08h.24v.96h.24v2.64h-.24v.48h-.24v.24H276v.48h-.24v.24h-.48v.48h-.24v.24h-.24v.48h-.24v.24h-.24v.72h-.24v.48h-.24v.48h-.24v.48h-.24v.72h-.24v.48h-.24v.48h-.24v.48h-.24v.48h-.24v.48h-.24v.48h-.24v.48h-.24v.24h-.24v.24h-.24v.72h-.24v.24h-.24v.48h-.24v.24H270v.24h-.24v.48h-.24v.24h-.24v.24h-.24v.24h-.24v.24h-.24v.24h-.24v.24h-.24v.24h-.72v-3.84h.24v-2.16h.24v-.96h.24v-1.2h.24v-1.2h.24v-2.64h.24v-3.12h-.24v-1.68h-.24v-1.44h-.24v-.24h-.24v-.72h-.24v-.72h-.24v-.72h-.24v-.24h-.24v-.48h-.24v-.48h-.24V558h-.24v-.24h-.24v-.24h-.24v-.24h-.24v-.24h-.24v-.24h-.72v.72h-.24v.24H264v.72h-.24v.48h-.24v.48h-.24v1.2h-.24v.48h-.24v.24h-1.92v.24h-.72v.24h-.48v.24h-.48v.24h-.24v.24h-.48v.24h-.24v.24h-.48v.24h-.24v.24h-.24v.24h-.24v.24h-.24v.24h-.24v.24h-.24v.48h-.24v.24h-.24v.24h-.24v.24h-.24v.24h-.24v.24h-.24v.24h-.24v.24h-.24v.24h-.24v.24h-.24v.24h-.24v.24h-.24v.24h-.24v.24h-.24v.24h-.24v.24h-.24v.24h-.24v.24H252v.24h-.24v.24h-.24v.24h-.24v.24h-.24v.48h-.24v.24h-.24v.48h-.24v.24h-.24v.24h-.24v.24h-.24v.24h-.24v.24h-.24v.24h-.24v.24h-.24v.24h-.24v.24h-.24v.24h-.72v.24h-.24v-.24h-.48v-.24h-.24v-.24h-.24v-.72H246v-4.08h.24v-.96h.24v-.72h.24v-.72h.24v-.48h.24v-.24h.24v-.24h.24v-.24h.24v-.24h.24v-.24h.48V564h.24v-.24h.48v-.24h.24v-.24h.24v-.24h.24v-.24h.48v-.24h.24v-.24h.48v-.24h.24v-.24h.24v-.24h.24v-.24h.24v-.24h.24v-.24h.24v-.24h.24v-.24h.48v-.24h.24v-.24h.24v-.24h.24v-.24h.24v-.24h.24v-.24h.24v-.24h.24v-.24h.24v-.24h.24V558h.24v-.24h.24v-.24h.48v-.24h.24v-.24h.24v-.24h.24v-.24h.48v-.24h.24v-.24h.24v-.24h.24v-.24h.24v-.24h.24v-.24h.24v-.24h.24v-.24h.24v-.24h.24v-.24h.24v-.24h.24v-.24h.24v-.24h.24v-.24h.24v-.24h.24v-.48h.48V552h.24v-.24h.24v-.48h.24v-.24h.24v-.48h.24v-.48h.24v-.24h.24v-2.4h-.48v-.24h-.72v-.24h-1.92v.24h-.72v.24h-.48v.24h-.48v.24h-.24v.24H258v.24h-.24v.24h-.24v.24h-.24v.24h-.24v.24h-.48v.24h-.24v.24h-.24v.24h-.24v.24h-.48v.24h-.24v.24h-.48v.24h-.24v.24h-.24v.24h-.24v.24h-.24v.24h-.48v.24h-.24v.24h-.24v.48h-.48v.24H252v.48h-.24v.24h-.24v.24h-.24v.24h-.24v.48h-.24v.24h-.24v.24h-.24v.48h-.24v.24h-.24v.24h-.24v.24h-.24v.24h-.24v.48h-.48v.24h-.24v-1.2h.24v-2.88h.24v-2.4h.24v-.72h.24v-.72h.24v-.48h.24v-.48h.24v-.72h.24v-.48h.24v-.72h.24v-.96h.24v-.72h.24v-1.44h.24v-2.4h.24v-.96h.24v-1.68h.24v-.96h.24v-1.2h.24v-1.44h.24v-.72h-.24v-1.44h-.24v-2.64h-.24v-.96H252V528h-.24v-.96h-.24v-.48h-.24v-1.2h-.24v-.48h-.24v-.72h-.24v-.72h-.24v-.72h-.24V522h-.24v-.48h-.24v-.72h-.24v-.72h-.24v-.72h-.24v-1.2h-.24v-1.92h-.24v-1.44h-.24v-.48h-.24v-.48h-.48v.48h-.24v.24h-.24v.48h-.24v.72h-.24v.24h-.24v.48H246v.72h-.24v.48h-.24v.48h-.24v.48h-.24v.72h-.24v.96h-.24v.72h-.24v.48h-.24v.72h-.24v1.44h-.24v.72h-.24v1.68h-.24v2.4h-.24v10.32h.24v1.92h.24v.96h.24v.72h.24v.72h.24v.96h.24v.72h.24v1.2h.24v.72h.24v.48h.24v.72h.24v.72h.24v1.2h.24v2.4h.24v1.68H246V558h-.24v1.2h-.24v1.2h-.24v.48h-.24v.48h-.24v.24h-.72v-.72h.24v-1.2h.24v-5.76h-.24v-2.16h-.24v-1.92h-.24v-.96h-.24v-.96h-.24v-.48h-.24v-.48h-.24v-.48h-.24v-.24h-.24V546h-.24v-.48h-.24v-.24h-.24v-.24h-.24v-.24h-.24v-.24h-.24v-.24h-.24v-.24h-.24v-.24h-.24v-.24h-.48v-.48h-.48v-.24h-.24v-.24h-.24v-.24h-.24v-.24h-.24v-.24h-.24v-.24h-.48v-.24h-.24v-.24h-.48v-.24h-.24v-.24h-.24v-.24h-.48v-.24h-.24V540h-.48v-.24h-.24v-.24h-.24v-.24h-.24v-.24h-.24v-.24H234v-.24h-.24v-.24h-.24v-.24h-.48v-.24h-.96v.24h-.24v.24h-.24v1.44h.24v1.2h.24v.96h.24v.96h.24v.72h.24v.72h.24v.72h.24v.48h.24v.96h.24v.24h.24v.48h.24v.72h.24v.48h.24v.48h.24v.72h.24v.48h.24v.24h.24v.48h.24v.48h.24v.48h.24v.48h.24v.24h.24v.48h.24v.72h.24v.24h.24v.48h.24v.48h.24v.48h.24v.48h.24v.48h.24v.24h.24v.48h.24v.48h.24v.72h.24v.96h.24v.72h.24v1.2h.24v1.68h.24v1.44h.24v.96h.24v1.68h.24v3.84h.24v1.44h-.24v-.96h-.24v-.72h-.24v-2.16h-.24v-2.88h-.24V564h-.24v-.48H240v-.96h-.24v-.24h-.24v-.48h-.24v-.72h-.24v-.48h-.24v-.24h-.24v-.48h-.24v-.24h-.24v-.48h-.24v-.24h-.24v-.24h-.24v-.24h-.24V558h-.48v-.24h-.24v-.48h-.48v-.24h-.24v-.24h-.48v-.24h-.24v-.24h-.72v-.24h-.96v-.24h-.96v-.24h-.72v-.24h-.72v-.24h-.48v-.24h-.24v-.24h-.72v-.24h-.96v-.24H228v-.24h-.96v-.24h-.72v-.24h-1.2v.24h-.48v.24h-.24v2.4h.24v.48h.24v.48h.24v.48h.24v.48h.24v.24h.24v.48h.24v.48h.24v.24h.24v.48h.24v.24h.24v.48h.24v.24h.24v.24h.24v.24h.24v.24h.24v.24h.24v.24h.24v.24h.24v.24h.24v.24h.24v.48h.24v.24h.48v.24h.24v.24h.24v.24h.24v.24h.24v.24h.24v.24h.24v.24h.24v.24h.24v.24h.24v.24h.24v.24h.48v.48h.48v.48h.24v.24h.24v.24h.24v.24h.24v.24h.24v.48h.24v.24h.24v.24h.24v.48h.24v.24h.24v.48h.24v.48h.24v.24h.24v.24h.24v.72h.24v.24h.24v.48h.24v.48h.24v.24h.24v.24h.24v.48h.24v.24h.24v.48h.24v.48h.24v.48h.24v.96h.24v1.68h.24v.24h.24v.48h.24v1.68h-.24v1.92H240v1.2h-.24v3.12h-.24v2.16h-.24v1.68h-.24v.72h-.24v.96h-.24v1.2h-.24v1.2h-.24v1.2h-.24v1.68h-.24v.48h-.72v-.24h-.48v-.24h-.24v-.24h-.24v-.24h.24v-.48h.24v-.48h.24v-.72h.24v-.72h.24v-.72h.24V594h.24v-.72h.24v-.72h.24v-.96h.24v-2.64h-.24v-.24h-.48v.24h-.48v.24h-.48v.24h-.24v.24h-.24v.24h-.24v.24h-.24v.48h-.24v.24h-.24v.24h-.24v.48h-.24v.24h-.24v.48h-.24v.48H234v.24h-.24v.48h-.24v.24h-.24v.48h-.24v.48h-.24v.24h-.24v.48h-.24v.48h-.24v.24h-.24v-.24h-.48v-.24h-.48v-.24h-.48v-.24h-.48v-.24h-.24v-.24h.24v-.48h.24V594h.24v-.48h.24v-.24h.24v-.48h.24v-.48h.24v-.24h.24v-.72h.24v-.48h.24v-.48h.24v-.48h.24v-.48h.24v-.72h.24V588h.24v-.48h.24v-.72h.24v-.48h.24v-.72h.24v-.72h.24v-.72h.24v-1.92h-.24V582h-.24v-.24h-.72v.24h-.48v.24h-.24v.24h-.24v.24h-.24v.24h-.24v.48h-.48v.24h-.24v.24h-.24v.24h-.24v.24h-.24v.24h-.24v.48h-.24v.24h-.24v.24h-.24v.24h-.24v.48h-.24v.24h-.24v.24h-.24v.48h-.24v.24h-.24v.24H228v.48h-.24v.24h-.24v.48h-.24v.48h-.24v.24h-.24v.24h-.24v.24h-.24v.48h-.24v.24h-.24v.48h-.24v.48h-.24v.48h-.24v-.24h-.48v-.24h-.72v-.24h-.24v-.48h.24v-.24h.24v-.48h.24v-.72h.24v-.48h.24v-.72h.24V588h.24v-1.44h.24v-1.2h.24v-.72h.24v-.72h.24v-1.68h-.24v.24h-.24v.24h-.24v.24h-.24v.24h-.24v.48h-.24v.24h-.24v.24h-.24v.48h-.24v.24h-.24v.48h-.24v.24h-.24v.24h-.24v.24h-.24v.48h-.24v.24h-.24v.24h-.24v.24H222v.48h-.24v.24h-.24v.24h-.24v.24h-.24v.24h-.24v.24h-.24v.48h-.24v.24h-.24v.24h-.48v-.24h-.72v-.24h-.48v-.24h-.48v-.24h-.48v-.24h-.48v-.48h.24v-.48h.24v-.48h.24v-.24h.24v-.48h.24v-.72h.24v-.72h.24v-.48h.24v-.48h.24v-.72h.24v-.48h.24v-.72h.24v-.96h.24v-1.44h.24v-.96h.24v-.48h.24v-1.2h-.72v.24h-.48v.24h-.24v.24h-.48v.24h-.24v.24h-.24v.24h-.24v.24h-.48v.24h-.24v.48h-.24v.24h-.24v.24h-.24v.48h-.24v.48h-.24v-4.32H216v-1.92h-.48v.24h-.24v.24h-.24v.24h-.24v.24h-.24v.48h-.24v.24h-.24v.24h-.24v.48h-.24v.24h-.24v.48h-.24v.48h-.24v.48h-.24v.24h-.24v.48h-.24v.48h-.24v.24h-.24v.48h-.24v.48h-.24v.48h-.24v.48h-.24v.72h-.24v.48h-.24v.72H210v.48h-.24v.24h-.24v-.24h-.48v-.24h-.24v-.72h.24v-1.44h.24v-1.68h.24v-4.08h-.24v-.96h-.24v-.96h-.24v-.24h-.24v-.24h-.24v-.24h-.24v-.24h-.72v.24h-.48v.24h-.24v.24h-.24v.24h-.24v.48h-.24v.24h-.24v.48h-.24v.24h-.24v.48h-.24v.48h-.24v.48h-.24v.72h-.24v.24H204v.48h-.24v-1.2h.24v-1.92h.24v-7.92H204v-.72h-.24v-.24h-.96v.24h-.24v.48h-.24v.48h-.24v.72h-.24v.48h-.24v.48h-.24v.72h-.24v.96h-.24v.48h-.24v.72h-.24v.72h-.24v.72h-.24v.72h-.24v.72h-.24v.72h-.24v.72h-.24v.96h-.24v.72h-.24v.72H198v-.24h-.24v-1.2h.24v-2.4h.24v-4.8H198v-.48h-.24v-.48h-.24v-.24h-.96v.24h-.24v.24h-.24v.48h-.24v.72h-.24v.48h-.24v.72h-.24v.48h-.24v.96h-.24v.72h-.24v.96h-.24v.72h-.24v.96h-.24v.48h-.24v-.24h-.72v-1.92h-.24v-1.2h-.24v-.48H192v-.24h-.72v-.24h-.72v-.24h-.24v-.24h-.48v-.24h-.24v-.24h-.96v.24h-.24v.24h-.24v.48h-.24v.24h-.24v.48h-.24v.48h-.24v.24h-.24v-.24h-.24v-.24h-.24v-.24H186v-.24h-.24v-.24h-.24v-.24h-.48v-.24h-.24v-.24h-.48v-.24h-.24v-.24h-.48v-.24h-.24v-.24h-.48v-.24h-.24v-.24h-.48v-.24h-.48v-.24h-.48v-.24h-.48v-.24h-.48v-.24h-.48V570h-.24v-.24h-.48v-.24h-.48v-.24h-.24v-.24h-.48v-.24h-.24v-.24h-.48v-.24h-.24v-.24h-.24v-.24h-.24v-.24h-.48v-.24h-.24v-.24h-.24v-.24h-.24v-.24h-.24v-.24h-.24v-.48h-.24v-.24h-.24v-.24h.24v-.24h.24v-.48h.24v-.24h.24V564h.24v-.24h.24v-.48h.24v-.24h.24v-.24h.24v-.48h.24v-.24h.24v-.48h.24v-.24h.24v-.24h.24v-.48h.24v-.48h.24v-.24h.24v-.48h.24v-.24h-.48v.48h-.24v.24h-.24v.24h-.24v.24h-.24v.24h-.24v.24h-.24v.24h-.24v.24h-.24v.48h-.24v.24h-.24v.24h-.24v.24h-.48v.24h-.24v.24h-.24v.24h-.24v.24h-.48v.24h-.24v.24h-.24v.24h-.72V564h-.24v-.24h-.24v-.24h-.24v-.24h-.48v-.24h-.24v-.24h-.24v-.24h-.48v-.24h.24v-.48h.24v-.24h.24v-.24h.24v-.48h.24v-.24h.24v-.24h.24v-.48h.24v-.48h.24v-.48h.24v-.48h.24v-.96h.24v-1.68h-.24v-.72h-.24v-.24h-.48v-.24h-1.2v.24h-.48v.24h-.24v.24h-.24v.24h-.24v.24h-.24v.24h-.24v.48h-.24v.24h-.24v.48h-.24v.24h-.24v.48h-.24v.48H168v.24h-.24v.48h-.24v.24h-.24v.24h-.24v-.24h-.24v-.24h-.24v-.24h-.24v-.24h-.24v-.24h-.24v-.24h-.24V558h-.24v-.48h-.24v-.24h-.24v-.24h-.24v-.24h-.24v-.48h-.24v-.24h-.24v-.24h-.24v-.96h.24v-.48h.24v-.24h.24v-.24h.24v-.48h.24v-.24h.24v-.48h.24v-.24h.24V552h.24v-.24h.24v-.48h.24v-.48h.24v-.48h.24v-.72h-.24v-.24h-.48v-.24h-1.92v.24h-.72v.24h-.72v.24H162v.24h-.72v-.72h-.24v-.72h-.24v-.48h-.24v-.72h-.24v-.72h-.24V546h.24v-.24h.24v-.24h.24v-.24h.24v-.24h.24v-.24h.24v-.24h.24v-.24h.24v-.24h.24v-.48h.24v-.24h.24v-.24h.24v-.24h.24v-.48h.24v-.24h.24v-.24h.24v-.48h.24v-.24h.24v-.48h.24v-.48h.24v-.72h-.48v-.24h-.72v.24h-.96v.24h-.48v.24h-.72v.24h-.72v.24h-.48v.24h-.72v.24h-.48v.24h-.72v-.72h-.24v-1.2h-.24v-1.2h.24v-.24h.24v-.24h.24v-.24h.24v-.24h.24v-.24h.24v-.24h.24v-.48h.24v-.24h.24v-.48h.24v-.24h.24v-.48h.24v-2.16h-.24v-.24h-.48v-.24h-2.64v.24h-.96v.24h-.72v-.48h-.24v-.72h-.24v-.72h-.24v-.24h.24v-.24h.24v-.24h.24v-.48h.24v-.24h.24v-.48h.24v-.48h.24v-.48h.24v-.24h.24v-.72h.24v-.48h.24v-.72h-.24v-.48h-.24v-.48h-.48v-.24h-.24v-.24h-.72v-.24h-.72v-.24h-1.2v-.24h-1.44v.24h-1.2v.24h-.48v.24h-.24v-.24h-.24v-.48H150v-.24h-.24v-.48h-.24v-.24h-.24v-.24h-.24v-.48h-.24v-.24h-.24v-.48h-.24v-.48h-.24v-.24h-.24v-.24h-.24v-.48h-.24v-.24h-.24v-.24h-.24v-.24h-.24v-.24h-.24v-.24h-.24v-.24h-.24v-.24h-.24v-.24h-.24v-.24h-.24v-.48h-.24v-.24h-.24v-.24h-.24v-.24h-.24V516H144v-.48h-.24v-.24h-.24v-.48h-.24v-.24h-.24v-.48h-.24v-.24h-.24v-.24h-.24v-.48h-.24v-.24h-.24v-.48h-.24v-.24h-.24v-.24h-.24v-.48h-.24v-.24h-.24v-.24h-.24v-.24h-.24v-.24h-.24v-.24h-.24V510h-.24v-.24h-.24v-.24h-.24v-.24h-.24v-.24h-.24v-.24h-.24v-.24H138v-.24h-.24v-.48h-.24v-.24h-.24v-.24h-.24v-.24h-.24v-.24h-.24v-.48h-.24v-.48h-.24v-.24h-.24v-.24h-.24v-.48h-.24v-.24h-.24V504h-.24v-.48h-.24v-.24h-.24v-.48h-.24v-.72h-.24v-.72h-.24v-.24h-.24v-.48h-.24v-.48h-.24v-.48h-.24v-.48h-.24v-.48h-.24v-.48H132v-.48h-.24v-.48h-.24v-.24h-.24v-.72h-.24v-.24h-.24v-.48h-.24v-.24h-.24v-.48h-.24v-.24h-.24v-.48h-.24v-.48h-.24v-.24h-.24v-.48h-.24v-.48h-.24V492h-.24v-.48h-.24v-.48h-.24v-.72h-.24v-.48h-.24v-.48h-.24v-.48h-.24v-.48h-.24v-.48h-.24v-.48h-.24v-.24H126v-.48h-.24v-.48h-.24V486h-.24v-.48h-.24v-.48h-.24v-.48h-.24v-.48h-.24v-.24h-.24v-.48h-.24v-.48h-.24v-.48h-.24v-.24h-.24v-.24h-.24v-.48h-.24v-.24h-.24v-.24h-.24v-.24h-.24v-.48h-.24V480h-.24v-.24h-.24v-.24h-.24v-.48h-.24v-.48h-.24v-.24h-.24v-.48H120v-.48h-.24v-.48h-.24v-.48h-.24v-.48h-.24v-.48h-.24v-.48h-.24v-.48h-.24v-.96h-.24v-.48h-.24v-.72h-.24v-.48h-.24v-.72h-.24v-.48h-.24v-.48h-.24v-.48h-.24v-.72h-.24V468h-.24v-.72h-.24v-.96h-.24v-.72h-.24v-1.2h-.24v-.48h-.24v-.48h-.24v-.72h-.24v-.48H114V462h-.24v-.72h-.24v-.48h-.24v-.48h-.24v-.48h-.24v-.96h-.24v-1.44h-.24v-1.2h-.24v-1.2h-.24v-1.2h-.24v-.96h-.24v-.72h-.24v-1.2h-.24V450h-.24v-.96h-.24v-1.2h-.24v-1.2h-.24v-2.16h-.24v-3.36h-.24v-1.92h-.24v-3.12h-.24v-1.2h-.24v-1.44h-.24v-.72h-.24v-1.2H108v-1.2h-.24v-.72h-.24v-1.2h-.24v-1.92h-.24v-1.44h-.24v-1.2h-.24v-1.68h-.24v-1.68h-.24v-1.68h-.24v-1.2h-.24v-1.92h-.24v-1.44h-.24v-.96h-.24v-1.44h-.24v-1.68h-.24v-6.72h.24v-2.88h.24v-3.6h.24v-1.68h.24v-1.92h.24v-1.92h.24v-.72h.24v-.96h.24v-1.68h.24v-1.68h.24v-.24h6.72v-.24h.72v-.24h.24v-1.2h-.24v-.24H114V384h-.24v-.24h-.24v-.24h-.24v-.24h-.48v-.24h-.24v-.24h-.24v-.24h-.48v-.24h-.24v-.24h-.24v-.24h-.24v-.24h-.48v-.24h-.48v-.24h-.48v-.24h-.48v-.24h-.48v-.24H108v-.24h1.2v.24h2.64v.24h.72v-.24h3.36v-.24h3.84v-.48h-.24v-.48h-.48v-.48h-.24v-.24h-.48v-.24h-.24V378h-.24v-.24h-.24v-.24h-.24v-.24h-.48v-.24h-.24v-.24h-.48v-.24h-.24v-.24h-.24v-.24h-.48v-.24h-.24v-.24h-.48v-.24H114v-.24h-.48v-.24h-.48v-.24h-.24v-.24h-.48v-.24h-.48v-.24h-.48v-.24h-.48v-.24h-.48v-.24h-.48v-.24h-.24V372h.48v-.24h1.68v-.24h.96v-.24h.96v-.24h.72v-.24h.96v-.24h.72v-.24h.72v-.24h.72v-.24h.72v-.24h.72v-.24h.48v-.24h.72v-.24h.48v-.24h.48v-.24h.48v-.24h.48v-.24h.48v-.24h.24v.48h.24v.48h.24v.24h.24v.72h.24v.72h.24v.72h.24v.48h.24v.48h.24v.72h.24v.72h.24v.48h.24v1.2h.24v.48h.24v.48h.24v.48h.24v.24h.24v.72h.24v.48h.24v.48h.24v.48h.24v.24h.24v.48h.48v.48h.24v.24h.24v.24h.48v.24h.48v.24h.48v.24h.96v-.24h.48v-.24h.24v-.24h.24v-.24h.24v-.24h.24v-.48h.24v-.48h.24v-.48h.24v-.48h.24v-.72h.24v-.72h.24v-.96h.24v-.48h.24v-1.2h.24v-.72h.24v-1.2h.24v-.72h.24v-.72h.24v-.24h.48v.24h.24v.24h.24v.24h.24v.24h.24v.24h.24v.24h.24v.24h.24v.24h.24v.24h.24v.24h.48v.24h.48v.24h.24v.24h1.44v-.48h.24v-.24h.24v-.24h.24V372h.24v-2.64h-.24v-1.44h-.24v-.72h-.24v-.96h-.24v-1.44h.24v-.48h.24v-.24h1.68v.24h2.16v.24h.48v.24h.48v.24h.72v-.24h.48v-1.92h-.24v-.72h-.24v-.72h-.24v-.48h-.24v-.72h-.24v-.48h-.24v-.72h-.24v-.48h-.24v-.72h-.24v-.48h-.24v-.48h-.24v-.48h-.24v-.72h-.24v-.72h-.24v-.48h.24v-.24h.48V354h.24v-.24h.24v-.24h.24v-.24h.24v-.24h.24v-.24h.24v-.24h.24v-.24h.24v-.24h.24v-.24h.24v-.24h.24v-.48h.24v-.24h.24v-.72h.24v-1.2h.24v-1.44h.24v-3.6h-.24v-.48h-.24v-.72h-.24v-.24h-.24v-.24h-.24v-.48h-.24v-.48h.24v-.96h.24v-.48h.24v-.72h.24v-1.2h.24v-1.68h.24v-1.2h-.24v-.96h.24v-.24h.24v-.24h.24v-.24h.24v-.24h.24v-.24h.24v-.72h.24v-1.92H150v-.48h-.24v-.24h-.24v-.24h-.48v-.24h-.96v-.24h-.48v-.24h-.48v-.24h-.24v-.24h-.24v-2.64h.24v-.72h.24v-1.44h.24v-1.44h.24v-1.2h-.24v-1.2h-.24v-.72h-.24v-.24h-.24V318h-.24v-.24h-1.2v.24h-.48v.24h-.24v.24H144v.24h-.24v.24h-.48v.24h-.24v.24h-.48v.48h-.48v.24h-.48v.24h-.24v.24h-.48v.24h-.24v.24h-.72v-.48h-.24v-.48h.24V318h.24v-1.2h.24v-11.28h-.24v-1.2h-.24v-.96h-.24v-.48h-.24v-.48h-.24v-.24H138v.24h-.24v.24h-.24v.48h-.24v.24h-.24v.48h-.24v.48h-.24v.24h-.24v.72h-.24v.48h-.24v.48h-.24v.48h-.24v.24h-.24v.24h-.24v.48h-.24v.48h-.24v.24h-.24v.24h-.24v.24h-.48v.24h-.24v.24h-.48v-.24h-.48v-.24H132v-.24h-.24v-.48h-.24v-.72h-.24v-2.88h.24v-3.36h-.24V300h-.24v-.72h-.24v-.48h-.24v-.72h-.24v-.48h-.24v-.24h-.24v-.24h-.24v-.48h-1.2v.24h-.24v.96h-.24v.96h-.24v1.44h-.24v.96h-.24v1.44h-.24v2.16h-.24v1.2h-.24v.96h-.24v.72H126v.48h-.24v.72h-.24v.48h-.24v.48h-.24v.72h-.24v1.2h-.24v1.2h-.24v.48h-.24v.72h-.24v.48h-.24v.48h-.24v.48h-.24v.72h-.24v.48h-.24v.72h-.24v.48h-.24v.48h-.24v.24h-.24v.48h-.24v.48h-.24v.24h-.24v.48h-.24v.48h-.24v.24h-.24v.48H120v.24h-.24v.72h-.24v.24h-.24v.24h-.24v.48h-.24v.24h-.24v.24h-.24v.48h-.24v.24h-.24v-.48h.24v-2.4h.24v-1.68h.24v-1.92h.24v-2.16h.24v-2.16h.24v-2.16h.24v-1.68h.24v-1.2h.24v-1.2h.24v-.72h.24v-1.68h.24v-1.68h.24v-1.44h.24v-.72h.24v-1.2h.24v-1.2h.24v-.72h.24v-.96h.24v-.24h.24v-.48h.24v-.48h.24v-.48h.24v-.24h.24v-.48h.24v-.24h.24v-.24h.24v-.24h.24v-.48h.24v-.24h.24v-.48h.24v-.72h.24v-.48h.24v-.96h.24v-.96h.24v-.96h.24v-.48h.24v-.96h.24v-.72h.24v-.72h.24v-.96h.24v-.96h.24v-.72h.24v-.24h.24v-.48h.24v-.48h.24v-.48h.24v-.72h.24v-.48h.24v-.48h.24v-.48h.24v-.24h.24v-.48h.24v-.24h.24v-.48h.24v-.24h.24v-.24h.24v-.24h.24v-.24h.24v-.24h.24v-.24h.48v-.24h.24v-.24h.24V276h.24v-.24h.24v-.24h.24v-.24h.24v-.24h.24v-.24h.24v-.24h.24v-.24h.24v-.24h.24v-.24h.24v-.24h.24v-.24h.24v-.24h.24v-.48h.24v-.24h.24v-.72h.24v-.48h.24v-.24h.24v-.48h.24V270h.24v-.48h.24v-.48h.24v-.48h.24v-.48h.24v-.48h.24v-.48h.24v-.48h.24v-.48h.24v-.48h.24v-.24h.24v-.48h.24v-.24h.24v-.48h.24V264h.24v-.24h.24v-.24h.24v-.24h.24v-.24h.24v-.24h.24v-.24h.24v-.24h.24v-.24h.24v-.24h.24v-.48h.24v-.24h.24v-.24h.48v-.24h.24v-.24h.24v-.24h.24v-.24h.24v-.24h.48v-.24h.24v-.24h.24v-.24h.24v-.24h.48v-.24h.48v-.24h.48V258h.24v-.24h.48v-.24h.48v-.24h.72v-.24h.48v-.24h.48v-.24h.72v-.24h.72v-.24h.72v-.24h.96v-.24h.72v-.24h.48v-.24h.24v-.24h.24v-.24h.24v-.24h.24v-.24h.24v-.24h.48v-.48h.48v-.24h.24v-.24h.24v-.24h.24v-.24h.24v-.24h.24V252h.24v-.24h.24v-.48h.24v-.24h.24v-.24h.24v-.24h.24v-.24h.24v-.24h.24v-.24h.24v-.24h.24v-.24h.48v-.24h.24v-.24h.24v-.24h.24v-.24h.48v-.24h.24v-.24h.24v-.24h.24v-.24h.24v-.24h.48v-.24h.24v-.24h.48v-.24h.24v-.24h.24V246h.48v-.24h.24v-.24h.24v-.24h.24v-.24h.24v-.24h.48v-.24h.24v-.24h.48v-.24h.24v-.24h.24v-.24h.48v-.24h.48v-.24h.24v-.24h.24v-.24h.48v-.24h.24v-.24h.48v-.24h.48v-.24h.48v-.24h.24v-.24h.48v-.24h.48v-.24h.48v-.24h.48v-.24h.24V240h.48v-.24h.48v-.24h.48v-.24h.48v-.24h.48v-.24h.24v-.24h.72v-.24h.48v-.24h.48v-.24h.48v-.24h.48v-.24h.48v-.24h.48v-.24h.48v-.24h.48v-.24h.24v-.24h.48v-.24h.48v-.24h.48v-.24h.24v.24h.24v.24h.24v.24h.24v.24h.24v.24h.24v.24h.24v.48h.24v.24h.24v.48h.48v.24h.24v.48h.24v.24h.24v.24h.24v2.16h-.24v.48h-.24v.48h-.24v.24H186v.24h-.24v.48h-.24v.24h-.24v.24h-.24v.24h-.24v.24h-.24v.24h-.24v.24h-.24v.24h-.24v.48h-.24v.24h-.24v.24h-.24v.48h-.48v.48h-.24v.24h-.24v.24h-.24v.48h-.24v.48h-.24v.24h-.24v.48h-.24v.48h-.24v.72h-.24v.96h-.24v.48H180v.96h-.24v1.2h-.24v.72h-.24v1.68h-.24v.72h-.24v.96h-.24v.48h-.24v.96h-.24v.48h-.24v.72h-.24v.72h-.24v.48h-.24v.48h-.24v.48h-.24v.72h-.24v.72h-.24v.96h-.24v.72h-.24v.96h-.24V270h.72v-.24h.24v-.24h.24v-.24h.24v-.24h.24v-.48h.24v-.24h.24v-.48h.24v-.48h.24v-.48h.24v-.24h.24v-.48h.24v-.48h.24v-.24h.24v-.48h.24v-.48h.24V264h.24v-.48h.24v-.48h.24v-.48h.24v-.48h.24v-.24h.24v-.48h.24v-.72h.24v-.24h.24v-.48h.24v-.48h.24v-.48h.24v-.48h.24V258h.24v-.48h.24v-.48h.24v-.48h.24v-.48h.24v-.72h.24v-.72h.24v-1.92h.24v-3.36h.24v-.24h.24v-.48h.24v-.24h.24v-.24h.24v-.24h.24v-.24h.24v-.48h.24v-.24h.24v-.24h.96v.24h.24v.48h.24v2.64h-.24v.24h-.24v.96h.24v2.16h-.24v1.44h-.24v1.68h-.24v1.2h-.24v1.92h-.24v2.64h-.24v1.44h-.24v1.92h-.24v3.84H186v8.64h.24v.96h.24v.48h.24v.24h.24v.24h.24v.24h.72v-.24h.24v-.24h.24v-.48h.48v-.48h.24v-.24h.24v-.48h.24v-.24h.24v-.72h.24v-.48h.24v-.24h.24v-.72h.24v-.48h.24v-.72h.24v-.72h.24v-.96h.24v-7.2h-.24v-1.92h-.24v-.96h-.24v-2.88h-.24V258h-.24v-.96h-.24v-.96h-.24v-.72h-.24v-.48h-.24v-.48h-.24v-.48h-.24v-.72h-.24v-.72h-.24V252h-.24v-.48h.24v-1.44h.96v.48h.24v.24h.24v.48h.24v.48h.24v.48h.24v.72h.24v.48h.24v.72h.24v.72h.24v.48h.24v.72h.24v.72h.24v.24h.24v.72h.24v.72h.24v.24h.24v.48h.24v.48h.24v.48h-.24v1.68h-.24v1.92h-.24v.48h.48v-.72h.24v-.72h.24v-.48h.24v-.72h.24v-.48h.24v.48h.24v.48h.24v.48h.24v.72h.24v.24h.24v.48h.24v.72h.24v.48h.24v.48h.24v.48h.24v.48h.24v.48h.24v.24h.24v.48h.24v.24h.24v.48h.24v.48h-.24v1.2h-.24v.96H198v1.44h-.24v1.44h-.24v.72h.48v-.24h.48v-.24h.24v-.24h.24v-.48h.48v4.32h.24v2.16h.24v.96h.24v.96h.24v.96h.24v.48h.24v.72h.24v.48h.24v.72h.24v.48h.24v.24h.24v.48h.24v.48h.24v.48h.24v.48h.24v.24h.24v.48h.24v.24h.24v.24h.24v.24h.24v.48h.48v.24h.24v.24h.24v.24h.24v.24h.24v.24h.48v.24h.24v.24h.24v.24h.48v.24h.48v.24h.48v.24h.48v.24h.48v.24h1.44v-.72h.24v-2.16h-.24v-.72h-.24v-.48H210v-.72h-.24v-.96h-.24v-.72h-.24v-1.44h-.24v-.96h-.24v-1.2h-.24v-.72h-.24v-.72h-.24v-.72h-.24v-.24h-.24v-.72h-.24v-.48h-.24v-.48h-.24v-.48h-.24v-.72h-.24v-.48h-.24v-.72h-.24V276h-.24v-.48h-.24v-.48h-.24v-.48h-.24v-.48h-.24v-.24h-.24v-.48h-.24v-.72H204v-.48h-.24v-.24h-.24v-.72h-.24v-.48h-.24V270h-.24v-.24h.24v-.24h.48v-.24h.24v-.24h.24v-.24h.24v-.24h.24v-.24h.24v-.24h.24v-.24h.24v-.24h.24v-.24h.48v-.24h.24v-.24h.24v-.24h.24v-.24h.24v-.24h.24v-.24h.24v-.24h.24v-.24h.24v-.24h.24v-.24h.24v-.24h.24v-.24h.24v-.24h.24V264h1.92v-.24h1.44v-.24h.72v-.24h.72v-.24h.24v-.24h.24v-.24h.48v-.24h.24v-.24h.24v-.24h.24v-.24h.48v-.24h.24v-.24h.24v-.24h.24v-1.2h-.24v-.48h-.24v-.48H216v-.24h-.24V258h-.24v-.24h-.24v-.24h-.24v-.24h-.24v-.24h-.48v-.72h.24v-.96h.24v-2.4h-.24V252h-.24v-2.4h-.24v-1.44h-.24v-1.92h.24v.24h.24v.48h.24v.48h.24v.72h.24v.48h.24v.48h.24v.72h.24v.72h.24v.48h.24v.96h.24v.96h.24v.96h.24v.72h.24v.48h.24v.48h.24v.24h.24v.96h.24v1.44h.24v1.92h.24v.96h.24v1.2h.24V264h.24v1.2h.24v.72h.24v.72h.24v.96h.24v.48h.24v.72h.24v.48h.24v.72h.24v.48h.24v.48h.24v.24h.24v.48h.24v.48h.24v.48h.24v.24h.24v.48h.24v.24h.24v.48h.24v.24h.24v.48h.24v.24h.24v.24h.24v.24h.24v.24h.24v.24h.24v.24h.24v.24h.24v.24h.24v.24h.24v.24h.24v.24h.24v.24h.24v.24h.24v.24h.24v.24h.24v.24h.24v.24h.24v.24h.24v.24h.24v.24h.48v.24h.24v.24h.24v.24h.24v.24h.24v.24h.24v.24h.24v.24h.24v.24h.24v.24h.24v.24h.24v.24h.48v.24h.24v.24h.24v.48h.24v.24h.48v.48h.24v.24h.24v.24h.24v.48h.24v.24h.24v.24h.24v.48h.24v.24h.48v.24h.24v.24h.24v.48h.48v.24h.48v-.24h.24v-4.56h-.24v-1.44h-.24v-.72h-.24v-.72h-.24v-.48h-.24v-.72h-.24v-.48h-.24v-.72h-.24v-.24h-.24v-.72h-.24v-.48h-.24v-.72h-.24v-.24H234v-.72h-.24v-.48h-.24v-.96h-.24v-.72h-.24v-.72h-.24v-.48h-.24V270h-.24v-.48h-.24v-.72h-.24v-.48h-.24v-.48h-.24v-.72h-.24v-.96h-.24v-.48h-.24v-.96h-.24v-.96h-.24v-.72h-.24v-.96h-.24v-.72h-.24v-.48h-.24v-.72h-.24v-.24h-.24v-.48h-.24v-.72h-.24v-.48H228v-.48h-.24v-.24h-.24v-.72h-.24v-.48h-.24v-.48h-.24v-.48h-.24v-.24h-.24v-.24h-.24v-.24h-.24v-.24h-.24v-.48h-.48v-.48h-.24v-.24h-.24v-.24h-.24v-.24h-.24v-.24h-.24v-.24h-.24v-.48h-.24v-.24h-.24v-.48h-.24v-.24h-.48v-.24h-.24v-.24h-.48v-.24h-.24v-.24h-.24v-.24h-.48v-.48h-.48v-.24h-.24v-.24h-.72v-.24h-.48v-.24h-.48v-.24h-.24v-.24h-.24v-.24h-.48v-.48h-.24v-.24h.48v.24h1.44v.24h4.32v.24h3.6v-.24h2.88v-.24h2.88v-.24h1.2v-.24h.96v-.24h.96V246h.96v-.24h.48v-.24h.72v-.24h.48v-.24h.72v-.24h.24v-.24h.72v-.24h.72v-.24h.72v-.24h.96v-.24h.72v-.24h.96v-.24h.72v-.24h.72v-.24h.72v-.24h.48v-.24h.96v-.24h.72v-.24h.96v-.24h.96v-.24h1.2v-.24h1.44v-.24h.96v-.24h.96v-.24h.96V240h.96v-.24h.96v-.24h1.2v-.48h-1.68v-.24h-1.92v-.24h-1.2v-.24h-1.44v-.24h-1.2v-.24h-.96v-.24h-1.2v-.24h-.72v-.24h-.96v-.24h-.96v-.24H246v-.24h-4.56v.24h-.96v.24h-.72v.24h-.96v.24h-.72v.24h-.72v.24h-.96v.24h-2.88v.24h-1.68v.24h-.96v.24h-.72v.24h-.48v.24h-.48v.24h-.48v.24H228v.24h-.48v.24h-.72v.24h-.72v.24h-.72v.24h-.72v.24h-.72v.24h-.72v.24h-.96v.24h-.96v.24h-.48v.24h-.72v.24h-.48v.24h-.48v.24h-.48v.24h-.72v.24h-.96v.24h-2.64v-.72h-.24v-.72h-.24v-1.2h-.24v-.96h-.24v-.96h-.24v-.72h-.24v-.48h-.24v-.48h-.24v-.48h-.24v-.72h-.24v-1.2h.24v.24h2.88v-.24h1.2v-.24h1.2v-.24h.96v-.24h1.2v-.24h.72V234h.72v-.24h.96v-.24h.48v-.24h.72v-.24h.48v-.24h.24v-.24h.48v-.24h.24v-.24h.48v-.24h.48v-.24h.48v-.24h.24v-.24h.72v-.24h.48v-.24h.48v-.24h.48v-.24h.48v-.24h.72v-.24h.48v-.24h.72v-.24h.48v-.24h.48v-.24h.72v-.24h.72v-.24h.72V228h.48v-.24h.72v-.24h.24v.24h.72v-.24h.24v-.48h.24v-.24h.48v-.24h.24v-.24h.24v-.24h-.24v-.48h-.48v-.24h.24v-4.56h-.24v-1.92h-.24v-.24h.96v-.24h1.2v-.24h1.44v.96h.24v.72h.24v.96h.24v.72h.24v.72h.24v.96h.24v.72h.24v.48h.24v.72h.24v.24h.24v.72h.24v.24h.72v-.24h.24v-1.2h.24v-1.68h-.24v-1.92h-.24v-1.2h-.24v-.96h-.24v-1.2h3.6v.48h.24v.72h.24v.96h.24v.72h.24v.48h.24v.72h.24v.48h.24v.24h.96v-.48h.24v-1.68h.24v-.72h-.24v-1.92h.72v-.24h1.2v-.24h1.2v-.24h.96v-.24h.24v.48h.24v.72h.24v.96h.24v.72h.24v.48h.24v.72h.24v.72h.24v.72h.24v.48h.24v.48h.24v.72h.24v.48h.24v.72h.24v.72h.24v.24h.24v.48h.24v.48h.24v.24h.48v-.24h.24v-2.4h.24V222h-.24v-3.12h-.24v-1.44h-.24V216h.24v-.24h.96v-.24h.96v-.24h.96v-.24h.96v.48h.24v1.2h.24v.72h.24v.72h.24v.72h.24v.72h.24v.72h.24v.72h.24v.48h.24v.48h.24v.72h.24v.48h.24v.48h.24v.48h.24v.48h.24v.24h.24v.24h.24v.24h.24v-.24h.24v-.48h.24v-.96h.24v-4.56h-.24v-1.92h-.24v-1.68h-.24v-.96h-.24v-.48h.96v-.24h.24v.48h.24v.96h.24v1.2h.24v.72h.24v1.2h.24v.48h.24v.96h.24v.48h.24v.48h.48v-.48h.24v-.96h.24v-.96h.24v-5.28h.72v-.24h.96v-.24h.24v.72h.24v1.2h.24v.72h.24v.48h.24v.48h.24v.48h.24v.48h.24v.24h.24v.48h.24v.24h.24v.24h.24v.24h.96v-.24h.48v-.24h.24v-.48h.24v-.24h.24v-.72h.24v-.48h.24v-1.44h.24v-3.12h.72v.72h.24v1.92h.24V216h.24v1.2h.24v1.44h.24v1.44h.24v1.44h.24v.96h.24v.72h.24v.48h.24v.24h.48v-.24h.24v-.48h.24v-.48h.24V222h.24v-5.04h-.24v-1.68h-.24v-.96H282v-.48h.24v-.72h.24v-.96h.24v-.96h.96v-.24m72.24.72h1.44v1.2h-.24v.72h-.24v.24h-.24v.24h-.24v.24h-.24v.48h-.24v-3.12m8.88.72h.72v.24h-.24v.24h-.24v.48h-.24v.72h-.24v.48h-.24v-.96h.24v-.96h.24v-.24m3.84 0h1.92v.24h.48v.48h-.24v.24h-.24v.48h-.24v.24h-.24v.48h-.24v.48h-.24v.48h-.24v.72h-.24v.72h-.24v.72h-.24v-5.28m-40.32.48h.24v.24h-.24v-.24m35.76 1.68h.24v.96h-.24v.72h-.24v-.96h.24v-.72m-73.2.24h.24v.72h-.24v-.72m72.72 1.44h.24v.96h-.24v-.96m-38.4.96h.24v.24h-.24v-.24m-93.12 2.16h.72v.72h.24v1.2h.24v.72h.24v.96h.24v.96h.24v.48h.24v.72h-2.64v.24h-1.44v.24h-1.2v.24h-.72v.24h-.96v.24h-.72v.24h-.72v-.24h.24v-.72h.24v-1.2h.24v-1.68h.24v-2.16h.72v-.24h.96v.96h.24v1.2h.24v.72h.24v.24h.24v.24h.48v-.24h.24v-.24h.24v-.48h.24v-.24h.24V222h.24v-.48h.24v-.48h.24v-.72h.24v-.72h.24v-.24M222 221.52h.72v5.76h-.48v.24h-1.2v.24h-.48v.24h-.96v.24h-.72v.24h-.48v.24h-.48v.24h-.96v.24h-.72v.24h-.72v.24h-.72v.24h-.72v.24h-.72v.24h-1.92v-.24h-1.68v.24h-.24v-.48h.24v-1.44h.24v-2.64h.24v-1.92h.48v-.24h1.44v-.24h1.68v-.24h1.68v-.24h.96v-.24h1.2v-.24h1.2v-.24h.48v1.2h-.24v3.36h.48v-.24h.24v-.24h.24v-.48h.24v-.48h.24v-.48h.24v-.72h.24v-.72h.24v-.96h.24V222h.24v-.24h.24v-.24m-14.4 3.12h.48v1.2h.24v.72h-.24v1.2h-.24v.24h-.24v.48h-.24v.48h-.24v.24h-.24v.24h-.24v.24h-.24v.24h-.24v.24h-.24v.24h-.24v.24h-.24v.24h-.24v.48h-.48v.24h-.24v.48H204v.48h-.24v.24h-.24v.24h-.24v.24h-.24v.24h-.24v.24h-.48v.24h-.24v.24h-.24v.24h-.24v.24h-.24v.24h-.24v.24h-.24v.24h-.24v.24h-.24v.24h-.24v.48h-.24v.24h-.24v.48h-.24v.24h-.24v.48h-.24v.24h-.24v.48h-.24v.24h-.24v.48H198v.48h-.24v.72h-.24v.72h-.24v.48h-.24v.96h-.24v.96h-.24v.48h-.24v.96h-.24v.96h-.24v.72h-.24v.48h-2.4v.24h-2.4v-.24h-.48v-.24h-.24v-.48h-.24V246h-.24v-.48h-.24v-.48h-.24v-.48h-.24v-.72h-.24v-.24h-.24v-1.2h-.24v-1.2h-.24V240h-.24v-.48h-.24v-.72h-.24v-.72h-.24v-.72h-.24v-.96h-.24v-.72h-.24v-.48H186v-.24h-.24v-.48h.24v-.24h.48V234h.24v-.24h.72v-.24h.48v-.24h.72v-.24h.48v-.24h.72v-.24h.48v-.24h.72v-.24h.48v-.24h.48v-.24h.48v-.24h.48v-.24h.48v-.24h.72v-.24h.48v-.24h.48v-.24h.48v-.24h.72v-.24h.24v-.24h.48v-.24h.48v-.24h.48v-.24h.24v-.24h.48v-.24h.72V228h.48v-.24h.48v-.24h.48v-.24h.48v-.24h.48v-.24h.48v-.24h.48v-.24h.72v-.24h.48v-.24h.72v-.24h.72v-.24h.72v-.24h.72v-.24h.72v-.24m198.48 6h.24v.24h.48v.24h.24v.24h.48v.24h-.24v1.2h-.24v1.2h-.24v4.32h-.48v.24h-.48v.24h-1.44v-.48h.24v-.72h.24v-.72h.24v-.72h.24v-.72h.24v-1.92h.24v-2.16h.24v-.72m-197.28 2.4h.24v2.16h.24v.96h.24v.72h.24v.48h.24v.96h.24v.72h.24v1.44h-.24v.72H210v.24h-.24v.48h-.24v.48h-.24v.24h-.24v.24h-.24v.24h-.24v.48h-.24v.48h-.24v.24h-.24v.48h-.24v.24h-.24v.48h-.24v.48h-.24v.48h-1.2v.24h-1.44v.24h-2.88v-.48h.24v-.24h.24v-.48h.24v-.48h.24v-.24h.24v-.48h.24v-.48h.24v-.24h.24v-.24h.24v-.48h.24v-.24h.24v-.72h.24v-.24h.24v-.48h.24v-.48h.24v-.24h.24v-.48h.24v-.48h.24v-.24h.24v-.48h.24v-.48h.24v-.24h.24v-.48h.24v-.72h.24v-.48h.24v-.48h.24v-.24h.24v-.72h.24v-.48h.24v-.48h.24v-.48h.24v-.72m-16.08 18h.48v.24h1.44v.72h-.24v1.92h-.48v-.24h-.24v-.48h-.24v-.72h-.24v-.24h-.24v-.72h-.24v-.48m10.56 0h.72v.48h-.24v.24h-.24v.48h-.24v.48h-.24v.48h-.24v.48h-.24v.72h-.24v.48h-.24v.72h-.24v.72h-.24v.48h-.24v.72h-.72v-.24h-1.2v-.24h-1.2v-.24h-.96v-.24h-.24v-.72h.24v-.72h.24v-.48h.24v-.48h.24v-.48h.24v-.48h.24v-.72h.24V252h.24v-.48h1.2v.24h.72v-.24h1.44v-.24h.96v-.24m-6.48 7.44h.24v.24h.48v.24h.24v.24h.48v.24h.24v.24h.48v.24h.24v.24h.24v.24h.48v.24h.24v.24h-.24v.72h-.24v.96h-.24v.48h-.24v-.48h-.24v-.48h-.24v-.48h-.24v-.48h-.24v-.24H198v-.24h-.24v-.24h-.24v-.24h-.24v-.72h-.24v-.48h-.24v-.48m234.96 1.68h.24v.24h.24v.24h.24v.24h.24v.48h.24v.24h.24v.24h-.48v.24h-.48v.24H432v.24h-.48v.24h-.48v.24h-.24v.24h-.48v.24h-.48v.24h-.24v.24h-.48v.24h-.24v-.48h.24v-.24h.24v-.24h.24v-.24h.24v-.24h.24v-.48h.24v-.24h.24v-.48h.24v-.24h.24v-.24h.24v-.24h.24v-.48h.24v-.24m2.64 3.36h.48v.24h.24v.48h.24v.24h.24v.24h.24v.24h.24v.48h.24v.24h.24v.72h-.24v.24h-.24v.24h-.24v.24h-.24v.24h-.24v.24h-.24v.24h-.24v.24h-.24v.24h-.24v.24h-.24v.24h-.24v.24h-.24v.24h-.24v.24h-.24v.24h-.24v.24h-.24v.24h-.24v.48h-.24v.24H432v.24h-.24v.24h-.24v.24h-.24v.48h-.24v.24h-.24v.24h-.24v.24h-.24v.24h-.24v.48h-.24v.24h-.24v.48h-.24V276h.24v.24h.24v.24h.48v.24h2.4v-.24h.72v-.24h.72V276h.48v-.24h.48v-.24h.24v-.24h.48v-.24h.24v-.24h.48v-.24h.24v-.24h.48v-.24h.24v-.24h.24v-.24h.48v-.24h.24v-.24h.24v-.24h.24v-.24h.48v-.24h.24v-.24h.24v-.24h.24v.96h.24v.48h-.24v.24h-.24v.24h-.24v.48h-.24v.24h-.24v.24h-.24v.24h-.24v.48h-.24v.24h-.24v.48H438v.24h-.24v.48h-.24v.48h-.24v.72h-.24v1.2h.24v.48h.24v.48h.48v.24h.48v.24h.48v.24h2.88v-.24h.72v.72h-.48v.24h-.48v.24h-.48v.24h-.48v.24h-.24v.24h-.24v.24h-.48v.24h-.24v.24h-.48v.24h-.24v.24h-.48v.24H438v.24h-.48v.24h-.24v.24h-.24v.24h-.24v.24h-.24v.24h-.48v.24h-.24v.24h-.24v.24h-.24v.24h-.24v.24h-.24v.24h-.24v.24h-.24v.24h-.24v.24h-.24v.24h-.24v.24h-.24v.24h-.24v.24h-.24v-2.64h-.24v-1.68h-.24v-.72h-.24v-.96H432v-.48h-.24v-.72h-.24v-.48h-.24v-.24h-.24v-.48h-.24v-.48h-.24v-.24h-.24v-.48h-.24v-.24h-.24v-.48h-.24v-.24h-.24v-.24h-.24v-.24h-.24v-.24h-.24v-.48h-.24v-.24h-.24v-.24h-.24v-.24h-.24V276h-.24v-.24h-.24v-.24h-.24v-.24h-.24v-.24h-.24v-.24h-.24v-.24H426v-.48h-.24v-.24h-.24v-.24h-.24v-.24h-.24v-.24h-.24v-.24h-.24v-.72h.24v-.72h.24v-.72h.24v-.48h.24v-.72h.24v-.48h.24v-.72h.24v-.48h.24v-.48h.24v-.48h.24v-.48h.24v-.24h.24v-.48h.24v-.24h.24v-.48h.24v-.24h.24v-.24h.24v-.24h.24v.48h2.64v-.24h.96v-.24h.72V264h.48v-.24h.72v-.24m16.56 30.72h.48v.48h-.24v-.24h-.24v-.24m21.84 33.36h.24v.24h-.24v-.24m.24.48h.24v.24h-.24v-.24m6.48 11.28h.48v.96h-.24v-.24h-.24v-.24h-.24v-.24h.24v-.24M114.24 351.6h.48v.24h.24v.24h.24v.24h.24v.24h.24v.24h.24v.24h.24v.24h-.24v.24h-.96v.24h-.72v-2.16m369.36 3.84h.24v.24h-.24v-.24m7.68.96h.72v.24h.24v.24h.24v.48h.24v.24h.24v.24h.24v.24H492v-.24h-3.6v-.24h.48v-.24h.72v-.24h.72v-.24h.48v-.24h.48v-.24m-371.76 2.88h.24v.24h.24v.24h.24v.72h.24v.96h.24v.72h.24v1.2h.24v.72h.24v.72h.24v.24h.24v.72h.24v.72h-.24v-.24h-.48V366h-.48v-.24h-.48v-.24h-.72v-.24h-1.68v-.24h-1.68v.24H114v.24h-1.44v.24h-.96v-.72h.24v-.72h.48v-.24h.24v-.24h.48v-.24h.48v-.24h.24v-.24h.48v-.24h.24v-.24h.24v-.24h.48v-.24h.48v-.24h.24v-.24h.48v-.24h.24v-.24h.48v-.24h.24v-.24h.48v-.24h.24v-.24h.48V360h.24v-.24h.24v-.24h.48v-.24m-8.16 6.48h.24v.24h-.24v-.24m388.56 3.36h.24v.24h-.24v-.24m.24.48h.24v.72h-.24v-.72m-4.8 6h.96v.24h-.96v-.24m2.64.24h.24v.24H498v-.24m-390.24 4.08h.24v.24h-.24v-.24m377.76 18.24h.24v.24h-.24v-.24m8.4.72h1.2v.24h1.2v.24h.48v.24h.48v.24h.24v.24h-.48v-.24h-.72v-.24h-.96v-.24h-.96v-.24h-.48v-.24m-6.72.24h1.44v.72h.24v.48h-.24v-.24h-.24v-.24h-.48v-.24h-.48v-.24h-.24v-.24m10.32.96h.48v.24h-.48v-.24m.72.24h.24v.24h-.24v-.24m2.16.96h.24v.24h-.24v-.24m.48.24h.24v.24h-.24v-.24m-8.64 8.4h.24v.24h-.24v-.24m.48.24h.48v.24h.72v.24h.72v.24h.24v.24h.24v.24h.24v.24h.24v.48h-.24v-.24h-.24v-.24h-.48v-.24h-.48v-.24h-.24v-.24h-.48v-.24h-.48v-.24h-.24v-.24m-393.6 16.32h.24v.48h.24v.24h.24v.48h.24v.48h.24v.24h.24v.48h.24v.24h.24v.72h.24v.24h.24v.24h.24v2.4h-.24v.72h-.24v.48h-.24v.48h-.24v.48h-.24v.24h-.48v.24h-.48v-.24h-.24v-.24h-.24v-.24h-.24v-.48h-.24v-.24h-.24v-.72h-.24v-.96h-.24v-.96h-.24v-1.44h.24v-.72h.24v-.96h.24v-.96h.24v-.48h.48v-.24m393.6 18.48h.24v.24h-.24v-.24m.48.48h.48v.24h-.48v-.24m-.48.72h.24v1.2h-.24v1.2h-.24V450h-.24v1.2H492v.72h-.24v.96h-.24v.48h-.24v.48h-.24v.48h-.24v.48h-.24v.48h-.24v.24h-.24v.24h-.24v.24h-.24v.24h-.96v-.72h-.24v-2.16h.24v-.96h.24v-.48h.24v-.72h.24v-.48h.24v-.48h.24V450h.24v-.48h.24v-.48h.24v-.48h.24v-.24h.24v-.24h.24v-.48h.24v-.24h.24v-.24h.24v-.24h.24v-.24h.24v-.24h.24v-.24m7.44 7.2h.48v.24h-.24v.24h-.24v-.48m.48.48h.24v.72h.24v.72h.24v.72h.24v.72h.24v1.68h-.24v.96h-.24v.96h-.24v.72h-.24v.48h-.24v.24h-.24v.24h-.24v.48h-.48v.24h-.24v-3.84h.24v-1.68h.24v-.72h.24v-1.2h.24v-.96h.24v-.48m-27.84 9.6h2.4v.72h-.48v-.24h-.96v-.24h-.96v-.24m20.16.48h.24v.48h.24v1.68h-.24v1.2h-.24v.72h-.24v.72h-.24v.24h-.24v.48H492v.48h-.24v.24h-.24v.48h-.24v.24h-.48v.24h-.24v.24h-.24v.24h-.24v.24h-.48v.24h-.48v.24h-.48v-.24h-.48v-1.92h.24v-.48h.24v-.48h.24v-.48h.24v-.48h.24v-.48h.24v-.48h.24v-.24h.24v-.24h.24v-.48h.24v-.24h.24v-.24h.24v-.24h.24v-.48h.24v-.24h.24v-.24h.24v-.24h.96v-.48m-24.24 1.68h.24v.24h.96v.24h1.2v.24h1.2v.24h-1.2v.24h-.72v.24h-.96v.24h-.72v-1.68m1.44 13.2h1.2v1.2h-.24v1.2h-.72v-.48h-.24v-1.92m13.2 24.96h.48v.24h.24v1.2h.24v.72h-.24v2.16h-.24v.48h-.24v.96h-.24v.48h-.24v.48h-.24v.24h-.24v.24h-.24v.48h-.48v.48h-.24v.24h-.24v.24h-.24v.24h-.24v.24h-.24v.24h-.24v.24H480v.48h-.96v-.24h-.24v-.24h-.24v-.72h-.24v-1.92h.24v-1.2h.24v-.48h.24v-.48h.24v-.72h.24v-.72h.24v-.48h.24v-.24h.24v-.48h.24v-.24h.72v-.24h.48v-.24h.24v-.24h.48v-.24h.24v-.24h.24v-.24h.24V504h.24v-.24m-348.48 20.16h.48v.96h.24v-.24h.48v-.24h.24v-.24h.72v.24h.24v.24h.24v.24h.24v.48h.24v.24h.24v.48h.24v.24h.24V528h-.24v.24h-.24v.24H138v.24h-.24v.24h-.24v.24h-.24v.24h-.24v.24h-1.2v-.24h-.48v-.24h-.24v-.24h-.24v-.24h-.24v-.24h-.24v-.24h-.24V528h-.24v-.72h-.24v-1.44h.24v-.96h.24v-.48h.48v-.24h.24v-.24m10.8 5.04h.72v.24h.24v.48h.24v3.12h.24v.24h-.24v.96h-.24v.48h-.24v.48h-.24v.24h-.24v.48h-.24v.24h-.24v.24h-.24v-.24h-.24v-.24h-.24v-.24h-.24v-.48h-.24v-.24H144v-.48h-.24v-3.6h.24v-.24h.24v-.24h.24v-.24h.24v-.24h.24v-.24h.24v-.24h.48v-.24m102.48 28.56h.24v.24h-.24v-.24m14.4 8.64h.48v.96h.24v12.72h.24v1.68h.24v3.6h-.24v.96h-.24v.48h-.24v.24h-.24v.72h-.24v.48h-.24v.24h-.72v-.96h.24v-.48h.24v-.48h.24v-.72h.24v-.72h.24v-2.4h-.24v-2.16h-.24v-2.16h-.24v-1.68h-.24v-.72h-.24v-1.2h-.24v-.72h-.24v-.96h-.24v-.72h-.24v-.72h-.24v-.72h-.24v-.48h-.24v-.48h-.24v-.96h.24v-.48h.24v-.24h.24v-.24h.24v-.24h.48v-.24h.24v-.24h.24v-.24h.48v-.24h.24v-.24h.24v-.24m-6 7.68h.24v.48h.24v1.92h.24v2.4h.24v1.68h.24v1.44h.24v1.68h.24v1.44h.24V588h.24v1.92h.24v.48h-.24v.72h-.24v.96h-.24v.96H258v.24h-.24v.24h-.24v.48h-.24v.48h-.24v.48h-.24v.24h-.24v.24h-.24v.48h-.24v.24h-.24v.24h-.24v.24h-.24v.48h-.24v.24h-.24v.24h-.24v.48h-.24v.24h-.24v.24h-.24v.24h-.24v.24h-.24v.48h-.24v.24h-.24v.48h-.24v.24h-.24v.48h-.24v.48H252v.72h-.24v.24h-.24v.48h-.24v.48h-.24v.24h-.24v.48h-.24v.48h-.24v-.24h-.48v-.24h-.48v-.24h-.72v-.24h-.48v-.48h.24v-.72h.24v-.48h.24v-.72h.24v-.48h.24v-.96h.24v-.72h.24v-.48h.24v-1.2h.24v-.96h.24v-2.64h-.24v-.48h-.24v-.24h-.72v.24h-.24v.24h-.24v.24h-.24v.24h-.24v.24h-.24v.24h-.24v.24h-.24v.48h-.24v.24h-.24v.24h-.24v.48h-.24v.24h-.24v.24h-.24v.48H246v.24h-.24v.48h-.24v.24h-.24v.48h-.24v.24h-.24v.48h-.24v.24h-.24v-1.68h.24v-.48h.24v-.72h.24v-.72h.24v-.48h.24v-.96h.24V594h.24v-.72h.24v-1.2h.24v-.72h.24v-1.2h.24v-1.44h.24v-1.68h.24v-2.64h-.24v-.48h-.72v.24H246v.24h-.24v.24h-.24v.24h-.24v.48h-.24v.24h-.24v.24h-.24v.24h-.24v-3.36h-.24v-4.32h.24v-.48h.24v-.24h.48v-.24h.24v-.24h.72v-.24h.48v.24h.72v.24h.48v.24h.48v.24h1.2v.24h1.44v-.24h1.92v-.24h.48v-.24h.48v-.24h.24v-.24h.24v-.24h.24v-.24h.24v-.24h.24V576h.24v-.24h.24v-.24h.24v-.24h.24v-.24h.24v-.24h.24v-.48h.24v-.48m-53.04 5.28h.24v.48h-.24v-.48m-12.24 5.76h1.92v.24h.48v.24h.24v.24h.48v.48h.24v.24h.24v.24h.24v.24h.24v.24h.48v-.96h.24v-.24h.24v-.24h.72v.24h.24v.24h.24v.24h.24v.24h.24v1.68h-.24v.24h-.24v.24h-.48v.24h-.48v.24h-.72v.24h-.96v.24h-1.92v-.24H192v-.24h-.72v-.24h-.48v-.24h-.48v-.24h-.24v-.24h-.24V588h-.24v-.24h-.24v-.48h-.24v-.48h.24v-.48h.24v-.48h.48v-.24h.24v-.24h.48v-.24h.48v-.24m74.64 28.56h.24v.24h.72v.24h.48v.24h-.72v-.24h-.96v-.24h.24v-.24m23.52.96h.24v.24h1.68v.24h-1.44v.24h-.48v-.24h-.24v-.24h.24v-.24"/>
</svg>
