<svg xmlns="http://www.w3.org/2000/svg" viewBox="37.37759999999989 146.33759999999975 520.4448000000067 520.4448000000068">
  <path fill="currentColor" fill-rule="evenodd" d="M286.8 151.44v.24H282v.24h-3.6v.24h-2.88v.24h-2.64v.24h-2.4v.24h-2.16v.24h-2.16v.24h-1.92v.24h-1.68v.24h-1.68v.24h-1.68v.24h-1.68v.24h-1.44v.24h-1.44v.24h-1.44v.24h-1.44v.24h-1.2v.24h-1.2v.24h-1.2v.24h-1.2v.24h-1.2v.24h-1.2v.24h-1.2v.24h-.96v.24h-1.2v.24h-.96v.24h-1.2v.24h-.96v.24h-.96v.24h-.96v.24h-.96v.24h-.96v.24h-.96v.24h-.96v.24h-.72v.24h-.96v.24h-.96v.24h-.72v.24H228v.24h-.96v.24h-.72v.24h-.72v.24h-.96v.24h-.72v.24h-.72v.24h-.96v.24h-.72v.24h-.72v.24h-.72v.24h-.72v.24h-.72v.24h-.72v.24h-.96v.24h-.72v.24h-.72v.24h-.72v.24h-.48v.24h-.72v.24h-.72v.24h-.72v.24h-.72v.24h-.72v.24h-.48v.24h-.72v.24h-.72v.24h-.48v.24h-.72v.24h-.72v.24h-.48v.24h-.72v.24h-.72v.24h-.48v.24h-.72v.24h-.48v.24h-.72v.24h-.48v.24h-.72v.24h-.48v.24h-.48v.24h-.72v.24h-.48v.24h-.72v.24H198v.24h-.48v.24h-.72v.24h-.48v.24h-.48v.24h-.72v.24h-.48v.24h-.48v.24h-.48v.24h-.72v.24h-.48v.24H192v.24h-.48v.24h-.48v.24h-.72v.24h-.48v.24h-.48v.24h-.48v.24h-.48v.24h-.48v.24h-.48v.24h-.72v.24h-.48v.24h-.48v.24h-.48v.24h-.48v.24h-.48v.24h-.48v.24h-.48v.24h-.48v.24h-.48v.24h-.48v.24h-.48v.24h-.48v.24h-.48v.24h-.24v.24h-.48v.24h-.48v.24h-.48v.24h-.48v.24h-.48v.24h-.48v.24h-.48v.24h-.48v.24h-.48v.24h-.24v.24h-.48v.24h-.48v.24h-.48v.24H174v.24h-.48v.24h-.48v.24h-.48v.24h-.48v.24h-.24v.24h-.48v.24h-.48v.24h-.48v.24h-.24v.24h-.48v.24h-.48v.24h-.48v.24h-.24v.24H168v.24h-.48v.24h-.24v.24h-.48v.24h-.48v.24h-.24v.24h-.48v.24h-.48v.24h-.24v.24h-.48v.24h-.48v.24h-.24v.24h-.48v.24h-.24v.24h-.48v.24H162v.24h-.24v.24h-.48v.24h-.24v.24h-.48v.24h-.48v.24h-.24v.24h-.48v.24h-.24v.24h-.48v.24h-.24v.24h-.48v.24h-.24v.24h-.48v.24h-.24v.24h-.48v.24h-.24v.24h-.48v.24h-.24v.24h-.48v.24h-.24v.24h-.48v.24h-.24v.24h-.48v.24h-.24v.24h-.48v.24h-.24v.24h-.24v.24h-.48v.24h-.24v.24h-.48v.24h-.24v.24h-.48v.24h-.24v.24h-.48v.24h-.24v.24h-.24v.24h-.48v.24h-.24v.24h-.24v.24h-.48v.24h-.24v.24h-.48v.24h-.24v.24h-.24v.24h-.48v.24h-.24v.24h-.24v.24h-.48v.24h-.24v.24h-.24v.24h-.48v.24H144v.24h-.24v.24h-.48v.24h-.24v.24h-.24v.24h-.48v.24h-.24v.24h-.24v.24h-.48v.24h-.24v.24h-.24v.24h-.24v.24h-.48v.24h-.24v.24h-.24v.24h-.48v.24h-.24v.24h-.24v.24h-.24v.24h-.24v.24h-.48v.24h-.24v.24h-.24v.24h-.24v.24h-.48v.24h-.24v.24h-.24v.24h-.24v.24h-.48v.24h-.24v.24h-.24v.24h-.24v.24h-.24v.24h-.48v.24h-.24v.24h-.24v.24h-.24v.24h-.24v.24h-.48v.24h-.24v.24H132v.24h-.24v.24h-.24v.24h-.24v.24h-.48v.24h-.24v.24h-.24v.24h-.24v.24h-.24v.24h-.24v.24h-.24v.24h-.48v.24h-.24v.24h-.24v.24h-.24v.24h-.24v.24h-.24v.24h-.24v.24h-.24v.24h-.48v.24h-.24v.24h-.24v.24H126v.24h-.24v.24h-.24v.24h-.24v.24h-.24v.24h-.24v.24h-.24v.24h-.48v.24h-.24v.24h-.24v.24h-.24v.24h-.24v.24h-.24v.24h-.24v.24h-.24v.24h-.24v.24h-.24v.24h-.24v.24h-.24v.24h-.24v.24h-.24v.24h-.24v.24h-.24v.24h-.24v.24H120v.24h-.24v.24h-.24v.24h-.48v.24h-.24v.24h-.24v.24h-.24v.24h-.24v.24h-.24v.24h-.24v.24h-.24v.24h-.24v.24h-.24v.24h-.24v.24h-.24v.24h-.24v.24h-.24v.24h-.24v.24h-.24v.24h-.24v.24h-.24v.48h-.24v.24h-.24v.24h-.24v.24H114v.24h-.24v.24h-.24v.24h-.24v.24h-.24v.24h-.24v.24h-.24v.24h-.24v.24h-.24v.24h-.24v.24h-.24v.24h-.24v.24h-.24v.24h-.24v.24h-.24v.24h-.24v.24h-.24v.48h-.24v.24h-.24v.24h-.24v.24h-.24v.24h-.24v.24h-.24v.24h-.24v.24h-.24v.24H108v.24h-.24v.48h-.24v.24h-.24v.24h-.24v.24h-.24v.24h-.24v.24h-.24v.24h-.24v.24h-.24v.48h-.24v.24h-.24v.24h-.24v.24h-.24v.24h-.24v.24h-.24v.24h-.24v.48h-.24v.24h-.24v.24h-.24v.24h-.24v.24h-.24v.24h-.24v.48h-.24v.24h-.24v.24H102v.24h-.24v.24h-.24v.48h-.24v.24h-.24v.24h-.24v.24h-.24v.24h-.24v.48h-.24v.24h-.24v.24h-.24v.24h-.24v.48h-.24v.24h-.24v.24h-.24v.24h-.24v.48h-.24v.24h-.24v.24h-.24v.24h-.24v.24h-.24v.48h-.24v.24h-.24v.24h-.24v.48h-.24v.24H96v.24h-.24v.24h-.24v.48h-.24v.24h-.24v.24h-.24v.48h-.24v.24h-.24v.24h-.24v.48h-.24v.24h-.24v.24h-.24v.48h-.24v.24h-.24v.24h-.24v.48h-.24v.24h-.24v.24h-.24v.48h-.24v.24h-.24v.24h-.24v.48h-.24v.24h-.24v.48h-.24v.24h-.24v.24H90v.48h-.24v.24h-.24v.24h-.24v.48h-.24v.24h-.24v.48h-.24v.24h-.24v.48h-.24v.24h-.24v.48h-.24v.24h-.24v.24h-.24v.48h-.24v.24h-.24v.48h-.24v.24h-.24v.48h-.24v.24h-.24v.48h-.24v.24h-.24v.48h-.24v.24h-.24v.48h-.24v.24h-.24v.48H84v.24h-.24v.48h-.24v.24h-.24v.48h-.24v.24h-.24v.48h-.24v.24h-.24v.48h-.24v.48h-.24v.24h-.24v.48h-.24v.24h-.24v.48h-.24v.48h-.24v.24h-.24v.48h-.24v.24h-.24v.48h-.24v.48h-.24v.24h-.24v.48h-.24v.48h-.24v.24h-.24v.48h-.24v.48H78v.24h-.24v.48h-.24v.48h-.24v.24h-.24v.48h-.24v.48h-.24v.48h-.24v.24h-.24v.48h-.24v.48h-.24v.48h-.24v.24h-.24v.48h-.24v.48h-.24v.48h-.24v.48h-.24v.24h-.24v.48h-.24v.48h-.24v.48h-.24v.24h-.24v.48h-.24v.48h-.24v.48h-.24v.48H72v.48h-.24v.48h-.24v.48h-.24v.48h-.24v.48h-.24v.24h-.24v.48h-.24v.48h-.24v.48h-.24v.48h-.24v.48h-.24v.48h-.24v.48h-.24v.48h-.24v.48h-.24v.48h-.24v.48h-.24v.48h-.24v.48h-.24v.72h-.24v.48h-.24v.48h-.24v.48h-.24v.48h-.24v.48H66v.48h-.24v.72h-.24v.48h-.24v.48h-.24v.48h-.24v.48h-.24v.72h-.24v.48h-.24v.48h-.24v.48h-.24v.72h-.24v.48h-.24v.48h-.24v.72h-.24v.48h-.24v.48h-.24v.72h-.24v.48h-.24v.72h-.24v.48h-.24v.48h-.24v.72h-.24v.48h-.24v.72h-.24v.48H60v.72h-.24v.48h-.24v.72h-.24v.72h-.24v.48h-.24v.72h-.24v.72h-.24v.48h-.24v.72h-.24v.72h-.24v.48h-.24v.72h-.24v.72h-.24v.72h-.24v.72h-.24v.72h-.24v.48h-.24v.72h-.24v.72h-.24v.72h-.24v.96h-.24v.72h-.24v.72h-.24v.72h-.24v.72H54v.72h-.24v.72h-.24v.96h-.24v.72h-.24v.72h-.24v.96h-.24v.72h-.24v.72h-.24v.96h-.24v.96h-.24v.72h-.24v.96h-.24v.96h-.24v.72h-.24v.96h-.24v.96h-.24v.96h-.24v.96h-.24v.96h-.24v.96h-.24v.96h-.24v1.2h-.24v.96h-.24v1.2h-.24v.96H48v1.2h-.24v1.2h-.24v1.2h-.24v1.2h-.24v1.2h-.24v1.2h-.24v1.2h-.24v1.44h-.24v1.44h-.24v1.44h-.24v1.44h-.24v1.68h-.24v1.68h-.24v1.68h-.24v1.68h-.24v1.92h-.24v2.16h-.24v2.16h-.24v2.4h-.24v2.64h-.24v2.88h-.24v3.6h-.24v4.8h-.24v21.6h.24v4.8h.24v3.6h.24v2.88h.24v2.64h.24v2.4h.24v2.16h.24V438h.24v1.92h.24v1.68h.24v1.68h.24v1.68h.24v1.68h.24v1.44h.24v1.44h.24v1.44h.24v1.44h.24v1.2h.24v1.2h.24v1.2h.24v1.2h.24v1.2h.24v1.2H48v1.2h.24v.96h.24v1.2h.24v.96h.24v1.2h.24v.96h.24v.96h.24v.96h.24v.96h.24v.96h.24v.96h.24v.96h.24v.72h.24v.96h.24v.96h.24v.72h.24v.96h.24v.96h.24v.72h.24v.72h.24v.96h.24v.72h.24v.72h.24v.96h.24v.72H54v.72h.24v.72h.24v.72h.24v.72h.24v.72h.24v.96h.24v.72h.24v.72h.24v.72h.24v.48h.24v.72h.24v.72h.24v.72h.24v.72h.24v.72h.24v.48h.24v.72h.24v.72h.24v.48h.24v.72h.24v.72h.24v.48h.24v.72h.24v.72h.24v.48H60v.72h.24v.48h.24v.72h.24v.48h.24v.72h.24v.48h.24v.48h.24v.72h.24v.48h.24v.72h.24v.48h.24v.48h.24v.72h.24v.48h.24v.48h.24v.72h.24v.48h.24v.48h.24v.48h.24v.72h.24v.48h.24v.48h.24v.48h.24v.48h.24v.72H66v.48h.24v.48h.24v.48h.24v.48h.24v.48h.24v.48h.24v.72h.24v.48h.24v.48h.24v.48h.24v.48h.24v.48h.24v.48h.24v.48h.24v.48h.24v.48h.24v.48h.24v.48h.24v.48h.24v.48h.24v.24h.24v.48h.24v.48h.24v.48h.24v.48H72v.48h.24v.48h.24v.48h.24v.48h.24v.48h.24v.24h.24v.48h.24v.48h.24v.48h.24v.24h.24v.48h.24v.48h.24v.48h.24v.48h.24v.24h.24v.48h.24v.48h.24v.48h.24v.24h.24v.48h.24v.48h.24v.48h.24v.24h.24v.48h.24v.48H78v.24h.24v.48h.24v.48h.24v.24h.24v.48h.24v.48h.24v.24h.24v.48h.24v.48h.24v.24h.24v.48h.24v.24h.24v.48h.24v.48h.24v.24h.24v.48h.24v.24h.24v.48h.24v.48h.24v.24h.24v.48h.24v.24h.24v.48h.24v.24h.24v.48H84v.24h.24v.48h.24v.24h.24v.48h.24v.24h.24v.48h.24v.24h.24v.48h.24v.24h.24v.48h.24v.24h.24v.48h.24v.24h.24v.48h.24v.24h.24v.24h.24v.48h.24v.24h.24v.48h.24v.24h.24v.48h.24v.24h.24v.48h.24v.24h.24v.24H90v.48h.24v.24h.24v.24h.24v.48h.24v.24h.24v.48h.24v.24h.24v.24h.24v.48h.24v.24h.24v.24h.24v.48h.24v.24h.24v.24h.24v.48h.24v.24h.24v.24h.24v.48h.24v.24h.24v.24h.24v.48h.24v.24h.24v.24h.24v.48h.24v.24H96v.24h.24v.24h.24v.48h.24v.24h.24v.24h.24v.48h.24v.24h.24v.24h.24v.24h.24v.24h.24v.48h.24v.24h.24v.24h.24v.24h.24v.48h.24v.24h.24v.24h.24v.24h.24v.48h.24v.24h.24v.24h.24v.24h.24v.24h.24v.48h.24v.24h.24v.24h.24v.24h.24v.24h.24v.48h.24v.24h.24v.24h.24v.24h.24v.24h.24v.24h.24v.48h.24v.24h.24v.24h.24v.24h.24v.24h.24v.24h.24v.24h.24v.48h.24v.24h.24v.24h.24v.24h.24v.24h.24v.24h.24v.24h.24v.24h.24v.48h.24v.24h.24v.24h.24v.24h.24v.24h.24v.24h.24v.24h.24v.24h.24v.24h.24v.24h.24v.48h.24v.24h.24v.24h.24v.24h.24v.24h.24v.24h.24v.24h.24v.24h.24v.24h.24v.24h.24v.24h.24v.24h.24v.24h.24v.24h.24v.24h.24v.24h.24v.24h.24v.24h.24v.24h.24v.24h.24v.48h.24v.24h.24v.24h.24v.24h.24v.24h.24v.24h.24v.24h.24v.24h.24v.24h.24v.24h.24v.24h.24v.24h.24v.24h.24v.24h.24v.24h.24v.24h.24v.24h.24v.24h.48v.24h.24v.24h.24v.24h.24v.24h.24v.24h.24v.24h.24v.24h.24v.24h.24v.24h.24v.24h.24v.24h.24v.24h.24v.24h.24v.24h.24v.24h.24v.24h.24v.24h.24v.24h.24v.24h.24v.24h.48v.24h.24v.24h.24v.24h.24v.24h.24v.24h.24v.24h.24v.24h.24v.24h.24v.24h.24v.24h.48v.24h.24v.24h.24v.24h.24v.24h.24v.24h.24v.24h.24v.24h.24v.24h.48v.24h.24v.24h.24v.24h.24v.24h.24v.24h.24v.24h.24v.24h.48v.24h.24v.24h.24v.24h.24v.24h.24v.24h.24v.24h.48v.24h.24v.24h.24v.24h.24v.24h.24v.24h.48v.24h.24v.24h.24v.24h.24v.24h.24v.24h.48v.24h.24v.24h.24v.24h.24v.24h.48v.24h.24v.24h.24v.24h.24v.24h.48v.24h.24v.24h.24v.24h.24v.24h.24v.24h.48v.24h.24v.24h.24v.24h.48v.24h.24v.24h.24v.24h.24v.24h.48v.24h.24v.24h.24v.24h.48v.24h.24v.24h.24v.24h.48v.24h.24v.24h.24v.24h.48v.24h.24v.24h.24v.24h.48v.24h.24v.24h.24v.24h.48v.24h.24v.24h.24v.24h.48v.24h.24v.24h.48v.24h.24v.24h.24v.24h.48v.24h.24v.24h.24v.24h.48v.24h.24v.24h.48v.24h.24v.24h.48v.24h.24v.24h.48v.24h.24v.24h.24v.24h.48v.24h.24v.24h.48v.24h.24v.24h.48v.24h.24v.24h.48v.24h.24v.24h.48v.24h.24v.24h.48v.24h.24v.24h.48v.24h.24v.24h.48v.24h.24v.24h.48v.24h.24v.24h.48v.24h.24v.24h.48v.24h.48v.24h.24v.24h.48v.24h.24v.24h.48v.24h.48v.24h.24v.24h.48v.24h.24v.24h.48v.24h.48v.24h.24v.24h.48v.24h.48v.24h.24v.24h.48v.24h.48v.24h.24v.24h.48v.24h.48v.24h.24v.24h.48v.24h.48v.24h.48v.24h.24v.24h.48v.24h.48v.24h.48v.24h.24v.24h.48v.24h.48v.24h.48v.24h.48v.24h.24v.24h.48v.24h.48v.24h.48v.24h.24v.24h.48v.24h.48v.24h.48v.24h.48v.24h.48v.24h.48v.24h.48v.24h.48v.24h.48v.24h.24v.24h.48v.24h.48v.24h.48v.24h.48v.24h.48v.24h.48v.24h.48v.24h.48v.24h.48v.24h.48v.24h.48v.24h.48v.24h.48v.24h.72v.24h.48v.24h.48v.24h.48v.24h.48v.24h.48v.24h.48v.24h.72v.24h.48v.24h.48v.24h.48v.24h.48v.24h.72v.24h.48v.24h.48v.24h.48v.24h.72v.24h.48v.24h.48v.24h.72v.24h.48v.24h.48v.24h.72v.24h.48v.24h.72v.24h.48v.24h.48v.24h.72v.24h.48v.24h.72v.24h.48v.24h.72v.24h.48v.24h.72v.24h.72v.24h.48v.24h.72v.24h.72v.24h.48v.24h.72v.24h.72v.24h.48v.24h.72v.24h.72v.24h.72v.24h.72v.24h.72v.24h.48v.24h.72v.24h.72v.24h.72v.24h.96v.24h.72v.24h.72v.24h.72v.24h.72v.24h.72v.24h.72v.24h.96v.24h.72v.24h.72v.24h.96v.24h.72v.24h.72v.24h.96v.24h.96v.24h.72v.24h.96v.24h.96v.24h.72v.24h.96v.24h.96v.24h.96v.24h.96v.24h.96v.24h.96v.24h.96v.24h1.2v.24h.96v.24h1.2v.24h.96v.24h1.2v.24h1.2v.24h1.2v.24h1.2v.24h1.2v.24h1.2v.24h1.2v.24h1.44v.24h1.44v.24h1.44v.24h1.44v.24h1.68v.24h1.68v.24h1.68v.24h1.68v.24h1.92v.24h2.16v.24h2.16v.24h2.4v.24h2.64v.24h2.88v.24h3.6v.24h4.8v.24h21.6v-.24h4.8v-.24h3.6v-.24h2.88v-.24h2.64v-.24h2.4v-.24h2.16V660h2.16v-.24h1.92v-.24h1.68v-.24h1.68v-.24H336v-.24h1.68v-.24h1.44v-.24h1.44v-.24H342v-.24h1.44v-.24h1.2v-.24h1.2v-.24h1.2v-.24h1.2v-.24h1.2v-.24h1.2v-.24h1.2v-.24h.96v-.24h1.2v-.24h.96v-.24h1.2v-.24h.96v-.24h.96v-.24h.96v-.24h.96V654h.96v-.24h.96v-.24h.96v-.24h.72v-.24h.96v-.24h.96v-.24h.72v-.24h.96v-.24h.96v-.24h.72v-.24h.72v-.24h.96v-.24h.72v-.24h.72v-.24h.96v-.24h.72v-.24h.72v-.24h.72v-.24h.72v-.24h.72v-.24h.72v-.24h.96v-.24h.72v-.24h.72v-.24h.72V648h.48v-.24h.72v-.24h.72v-.24h.72v-.24h.72v-.24h.72v-.24h.48v-.24h.72v-.24h.72v-.24h.48v-.24h.72v-.24h.72v-.24h.48v-.24h.72v-.24h.72v-.24h.48v-.24h.72v-.24h.48v-.24h.72v-.24h.48v-.24h.72v-.24h.48v-.24h.48v-.24h.72v-.24h.48V642h.72v-.24h.48v-.24h.48v-.24h.72v-.24h.48v-.24h.48v-.24h.72v-.24h.48v-.24h.48v-.24h.48v-.24h.72v-.24h.48v-.24h.48v-.24h.48v-.24h.48v-.24h.72v-.24h.48v-.24h.48v-.24h.48v-.24h.48v-.24h.48v-.24h.48v-.24h.72v-.24h.48v-.24h.48V636h.48v-.24h.48v-.24h.48v-.24h.48v-.24h.48v-.24h.48v-.24h.48v-.24h.48v-.24h.48v-.24h.48v-.24h.48v-.24h.24v-.24h.48v-.24h.48v-.24h.48v-.24h.48v-.24h.48v-.24h.48v-.24h.48v-.24h.48v-.24h.24v-.24h.48v-.24h.48v-.24h.48v-.24h.48V630h.24v-.24h.48v-.24h.48v-.24h.48v-.24h.48v-.24h.24v-.24h.48v-.24h.48v-.24h.48v-.24h.24v-.24h.48v-.24h.48v-.24h.48v-.24h.24v-.24h.48v-.24h.48v-.24h.24v-.24h.48v-.24h.48v-.24h.24v-.24h.48v-.24h.48v-.24h.24v-.24h.48v-.24h.48V624h.24v-.24h.48v-.24h.24v-.24h.48v-.24h.48v-.24h.24v-.24h.48v-.24h.24v-.24h.48v-.24h.48v-.24h.24v-.24h.48v-.24h.24v-.24h.48v-.24h.24v-.24h.48v-.24h.24v-.24h.48v-.24h.24v-.24h.48v-.24h.24v-.24h.48v-.24h.24v-.24h.48v-.24h.24V618h.48v-.24h.24v-.24h.48v-.24h.24v-.24h.48v-.24h.24v-.24h.24v-.24h.48v-.24h.24v-.24h.48v-.24h.24v-.24h.48v-.24h.24v-.24h.48v-.24h.24v-.24h.24v-.24h.48v-.24h.24v-.24h.24v-.24h.48v-.24h.24v-.24h.48v-.24h.24v-.24h.24v-.24h.48V612h.24v-.24h.24v-.24h.48v-.24h.24v-.24h.24v-.24h.48v-.24h.24v-.24h.24v-.24h.48v-.24h.24v-.24h.24v-.24h.48v-.24h.24v-.24h.24v-.24h.48v-.24h.24v-.24h.24v-.24h.24v-.24h.48v-.24h.24v-.24h.24v-.24h.48v-.24h.24v-.24h.24v-.24h.24V606h.24v-.24h.48v-.24h.24v-.24h.24v-.24h.24v-.24h.48v-.24h.24v-.24h.24v-.24h.24v-.24h.48v-.24h.24v-.24h.24v-.24h.24v-.24h.24v-.24h.48v-.24h.24v-.24h.24v-.24h.24v-.24h.24v-.24h.48v-.24h.24v-.24h.24v-.24h.24v-.24h.24v-.24h.24V600h.48v-.24h.24v-.24h.24v-.24h.24v-.24h.24v-.24h.24v-.24h.24v-.24h.48v-.24h.24v-.24h.24v-.24h.24v-.24h.24v-.24h.24v-.24h.24v-.24h.24v-.24h.48v-.24h.24v-.24h.24v-.24h.24v-.24h.24v-.24h.24v-.24h.24v-.24h.24v-.24h.24v-.24h.24V594h.48v-.24h.24v-.24h.24v-.24h.24v-.24h.24v-.24h.24v-.24h.24v-.24h.24v-.24h.24v-.24h.24v-.24h.24v-.24h.24v-.24h.24v-.24h.24v-.24h.24v-.24h.24v-.24h.24v-.24h.24v-.24h.24v-.24h.24v-.24h.48v-.24h.24v-.24h.24v-.24h.24v-.24h.24V588h.24v-.24h.24v-.24h.24v-.24h.24v-.24h.24v-.24h.24v-.24h.24v-.24h.24v-.24h.24v-.24h.24v-.24h.24v-.24h.24v-.24h.24v-.48h.24v-.24h.24v-.24h.24v-.24h.24v-.24h.24v-.24h.24v-.24h.24v-.24h.24v-.24h.24v-.24h.24v-.24h.24V582h.24v-.24h.24v-.24h.24v-.24h.24v-.24h.24v-.24h.24v-.24h.24v-.24h.24v-.24h.24v-.48h.24v-.24h.24v-.24h.24v-.24h.24v-.24h.24v-.24h.24v-.24h.24v-.24h.24v-.24h.24v-.24h.24v-.48h.24v-.24h.24v-.24h.24v-.24h.24V576h.24v-.24h.24v-.24h.24v-.24h.24v-.48h.24v-.24h.24v-.24h.24v-.24h.24v-.24h.24v-.24h.24v-.24h.24v-.48h.24v-.24h.24v-.24h.24v-.24h.24v-.24h.24v-.24h.24v-.48h.24v-.24h.24v-.24h.24v-.24h.24v-.24h.24v-.48h.24v-.24h.24v-.24h.24v-.24h.24v-.24h.24v-.48h.24v-.24h.24v-.24h.24v-.24h.24v-.48h.24v-.24h.24v-.24h.24v-.24h.24v-.48h.24v-.24h.24v-.24h.24v-.24h.24v-.24h.24v-.48h.24v-.24h.24V564h.24v-.48h.24v-.24h.24v-.24h.24v-.24h.24v-.48h.24v-.24h.24v-.24h.24v-.48h.24v-.24h.24v-.24h.24v-.48h.24v-.24h.24v-.24h.24v-.48h.24v-.24h.24v-.24h.24v-.48h.24v-.24h.24V558h.24v-.48h.24v-.24h.24v-.24h.24v-.48h.24v-.24h.24v-.48h.24v-.24h.24v-.24h.24v-.48h.24v-.24h.24v-.24h.24v-.48h.24v-.24h.24v-.48h.24v-.24h.24v-.48h.24v-.24h.24v-.48h.24v-.24h.24v-.24h.24v-.48h.24v-.24h.24v-.48h.24v-.24h.24v-.48h.24v-.24h.24v-.48h.24v-.24h.24v-.48h.24v-.24h.24v-.48h.24v-.24h.24v-.48h.24v-.24h.24v-.48h.24v-.24h.24v-.48h.24v-.24h.24v-.48h.24v-.24h.24v-.48h.24v-.48h.24v-.24h.24v-.48h.24v-.24h.24v-.48h.24v-.48h.24v-.24h.24v-.48h.24v-.24h.24v-.48h.24v-.48h.24v-.24h.24v-.48h.24v-.48h.24v-.24h.24v-.48h.24v-.48h.24v-.24h.24v-.48h.24v-.48h.24v-.24h.24v-.48h.24v-.48h.24V534h.24v-.24h.24v-.48h.24v-.48h.24v-.48h.24v-.24h.24v-.48h.24v-.48h.24v-.48h.24v-.48h.24v-.24h.24v-.48h.24v-.48h.24v-.48h.24V528h.24v-.24h.24v-.48h.24v-.48h.24v-.48h.24v-.48h.24v-.48h.24v-.48h.24v-.48h.24v-.48h.24v-.24h.24v-.48h.24v-.48h.24v-.48h.24v-.48h.24v-.48h.24v-.48h.24v-.48h.24v-.48h.24v-.48h.24v-.48h.24v-.48h.24v-.48h.24v-.48h.24v-.72h.24v-.48h.24v-.48h.24v-.48h.24v-.48h.24v-.48h.24v-.48h.24v-.72h.24v-.48h.24v-.48h.24v-.48h.24v-.48h.24v-.72h.24V510h.24v-.48h.24v-.48h.24v-.72h.24v-.48h.24v-.48h.24v-.72h.24v-.48h.24v-.48h.24v-.72h.24v-.48h.24v-.72h.24v-.48h.24v-.48h.24v-.72h.24v-.48h.24v-.72h.24v-.48h.24v-.72h.24v-.48h.24v-.72h.24v-.72h.24v-.48h.24v-.72h.24v-.72h.24v-.48h.24v-.72h.24v-.72h.24v-.48h.24v-.72h.24V492h.24v-.72h.24v-.72h.24v-.72h.24v-.48h.24v-.72h.24v-.72h.24v-.72h.24v-.96h.24v-.72h.24v-.72h.24v-.72h.24v-.72h.24v-.72h.24v-.72h.24v-.96h.24v-.72h.24v-.72h.24v-.96h.24v-.72h.24v-.72h.24v-.96h.24v-.96h.24v-.72h.24v-.96h.24v-.96h.24v-.72h.24v-.96h.24v-.96h.24v-.96h.24V468h.24v-.96h.24v-.96h.24v-.96h.24v-1.2h.24v-.96h.24v-1.2h.24v-.96h.24v-1.2h.24v-1.2h.24v-1.2h.24V456h.24v-1.2h.24v-1.2h.24v-1.2h.24v-1.44h.24v-1.44h.24v-1.44h.24v-1.44h.24v-1.68h.24v-1.68h.24v-1.68h.24v-1.68h.24V438h.24v-2.16h.24v-2.16h.24v-2.4h.24v-2.64h.24v-2.88h.24v-3.6h.24v-4.8h.24v-21.6h-.24v-4.8h-.24v-3.6H552v-2.88h-.24v-2.64h-.24v-2.4h-.24v-2.16h-.24v-2.16h-.24v-1.92h-.24v-1.68h-.24v-1.68h-.24v-1.68h-.24v-1.68h-.24v-1.44h-.24v-1.44h-.24v-1.44h-.24v-1.44h-.24v-1.2h-.24v-1.2h-.24v-1.2h-.24v-1.2h-.24v-1.2h-.24v-1.2h-.24v-1.2h-.24v-.96h-.24v-1.2h-.24v-.96h-.24V348H546v-.96h-.24v-.96h-.24v-.96h-.24v-.96h-.24v-.96h-.24v-.96h-.24v-.96h-.24v-.72h-.24v-.96h-.24v-.96h-.24v-.72h-.24v-.96h-.24V336h-.24v-.72h-.24v-.72h-.24v-.96h-.24v-.72h-.24v-.72h-.24v-.96h-.24v-.72h-.24v-.72h-.24v-.72h-.24v-.72h-.24v-.72h-.24v-.72H540v-.96h-.24v-.72h-.24v-.72h-.24v-.72h-.24v-.48h-.24v-.72h-.24v-.72h-.24v-.72h-.24v-.72h-.24v-.72h-.24v-.48h-.24v-.72h-.24v-.72h-.24v-.48h-.24v-.72h-.24v-.72h-.24v-.48h-.24v-.72h-.24v-.72h-.24v-.48h-.24v-.72h-.24v-.48h-.24v-.72h-.24v-.48h-.24v-.72H534v-.48h-.24v-.48h-.24v-.72h-.24v-.48h-.24v-.72h-.24v-.48h-.24v-.48h-.24v-.72h-.24v-.48h-.24v-.48h-.24v-.72h-.24v-.48h-.24v-.48h-.24v-.48h-.24v-.72h-.24v-.48h-.24v-.48h-.24v-.48h-.24V300h-.24v-.72h-.24v-.48h-.24v-.48h-.24v-.48h-.24v-.48h-.24v-.48H528v-.48h-.24v-.72h-.24v-.48h-.24v-.48h-.24v-.48h-.24v-.48h-.24v-.48h-.24v-.48h-.24v-.48h-.24v-.48h-.24v-.48h-.24v-.48h-.24v-.48h-.24v-.48h-.24v-.48h-.24v-.24h-.24v-.48h-.24v-.48h-.24v-.48h-.24v-.48h-.24v-.48h-.24v-.48h-.24v-.48h-.24v-.48h-.24v-.24H522v-.48h-.24v-.48h-.24v-.48h-.24v-.48h-.24v-.24h-.24v-.48h-.24V282h-.24v-.48h-.24v-.48h-.24v-.24h-.24v-.48h-.24v-.48h-.24v-.48h-.24v-.24h-.24v-.48h-.24v-.48h-.24v-.48h-.24v-.24h-.24v-.48h-.24v-.48h-.24v-.24h-.24v-.48h-.24v-.48h-.24v-.24h-.24v-.48H516v-.48h-.24v-.24h-.24v-.48h-.24v-.48h-.24v-.24h-.24v-.48h-.24v-.24h-.24v-.48h-.24v-.48h-.24v-.24h-.24v-.48h-.24V270h-.24v-.48h-.24v-.48h-.24v-.24h-.24v-.48h-.24v-.24h-.24v-.48h-.24v-.24h-.24v-.48h-.24v-.24h-.24v-.48h-.24v-.24h-.24v-.48h-.24v-.24H510v-.48h-.24v-.24h-.24V264h-.24v-.24h-.24v-.48h-.24v-.24h-.24v-.48h-.24v-.24h-.24v-.48h-.24v-.24h-.24v-.24h-.24v-.48h-.24v-.24h-.24v-.48h-.24v-.24h-.24v-.48h-.24v-.24h-.24v-.48h-.24v-.24h-.24v-.24h-.24v-.48h-.24v-.24h-.24v-.24h-.24v-.48h-.24v-.24H504v-.48h-.24v-.24h-.24v-.24h-.24v-.48h-.24v-.24h-.24v-.24h-.24v-.48h-.24v-.24h-.24v-.24h-.24v-.48h-.24v-.24h-.24v-.24h-.24v-.48h-.24V252h-.24v-.24h-.24v-.48h-.24v-.24h-.24v-.24h-.24v-.48h-.24v-.24h-.24v-.24h-.24v-.24h-.24v-.48h-.24v-.24h-.24v-.24H498v-.48h-.24v-.24h-.24v-.24h-.24v-.24h-.24v-.24h-.24v-.48h-.24v-.24h-.24v-.24h-.24V246h-.24v-.48h-.24v-.24h-.24v-.24h-.24v-.24h-.24v-.48h-.24v-.24h-.24v-.24h-.24v-.24h-.24v-.24h-.24v-.48h-.24v-.24h-.24v-.24h-.24v-.24h-.24v-.24h-.24v-.48h-.24v-.24H492v-.24h-.24v-.24h-.24v-.24h-.24v-.24h-.24v-.48h-.24v-.24h-.24v-.24h-.24v-.24h-.24v-.24h-.24v-.24h-.24v-.24h-.24v-.48h-.24v-.24h-.24v-.24h-.24v-.24h-.24v-.24h-.24v-.24h-.24v-.24h-.24v-.24h-.24v-.48h-.24v-.24h-.24v-.24h-.24v-.24h-.24v-.24h-.24v-.24H486v-.24h-.24V234h-.24v-.24h-.24v-.24h-.24v-.48h-.24v-.24h-.24v-.24h-.24v-.24h-.24v-.24h-.24v-.24h-.24v-.24h-.24v-.24h-.24v-.24h-.24v-.24h-.24v-.24h-.24v-.24h-.24v-.24h-.24v-.24h-.24v-.24h-.24v-.24h-.24v-.24h-.24v-.24h-.24v-.24h-.24v-.24h-.24V228H480v-.24h-.24v-.24h-.24v-.24h-.24v-.24h-.24v-.24h-.24v-.24h-.24v-.24h-.24v-.24h-.24v-.24h-.24v-.24h-.24v-.24h-.24v-.24h-.24v-.24h-.24v-.24h-.24v-.24h-.24v-.24h-.24v-.24h-.48v-.24h-.24v-.24h-.24v-.24h-.24v-.24h-.24v-.24h-.24v-.24h-.24v-.24H474V222h-.24v-.24h-.24v-.24h-.24v-.24h-.24v-.24h-.24v-.24h-.24v-.24h-.24v-.24h-.24v-.24h-.24v-.24h-.24v-.24h-.24v-.24h-.24v-.24h-.48v-.24h-.24v-.24h-.24v-.24h-.24v-.24h-.24v-.24h-.24v-.24h-.24v-.24h-.24v-.24h-.24v-.24h-.24v-.24H468v-.24h-.24v-.24h-.24V216h-.24v-.24h-.24v-.24h-.24v-.24h-.24v-.24h-.24v-.24h-.48v-.24h-.24v-.24h-.24v-.24h-.24v-.24h-.24v-.24h-.24v-.24h-.24v-.24h-.48v-.24h-.24v-.24h-.24v-.24h-.24v-.24h-.24v-.24h-.24v-.24h-.48v-.24H462v-.24h-.24v-.24h-.24v-.24h-.24v-.24h-.48v-.24h-.24V210h-.24v-.24h-.24v-.24h-.24v-.24h-.48v-.24h-.24v-.24h-.24v-.24h-.24v-.24h-.48v-.24h-.24v-.24h-.24v-.24h-.24v-.24h-.48v-.24h-.24v-.24h-.24v-.24h-.24v-.24H456v-.24h-.48v-.24h-.24v-.24h-.24v-.24h-.48v-.24h-.24v-.24h-.24v-.24h-.24v-.24h-.48v-.24h-.24V204h-.24v-.24h-.48v-.24h-.24v-.24h-.24v-.24h-.48v-.24h-.24v-.24h-.24v-.24h-.48v-.24h-.24v-.24H450v-.24h-.48v-.24h-.24v-.24h-.24v-.24h-.48v-.24h-.24v-.24h-.24v-.24h-.48v-.24h-.24v-.24h-.48v-.24h-.24v-.24h-.24v-.24h-.48v-.24h-.24v-.24h-.24v-.24h-.48V198h-.24v-.24h-.48v-.24H444v-.24h-.48v-.24h-.24v-.24h-.48v-.24h-.24v-.24h-.24v-.24h-.48v-.24h-.24v-.24h-.48v-.24h-.24v-.24h-.48v-.24h-.24v-.24h-.48v-.24h-.24v-.24h-.48v-.24h-.24v-.24h-.48v-.24H438v-.24h-.48v-.24h-.24v-.24h-.48v-.24h-.24v-.24h-.48V192h-.24v-.24h-.48v-.24h-.24v-.24h-.48v-.24h-.48v-.24h-.24v-.24h-.48v-.24h-.24v-.24h-.48v-.24h-.48v-.24H432v-.24h-.48v-.24h-.24v-.24h-.48v-.24h-.48v-.24h-.24v-.24h-.48v-.24h-.48v-.24h-.24v-.24h-.48v-.24h-.48v-.24h-.24v-.24h-.48v-.24h-.48v-.24h-.24V186H426v-.24h-.48v-.24h-.48v-.24h-.24v-.24h-.48v-.24h-.48v-.24h-.48v-.24h-.24v-.24h-.48v-.24h-.48v-.24h-.48v-.24h-.48v-.24h-.24v-.24h-.48v-.24H420v-.24h-.48v-.24h-.24v-.24h-.48v-.24h-.48v-.24h-.48v-.24h-.48v-.24h-.48v-.24h-.48v-.24h-.48v-.24h-.48V180h-.48v-.24h-.24v-.24h-.48v-.24h-.48v-.24h-.48v-.24h-.48v-.24h-.48v-.24h-.48v-.24h-.48v-.24h-.48v-.24h-.48v-.24h-.48v-.24h-.48v-.24h-.48v-.24h-.48v-.24h-.72v-.24h-.48v-.24h-.48v-.24h-.48v-.24h-.48v-.24h-.48v-.24h-.48v-.24h-.72v-.24h-.48v-.24h-.48V174h-.48v-.24h-.48v-.24h-.72v-.24h-.48v-.24h-.48v-.24h-.48v-.24h-.72v-.24h-.48v-.24h-.48v-.24h-.72v-.24h-.48v-.24h-.48v-.24H396v-.24h-.48v-.24h-.72v-.24h-.48v-.24h-.48v-.24h-.72v-.24h-.48v-.24h-.72v-.24h-.48v-.24h-.72v-.24h-.48v-.24h-.72v-.24h-.72V168h-.48v-.24h-.72v-.24h-.72v-.24h-.48v-.24h-.72v-.24h-.72v-.24h-.48v-.24h-.72v-.24h-.72v-.24h-.72v-.24h-.72v-.24h-.72v-.24h-.48v-.24h-.72v-.24h-.72v-.24h-.72v-.24h-.96v-.24h-.72v-.24h-.72v-.24h-.72v-.24h-.72v-.24h-.72v-.24h-.72v-.24H372v-.24h-.72V162h-.72v-.24h-.96v-.24h-.72v-.24h-.72v-.24h-.96v-.24h-.96v-.24h-.72v-.24h-.96v-.24h-.96v-.24h-.72v-.24h-.96v-.24h-.96v-.24H360v-.24h-.96v-.24h-.96v-.24h-.96v-.24h-.96v-.24h-1.2v-.24H354v-.24h-1.2v-.24h-.96v-.24h-1.2v-.24h-1.2v-.24h-1.2v-.24h-1.2V156h-1.2v-.24h-1.2v-.24h-1.2v-.24H342v-.24h-1.44v-.24h-1.44v-.24h-1.44v-.24H336v-.24h-1.68v-.24h-1.68v-.24h-1.68v-.24h-1.92v-.24h-2.16v-.24h-2.16v-.24h-2.4v-.24h-2.64v-.24h-2.88v-.24h-3.6v-.24h-4.8v-.24h-21.6m48 25.44h11.04v.24h5.28v.24h1.92v.24h1.68v.24h1.44v.24h1.68v.24h1.68v.24h2.4v.24h2.16v.24h2.16v.24h1.92v.24h1.44v.24h1.68v.24h1.2v.24h1.2v.24h1.2v.24h1.2v.24h.96v.24h.96v.24h.96v.24h1.2v.24h.72v.24h.96v.24h.72v.24h.72v.24h.48v.24h.72v.24h.72v.24h.48v.24h.72v.24h.72v.24h.48v.24h.72v.24h.48v.24h.48v.24h.72v.24h.48v.24h.48v.24h.48v.24h.48v.24h.48v.24h.48v.24h.72v.24h.48v.24h.48v.24h.48v.24h.48v.24h.72v.24h.48v.24h.48v.24h.24v.24h.48v.24h.48v.24h.24v.24h.48v.24h.48v.24h.48v.24h.24v.24h.48v.24h.48v.24h.48v.24h.24v.24h.72v.24h.24v.24h.48v.24h.48v.24h.48v.24h.48v.24h.48v.24h.48v.24h.48v.24h.24v.24h.48v.24h.48v.24h.48v.24h.24v.24h.24v.24h.48v.24h.48v.24h.24v.24h.48v.24h.24v.24h.24v.24h.48v.24h.24v.24h.24v.24h.48v.24h.24v.24h.24v.24h.48v.24h.24v.24h.24v.24h.48v.24h.24v.24h.24v.24h.24v.24h.24v.24h.48v.24h.24v.24h.24v.24h.48v.24h.24v.48h.48v.24h.24v.24h.24v.24h.24v.24h.24v.24h.24v.24h.24v.48h.24v.24h.24v.24h.24v.24h.24v.24h.48v.24h.24v.24h.24v.24h.24v.24h.24v.24h.24v.24h.48v.24h.24v.24h.24v.24h.24v.24h.24v.24h.24v.24h.24v.24h.24v.24h.24v.24h.24v.24h.24v.24h.24v.24h.24v.24h.24v.24h.24v.24h.24v.24h.24v.24h.24v.24h.24v.24h.24v.24h.24v.24h.24v.48h.24v.24h.24v.24h.48v.48h.24v.24h.48v.24h.24v.48h.24v.24h.48v.24h.24v.48h.24v.24h.24v.24h.24v.24h.24v.24h.48v.24h.24v.24h.24v.24h.24v.24h.24v.24h.24v.24h.24v.24h.24v.24h.24v.24h.24v.24h.48v.24h.24v.24h.24v.24h.24v.24h.48v.24h.24v.24h.24v.24h.24v.24h.24v.24h.24v.24h.24v.24h.24v.24h.24v.24h.48v.24h.24v.24h.24v.24h.24v.24h.24v.24h.24v.24h.24v.24h.24v.24h.24v.24h.24v.24h.24v.24h.24v.24h.24v.24h.24v.24h.24v.24h.24v.24h.24v.24h.24v.24h.24v.24h.24v.24h.24v.24h.24v.24h.24v.24h.24v.24h.48v.24h.24v.24h.24v.24h.24v.24h.48v.24h.24v.24h.24v.24h.24v.24h.48v.24h.24v.24h.24v.24h.48v.24h.24v.24h.24v.24h.24v.24h.24v.24h.48v.24h.24v.24h.24v.24h.48v.24h.24v.24h.24v.24h.24v.24h.24v.24h.24v.24h.24v.24h.24v.24h.48v.24h.24v.24h.24v.24h.24v.24h.24v.24h.24v.24h.48v.24h.24v.24h.24v.24h.24v.24h.24v.24h.24v.24h.48v.24h.24v.24h.24v.48h.48v.24h.24v.24h.24v.24h.24v.24h.24v.24h.24v.24h.24v.24h.24v.24h.24v.24h.48v.24h.24v.24h.24v.24h.24v.24h.24v.24h.24v.24h.48v.24h.24v.24h.24v.24h.24v.24h.24v.24h.48v.24h.24v.24h.24v.24h.24v.24h.24v.24h.48v.24h.24v.24h.24v.24h.24v.24h.24v.24h.24v.24h.24v.24h.24v.24h.24v.24h.24v.24h.24v.24h.24v.24h.24v.24h.24v.24h.24v.24h.24v.24h.48v.24h.24v.24h.24v.24h.24v.24h.24v.24h.48v.24h.24v.24h.24v.24h.24v.24h.24v.24h.24v.24h.24v.24h.24v.24h.24v.24h.24v.24h.24v.24h.24v.24h.24v.24h.24v.24h.24v.24h.24v.24h.24v.24h.24v.24h.24v.24h.24v.24h.24v.24h.24v.24h.24v.24h.24v.24h.24v.24h.24v.24h.24v.24h.48v.24h.24v.24h.24v.24h.24v.48h.24v.24h.24v.24h.24v.24h.24v.24h.24v.24h.24v.24h.24v.24h.24v.48h.24v.24h.24v.48h.24v.24h.24v.24h.24v.24h.24v.48h.24v.24h.24v.24h.24v.24h.24v.48h.24v.24h.24v.24h.24v.48h.24v.24h.24v.24h.24v.24h.24v.24h.24v.24h.24v.48h.24v.24h.24v.24h.24v.24h.24v.24h.24v.48h.24v.24h.24v.24h.24v.24h.24v.48h.24v.24h.24v.24h.24v.48h.24v.24h.24v.24h.24v.48h.24v.24h.24v.24h.24v.24h.24v.48h.24v.24h.24v.24h.24v.24h.24v.48h.24v.24h.24v.24h.24v.48h.24v.24h.24v.48h.24v.48h.24v.24h.24v.24h.24v.48h.24v.72h.24v.48h.24v.48h.24v.96h.24v.72h.24v.72h.24v.48h.24v.72h.24v.72h.24v.72h.24v.48h-.72v.24h-.72v.24h-.48v.24h-.96v.24h-.72v.24h-.48v.24h-.72v.24h-.48v.24h-.48v.24h-.72v.24h-.48v.24h-.48v.24h-.48v.24h-.24v-.24h-.48v-.24h-.24v-.24h-.48v-.24h-.24v-.24h-.48v-.24h-.24v-.24h-.24V282h-.24v-.24h-.24v-.24h-.24v-.48h-.24v-.24h-.24v-.24h-.24v-.24H480v-.24h-.24v-.24h-.48v-.24h-.24v-.24h-.48v-.24h-.24v-.24h-.48v-.24h-.24v-.24h-.48v-.24h-.24v-.24h-.24v-.24h-.24v-.24h-.48v-.24h-.24v-.24h-.48v-.24h-.48v-.24h-.48v-.24h-.48V276h-.48v-.24h-.48v-.24h-.48v-.24h-.24v-.24h-.48v-.24h-1.44v.24h-.24v.96h-.24v1.92h.24v.96h.24v.48h.24v.72h.24v.48h.24v.24h.24v.48h.24v.24h.24v.48h.24v.24h.24v.24h.24v.24h.24v.24h.24v.24h.24v.24h.48v.24h.24v.24h.24v.24h.24v.24h.24v.24h.24v.24h.24v.24h.48v.24h.24v.24h.24v.24h.24v.48h.24v.24h.24v.24h.24v.24h.24v.24h.24v.48h.48v.48h-4.08v.24h-.96v-.24h-2.4V288H468v-.24h-1.92v-.24h-1.2v-.24h-1.68v-.24h-4.08v.24h-.24v.96h.24v.48h.24v.24h.24v.24h.48v.24h.48v.24h.24v.24h.48v.24h.48v.24h.48v.24h.72v.24h.72v.24h.72v.24h.48v.24h.72v.24h.72v.24h.96v.24h1.44v.24h.96v.24h.72v.24h.48v.24h.24v.24h.48v.24h.48v.24h.24v.24h.24v.48h-.48v.24h-.24v.24h-.24v.24h-.48v.24h-.24v.24h-.48v.24h-.24v.24h-.48v.24h-.48v.24h-.48v.24h-.96v.24h-1.44v.24h-3.6v.24h-2.4v.24h-1.44v.24h-1.2v.24h-.72v.24h-.48v.24h-.24v.24h-.48v.24h-.24v.24h-.24v.24h-.24v.48h-.24v2.16h.24v.48h.24v.24h.24v.24h.72v.24h.96v-.24h1.68v-.24h.96v-.24h.96v-.24h.96v-.24h.72v-.24h.96v-.24h.96v-.24h.72v-.24h.72v-.24h.96v-.24h.48v-.24h.48v-.24h.72v-.24h.48v-.24h.48V300h.48v-.24h.48v-.24h.72v-.24h.48v-.24h.48v-.24h.72v-.24h.48v-.24h.72v-.24h.24v.24h.24v.24h.24v.24h.24v.72h-.24v.72h-.24v.48h-.24v.96H474v.48h-.24v.72h-.24v.96h-.24v.96h-.24v.96h-.24v1.2h-.24v2.64h.24v.96h.24v.72h.24v.24h.24v.24h.24v.24h.96v-.24h.48v-.24h.24v-.48h.24v-.48h.24v-.24h.24v-.48h.24v-.48h.24v-.48h.24v-.48h.24v-.48h.24v-.48h.24v-.96h.24v-.72h.24v-.72h.24v-.72h.24v-.72h.24v-.48h.24v-.72h.24v-.48h.24v-.24h.24v-.72h.24v-.48h.24V300h.24v-.48h.24v-.72h.24v-.48h.24v-.24h.24v-.48h.24v-.48h.24v-.24h.24v-.48h.24v-.24h.24v-.48h.24v.72h-.24v1.2h-.24v1.68h-.24v6h.24v.72h.24v.24h.24v.24h1.2v-.24h.48V306h.24v-.24h.24v-.24h.24v-.24h.24v-.72h.24v-.72h.24v-.72h.24v-.72h.24v-.72h.24v-.48h.24v-.96h.24v-.96h.24v-1.2h.24v-2.16h.24v-2.16h.24v-1.68h.24v-.48h.24v-.72h.24v-.24h.24v-.24h.24v-.24h.24v-.24h.48v-.24h.24v-.24h.48v-.24h.48v-.24h.24v-.24h.48v-.24h.24v-.24h.24V288h.48v-.24h.24v-.24h.48v-.24h.24v-.24h.24v.24h.24v.96h.24v.72h.24v.96h.24v.72h.24v1.44h.24v.72h.24v.96h.24v.48h.24v.72h.24v.96h.24v.72h.24v.48h.24v.96h.24v.96h.24v.72h.24v.96h-.24v.24h-.24v.24h-.24v.48h-.24v.24h-.24v.24h-.24v.48h-.24v.24h-.24v.24h-.24v.24h-.24v.24h-.24v.48h-.24v.24h-.24v.24h-.24v.24h-.24v.24h-.24v.48h-.24v.24h-.48v.24h-1.2v.24h-2.16V306h-2.88v.24h-.96v.24h-.48v.24h-.72v.24h-.48v.24h-.72v.24h-.48v.24h-.24v.72h.24v.48h.72v.24h.48v.24h.72v.24h.72v.24h1.2v.24h.96v.24h.72v.24h.48v.24h-.48v.24h-.96v.24h-.48v.24h-.96v.24h-1.2v.24h-1.92v.24h-1.2v.24h-.96v.24H480v.24h-1.2v.24h-1.44v.24h-.96v.24h-.72v.24h-.72v.24H474v.24h-.72v.24h-.72v.24h-.48v.24h-.24v.24h-.48v.24h-.24v.24h-.24v.24h-.24v.24h-.24v1.2h.24v.24h.24v.24h.48v.24h1.44v.24h2.4v-.24h1.44V318h1.2v-.24H480v-.24h1.92v-.24h2.88v.24h-.24v.24h-.24v.24h-.48v.24h-.24v.24h-.48v.24h-.48v.24h-.72v.24h-.72v.24h-.96v.24h-1.2v.24h-1.44v.24h-2.16v.24h-1.68v.24h-1.2v.24h-.72v.24h-.72v.24h-1.2v.24h-.72v.24h-.48v.24h-.48v.24h-.48v.24h-.24v.24h-.48v.24h-.48v.24h-.48v.24h-.24v.24h-.24v.24h-.24v.96h.24v.48h.24v.24h.48v.24h2.4v-.24h1.44v-.24h.96v-.24h1.2v-.24h2.4v-.24h2.4v.48h-.24v.24h-.24v.24h-.24v.24h-.24v.24h-.48v.24h-.24v.24h-.24v.24h-.24v.24h-.24v.24h-.24v.24h-.24v.48H474v.24h-.24v.24h-.24v.24h-.48v.48h-.24v.24h-.24v.24h-.24v.48h-.24v.24h-.24v.48h-.24v.24h-.24v.48h-.24v.24h-.24v.48h-.24v.48h-.24v.24h-.24v.48h-.24v.48h-.24v.24h-.24v.48h-.24v.48h-.24v.24h-.24v.72h-.24v.24h-.24v.72H468v.48h-.24v.48h-.24v.72h-.24v.72h-.24v.72h-.24v.72h-.24v1.2H468V342h.48v-.24h.24v-.24h.24v-.24h.48v-.24h.24v-.24h.24v-.24h.24v-.48h.24v-.24h.24v-.24h.24v-.24h.24v-.24h.24v-.24h.24v-.24h.24v-.24h.24v-.24h.24v-.24h.24v-.24h.24v-.24h.24v-.24h.24v-.24h.24v-.48h.24v-.24h.24V336h.24v-.24h.24v-.24h.24v-.24h.24v-.24h.24v-.48h.24v-.24h.24v-.24h.24v-.24h.24v-.24h.24v-.24h.24v-.48h.24v-.24h.24v-.24h.24v-.24h.24v-.24h.24v-.24h.24v-.48h.24v-.48h.24v.72h-.24v.72h-.24v1.2h-.24v1.68h-.24v3.6h.24v1.2h.24v.72h.24v.72h.24v.72h.24v.24h.24v.24h.24v.24h1.2v-.24h.48v-.24h.48v-.48h.24v-.24h.24v-.48h.24v-.48h.24v-.48h.24v-.96h.24v-.72h.24v-.72h.24v-1.2h.24v-1.44h.24v-2.4h.24V330h.24v-5.28h.24v.48h.24v1.92h.24v1.44h.24v1.2h.24v.96h.24v.72h.24v.96h.24v.48h.24v.72h.24v.24h.24v.24h.24v.24h.24v.24h1.44v-.24h.48v-.24h.24v-.24h.24v-.24h.24v-.24h.24v-.48h.24v-.24h.24v-.24h.24v-.48h.24v-.96h.24v-12.24h.24v-2.88h.24v-.72h.24v-.48h.24v-.24h.24v-.24h.24v-.24h.24v-.72h.24v-.72h.24v-.24h.24v-.48h.24v-.48h.24v-.48h.48v-.48h.48v-.24h.24v-.24h.24v-.24h.48v-.24h.24v-.48h.48v-.24h.24v-.48h.24v-.24h.24v-.24h.24v-.24h.48v-.24h.24v-.24h.24v-.24h.24v-.24h.48v-.24h.24v.72h.24v.96h.24v1.2h.24v.96h.24v.96h.24v.96h.24v.96h.24v.72h.24v.48h.24v.96h.24v.48h.24v.72h.24v.48h.24v.96h.24v.72h.24v.48h.24v.96h.24v1.2h.24v.96h.24v1.44h.24v.96h.24v.72h.24v.72h.24v.96h.24v.72h.24v1.44h.24v.72h.24v1.44h.24v1.68h.24v.72h.24v1.2h.24v.72h.24v.72h.24v.72h.24v1.2h.24v.72h.24v.72h.24v1.44h.24v1.44h.24v.96h.24v1.2h.24v.96h.24v.72h.24v.96h.24v.48h.24v.48h.24v.48h.24v.48h.24v.72h.24v.48h.24v.48h.24v.24h.24v.48h.24v.48h.24v.24h.24v.48h.24v.24h.24v.24h.24v.48h.24v.24h.24v.24h.24v.24h.24v.48h.24v.24h.48v.48h.24v.24h.24v.24h.24v.24h.24v.24h.24v.24h.24v.48h.24v.24h.24v.24h.24v.24h.24v.48h.24v.24h.24v.24h.24v.48h.24v.24h.24v.48h.24v.24h.24v.24h.24v.48h.24v.48h.24v.48h.24v.24h.24v.48h.24v.48h.24v.24h.24v.48h.24v.24h.24v.48h.24v.24h.24v.48h.24v.48h.24v.48h.24v.24h.24v.48h.24v.24h.24v.48h.24v.48h.24v.48h.24v.24h.24v.72h.24v.48h.24v.24h.24v.48h.24v.48h.24v.48h.24v.48h.24v.48h.24v.48h.24v.72h.24v.96h.24v1.2h.24v.96h.24v1.68h.24v.96h.24v.96h.24v1.2h.24v.96h.24v.48h.24v.72h.24v1.2h.24v.72h.24v.96h.24v.72h.24v.72h.24v.48h.24v.72h.24v.24h.24v.48h.24v.72h.24v.24h.24v.72h.24v.48h.24v.48h.24v.48h.24v.96h.24v.48h.24v.72h.24v.72h.24v.48h.24v.96h.24v.96h.24v.48h.24v.96h.24v.72h.24v.96h.24v.96h.24v1.2h.24v1.2h.24v3.84h.24v2.16h.24v1.2h.24V414h.24v2.16h.24V420h-.24v4.32h-.24v1.92h-.24v4.8h.24v2.16h-.24v1.68h-.24v2.16h-.24v3.6h-.24v5.76h-.24v1.68h-.24v2.64h-.24v3.12h-.24v1.68h-.24v2.16h-.24v1.68h-.24v1.92h-.24v.96h-.24v1.2H534v.96h-.24v.96h-.24v.48h-.24v.72h-.24v.96h-.24v.48h-.24v.72h-.24v.96h-.24v1.44h-.24v.48h-.24v.72h-.24v.48h-.24v.24h-.24v.72h-.24v.24h-.24v.48h-.24v.48h-.24v.24h-.24v.48h-.24v.48h-.24v.48h-.24v.24h-.24v.48h-.24v.48h-.24v.24H528v.72h-.24v.24h-.24v.72h-.24v.72h-.24v.24h-.24v.48h-.24v.24h-.24v.24h-.24v.48h-.24v.24h-.24v.24h-.24v.48h-.24v.24h-.24v.24h-.24v.24h-.24v.48h-.24v.24h-.24v.48h-.24v.24h-.24v.48h-.24v.48h-.24v.24h-.24v.48h-.24v.48h-.24v.24H522v.72h-.24v.48h-.24v.72h-.24v.72h-.24v.72h-.24v.48h-.24v.48h-.24v.72h-.24v.24h-.24v.24h-.24v.48h-.24v.48h-.24v.48h-.24v.24h-.24v.48h-.24v.48h-.24v.24h-.24v.48h-.24v.48h-.24v.24h-.24v.48h-.24v.24h-.24v.48h-.24v.48h-.24v.48H516v.24h-.24v.48h-.24v.24h-.24v.48h-.24v.24h-.24v.48h-.24v.24h-.24v.24h-.24v.48h-.24v.24h-.24v.48h-.24v.24h-.24v.24h-.24v.48h-.24v.24h-.24v.48h-.24v.48h-.24v.48h-.24v.24h-.24v.48h-.24v.48h-.24v.24h-.24v.48h-.24v.48h-.24v.24H510v.48h-.24v.48h-.24v.48h-.24v.48h-.24v.48h-.24v.48h-.24v.48h-.24v.48h-.24v.48h-.24v.48h-.24v.48h-.24v.24h-.24v.24h-.24v.48h-.24v.24h-.24v.48h-.24v.24h-.24v.24h-.24v.48h-.24v.24h-.24v.24h-.24v.24h-.24v.24h-.24v.48h-.24v.24H504v.24h-.24v.24h-.24v.48h-.24v.24h-.24v.24h-.24v.48h-.24v.48h-.24v.24h-.24v.48h-.24v.48h-.24v.48h-.24v.24h-.24v.48h-.24v.24h-.24v.24h-.24v.48h-.24v.24h-.24v.48h-.24v.24h-.24v.24h-.24v.24h-.24v.24h-.24v.24h-.24v.48h-.24v.24H498v.24h-.24v.24h-.24v.24h-.24v.24h-.24v.24h-.24v.48h-.24v.24h-.24v.24h-.24v.48h-.24v.24h-.24v.24h-.24v.48h-.24v.24h-.24v.48h-.24v.48h-.24v.48h-.24v.24h-.24v.48h-.24v.48h-.24v.24h-.24v.48h-.24v.24h-.24v.24h-.24v.24h-.24v.24H492v.24h-.24v.24h-.48v.24h-.24v.24h-.24v.24h-.24v.48h-.24v.24h-.24v.24h-.24v.48h-.24v.24h-.24v.24h-.24v.48h-.24v.24h-.24v.24h-.24v.48h-.24v.24h-.24v.24h-.24v.24h-.24v.24h-.24v.24h-.24v.24h-.24v.24h-.48v.24H486v.24h-.24v.24h-.48v.24h-.24v.24h-.48v.24h-.24v.24h-.24v.24h-.48v.24h-.24v.24h-.48v.48h-.48v.24h-.24v.24h-.24v.24h-.24v.24h-.24v.24h-.24v.24h-.24v.24h-.24v.24h-.24v.24h-.24v.24H480v.24h-.24v.24h-.24v.24h-.24v.24h-.24v.24h-.24v.24h-.24v.48h-.24v.24h-.24v.48h-.24v.24h-.24v.48h-.24v.24h-.24v.48h-.24v.48h-.24v.24h-.24v.48h-.24v.24h-.24v.48h-.24v.24h-.24v.24h-.24v.24h-.24v.48h-.24v.24h-.24v.24h-.24v.24H474v-.24h-.24v-.24h-.24v-.24h-.24v-.24h-.48v-.48h-.24v-.24h-.24V552h-.24v-.24h-.24v-.24h-.24v-.24h-.24v-2.16h.24v-.48h.24v-.48h.24v-.48h.24v-.24h.24v-.48h.24v-.24h.24v-.48h.24v-.48h.24v-.24h.24v-.24h.24v-.48h.24v-.24h.24v-.24h.24v-.24h.24v-.48h.24v-.24h.24v-.24h.24v-.24h.24v-.24h.24v-.48h.24v-.24h.24v-1.44h-.24v-.24h-1.2v.24h-.48v.24h-.48v.24h-.48v.24h-.24v.24h-.24v.24h-.48v.24h-.24v.24h-.24v.24h-.48v.24h-.24v.24h-.48v.24h-.48v.24h-.72v.24h-.48v.24h-.72v-.96h.24v-.24h.24v-.24h.24v-.24h.24v-.48h.24v-.24h.24v-.48h.24v-.48h.24V540h.24v-.48h.24v-.24h.24v-.48h.24v-.48h.24v-.48h.24v-.24h.24v-.48h.24v-.24h.24v-.48h.24v-.48h.24v-.48h.24v-.48h.24v-.48h.24V534h.24v-.48h.24v-.48h.24v-.96h.24v-.96h.24v-.48h-.72v.24h-.24v.24H474v.24h-.24v.24h-.24v.24h-.24v.48h-.24v.24h-.24v.24h-.24v.24h-.24v.24h-.24v.24h-.24v.24h-.24v.24h-.24v.24h-.24v.24h-.24v.24h-.24v.48h-.24v.24h-.24v.48h-.24v.48h-.24v.24h-.24v.48h-.24v.48h-.24v.72h-.24v.24h-.24v.48h-.24v.72H468v.24h-.24v.48h-.24v.24h-.24v.48h-.24v.24h-.24v.24h-.24v-.24h-.24v-.72h-.24v-.48h-.24v-.96h-.24v-.72h-.24v-.72h-.24v-1.44h-.24v-1.2h-.24v-.72h-.24v-.72h-.24v-.72h-.24v-.72h-.24v-.96h-.24v-.24h-.24v-.72h-.24v-.24h-.24v-.72h-.24v-.48h-.24v-.24H462v-.48h-.24v-.48h-.24v-.72h-.24v-.48h-.24v-.72h-.24v-.24h-.72v7.68h.24v1.92h.24v1.2h.24v1.2h.24v.72h.24v.72h.24v.48h.24v.48h.24v.24h.24v.48h.24v.24h.24v.24h.24v.24h.24v.48h.24v.24h.24v.48h.24v.24h.24v.24h.24v.24h.24v.24h.24v.24h.24v.24h.48v.24h.24v.24h-.24v.24h-.24v.24h-.72v.24h-1.2v.24h-.96v.24H462v.24h-.72v.24h-.48v.24h-.24v-.72h-.24v-.72h-.24v-.24h-.72v.24h-.48v.48h-.24v.24h-.24v.24h-.24v.48h-.24v.48h-.24v.48h-.24v.48h-.24v.48h-.24v.24h-.24v.48h-.24v.24h-.24v.48H456v.48h-.24v.48h-.24v.24h-.24v.48h-.24v.48h-.24v.24h-.24v.48h-.24v.24h-.24v.48h-.24v.48h-.24v.24h-.24v.48h-.24v.24h-.24v.48h-.24v.24h-.24v.48h-.24v.24h-.24v.24h-.24v.24h-.24v.24h-.24v.24h-.48v.24h-.24v.24H450v.24h-.48v.24h-.96V558h-.24v-.24h-.24v-.24h-.24v-.96h.24v-.48h.24v-.72h.24v-.48h.24v-.96h.24v-.72h.24v-.48h.24v-.96h.24v-.48h.24v-.48h.24v-.96h.24v-.72h.24v-.72h.24v-.72h.24v-3.12h-.24v-.24H450v.24h-.48v.24h-.24v.24h-.24v.24h-.48v.48h-.24v.24h-.24v.24h-.24v.24h-.24v.24h-.24v.24h-.24v.24h-.24v.24h-.24v.24h-.24v.48h-.24v.24h-.24v.48h-.24v.24h-.24v.48h-.24v.48h-.24v.48h-.24v.72h-.24v.72h-.24v.24H444v.48h-.24v.72h-.24v.48h-.24v.24h-.24v.48h-.48v.24h-.24v-.24h-1.44v-.24h-.48v-.24h-.48v-.24h-.48v-.24h-.48v-.24h-.48v-.24H438v-.24h-.24v-.24h-.24v-.24h-.24v-.24h-.24V552h-.24v-.24h-.24v-.48h-.24v-.24h-.24v-.48h-.24v-.24h-.24v-.24h-.24v-.24h-.48v-.24h-.24v-.24h-.48v-.24h-.48v-.24h-.48v-.24h-.48v-.24H432v-.24h-.96v-.24h-.72v-.24h-.48v-.24h-1.2v.24h-.24v1.2h.24v.48h.24v.72h.24v.48h.24v.48h.24v.48h.24v.48h.24v.48h.24v.24h.24v.48h.24v.48h.24v.72h.24v.24h.24v.48h.24v.24h.24v.24h.48v.24h.24v.24h.24v.24h.24v.48h.48v.24h.72v.24h2.16v.24h1.68v.24h.96v.24h.48v.24h.24v.24h.24v.24h.24v.24h.24v.72h-.24v.24h-.24v.24h-.24v.24h-.24v.24h-.48v.24h-.24v.24h-.48v.24h-.24v.24h-.48v.24h-.48v.24h-.24v.24h-.48v.24h-.48v.24h-.48v.24h-.24v.24h-.48v.24h-.24v.24h-.24v.24h-.48v.24h-.48v.24h-.24v.24h-.24v.24h-.24v.24h-.24v.24h-.24v.24h-.48v.48h-.48v.24h-.24v.24h-.24v.24h-.24v.24h-.24v.24h-.24v.72h-.24v.24h.24v.48h2.16v.24h.48v-.24h1.68v-.24h.96v-.24h1.2v-.24H438v-.24h.72v-.24h.96v-.24h.96v-.24h.96v-.24h.96v-.24h3.36v.24h.96v.24h.24v.24h-.48v.24h-.24v.24h-.24v.24h-.24v.24h-.48v.24h-.24v.24h-.48v.24h-.48v.24H444v.24h-.48v.24h-.48v.24h-.48v.24h-.48v.24h-.48v.24h-.24v.24h-.48v.24h-.48v.24h-.48v.24h-.48v.24h-.48v.24h-.48v.24H438v.24h-.24v.24h-.48v.24h-.48v.24h-.24v.24h-.48v.24h-.24v.24h-.24v.24h-.48v.24h-.24v.24h-.24v.24h-.24v.24h-.24v.24h-.48v.24h-.24v.24h-.24v.24h-.24v.24h-.24v.24h-.24v.24h-.24v.24H432v.24h-.24v.48h-.48v.48h-.48v.48h-.24v.48h5.52v.24h1.2v-.24h1.44v-.24h.72v-.24h.48v-.24h.48v-.24h.72v-.24h.48v-.24h.48v-.24h.48v-.24h.48v-.24h.48v-.24h.48v-.24h.48v-.24h.24v-.24h.48V576h.48v-.24h.24v-.24h.48v-.24h.24v-.24h.24v-.24h.24v-.24h.24v-.24h.48v-.24h.24v-.24h.48v-.24h.24v-.24h.72v-.24h.48v-.24h1.2v.24h.72v.24h.48v.24h.48v.24h.24v.24h.24v.24h.48v.24h.24v.24h.24v.24h.24v.24h.24v.24h.24v.24h.24v.24h.48v.48h-.24v.24h-.24v.24h-.24v.24h-.24v.24h-.24v.24h-.24v.24h-.24v.24h-.24v.24h-.48v.24h-.24v.24h-.48v.24h-.24v.24h-.48v.24h-.24v.24h-.24v.24h-.48v.24h-.24v.24h-.24v.24H450v.24h-.24v.24h-.24v.24h-.48v.24h-.24v.24h-.24v.24h-.48v.24h-.24v.24h-.24v.24h-.48v.24h-.24v.24h-.24v.24h-.24v.24h-.48v.24h-.24v.24h-.48v.24h-.24v.24h-.24v.24h-.48v.24H444v.24h-.48v.24h-.24v.24h-.48v.24h-.24v.24h-.48v.24h-.24v.24h-.48v.24h-.24v.24h-.24v.24h-.48v.24h-.24v.24h-.48v.24h-.48v.24h-.48v.24h-.24v.24H438v.24h-.48v.24h-.24v.24h-.48v.24h-.24v.24h-.48v.24h-.48v.24h-.24v.24h-.24v.24h-.48v.24h-.24v.24h-.24v.24h-.24v.24h-.24v.24h-.48v.24h-.24v.24h-.24v.24h-.48v.24H432v.24h-.24v.24h-.48v.24h-.48v.24h-.24v.24h-.48v.24h-.24v.24h-.48v.24h-.24v.24h-.72v.24h-.24v.24h-.72v.24h-.24v.24h-.72v.24h-.24v.24h-.48v.24h-.48v.24h-.48v.24h-.48v.24h-.48v.24h-.48v.24h-.48v.24h-.72v.24h-.72v.24h-.48v.24H420v.24h-.96v.24h-.72v.24h-.72v.24h-.48v.24h-.72v.24h-.48v.24h-.72v.24h-.48v.24h-.48v.24h-.72v.24h-.48v.24h-.72v.24h-.72v.24h-.96v.24h-.96v.24h-.72v.24H408v.24h-.72v.24h-.96v.24h-.48v.24h-.48v.24h-.48v.24h-.72v.24h-.48v.24h-.48v.24h-.48v.24H402v.24h-.48v.24h-.72v.24h-.48v.24h-.72v.24h-.96v.24h-.96v.24h-.72v.24h-.48v.24H396v.24h-.48v.24h-.48v.24h-.24v.24h-.48v.24h-.24v.24h-.48v.24h-.24v.24h-.48v.24h-.48v.24h-.48v.24h-.48v.24h-.48v.24h-.24v.24h-.48v.24h-.48v.24h-.48v.24h-.48v.24h-.48v.24h-.48v.24h-.24v.24h-.48v.24h-.48v.24h-.48v.24h-.48v.24h-.48v.24h-.48v.24h-.48v.24h-.72v.24h-.48v.24h-.72v.24h-.48v.24h-.72v.24h-.48v.24h-.48v.24h-.48v-.72h-.24v-.96h-.24v-.96h-.24v-.72h-.24v-.72h-.24v-.96h-.24v-.48H378v-.96h-.24v-.96h-.24v-.72h-.24v-.48h-.24v-.96h-.24v-1.44h-.24v-1.68h-.24v-4.08h.24v-1.2h.24v-.96h.24v-.96h.24v-.48h.24v-.48h.24v-.24h.24v-.24h.24v-.48h.24v-.48h.24V594h.24v-.24h.24v-.24h.24v-.24h.24v-.24h.24v-.24h.24v-.24h.24v-.24h.24v-.24h.24v-.24h.24v-.24h.24v-.24h.24v-.24h.24v-.24h.24v-.24h.48v-.24h.24v-.24h.24v-.24h.24v-.24h.24v-.24h.24v-.24h.48v-.24h.24v-.24h.24v-.24h.24v-.24h.24V588h.48v-.48h.24v-.24h.24v-.24h.24v-.24h.24v-.24h.24v-.24h.48v-.24h.24v-.48h.24v-.24h.24v-.24h.24v-.24h.24v-.48h.24v-.24h.24v-.24h.24v-.72h.24v-.24h.24v-.72h.24v-1.44h-2.4v.24h-1.2v.24h-1.2v.24H384v.24h-1.2v.24h-.72v.24h-.72v.24h-.72v.24h-.96v.24h-.48v.24h-.72v.24h-.72v.24h-.72v.24h-.72v.24h-.48v.24h-.72v.24h-.72v.24h-1.68v.24h-2.4v-.24h-.24v-.24h-.24v-1.2h.24v-.24h.24v-.48h.24v-.24h.24V582h.24v-.24h.24v-.24h.24v-.48h.24v-.24h.48v-.48h.24v-.24h.24v-.24h.24v-.24h.24v-.24h.24v-.24h.24v-.24h.24v-.24h.24v-.24h.24v-.24h.24v-.24h.24v-.24h.24v-.24h.24v-.24h.24v-.24h.24v-.24h.24v-.24h.48v-.24h.24V576h.48v-.24h.48v-.24h.24v-.24h.48v-.24h.48v-.48h.48v-.24h.24v-.24h.48v-.24h.24v-.24h.48v-.24h.24v-.24h.24v-.24h.24v-.24h.24v-.24h.24v-.24h.24v-.24h.24v-.48h.24v-.24h.24v-.48h.24v-.48h.24V570h.24v-.48h.24v-1.92h-.24v-.24h-.24v-.24h-1.92v.24h-.96v.24h-.48v.24h-.48v.24h-.48v.24h-.48v.24h-.24v.24H378v.24h-.48v.24h-.24v.24h-.48v.24h-.24v.24h-.24v.24h-.48v.24h-.24v.24h-.48v.24h-.24v.24h-.24v.24h-.48v.24h-.24v.24h-.48v.24h-.24v.24h-.48v.24h-.24v.24H372v.24h-.48v.24h-.96v.24h-.72v-.24h-.72v-.24h-.48v-.24h-.24v-.48h-.24v-1.2h.24v-.24h.24v-.72h.24V570h.24v-.48h.24v-.24h.24v-.24h.24v-.48h.24v-.24h.24v-.48h.24v-.24h.24v-.48h.24v-.24h.24v-.48h.24v-.48h.24v-.48h.48v-.48h.24v-.24h.24v-.24h.24v-.24h.24V564h.24v-.24h.24v-.24h.24v-.48h.24v-.24h.24v-.24h.24v-.48h.24v-.24h.24v-.48h.24v-.24h.24v-.24h.24v-.24h.24v-.24h.24v-.24h.48v-.24h.24v-.24h.24v-.24h.24v-.24h.24v-.24h.48v-.24h.24v-.24h.24v-.24h.24V558h.24v-.24h.24v-.24h.24v-.24h.24v-.24h.24v-.24h.24v-.24h.24v-.48h.24v-.24h.24v-.24h.24v-.24h.24v-.24h.24v-.48h.24v-.24h.24v-.24h.24v-.24h.24v-.24h.24v-.24h.24v-.24h.24v-.24h.24v-.48h.24v-.72h-.24v-.24h-.24v-.24h-.48v-.24h-.24v-.24h-.72v-.24h-.48v-.24h-.48v.24h-.72v.24h-.48v.24h-.48v.24h-.48v.24h-.24v.24h-.48v.24H378v.24h-.48v.24h-.24v.24h-.48v.24h-.48v.24h-.24v.24h-.24v.24h-.48v.24h-.24v.24h-.48v.24h-.24v.24h-.48v.24h-.24v.24h-.48v.24h-.24v.24h-.24v.24h-.48v.24H372v.24h-.48v.24h-.24v.24h-.24v.24h-.24v.24h-.24v.24h-.24v.24h-.24v.24h-.24v.24h-.48v.24h-.24v.24h-.24v.24h-.48v.24h-.24v.24h-.48v.24h-.48v.24h-.48v.24h-1.44v.24h-.96v-.24h-.72v-.24h-.24v-.24h-.24v-.24h-.24v-.48h-.24v-.24h-.24v-.48h-.24V558h-.24v-.48h-.24v-.48h-.24v-.96h-.24v-1.44h-.24v-2.4h-.24v-1.68h-.24v-2.16h-.24v-.96H360V546h-.24v-1.68h-.24v-2.88h-.24v-2.16h-.24v-2.88h-.24v-6.72h-.24v-.96h-.24V528h-.72v.96h-.24v.96h-.24v.96h-.24v.72h-.24v1.2h-.24v.96h-.24v1.2h-.24v1.44h-.24v1.2h-.24v1.2h-.24v1.2h-.24v1.44h-.24v9.12h.24v4.08h.24v7.2h.24v.96h.24v.72h.24v2.16h.24v1.44h-.24v.24h-.24v.24h-.24v.24h-.24v-.24h-.72v-.24h-.96v-.24h-.48v-.24h-.24v-.24h-.48v-.24h-.48v-.24h-.48v-.24h-.48v-.24h-.48v-.24h-.24v-.24h-.48v-.24h-.24v-.24h-.48v-.24h-.24v-.24h-.24V564H348v-.24h-.24v-.24h-.48v-.24h-.24v-.24h-.48v-.24h-.48v-.24h-.72v-.24h-.72v-.24h-.96v-.24h-2.64v.24h-.96v.72h.24v.48h.24v.24h.24v.48h.24v.24h.24v.24h.24v.48h.24v.48h.24v.48h.24v.48h.24v.48h.24v.48h.48v.24h.24v.24h.24v.24h.24v.24h.24v.24h.24v.24h.24v.24h.24v.24h.48v.24h.24v.24h.48v.24h.24v.24h.24v.24h.48v.24h.48v.24h.24v.24h.48v.24h.72v.24h.96v.24h.72v.24h.48v.24h.48v.24h.24v.24h.48v.24h.48v.24h.24v.24h.48v.24h.48v.24h.48v.24h.24v.24h.24v.24h.48v.24h.24v.24h.24v.24h.24v.48h.24v.48h.24v1.2h.24v.96h-.24v.24h-.24v.24h-.24v.24h-.24v.24h-.48v.24h-.48v.24h-.48v.24h-.72v.24h-.72v.24h-6.96v-.24h-1.2v-.24h-.72v-.24h-3.36v.24h-.48v.24h-.24v3.84h.24v.72h.24v.48h.24v.48h.24v.48h.24v.48h.24v.48h.24v.48h.24v.48h.24v.24h.24v.24h.24v.24h.24v.24h.24v.24h.24v.48h.48v.24h.48v.24h.48v.24h.72v.24h.48v.24h.48v.24h.48v.24h.48v.24h.48v.24h1.44v.24h2.16v-.24h1.68v-.24h1.44v-.24h1.44v.24h1.44v.24h.96v.24h.72v.24h1.68v.24h1.2v.48h-.24v.24h-.24v.24h-.48v.24H360v.24h-.72v.24h-.96v.24h-.72v.24h-.72v.24h-.72v.24h-1.68v.24h-.96v.24h-.96v.24h-.96v.24h-1.68v.24h-1.2v.24h-.96v.24h-.72v.24h-.72v.24h-.96v.24h-.96v.24h-.96v.24h-.48v.24h-.48v.24h-.24v.24h-.48v.24h-.24v2.4h.24v.24h.24v.24h.24v.24h.72v.24h.72v.24h1.44v.24h1.92v.24h2.16v-.24h2.16v-.24h1.2v.24h1.2v.24h1.44v.72h-.24v2.16h-.24v2.64h-.24v4.8h-.24v4.32H354v4.08h-.24v.24h-.48v.24h-.48v.24h-.48v.24h-.48v.24h-.72v.24h-.48v.24h-.24v-1.2h-.24v-1.44h-.24v-1.68h-.24v-1.44h-.24v-.72h-.24v-.72h-.24v-.48h-.24v-.48h-.48v.24H348v.24h-.24v8.16h.24v.24h-.24v.24h-.72v.24h-.96v.24h-.96v.24h-.96v.24h-.48v-.72h-.24v-1.68h-.24v-.72h-.24v-.48h-.24v-.96h-.24v-.24h-.24v-.48h-.96v.24h-.24v.24h-.24v.48h-.24v.24h-.24v1.2h-.24v.72h-.24v.96h-.24v.48h-.24v.24h-.72v.24h-.96v.24h-.48v.24h-.48v.24h-.48v.24h-.48v.24h-.48v.24h-.48v.24h-.24v.24h-.24v-.48h-.24v-1.44h-.24V624h-.24v-.48h-.48v.48h-.24v.48h-.24v.48h-.24v.96h-.24v1.2h-.24v1.2h-.24v.48h-.48v.24h-.48v.24h-.48v.24h-1.68v.24h-.24v-.48h-.24v-.96h-.24v-.96h-.24v-.96h-.24v-.48h-.24v-.72h-.24v-.48h-.72v.24h-.24v.72h-.24v1.2h-.24v1.2h-.24v.72h-.24v.24h-2.4v.24h-.96v-.72h-.24v-1.2h-.24v-.72h-.24v-.48h-.24v-.24h-.24v-.24h-1.44v.24h-.24v.24h-.24v.24h-.24v.48H318v.24h-.24v.48h-.24v.48h-.24v.48h-.24v.96h-.24v.72h-.24v.72h-.24v.96h-.24v.48h-.24v.24h-.24v.24h-.24v.24h-.24v.24h-.24v.24h-.48v.24h-.24v.24h-.24v.24h-.24v-2.4h-.24V630h-.24v-1.92h-.24v-3.12h-.24v-1.2h-.48v.72H312v.72h-.24v.48h-.24v1.2h-.24v.72h-.24v.96h-.24v.72h-.24v.72h-.24v.72h-.24v.72h-.24v.96h-.24v.72h-.24v.96h-.24v.72h-.24v.24H306v-.48h-.24v-2.88h-.24v-1.92h-.24v-1.2h-.24v-1.2h-.24v-1.92h-.24v-.48h-.24v-.24h-.72v.48h-.24v.24h-.24v.72h-.24v.48h-.24v.72h-.24v.72h-.24v.96h-.24v.72h-.24v.96h-.24v.96h-.24v.96h-.24v.96h-.24v1.2h-.24v.48h-2.64v-4.08h-.24v-1.44h-.24v-1.2h-.24v-1.2h-.24v-.48h-.24v-.24h-.24v-.72h-.24v-.24h-1.44v.24h-.24v.24h-.24v.24H294v.24h-.24v.48h-.24v.24h-.24v.48h-.24v.24h-.24v.48h-.24v.48h-.24v.48h-.24v.72h-.24v.48h-.24v.72h-.24v.48h-.24v.72h-.24v.72h-.24v.72h-.24v.48h-.96v-.24h-1.2v-.24h-1.2v-2.64h-.24v-3.12h-.24v-1.92h-.24v-1.2h-.24v-.72h-.24v-.24h-.96v.24h-.24v.48h-.24v.24h-.24v.24h-.24v.24h-.24v.48h-.24v.24h-.24v.48h-.24v.48h-.24v.72h-.24v.48h-.24v1.2H282v1.92h-.24v-.24h-.24v-.24h-.24v-.24h-.24v-.24h-.24v-.24h-.24v-1.2h-.24v-4.56h-.24v-3.6h-.24v-1.92h-.24v-2.16h-.24v-.48h-.96v.48h-.24v.24h-.24v.48h-.24v.48h-.24v.72h-.24v.48h-.24v.48h-.24v.48h-.24v.72h-.24v.72H276v.72h-.24v.96h-.24v.72h-.24v.72h-.24v.96h-.24v.96h-.24v.96h-.24v.96h-.24v-2.16h-.24v-1.92h-.24v-1.2h-.24v-1.44h-.24v-1.44h-.24v-.48h-.24v-.72h-.24v-.24h-.72v.48h-.24v.24h-.24v.24h-.24v.48h-.24v.72h-.24v.48h-.24v.48H270v.48h-.24v.48h-.24v.72h-.24v.72h-.24v.72h-.24v.72h-.24v.72h-.24v.48h-.24v.96h-.24v.72h-.24v.72h-.24v.72h-.24v.96h-.24v.72h-.24v.48h-.24v.72h-.24v.48h-.24v.48h-.96v-1.92h-.24v-1.44h-.24v-1.68h-.24v-.72H264v-1.68h-.24v-.96h-.24v-1.2h-.24v-.96h-.24v-.72h-.24v-.72h-.24v-.48h-.48v.24h-.24v.48h-.24v.72h-.24v.48h-.24v.96h-.24v.72h-.24v.48h-.24v.72h-.24v.72h-.24v.96h-.24v.72h-.24v.72h-.24v.72h-.24v.96h-.24v.96h-.24v.72h-.72v-.96h-.24v-1.92h-.24v-1.68h-.24v-1.68h-.24v-2.16h-.24v-1.44h-.24v-1.44h-.24v-1.92h-.24v-.96h-.24v-.24h-.48v.24h-.24v.24h-.24v.24h-.24v.24h-.24v.48h-.24v.24h-.24v.24h-.24v.48h-.24v.48h-.24v.48h-.24v.48h-.24v.48h-.24v.48H252v.48h-.24v.48h-.24v.48h-.24v.48h-.24v.72h-.24v.72h-.24v.96h-.24v.48h-.24v.96h-.24v1.44h-.24v.72h-.24v.72h-.96v-.24h-1.2v-3.84h-.24v-3.36h-.24v-1.68h-.24v-1.92h-.24v-.72h-.72v.48h-.24v.48h-.24v.48h-.24v.48h-.24v.72h-.24v-.96h-.48v.24h-.24v.24h-.48v.24h-.24v.24h-.24v.24h-.24v.24h-.24v.24h-.24v.48h-.24v.24h-.24v.24h-.24v.24h-.24v.24h-.24v.48h-.24v.24h-.24v.48H240v.48h-.24v.24h-.24v.48h-.24v.48h-.24v.24h-.24v.48h-.24v.24h-.24v.48h-.24v.24h-.24v.48h-.24v.48h-.24v.24h-.48v.24h-.24v.24h-1.2v-.24h-.96v-.24h-.72v-.24h-.24V630h.24v-.48h.24v-.72h.24v-.72h.24v-.96h.24v-.48h.24v-.48h.24v-.96h.24v-.48h.24V624h.24v-.48h.24v-.48h.24v-.48h.24v-.72h.24v-.72h.24v-.72h.24v-.72h.24v-.96h.24V618h-.96v.24h-.24v.24h-.24v.24h-.24v.24h-.48v.24h-.24v.24h-.24v.24h-.24v.24h-.24v.24h-.24v.48h-.24v.24H234v.24h-.24v.24h-.24v.24h-.24v.48h-.24v.24h-.24v.48h-.24v.24h-.24v.24h-.24v.24h-.24v.48h-.24v.24h-.24v.48h-.24v.48h-.24v.24h-.24v.48h-.24v.24h-.24v.48h-.24v.48h-.24v.24h-.24v.48h-.24v.24h-.24v.48h-.24v.48h-.24v.24H228v-.24h-.48v-.24h-.72v-.24h-.24v-.24h-.48v-.24h-.48v-.48h.24v-.48h.24v-.72h.24v-.96h.24v-.72h.24v-.48h.24v-.72h.24v-.72h.24v-.72h.24v-.96h.24v-.72h.24v-.72h.24V618h-.96v.24h-.24v.24h-.48v.24h-.24v.24h-.24v.24h-.48v.24h-.24v.48h-.24v.24h-.24v.24h-.24v.24h-.24v.24h-.24v.24h-.24v.24h-.24v.24h-.24v.24h-.24v.24h-.24v.24h-.24v.48h-.24v.24h-.24v.24h-.24v.24H222v.24h-.24v.24h-.24v.48h-.24v.24h-.24v.48h-.24v.24h-.24v.24h-.72v-.24h-.48v-.24h-.48v-.48h.24v-.48h.24v-.96h.24v-.48h.24v-1.2h.24v-.48h.24v-.96h.24v-1.2h.24v-1.44h.24v-.72h-.24v-.24h-.48v.24h-.24v.24h-.24v.24h-.24v.24h-.24v.24h-.24v.24h-.24v.24h-.24v.24h-.24v.48h-.24v.24h-.24v.24h-.24v.48h-.24v.24h-.24v.48h-.24v.24h-.24v.48h-.24v.48h-.24v.48H216v.24h-.24v.48h-.48v-.24h-.24v-.24h-.24v-.24h.24v-.72h.24v-.48h.24v-.24h.24v-.48h.24v-.72h.24v-.48h.24v-.24h.24v-.48h.24V618h.24v-.72h.24v-.48h.24v-.48h.24v-.72h.24v-.48h.24v-.96h.24v-.72h.24v-1.92h-.24v-.24h-.24v-.24h-1.44v.24h-.72v.24h-.72v.24h-.24v.24h-.48v.24h-.48v.24h-.24v.24h-.24v.24h-.48v.24h-.24v.24h-.24v.48h-.24v.24h-.48v.24h-.24v.48h-.24v.24h-.24v.24h-.24v.24h-.24v.48h-.24v.24h-.24v.24h-.24v.48H210v.24h-.24v.48h-.24v.24h-.24v.24h-.24V618h-.24v-.24h-.24v-.24h-.48v-.24h-.24v-.24h-.48v-.24h.24v-.48h.24v-.48h.24v-.48h.24v-.48h.24v-.72h.24v-.72h.24v-.72h.24v-.48h.24v-.48h.24v-.72h.24v-.96h.24v-.96h.24v-1.2h-.24v-.24H210v-.24h-.72v.24h-.48v.24h-.24v.24h-.24v.24h-.24v.24h-.24v.24h-.24v.24h-.24v.24h-.24v.48h-.24v.24h-.24v.24h-.24v.48h-.24v.24h-.24v.24h-.24v.48h-.24v.24h-.24v.48h-.24v.24h-.24v.24h-.24v.48h-.24v.24H204v.24h-.24v.24h-.24v.24h-.24v-.24h-.48v-.48h.24v-.48h.24v-.48h.24v-.48h.24v-.48h.24v-.48h.24v-.72h.24v-.24h.24v-.48h.24v-.48h.24v-.48h.24v-.48h.24v-.24h.24v-.48h.24v-.48h.24v-.48h.24v-.48h.24v-.48h.24v-.48h.24v-.48h.24v-.48h.24v-.48h.24v-.96h-.24v-.24h-.48v.24h-.72v.24h-.48v.24h-.24v.24h-.48v.24h-.48v.24h-.24v.24h-.24v.24H204v.24h-.24v.24h-.24v.24h-.24v.24h-.24v.24h-.24v.24h-.24v.24h-.24v.24h-.24v.24h-.24v.24h-.24v.24h-.24v.24h-.24v.24h-.24v.48h-.24v.24h-.24v.24h-.24v.24h-.24v.48h-.24v.24h-.24v.24h-.24v.48h-.24v.24h-.24v.24h-.24v.48H198v-.24h-.24v-.24h-.48v-.48h.24v-.48h.24v-.48h.24v-.72h.24v-.48h.24v-.48h.24v-.48h.24v-.48h.24v-.48h.24v-.48h.24v-.72h.24v-.48h.24v-.48h.24v-.72h.24v-.48h.24v-.48h.24v-.72h.24v-1.2h-.24v-.24h-.96v.24h-.48v.24h-.48v.24h-.48v.24h-.48v.24h-.48v.24h-.48v.24h-.24v.24h-.48v.24h-.24v.24h-.48v.24h-.24v.24h-.24v.24h-.48v.24h-.24v.24h-.48v.24h-.24v.24h-.48v.24h-.24v.24h-.24v.24h-.24v.24h-.48v.24H192v.24h-.24v.24h-.24v.24h-.24v.24h-.48v.24h-.24v.24h-.96v-.24h-.48v-.24h-.48v-.24h-.48V606h-.48v-.24h-.24v-.72h.24v-.72h.24v-.72h.24v-.72h.24v-2.4h-.96v.24h-.72v.24h-.24v.24h-.24v.24h-.48v.24h-.24v.24h-.24v.24h-.24v.24h-.24v.24h-.24v.24h-.24v.24h-.24v.24h-.24v.24h-.48v-.24h-.48v-.24h-.96v-.24h-.48v-.24h.24v-.24h.24v-.48h.24v-.48h.24v-.96h.24v-1.68h-.24v-.24h-1.44v.24h-.72v.24h-.48v.24h-.48v.24h-.48v.24h-.48v.24h-.24v.24h-.48v.24h-.48v.24h-.24v.24h-.48v.24h-.24v.24h-.24v-.24h-.96v-.24H174v-.24h-1.2V600h.24v-.24h.24v-.24h.24v-.48h.24v-.24h.24v-.48h.24v-.24h.24v-.48h.24v-.24h.24v-.48h.24v-.24h.24v-.48h.24v-.48h.24v-.48h.24v-.48h.24V594h.24v-.72h.24v-1.2h-.24v-.24h-.24v-.24h-.48v.24h-.96v.24h-.72v.24h-.48v.24h-.48v.24h-.48v.24h-.48v.24h-.48v.24h-.48v.24h-.24v.24h-.48v.24h-.48v.24h-.24v.24h-.48v.24h-.24v.24h-.48v.24h-.24v.24h-.24v.24H168v.24h-.24v.24h-.24v.24h-.24v.24h-.24v.24h-.24v.24h-.24v.24h-.24v.24h-.24v-.24h-.24v-.24h-.48v-.24h-.48v-.24h.24v-.24h.24v-.24h.24v-.24h.24v-.48h.24v-.24h.24v-.24h.24v-.24h.24v-.48h.24v-.24h.24V594h.24v-.48h.24v-.24h.24v-.24h.24v-.48h.24v-.24h.24v-.24h.24v-.24h.24v-.24h.24v-.48h.24v-.48h.24v-.24h.24v-.24h.24v-.24h.24v-.48h.24v-.48h.24v-.48h.24v-1.68h-.24v-.24h-1.92v.24h-.72v.24h-.72v.24h-.48v.24h-.48v.24h-.48v.24h-.24v.24h-.48v.24h-.24v.24h-.48v.24h-.24v.24h-.24v.24h-.48v.24h-.24v.24h-.24v.24h-.24v.24h-.24v.24h-.24v.24h-.24v.24h-.24v.24H162v.24h-.48v.24h-.24v.24h-.24v.48h-.48v.24h-.24v.24h-.48v-.24h-.24v-.24h-.24v-.24h-.24v-.24h.24v-.24h.24v-.48h.24v-.24h.24v-.24h.24v-.48h.24v-.48h.24v-.24h.24v-.48h.24v-.24h.24v-.24h.24v-.48h.24V588h.24v-.24h.24v-.24h.24v-.48h.24v-.24h.24v-.24h.24v-.24h.24v-.48h.24v-.24h.24v-.24h.24v-.24h.24v-.48h.24v-.24h.24v-.24h.24v-.48h.24v-.24h.24v-.24h.24v-.48h.24v-.24h.24V582h.24v-.24h.24v-.48h.24v-.48h.24v-.96h-.24v-.24h-1.68v.24h-.72v.24h-.48v.24h-.48v.24h-.48v.24h-.48v.24h-.24v.24h-.48v.24h-.48v.24h-.48v.24h-.48v.24h-.24v.24h-.24v.24h-.48v.24h-.24v.24h-.48v.24h-.24v.24h-.24v.24h-.24v-.48h.24v-.24h.24v-.48h.24v-.24h.24v-.24h.24v-.48h.24v-.48h.24v-.24h.24v-.48h.24v-.24h.24v-.48h.24v-.24h.24v-.48h.24v-.48h.24v-.48h.24v-.72h.24v-.48h.24v-.48h.24V576h.24v-.72h.24v-.48h.24v-.72h.24v-.96h.24v-1.2h.24v-.48h-.24v-.24h-.96v.24h-.72v.24H162v.24h-.48v.24h-.48v.24h-.48v.24h-.24v.24h-.48v.24h-.24v.24h-.48v.24h-.24v.24h-.24v.24h-.48v.24h-.24v.24h-.24v.24h-.48v.24h-.24v.24h-.24v.24h-.48v.24H156v.24h-.24v.24h-.48v.24h-.24v.24h-.24v.24h-.48v.24h-.24v.24h-.48v.24h-.24v.24h-.48v.24h-.24v.24h-.24v.24h-.48v.24h-.24v.24h-.24v.24h-.48v.24h-.24v-.24h-.24v-.24h.24v-.24h.24v-.24h.24v-.48h.24v-.24h.24v-.24h.24v-.48h.24v-.24h.24v-.24h.24v-.48h.24V576h.24v-.24h.24v-.48h.24v-.24h.24v-.48h.24v-.24h.24v-.48h.24v-.24h.24v-.24h.24v-.48h.24v-.48h.24v-.24h.24v-.48h.24v-.24h.24v-.48h.24v-.24h.24v-.48h.24v-.48h.24v-.24h.24v-.48h.24v-.24h.24v-.48h.24v-.48h.24v-.48h.24v-.48h.24v-.48h.24v-1.68h-.24v-.24h-1.2v.24h-.72v.24h-.48v.24H156v.24h-.48v.24h-.48v.24h-.24v.24h-.48v.24h-.48v.24h-.24v.24h-.24v.24h-.48v.24h-.24v.24h-.24v.24h-.48v.24h-.24v.24h-.24v.24h-.24v.24h-.24v.24h-.24v.24h-.48v.24H150v.24h-.24v.24h-.24v.24h-.24v.24h-.24v.24h-.24v.48h-.24v.24h-.24v.24h-.24v.24h-.24v.24h-.24v.24h-.24v.48h-.24v.24h-.24v.24h-.48v-.48h-.24v-.48h.24v-.24h.24v-.24h.24v-.24h.24v-.48h.24v-.24h.24v-.24h.24v-.24h.24v-.24h.24V570h.24v-.24h.24v-.24h.24v-.24h.24v-.24h.24v-.48h.24v-.24h.24v-.24h.24v-.24h.24v-.24h.24v-.24h.24v-.24h.24v-.24h.24v-.24h.24v-.24h.24v-.48h.24v-.24h.24v-.24h.24v-.24h.24v-.24h.24v-.24h.24v-.24h.24V564h.24v-.24h.24v-.24h.24v-.24h.24v-.24h.24v-.48h.24v-.24h.24v-.48h.24v-.24h.24v-.24h.24v-.48h.24v-.24h.24v-.24h.24v-.48h.24v-.24h.24v-.72h.24v-.48h.24v-1.2h-.48v-.24h-.48v.24h-.96v.24h-.96v.24h-.48v.24h-.48v.24h-.72v.24h-.48v.24h-.24v.24h-.48v.24h-.48v.24h-.24v.24h-.48v.24h-.48v.24H150v.24h-.48v.24h-.24v.24h-.48v.24h-.24v.24h-.24v.24h-.48v.24h-.24v.24h-.48v.24h-.24v.24h-.48v.24h-.24v.24h-.24v.24h-.48v.24h-.24v.24h-.24v.24h-.48v.24h-.24v.24H144v.24h-.24v.24h-.48v.24h-.24v.24h-.24v.24h-.48v.24h-.24v.24h-.24v.24h-.24v.24h-.48v.24h-.48v-.24h-.24v-.24h-.24v-.48h.24v-.24h.24v-.24h.24v-.24h.24v-.24h.24v-.24h.24v-.24h.24V564h.24v-.24h.24v-.24h.24v-.24h.24v-.24h.24v-.24h.24v-.48h.24v-.24h.24v-.24h.24v-.24h.24v-.24h.24v-.24h.24v-.48h.24v-.24h.24v-.24h.24v-.24h.24v-.24h.24v-.48h.24v-.24h.24v-.24h.24v-.48h.24V558h.24v-.24h.24v-.24h.24v-.24h.24v-.24h.24v-.48h.24v-.24h.24v-.24h.24v-.48h.24v-.24h.24v-.48h.24v-.24h.24v-.48h.24v-.24h.24v-.48h.24v-.96H150v.24h-.72v.24h-.72v.24h-.48v.24h-.24v.24h-.48v.24h-.24v.24h-.48v.24h-.48v.24h-.48v.24h-.24v.24h-.48v.24h-.48v.24h-.24v.24h-.48v.24h-.24v.24h-.48v.24h-.24v.24h-.48v.24h-.24v.24h-.48v.24h-.24v.24h-.48v.24h-.24v.24h-.48v.24h-.24v.24h-.48v.24h-.24v.24h-.48v.24h-.24v.24H138v.24h-.48v.24h-.24v.24h-.48v.24h-.24v.24h-.24v.24h-.48v.24h-.24v-.48h-.24v-.24h-.24v-.24h-.24v-.24h-.24v-.24h-.24v-.48h-.24v-.24h.24v-.24h.24v-.24h.24v-.24h.24v-.24h.24V558h.24v-.24h.24v-.24h.24v-.24h.24v-.24h.24v-.24h.24v-.24h.24v-.24h.24v-.24h.24v-.24h.24v-.24h.24v-.24h.24v-.24h.24v-.24h.24v-.24h.24v-.24h.24v-.24h.24v-.24h.24v-.48h.24v-.24h.24v-.24h.24v-.48h.24v-.24h.24V552h.24v-.24h.24v-.72h.24v-.24h.24v-.48h.24v-2.64h-1.44v.24h-.72v.24h-.72v.24h-.72v.24H138v.24h-.72v.24h-.48v.24h-.48v.24h-.48v.24h-.48v.24h-.48v.24h-.48v.24h-.48v.24h-.48v.24h-.48v.24h-.24v.24h-.48v.24H132v.24h-.48v.24h-.48v.24h-.24v.24h-.48v.24h-.24v-.24h-.24v-.48h-.24v-.48h-.24v-.48h-.24v-.72h-.24v-.48h.24v-.24h.24v-.24h.24v-.24h.24v-.24h.24v-.24h.24v-.24h.24v-.24h.24v-.48h.24v-.24h.24v-.24h.24v-.24h.24v-.24h.24v-.48h.24v-.24h.24V546h.24v-.48h.24v-.24h.24v-.24h.24v-.48h.24v-.24h.24v-.24h.24v-.48h.24v-.24h.24v-.48h.24v-.24h.24v-1.44h-1.68v.24h-.48v.24h-.48v.24H132v.24h-.48v.24h-.24v.24h-.48v.24h-.48v.24h-.48v.24h-.24v.24h-.48v.24h-.24v.24h-.48v.24h-.48v.24h-.24v.24h-.48v.24h-.24v.24h-.24v.24h-.24v-.48h-.24v-.48H126v-.48h-.24v-.48h-.24v-.48h-.24v-.48h-.24v-.48h-.24v-.48h.24v-.24h.24v-.24h.24v-.24h.24v-.24h.24v-.48h.24V540h.24v-.24h.24v-.24h.24v-.24h.24v-.24h.24v-.24h.24v-.24h.24v-.48h.24v-.24h.24v-.24h.24v-.48h.24v-.24h.24v-.48h.24v-.24h.24v-.24h.24v-.24h.24v-.48h.24v-.24h.24v-.48h.24V534h.24v-.24h.24v-.24h.24v-.48h.24v-.24h.24v-.48h.24v-.48h.24v-.24h.24v-.48h.24v-.72h.24v-.48h.24v-.72h.24v-.48h-.24v-.48h-.96v.24h-.72v.24h-.72v.24h-.72v.24h-.48v.24h-.48v.24h-.48v.24h-.24v.24h-.48v.24h-.48v.24h-.48v.24h-.48v.24h-.24v.24H126v.24h-.48v.24h-.24v.24h-.48v.24h-.48v.24h-.24v.24h-.48v.24h-.48v.24h-.24v.24h-.48v.24h-.24v.24h-.48v.24h-.24V534h-.24v-.72h-.24v-.96h.24v-.24h.24v-.24h.24v-.24h.48v-.24h.24v-.24h.24v-.24h.24v-.24h.24v-.24h.24v-.24h.24v-.24h.24v-.24h.24v-.24h.24v-.24h.24v-.24h.24v-.24h.24v-.24h.24v-.24h.24V528h.24v-.24h.24v-.24h.24v-.48h.24v-.24h.24v-.48h.24v-.72h-1.92v.24h-.72v.24h-.48v.24h-.72v.24h-.72v.24h-.48v.24h-.48v.24h-.48v.24h-.48v.24H120v.24h-.48v.24h-.48v-.48h-.24v-.48h-.24v-.48h-.24v-.72h-.24v-.72h.24v-.24h.24v-.24h.48v-.24h.24v-.24h.24v-.24h.48v-.24h.24v-.24h.24v-.24h.24v-.24h.24v-.24h.24v-.24h.24v-.24h.24v-.24h.24V522h.24v-.24h.24v-.24h.24v-.24h.24v-.24h.24v-.24h.24v-.48h.24v-.48h-1.2v.24h-.72v.24h-.72v.24h-.48v.24H120v.24h-.48v.24h-.48v.24h-.72v.24h-.48v.24h-.48v.24h-.24v.24h-.48v.24h-.48v-.48h-.24v-.48h-.24v-.48h-.24v-.72h-.24v-.24h-.24v-.24h.48v-.24h.24v-.24h.24v-.24h.24v-.24h.24v-.24h.24v-.24h.24v-.24h.24v-.24h.24v-.24h.24v-.24h.24v-.24h.24v-.48h.24v-.24h.24v-.24h.24v-.24h.24v-.48h.24v-.48h.24v-.48h.24v-1.2h-1.92v.24h-.96v.24h-.72v.24h-.72v.24h-.72v.24h-.48v.24h-.72v.24h-.48v-.48h.24v-.24h.24v-.24h.24v-.24h.24v-.24h.24v-.48h.24v-.24h.24v-.24h.24v-.24h.24v-.24h.48v-.24h.24v-.24h.48v-.24h3.36v.24h.72v.24h.24v.24h.48v.24h.48v.24h.48v.24h.48v.24h.24v.24h.24v.24h.48v.24h.48v.24h.24v.24h.48v.24h.72v.24h3.12v-.24h.96v-.24h.48v-.48h.24v-1.44h-.24v-.72h-.24v-.24h-.24v-.48h-.24v-.24h-.24v-.24h-.24v-.24h-.24v-.24h-.24V510h-.48v-.24h-.24v-.24h-.48v-.24h-.48v-.24h-.24v-.24H126v-.24h-.48v-.24h-.48v-.24h-.48v-.24h-.24v-.72h.48v-.24h.24v-.24h.72v-.24h.96v-.24h1.92v.24h1.44v.24h1.44v.24h1.44v.24h3.12v.24h3.6v-.24h1.44v-.24h2.16v-.24h2.64v-.24h1.2v-.24h.72v-.24h.72v-.24h.72v-.24h.24v-.24h.48v-.48h.24v-.24h.24V504h.24v-.48h.24v-.48h-.24v-.48h-.48v-.24H150v-.24h-.48v-.24h-.48v-.24h-.72v-.24h-.72v-.24h-.72v-.24h-.48v-.24h-.72v-.24h-.96v-.24h-.48v-.24h-.48v-.24h-.48v-.24h-.48v-.24h-1.2v-.24h-.96v-.24h-.96v-.24h-.96v-.24h-1.2V498h-.72v-.24h-.48v-.24h-.48v-.24h-.48v-.24h-.48v-.24h-.24v-.24h-.24v-.24h-.24v-.48h-.24v-1.2h.24v-.48h.24v-.48h.24v-.48h.24v-.24h.24v-.48h.24v-.24h.24v-.48h.24v-.24h.24v-.48h.24v-.24h.24v-.24h.24v-.48h.24v-.24h.24v-.24h.24v-.24h.24v-.24h.24v-.24h.24v-.24h.24v-.48h.24v-.24h.24v-.24h.24v-.24h.24v-.48h.24v-.24h.24v-.24h.24v-.24h.24v-.48h.24v-.24h.24v-.24h.24v-.48h.24v-.24h.24v-.24h.24v-.48h.24v-.24h.24v-.48h.24v-.48h.24v-.24h.24v-.24h.24v-.48h.24v-.24h.24v-.24h.24v-.48h.24v-.48h.24V480h.24v-.48h.24v-.24h.24v-.48h.24v-.48h.24v-.24h.24v-.48h.24v-.48h.24v-.24h.24v-.48h.24v-.48h.24v-.48h.24v-.48h.24v-.48h.24V474h.24v-.24h.24v-.72h.24v-.48h.24v-.48h.24v-.72h.24v-.48h.24v-.72h.24v-1.2h.24v-.72h-.24v-.96h-.24v-.24h-1.2v.24h-.48v.24h-.24v.24h-.48v.24h-.24v.24h-.24v.24h-.24v.24h-.24v.24h-.48v.24h-.24v.24h-.24v.24h-.24v.24h-.24v.24h-.24v.24h-.24v.24h-.48v.48h-.24v.24h-.24v.24h-.24v.24h-.24v.24h-.24v.24h-.24v.24h-.24v.24h-.24v.24h-.24v.24h-.24v.48h-.24v.48h-.24v.24h-.24v.24h-.24v.48h-.24v.24h-.24v.48h-.24v.24h-.24v.48h-.24v.24h-.24v.24h-.24v.48h-.24v.24h-.24v.48H138v.24h-.24v.48h-.24v.24h-.24v.24h-.24v.48h-.24v.24h-.24v.48h-.24v.24h-.24v.48h-.24v.24h-.24v.48h-.24v.24h-.24v.48h-.24v.24h-.24v.48h-.24v.24h-.24v.48h-.24v.24h-.24v.48h-.24v.24h-.24v.48h-.24v.24h-.24v.24h-.24v.48h-.24v.24H132v.48h-.24v.48h-.24v.24h-.24v.48h-.24v.48h-.24v.24h-.24v.24h-.24v.24h-.24v.24h-.24v.24h-.24v.24h-.24v.24h-.24v.24h-.48v.24h-.48v.24h-.48v.24h-.96v-.24h-.48v-.48H126v-.72h-.24v-6.48h.24v-1.44h.24v-1.44h.24V480h.24v-1.92h.24v-2.16h-.24v-.48H126v.24h-.24v.24h-.24v.48h-.24v.24h-.24v.72h-.24v.48h-.24v.72h-.24v.72h-.24v.72h-.24v.72h-.24v.72h-.24v.72h-.24v.96h-.24v.96h-.24v.72h-.24v1.68h-.24v1.92h-.24v1.44h-.24v.96h-.24v1.44h-.24v1.2h-.24v1.2h-.24v.96h-.24v.96h-.24v.96H120v.48h-.24v.24h-.24v.24h-.24v.24h-.48v.24h-.48v-.24h-.24v-.24h-.48v-.72h-.24v-.48h-.24v-3.12h-.24v-6.48h.24v-3.6h-.24v-.48h-.96v.48h-.24v.96h-.24v.48h-.24v.96h-.24v1.2h-.24v.96h-.24v.96h-.24v1.44H114v5.28h-.24v2.16h-.24v2.4h-.24v.96h-.48v-.24h-.72v.24h-1.2v.24h-.72v.24h-.96v.24h-.48v.24h-.48v.24h-.72v.24h-.48v.24h-.96v-.24h-.24v-.96h.24v-.24h.24v-.24h.24v-.24h.48v-.48h.24v-.24h.24v-.24h.24v-.24h.24v-.24h.24v-.24h.24v-.24h.24v-.48h.24v-.24h.24v-.24h.24v-.48h.24v-.72h-1.2v.24h-.96v.24h-.72v.24h-.48V498h.24v-.96h.24v-.48h.24v-.96h.24v-.72h.24v-.48h.24v-.72h.24v-.72h.24v-.48h.24V492h.24v-.96h.24v-.72h.24v-.96h.24v-.96h.24v-1.68h.24v-2.4h.24v-.96h.24v-.72h.24v-.48h.24v-.48h.24v-.48h.24v-.24h.24v-.48h.24v-.24h.24V480h.24v-.24h.24v-.48h.24v-.24h.48v-.48h.48v-.24h.24v-.24h.24v-.24h.24v-.24h.24v-.24h.24v-.24h.24v-.24h.48v-.24h.24v-.24h.48v-.24h.24v-.24h.24v-.24h.48v-.24h.48v-.24h.48v-.24h.48v-.24h.24v-.24h.48v-.24h.24V474h.24v-.24h.48v-.24h.24v-.24h.24v-.24h.48v-.48h.24v-.24h.24v-.24h.24v-.48h.24v-1.44h-.24v-.24h-.96v.24h-.72v.24H120v.24h-.48v.24h-.48v.24h-.48v.24h-.48v.24h-.48v.24h-.48v.24h-.96v.24h-.24v-.24h-.48v-.48h-.24v-.48h.24v-.48h.48v-.48h.24v-.24h.24v-.24h.24v-.24h.24v-.24h.24v-.24h.24v-.48h.48v-.24h.24V468h.24v-.24h.24v-.24h.24v-.24h.24v-.24h.48v-.24h.24v-.24h.24v-.24h.24v-.24h.24v-.24h.24v-.24h.24v-.24h.24v-.24h.24v-.24h.24v-.24h.24v-.48h.24v-.24h.24v-.24h.24v-.24h.24v-.24h.24v-.48h.24v-.48h.24V462h.24v-.24h.24v-.48h.24v-.24h.24v-.48h.24v-.48h.24v-.72h.24v-.96h.24v-.48h-.24v-.48h-.48v-.24h-1.68v.24h-.72v.24h-.24v.24h-.24v.24h-.48v.48h-.24v.24h-.24v.48h-.24v.48h-.24v.24h-.24v.48H120v.48h-.24v.24h-.24v.24h-.24v.48h-.24v.24h-.24v.24h-.24v.48h-.48v.48h-.24v.24h-.24v.24h-.24v.24h-.48v.48h-.48v.24h-.24v.24h-.24v.24h-.24v.24h-.24v.24h-.24v.24h-.48v.24h-.48v-1.2h.24v-1.2h.24v-.72h.24v-1.44h.24v-1.68h.24v-3.36h.24v-1.44h.24v-2.16h.24v-5.04h.24v-1.92h.24v-1.44h.24v-2.88h.24v-1.68h-.24v-1.44h-.24v-.48h-.24V438h-.48v.48h-.24v.96h-.24v.72h-.24v1.2h-.24v1.2h-.24V444h-.24v.48h-.24v1.2H114v.96h-.24v.96h-.24v1.68h-.24v2.16h-.24v3.12h-.24V456h-.24v1.68h-.24v.48h-.24v.24h-.24v-.24h-.24v-.48h-.24v-.48h-.24v-.72h-.24v-3.84h-.24V450h-.24v-.96h-.24v-1.2h-.24v-.48h-.24v-.48h-.24v-.96h-.24v-.24h-.24v-.72h-.24v-.24h-.48v-.24h-.48v.24h-.24v.48h-.24v6.72h.24v2.16h.24v5.04h.24v1.92h.24v1.44h.24V468h-.24v.48H108v.24h-.48v-.48h-.24V468h-.24v-.24h-.24v-.24h-.24v-.72h-.24v-.72h-.24v-.72h-.24v-.72h-.24v-.72h-.24v-.48h-.24v-.96h-.24V462h-.24v-1.2h-.24v-1.2h-.24v-.96h-.24v-.72h-.24v-1.2h-.24V456h-.24v-.72h-.24v-.72h-.24v-.72h-.24v-.48h-.24v-.48H102v-.72h-.24v-.24h-.24v-.24h-.24v-.24h-.72v2.4h-.24v3.36h.24v1.44h.24v.72h.24v.96h.24v.72h.24v.72h.24v.48h.24v.72h.24v.96h.24v.96h.24v.72h.24v.96h.24v.96h.24v.72h.24v.96h.24v.72h.24v1.2h.24v.72h.24v.72h.24v1.2h.24v.96h-.48v-.24h-.24v-.24h-.24V474h-.24v-.24h-.24v-.24h-.24v-.24h-.24v-.24h-.24v-.24h-.24v-.48h-.24v-.48h-.24v-.48H102v-.24h-.24v-.48h-.24v-.72h-.24v-.48h-.24v-.48h-.24v-.48h-.24V468h-.24v-.72h-.24v-.48h-.24v-.48h-.24v-.48h-.24v-.48h-.24v-.24h-.24v-.48h-.24v-.24h-.24v-.24h.24v-.72h-.24v-.24H96v.24h-.96v.24h-.96v.24h-.72v.24h-.72v.24h-.72v.24h-.48v.24h-.72v.24h-.48v.24h-.48v.24h-.72v.24h-.48v.24h-.48v.24h-.48v.24h-.48v.24h-.48v.24h-.24v-.48h-.24v-.72h.24v-.24h.24v-.24h.24v-.24h.48v-.24h.24v-.24h.24v-.24h.48v-.24h.24v-.24h.24v-.24h.24v-.24h.24v-.24h.48v-.24H90v-.24h.24v-.24h.24v-.24h.48V462h.24v-.24h.24v-.24h.24v-.24h.24v-.24h.48v-.24h.24v-.24h.24v-.24h.24v-.24h.24v-.24h.48v-.24h.24v-.24h.24v-.24h.24v-.24h.24v-.24h.24v-.24h.48v-.24h.24v-.24H96v-.24h.24v-.24h.24v-.24h.24v-.24h.24v-.24h.24v-.24h.24V456h.24v-.24h.24v-.24h.24v-.72h-1.92v.24h-.96v.24h-.96v.24h-.48v.24h-.72v.24h-.72v.24h-.72v.24h-.48v.24h-.48v.24h-.48v.24h-.48v.24h-.48v.24h-.48v.24h-.48v.24h-.48v.24h-.48v.24h-.24v.24h-.48v.24h-.48v.24h-.48v.24h-.48v.24h-.48v.24h-.24v-1.44h.24v-.24h.24v-.24h.48v-.24h.24v-.24h.24v-.48h.24v-.24h.48v-.24h.24v-.24h.24v-.24h.24V456h.24v-.24h.24v-.24h.24v-.24h.24v-.24h.24v-.24h.24v-.24h.24v-.24h.24v-.24h.24v-.24H90v-.24h.24v-.24h.24v-.24h.24v-.24h.24v-.24h.24v-.24h.24v-.24h.24v-.48h.24v-.24h.24v-.24h.24v-.48h.24v-.48h.24v-.96h-.24v-.24H90v.24h-.96v.24h-.48v.24h-.72v.24h-.72v.24h-.48v.24h-.72v.24h-.72v.24h-.48v.24h-.48v.24h-.48v.24h-.48v-.96h-.24V450h.24v-.24h.48v-.24H84v-.24h.48v-.24h.48v-.24h.48v-.24h.24v-.24h.48v-.24h.24v-.24h.48v-.24h.48v-.24h.24v-.24h.48v-.24h.24v-.24h.48v-.24h.48v-.24h.24v-.24H90v-.24h.24v-.24h.48v-.24h.24v-.24h.48v-.24h.24v-.24h.48v-.24h.24V444h.48v-.24h.24v-.24h.48v-.24h.24v-.24h.48v-.24h.24v-.24h.48v-.24h.24v-.24h.24v-.24H96v-.24h.24v-.24h.48v-.24h.24v-.24h.24v-.24h.24v-.24h.48v-.24h.24v-.24h.48v-.24h.24v-.24h.24v-.24h.24v-.24h.24v-.24h.24v-.24h.24v-.24h.24V438h.24v-.24h.24v-1.2h-1.2v.24h-.96v.24h-.72v.24h-.72v.24h-.72v.24h-.72v.24h-.48v.24h-.72v.24h-.48v.24h-.72v.24h-.48v.24h-.48v.24h-.72v.24h-.48v.24h-.48v.24H90v.24h-.48v.24h-.48v.24h-.48v.24h-.72v.24h-.48v.24h-.48v.24h-.48v.24h-.48v.24h-.48v.24h-.48v.24h-.48v.24H84v.24h-.48v.24h-.48v.24h-.24v-1.68h-.24v-.96h.48v-.24h.24v-.24h.48v-.24h.48v-.24h.24v-.24h.48v-.24h.48v-.24h.24v-.24h.24v-.24h.48v-.24h.24v-.24h.48v-.24h.48V438h.48v-.24h.24v-.24h.24v-.24h.48v-.24h.48v-.24h.24v-.24h.48v-.24h.24v-.24h.48v-.24h.24v-.24h.48v-.24h.24v-.24h.24v-.24h.48v-.24h.24v-.24h.24v-.24h.48v-.24h.24v-.48h-1.2v.24h-1.68v.24H90v.24h-.72v.24h-.96v.24h-.72v.24h-.48v.24h-.72v.24h-.48v.24h-.48v.24h-.48v.24h-.48v.24H84v.24h-.48v.24h-.48v.24h-.48v-1.44h-.24v-4.32h.24v-.24h.24v-.24h.24v-.24h.24v-.24h.24v-.24h.24v-.24h.48v-.24h.24v-.24h.24v-.24h.24v-.24h.24v-.24h.24v-.24h.24v-.24h.24v-.24h.24v-.24h.24v-.24h.24v-.24h.24v-.24h.24v-.24h.24v-.24h.24v-.24h.24V426h.24v-.24h.24v-.24h.24v-.24h.24v-.24h.24v-.24h.24v-.24h.24v-.24h.24v-.48H90v-.24h.24v-.24h.24v-.24h.24v-.72h.24v-.48h-1.68v.24h-.96v.24h-.48v.24h-.72v.24h-.48v.24h-.72v.24h-.48v.24h-.48v.24h-.72v.24h-.48v.24h-.48v.24h-.72v.24h-.48v-1.44h.24v-2.4h.24v-.24h.24v-.24h.24v-.24h.24V420h.24v-.24h.24v-.24H84v-.24h.48v-.24h.24v-.24h.24v-.24h.24v-.24h.24v-.24h.24v-.24h.48v-.24h.24v-.24h.48v-.24h.24v-.24h.24v-.24h.48v-.24h.24v-.24h.24v-.24h.24v-.24h.24v-.48h.24v-.24h.24v-1.2h-.48v-.24h-.24v-.24h-.96v-.24h-.24v-.24h.72v-.24h.72v-.24h.72v-.24H90v-.24h.72v-.24h.48v-.24h.48v-.24h.24v-.24h.48v-.48h.24v-.48h-.72v-.24h-1.44v-.24h-1.2v-.24h-1.2v-.24h4.08v.24h2.4v-.48h-.48v-.24h-.48v-.24h-.72V408h-.72v-.24h-.96v-.24h-.96v-.24h-1.68v-.24h-.72v-.24h.96v-.24h.72v-.24h.72v-.24h.96v-.24h.96v-.24h.96v-.24h.72v-.24h.72v-.24h.96v-.24h.72v-.24h.96v-.24h.96v-.24h.96v-.24h.96v-.24h1.44v-.24h.24v-.24h-1.44v-.24h-1.44v-.24H97.2v-.24h-1.68V402h-2.88v-.24h-3.36v.24H85.2v.24h-2.64v-2.4h.24v-.24h.48v-.24H84v-.24h.48v-.24h.48v-.24h.72v-.24h.48v-.24h.72v-.24h.48v-.24h.72v-.24h.48v-.24h.48v-.24h.48v-.24H90v-.24h.48v-.24h.72V396h.48v-.24h.48v-.24h.24v-.24h.48v-.24h.48v-.24h.48v-.24h.24v-.24h.48v-.24h.48v-.24h.48v-.24H96v-.24h.48v-.24h.24v-.24h.48v-.24h.48v-.24h.24v-.24h.48v-.24h.24v-.24h.24v-.24h.24v-.72H96v.24h-2.88v.24h-1.2v.24h-1.2v-.24h-.96v-.24h-.96v-.24h-1.2v-.24h-1.2v-.24h-1.44V390h-1.92v-1.44h.48v-.24h.96v-.24h.96v-.24h1.68v-.24h1.2v-.24H90v-.24h1.44v-.24h.96v-.24h.96v-.24h1.2v-.24h.72v-.24h.96v-.24h.72v-.24h.96v-.24h.72v-.24h.24v-.48h-.48v-.24h-.48V384h-.72v-.24h-.72v-.24H96v-.24h-.72v-.24h-.96v-.24h-.72v-.24h-.96v-.24h-1.2v-.24h-1.92v-.24h-4.8v-.48h.72v-.24h1.44v-.24h1.68v-.24h1.2v-.24h1.2v-.24h1.44v-.24h1.44v-.24h1.2v-.24h.24v-.48h-.96v-.24H92.4v-.24h-4.56v-.24h-2.16v-.48h.24v-1.44h.24v-1.2h.72v-.24h.72v-.24h.72v-.24h.96v-.24h.96v-.24h.96v-.24h1.2v-.24h.96v-.24h1.2v-.24h.96v-.24h.96v-.24h.72v-.24h.96V372h.96v-.24h.96v-.24h.72v-.24h.72v-.24h.48v-.24h.72v-.24h.48v-.24h.24v-.48h-.48v-.24h-.72v-.24h-.96v-.24h-2.16v-.24h-3.6v-.24H96v-.24h.96v-.24h.48v-.24h.24v-.24h.48v-.72h-.24v-.24h-.48v-.24h-.72v-.24h-.96V366h-1.2v-.24h-1.2v-.24h-1.68v-.24H87.6v-1.2h2.16v.24h3.6v.24h7.68v-.24h-.72v-.24h-.48v-.24h-.72v-.24h-.72v-.24h-.72v-.24h4.08v-.24h3.36v-.24h.96v-.24h.24v-1.2h-.24v-.24h-.24v-.24h-.24v-.24h-.48v-.24h-.24V360h-.48v-.24h-.48v-.24h-.48v-.24h-.72v-.24H102v-.24h-.72v-.24h-.96v-.24h-.72v-.24h-.96v-.24h-.96v-.24h-1.2v-.24h-.72v-.24h-.96v-.24h-.96v-.24h-.72v-.24h-.72v-.24h-.72v-.24h-.48v-.24h-.48v-.24h-.48v-.24h-.48v-.24h-.48v-.72h.96v.24h6.24v-.24h1.68V354h.72v-.24h.24v-.24h.48v-.96h-.24v-.24h-.24v-.24h-.24v-.24h-.48v-.24h-.24v-.24h-.24v-.24h-.48v-.24h-.48v-.24h-.48v-.24h-.72v-.24h-.48v-.24h-.48v-.24h-.48v-.24h-.72v-.24h-.48v-.24h-.48v-.24h-.72v-.24h-.48v-.24h-.72v-.96h.24v-.48h1.44v-.24h1.68v-.24h1.44v-.24h1.44v-.24h1.44v-.24h1.2v-.24h.96v-.24h.72v-.24h.48v-.24h.48v-.96H102v-.24h-.48v-.24h-.96v-.24h-1.2v-.24h-1.44v-.24h-1.2v-.24h-1.44V342h-1.2v-.24h-1.2v-.24h-.96v-.48h.24v-.48h.72v-.24h2.16v-.24h1.92v-.24h1.2v-.24h1.2v-.24h1.2v-.24h.96v-.24h.96v-.24h.72v-.24h.24v-.48h-.24v-.24h-.48v-.24H102v-.24h-.96v-.24h-.72v-.24h-.96v-.24h-.72V336h1.2v-.24h.72v-.24h.24v-1.44h-.24v-.24h-.24v-.24h-.24v-.48h5.52v-.24h1.92v-.24h1.2v-.24h.48v-.24h.24v-.24h.24v-.24h.24v-.48h.24v-.48h-.24V330h-.24v-.24h-.24v-.48h-.48v-.24h-.24v-.24h-.24v-.24H108v-.24h-.48v-.24h-.24v-.24h-.48v-.24h-.48v-.24h-.24v-.24h-.72v-.24h-.48v-.24h-.48v-.24h-.48v-.24h-.48v-.24h-.48v-.24h-.48v-.24H102v-.24h-.48v-.24h-.48v-.24h-.72v-.24h-.48v-.24h-.48V324h-.48v-.24h-.24v-.48h.24v-.24h.24v-.48h.24v-.48h.24v-.48h.24v-.24h.24v.24h.72v.24h.72v.24h.72v.24h.72v.24h.96v.24h.72v.24h.96v.24h.72v.24h.96v.24h.96v.24h.96v.24h.72v.24h.24V324h-.48v-.24h-.24v-.24h-.72v-.24h-.24v-.24H108v-.24h-.48v-.24h-.24v-.24h-.48v-.24h-.48v-.24h-.48v-.24h-.24v-.24h-.48v-.24h-.48v-.24h-.24v-.24h-.24v-.24h-.48v-.24h-.24v-.24h-.48v-.24h-.24v-.24h-.24v-.24H102v-.24h-.24v-.24h-.24v-.24h-.24v-.24h.24v-.48h.24v-.48h.24v-.48h.24v-.48h.96v.24h.96v.24h1.2v.24h1.44v.24h2.16v.24h6v-1.44h-.24v-.24h-.24v-.72h-.24v-.24H114v-.24h-.24v-.48h-.24v-.24h-.24v-.24h-.24v-.24h-.24v-.24h-.24v-.24h-.24v-.48h-.24v-.24h-.24V312h-.24v-.24h-.24v-.24h-.24v-.24h-.48v-.24h-.24v-.24h-.24v-.24h-.24v-.24h-.24v-.24h-.48v-.24h-.24v-.24h-.24v-.24h-.24v-.24H108v-.24h-.48v-.24h-.24v-.24h-.24v-.48h.24v-.24h.24v-.24h.24v-.48h.24v-.48h.24v-.24h.24V306h.24v-.48h.24v-.72h1.68v.24h3.12v.24h3.84v.24h2.64v.24h2.16v-.24h-.24v-.24h-.24v-.24h-.72v-.24h-.48v-.24h-.96v-.24h-.48v-.24h-.72v-.24h-.72v-.24h-.48v-.24h-.48v-.24h-.72v-.24h-.48v-.24h-.72v-.24h-.72v-.24h-.48v-.24h-.48v-.24h-.72v-.24h-.48v-.24h.48v-.24h.48v-.24h.72v-.24h1.2v-.24h2.64v.24h2.16v.24h1.68v.24h2.4v.24h4.32v-.24h1.92v-.24h.96v-.24h.48V300h-1.68v-.24h-2.16v-.24h-1.92v-.24h-1.44v-.24h-1.44v-.24h-.96v-.24h-.72v-.24h-.72v-.24h-.72v-.24h-.48v-.24h1.68v.24h2.16v.24h6.24v-.24h.24v-.48h-.48v-.24h-.72v-.24h-.72v-.24h-.72v-.24h-.48v-.24h-.72v-.24h-.48v-.24h-.24v-.24h2.64v.24h1.44v.24h.72v.24h.48v.24h.48v.24h.72v.24h.48v.24h.72v.24h.72v.24h.48v.24h.72v.24h.72v.24h.72v.24h.96v.24h.72v.24h.96v.24h.96v.24h1.2v.24h1.68v.24h.48v-.24h.48v-.24h-.24v-.24h-.24v-.24h-.48v-.24h-.48v-.24h-.48v-.24h-.48v-.24h-.48v-.24h-.48v-.24h-.72v-.24h-.48v-.24h-.72v-.24h-.48v-.24h-.48v-.24h-.48v-.24h-.72v-.24h-.48v-.24h-.48v-.24h-.72v-.24h-.48v-.24h-.48v-.24h-.48v-.24h-.72v-.24h-.48V294h-.48v-.24h-.48v-.24h-.48v-.24h-.48v-.24h-.48v-.24h-.48v-.24h-.48v-.24h-.48v-.24h-.48v-.24h-.48v-.24h-.72v-.24h-.48v-.24h-.48v-.24h-.72v-.24h-.48v-.24h-.72v-.24h-.48v-.24h-.72v-.24h-.72v-.24h-.48v-.24h-.72v-.24h-.96v.72h-.24v.24h-.24v.24h-.72v-.24h-.48v-.24h-.48v-.24h-.48v-.24h-.24v-.24h.48v-.24h.24v-.24h.48v-.24h.24V288h.24v.24h2.4v.24h1.2v.24h1.2v.24h.72v.24h.72v.24h.96v.24h.48v.24h.72v.24h.72v.24h.72v.24h.72v.24h.48v.24h.72v.24h.48v.24h.72v.24h.48v.24h.72v-.24H132v-.24h-.48v-.24h-.24v-.24h-.48v-.24h-.24v-.24h-.48v-.24h-.24v-.24h.48v.24h.72v.24h.72v.24h.96v.24h.96v.24h1.2v.24h1.2v-.48h-.48v-.24h-.48v-.24h-.48v-.24h-.72v-.24h-.48v-.24h-.48v-.24h-.48v-.24h-.72v-.24h-.48v-.24h-.48v-.24h-.48v-.24h-.48v-.24h-.48V288h-.48v-.24h-.48v-.24h-.24v-.24h-.48v-.24h-.48v-.24h-.24v-.24h-.48v-.24h-.24v-.24H126v-.24h-.48v-.24h-.24v-.24h-.48v-.24h-.24v-.24h-.24v-.24h-.48v-.24h-.24v-.24h.24v-.24h-.24v-.24h.48v.24h.72v.24h.48v.24h.72v.24h.72v.24h.24v.24h.48v.24h.48v.24h.48v.24h.24v.24h.48v.24h.24v.24h.48v.24h.24v.24h.48v.24h.48v.24h.24v.24h.48v.24h.48v.24h.48v.24h.48v.24h.48v.24h.48v.24h.24v.24h.72v.24h.48v.24h.48v.24h.48v.24h.72v.24h.72v.24h.48v.24h.96v.24h.96v.24h1.2v.24h2.16v-.24h-.24v-.24h-.24v-.24h-.48v-.24h-.24v-.24h-.24v-.24h-.48v-.24h-.24v-.24h-.48v-.24h-.24v-.24h-.24v-.24h-.48v-.24h-.24v-.24h-.48v-.24h-.24v-.24h-.24V288h-.48v-.24h-.24v-.24h-.48v-.24h-.48v-.24h-.24v-.24h-.48v-.24h-.24v-.24h-.48v-.24h-.48v-.24h-.24v-.24h-.48v-.24h-.48v-.24h-.24v-.24h-.48v-.24h-.48v-.24h-.24v-.24h-.48v-.24h-.48v-.24h-.24v-.24h.48v.24h.72v.24h.96v.24h.72v.24h.72v.24h1.2v.24h.48v.24h.72v.24h.48v-.24h1.2v-.24h.24v-.48h.48v.24h.48v.24h.72v.24h1.2v-.48h.24v-.24h-.24v-.96h-.24v-.48h-.24v-.48h-.24V282h-.24v-.24h-.24v-.48h-.24v-.24h-.24v-.48h-.24v-.24h-.24v-.24h-.24v-.24h-.24v-.48h-.24v-.24h-.24v-.24h-.24v-.24h-.24v-.24h-.24v-.24h-.24v-.24H138v-.24h-.24v-.24h-.24v-.24h-.24v-.24h-.24v-.24h-.24v-.24h-.24v-.24h-.24V276h-.24v-.24h-.24v-.24h-.24v-.48h-.24v-.48h-.24v-.24h-.24v-.48h-.24v-.48h-.24v-.24h-.24v-.48h-.24v-.48h-.24v-.24h-.24v-.24h.48v.24h.48v.24h.48v.24h.72v.24h.48v.24h.48v.24h.48v.24h.48v.24h.48v.24h.72v.24h.48v.24h.48v.24h.24v.24h.48v.24h.24v.24h.24v.24h.48v.24h.24v.24h.48v.24h.24v.24h.48v.24h.48v.24h.48v.24h.24v.24h.48v.24h.48v.24h.24v.24h.48v.24h.48v.24h.48v.24h.48v.24h.96v-.24h-.24v-.48h-.24v-.48h-.24v-.48h-.24v-.48h-.24v-.48h-.24V276h-.24v-.24h-.24v-.24h-.24v-.48h-.24v-.24h-.24v-.48h-.24v-.24h-.24v-.24h-.24v-.24h-.24v-.24h-.24v-.24H144v-.48h-.24v-.24h-.24v-.24h-.24v-.24h-.24v-.24h-.24v-.24h-.24v-.24h-.24v-.24h-.24v-.24h-.24v-.24h-.24v-.24h-.24V270h-.24v-.24h-.24v-.24h-.48v-.24h-.24v-.24h-.24v-.24h-.24v-.48h-.24v-.48h-.24v-.48h-.24v-.24h-.24v-.48h-.24v-.48h.48v.24h.24v.24h.24v.24h.24v.24h.24v.24h.24v.24h.24v.24h.24v.24h.24v.24h.24v.24h.24v.24h.24v.24h.24v.24h.48v.24h.24v.24h.24v.24h.24v.24h.48v.24h.24v.24h.24v.24h.24v.24h.48v.24h.24v.24h.48v.24h.24v.24h.48v.24h.24v.24h.24v.24h.48v.24h.24v.24h.48v.24h.48v.24h.24v.24h.48v.24h.48v.24h.48v.24h.24v.24h.72v.24h.48v-.96h-.24v-.48h-.24v-.48h-.24v-.72h-.24v-.24h-.24v-.48H150v-.48h-.24v-.48h-.24v-.24h-.24v-.24h-.24V270h-.24v-.24h-.24v-.48h-.24v-.24h-.24v-.48h-.24v-.24h-.24v-.24h-.24v-.24h-.24v-.48h-.24v-.24h-.24v-.24h-.24v-.24h.24v-2.16h-.24v-1.2h-.24v-.96h-.24v-.72h-.24v-.72h-.24v-.72h-.24v-.48h-.24v-.24h-.24v-.48h.24v.24h.24v.24h.24v.24h.24v.24h.24v.24h.24v.24h.24v.24h.24v.24h.24v.24h.24v.24h.24v.24h.24v.24h.24v.48h.24v.24h.24v.48h.24v.24h.24v.48h.24v.24h.24v.48h.24v.24h.24v.48h.24v.24h.24v.48h.24v.24h.24v.48h.24v.24h.24v.24h.24v.48h.24v.24h.24v.48h.24v.24h.24v.24h.24v.24h.24v.48h.24v.24h.24v.24h.24v.24h.24v.24h.24v.24h.24v.48h.24v.24h.24v.24h.24v.24h.24v.24h.24v.24h.24v.24h.24v.24h.24v.24h.24v.48h.24v.24h.24v.24h.24v.24h.24v.24h.24v.24h.24v-.48h-.24v-.24h-.24v-.24h-.24v-.24h-.24v-.24h-.24v-.48h-.48v-.48H156v-.24h-.24v-.24h-.24v-.48h-.24v-.24h-.24v-.48h-.24v-.24h-.24v-.24h-.24v-.48h-.24v-.24h-.24v-.48h-.24v-.24h-.24v-.48h-.24v-.48h-.24v-.24h-.24v-.48h-.24v-.24h-.24v-.48h.48v.24h.24v.24h.24v.24h.24v.24h.24v.24h.48v.24h.24v.24h.48v.24h.24v.24h.48v.24h.24v.24h.48v.24h1.2v-.48h-.24v-.72h-.24v-.48h-.24v-.48h.24v.24h.24v.24h.48v.24h.24v.24h.24v-.48h-.24v-.24h-.24v-.24h-.24v-.24h-.24v-.24h-.24v-.24h-.24v-.24h-.24v-.24h-.24v-.24h-.72v-.48h-.24v-.24h-.24v-.48h-.24v-.24h-.24v-.48h-.24v-1.2h-.24v-.48h-.24v-.48h.48v.24h.48v-.48h-.24v-.24h-.24v-.24h-.24v-.24h-.24v-.24h-.24v-.24h-.24v-.48h-.24v-.48h-.24v-.72h-.24v-.72h-.24v-.48h.24v.24h.24v.24h.24v.24h.24v.24h.24v.24h.24v.24h.24v.24h.24v.24h.24v.24h.24v.24h.24v.24h.24v.24h.48v.24h.24v.24h.24v.24h.24v.24h.24v.24h.24v.24h.24v.24h.24v.24h.48v.24h.24v.24h.24v.24h.24v.24h.48v.24h.24v.24h.24v.24h.48v.24h.48v.24h.48v.24h.48v.24h.48v-.24h.24v-2.4H162v-.72h-.24v-.48h-.24v-.72h-.24v-.24h-.24v-.48h.24v.24h.24v.24h.24v.24h.24v.24h.24v.24h.24v.24h.72v-.96h-.24v-.72h-.24v-.96h-.24v-.72h-.24v-.72H162v-.72h-.24v-.48h-.24v-.48h-.24v-.48h-.24v-.48h-.24v-.48h-.24v-.48h-.24v-.48h-.24v-.24h-.24V252h-.24v-.24h.48v.24h.72v.24h.72V252h.24v-2.4h-.24v-.96h-.24v-.72h-.24v-.48h.24v.24h.24v.24h.24v.24h.24v.24h.48v.24h.24v.24h.24v.48h.24v.48h.24v.48h.24v.24h.24v.48h.24v.48h.24v.48h.24v.24h.24v.24h.24v.24h.48v-.24h.24v-2.4h-.24v-1.44h-.24v-1.44h.24v.24h.24v.24h.24v.24h.24v.24h.24v.24h.24v.24h.24v.24h.24v.24h.24v.24h.48v.24h.24v.24h.24v.24h.48v.24h.24v.24h.48v.24h.24v.24h.48v-.96h-.24v-.48h-.24v-.72h-.24v-.72h-.24v-.48h-.24v-.48h-.24v-.48h-.24v-.48h-.24v-.48h-.24v-.24H168v-.48h-.24v-.24h-.24v-.48h-.24v-.24h-.24v-.48h-.24v-.24h-.24v-.48h-.24v-.24h-.24v-.24h-.24v-.24h-.24v-.24h-.24v-.48h.48v.24h.24v.24h.24v.24h.24v.24h.24v.24h.24v.48h.24v.24h.24v.24h.24v.24h.24v.48h.24v.24h.24v.24h.24v.48h.24v.24h.24v.24h.24v.24h.24v.24h.24v.24h.24v.24h.24v.24h.24v.48h.24v.24h.24v.24h.24v.24h.24v.24h.24v.24h.24v.24h.24v.24h.24v.24h.24v.24h.48v.24h.24v.24h.24v-.96h-.24v-.72h-.24v-.48h-.24v-.72h-.24v-.48h-.24v-.24h-.24V246h-.24v-.48h-.24v-.48h-.24v-.48h-.24v-.48h-.24v-.48h-.24v-.24h-.24v-.48h-.24v-.24h-.24v-.48h.48v.24h.24v.24h.48v.24h.24v.24h.48v.24h.24v.24h.48v.24h.48v.24h.48v.24h.24v.24h.48v.24h.48v.24h.96v-1.2h-.24v-.72h-.24v-.48h-.24v-.72h-.24v-.48h-.24v-.24h-.24v-.48h-.24v-.48H174V240h-.24v-.48h-.24v-.24h-.24v-.48h-.24v-.24h-.24v-.24h-.24v-.48h-.24v-.24h-.24v-.24h-.24v-.24h-.24v-.24h-.24v-.48h-.24v-.24h-.24v-.24h-.24v-.48h-.24v-.24h-.24v-.24h-.24v-.24h-.24v-.24h-.24v-.24h-.24V234h-.24v-.24h-.24v-.24h-.24v-.48h-.24v-.24H168v-.24h-.24v-.72h.24v-.24h.24v-.24h.24v-.24h.48v.24h.24v.48h.24v.24h.24v.48h.24v.24h.24v.48h.24v.24h.24v.48h.24v.24h.24v.48h.24v.24h.24v.24h.24v.48h.24v.24h.24v.48h.24v.24h.24v.24h.24v.48h.24v.24h.24v.24h.24v.24h.24v.24h.24v.48h.24v.24h.24v.24h.24v.24h.24v.24h.24v.24h.24v.24h.24v.24h.72v-.72h-.24v-.48h-.24v-.72h-.24v-.24h-.24v-.48h-.24v-.72h-.24v-.48h-.24v-.24h-.24v-.48h-.24v-.24h-.24v-.48H174v-.48h-.24v-.48h-.24V234h-.24v-.48h.24v.24h.48v.24h.24v.24h.24v.24h.24v.24h.24v.24h.48v.24h.24v.24h.24v.24h.24v.24h.48v.24h.24v.24h.48v.24h.24v.24h.48v.24h.24v.24h.48v.24h.24v.24h.48v.24h.72v.24h.72v-1.2h-.24v-.72h-.24v-.72h-.24v-.72H180v-.24h-.24V234h-.24v-.48h-.24v-.48h-.24v-.24h-.24v-.48h-.24v-.48h-.24v-.48h-.24v-.96h-.24v-.24h-.24v-.72h-.24v-.72h-.24v-.48h-.24v-.48h-.24v-.48h-.24v-.48h-.24v-.48h-.24v-.48h-.24v-.48h.24v-.24h.24v-.24h.24v-.24h.48v-.24h.24v-.24h.24v-.24h.24v-.24h.24v-.24h.48v-.24h.24v.48h.24v.24h.24v.24h.24v.24h.24v.24h.24v.24h.24v.24h.24v.24h.24v.24h.24v.24h.24v.24h.24v.24h.24v.24h.24v.24h.48v.24h.24v.24h.48v.24h.96v-.96h.24v.24h.48v.24h.24v.24h.24v.24h.48v.24h.48v.24h.24v.24h.48v.24h.72v.24h.72v.24h.72v-.24h.48v-2.4h-.24v-.72h-.24v-.48h-.24v-.72h-.24v-.72h-.24v-.24h-.24v-.24h.96v-1.44h-.24v-.96h-.24v-.48h.24v.24h.24v.24h.24v.24h.24v.24h.24v.24h.24v.24h.24v.24h.24v.24h.24v.24h.24v.24h.24v.24h.24v.24h.24v.24h.24v.24h.24v.24h.24v.24h.24v.24h.24v.24h.24v.24h.24v.24h.24v.24h.48v.24h.24v.24h.24v.24h.24v.24h.24v.24h.24v.24h.48v-1.68h-.24v-.72h-.24v-1.92h-.24v-.72h-.24v-.72h-.24v-.72h-.24v-.72h-.24v-.48h-.24v-.24h-.24v-.72h-.24v-.48h-.24v-.48h-.24v-.48h-.24v-.48h-.24v-.48H192v-.24h-.24v-.48h-.24v-.48h-.24v-.48h-.24v-.24h.48v-.24h.24v-.24h.72v.24h.24v.24h.24v.48h.24v.24h.24v.24h.24v.24h.24v.24h.24v.24h.24v.24h.24v.48h.24v.24h.24v.24h.24v.24h.24v.24h.24v.24h.24v.24h.24v.24h.24v.24h.48v.24h.24v.24h.24v.24h.24v.24h.48v.24h.24v.24h.48v.24h.24v.24h.48v.24h.48v.24h1.44v-2.64h-.24v-1.2h-.24V216h-.24v-.72h-.24v-.72h-.24v-.48h-.24v-.48h-.24v-.72h-.24v-.72h-.24v-.72h-.24v-.72h-.24v-.96h.48v-.24h.48v.24h.24v.48h.24v.48h.24v.48h.24v.48h.24v.24h.24v.48h.24v.48h.24v.24h.24v.48h.24v.48h.24v.24h.24v.48h.24v.24h.24v.24h.24v.48h.24v.24h.24v.48h.24v.24h.24v.24h.24v.24h.24v.24h.24v.24h.24v.24h.24v.24h.24v.24h.24v.24h.24v.24h.24v.24h.24v.24h.24v.24h.48v.24h.48v.24h.72v-.24h.24v-.48h.24v-2.16h-.24v-.96h-.24v-1.44h-.24v-.48h-.24v-.96h-.24v-.96h-.24v-.48h.24v.24h.24v.24h.24v.24h.24v.24h.24v.24h.24v.24h.24v.24h.24v.24h.24v.24h.24v.24h.48v.24h1.2v-.72h.24v-.48h-.24v-1.44h.24v.24h.24v.24h.24v.24h.24v.24h.48v.24h.24v.24h.24v.24h.48v.24h.48v.24h.48v.24h.24v.24h.72v.24h.96v-.24h.24v-.48h.24v-1.68h.48v.24h.24v.24h.72v.24h.24v-.24h.48v-1.68h-.24v-.96h-.24v-.72h-.24v-.72h-.24v-.48h-.24v-.72h-.24v-.48h-.24v-.48h.24v.24h.24v.48h.24v.24h.24v.48h.24v.24h.24v.24h.24v.24h.24v.24h.24v.48h.24v.24h.24v.24h.24v.24h.24v.24h.24v.24h.24v.24h.24v.24h.24v.24h.24v.24h.48v.24h.24v.24h.24v.24h.24v.24h.24v.24h.48v.24h.24v.24h.24v.24h.48v.24h.24v.24h.48v.24h.48v.24H228v-.24h.72v-1.44h-.24v-.96h-.24v-.72H228V210h-.24v-.72h-.24v-.72h-.24v-.72h-.24v-.72h-.24v-.72h-.24v-.48h-.24v-.48h-.24v-.72h-.24V204h-.24v-.48h-.24v-.48h-.24v-.48h-.24v-.48h-.24v-.72h.24v.24h.24v.48h.24v.24h.24v.24h.24v.24h.24v.48h.24v.24h.48v.24h.24v.24h.24v.24h.24v.24h.24v.24h.24v.24h.24v.24h.24v.24h.48v.24h.24v.48h.24v.24h.24v.48h.24v.24h.24v.48h.24v.48h.24v.24h.24v.48h.24v.24h.24v.48h.24v.24h.24v.24h.24v.24h.24v.24h.48v.24h.24v.24h.72v-.24h.24v-1.44h-.24v-.72h-.24v-.72h-.24v-.96h-.24v-2.64h-.24v-.72h-.24v-.72h-.24v-.72h-.24v-.72h-.24v-.72h-.24v-.48h-.24v-.48h-.24v-.72h-.24v-.48h-.24V198h-.24v-.48h-.24v-.48h-.24v-.48h-.24v-.48h.48v-.24h.48v.24h.24v.24h.24v.48h.24v.24h.24v.24h.24v.24h.24v.24h.24v.48h.24v.48h.24v.48h.24v.24h.24v.48h.24v.24h.24v.48h.24v.48h.24v.24h.24v.24h.24v.24h.24v.24h.24v.24h.96v-.24h.24v-1.44h.24v.24h.48v.24h.48v.24h.96v.24h.48v-.24h.48v-.24h.24v-1.2h.24v.48h.24v.24h.24v.24h.24v.24h.24v.24h.24v.24h1.2v-.24h.24v-3.6h-.24v-1.68h-.24v-.96h-.24v-1.44h-.24v-.72h-.24v-.48h.24v.24h.24v.24h.24v.24h.24v.24h.24v.24h.24v.24h.24v.24h.48v.24h.48v.24h.48v.24h1.92v-.24h.24v-.24h.24v-.48h.24v-3.84h-.24v-1.92h.72v-.24h.48v-.24h.48v-.24h.72v-.24h.48v-.24h.72v-.24h.48v-.24h.72v.24h.24v.24h.24v.48h.24v.24h.24v.48h.24v.24h.24v.24h.24v.24h.24v.48h.24v.24h.24v.24h.24v.24h.24v.24h.24v.24h.24v.24h.24v.24h.24v.24h.24v.24h.24v.24h.72v.24h.48v-.24h.48v-.48h.24v-2.4h.24v-.24H258v-3.6h-.24v-.96h.24v-.24h.72v-.24h.72v-.24h.72v-.24h.48v.48h.24v.24h.24v.48h.24v.24h.24v.48h.24v.24h.24v.24h.24v.48h.48v.24h.72V186h.24v-2.88h-.24v-.72h.24v-.24h.96v-.24h1.2v-.24h.96v-.24h.24v.48h.24v.48h.24v.48h.24v.24h.24v.24h.24v.48h.24v.24h.24v.24h.48v.24h.72v-.48h.24v-.48h.24v-1.44h.24v-.24h-.24v-1.2h1.44v-.24h1.2v-.24h.24v1.2h.24v.24h.96v-.24h.24v-.24h.24V180h.24v-.24h1.2v-.24h.96v-.24h.96v-.24h1.2v-.24h.96v-.24h.96v-.24h1.2v-.24h1.2v-.24h1.44v-.24h1.92v-.24h12.96v.24h6v.24h2.64v.24h5.28v.24h7.68v-.24h4.32v-.24h1.92v-.24h2.4v-.24h1.92v-.24h2.4v-.24m-95.28 22.56h.24v.24h-.24v-.24m-15.36 1.2h.24v.24h-.24v-.24m.24.48h.24v.24h-.24v-.24m-6.48 5.28h.24v.24h-.24v-.24m-6.24 5.28h.24v.24h-.24v-.24m5.76.48h.24v.24h-.24v-.24m-44.64 20.88h.24v.24h-.24v-.24m.24.24h.24v.24h-.24v-.24m-8.4 7.44h.24v.24h-.24v-.24m.24.24h.24v.24h-.24v-.24m.24.24h.24v.24h-.24v-.24m4.56.48h.24v.24h-.24v-.24m.24.24h.24v.24h-.24v-.24m-9.12 5.04h.24v.48h-.24v-.48m4.32 0h.24v.24h-.24v-.24m-14.88 1.44h.24v.24h.24v.24h.24v.24h.24v.48h.24v.24h.24v.24h.24v.24h.48v.24h.24v.24h.24v.24h.24v.24h.24v.24h.24v.24h.24v.24h.24v.48h-.24v-.24h-.48V252h-.24v-.24h-.24v-.24h-.24v-.24h-.24v-.24h-.48v-.24h-.24v-.24h-.24v-.24h-.24v-.24h-.24v-.24h-.24v-.24h-.24v-.24h-.24v-.24H150v-.48h.24v-.24m3.84 4.08h.24v.24h-.24v-.24m.24.24h.24v.24h-.24v-.24m.24.24h.24v.24h-.24v-.24m.24.24h.24v.24h-.24v-.24m.24.24h.24v.24h-.24v-.24m.24.24h.24v.24h-.24v-.24m.48.24h.24v.24h-.24v-.24m.24.24h.24v.24H156v-.24m.24.24h.24v.24h-.24v-.24m.24.24h.24v.24h-.24v-.24m.24.24h.24v.24h-.24v-.24m.24.24h.24v.24h-.24v-.24m.24.24h.24v.24h-.24v-.24m3.12 3.36h.24v.24h-.24v-.24m.24.24h.24v.24h-.24v-.24m.24.24h.24v.24h-.24v-.24m-25.68 4.8h.24v.24h.24v.48h-.24v-.24h-.48v-.24h.24V264m.48.72h.24v.24h-.24v-.24m.24.24h.24v.24h-.24v-.24m.24.24h.24v.24h-.24v-.24m.24.24h.24v.24h-.24v-.24m.24.24h.24v.24h-.24v-.24m.24.24h.24v.24h-.24v-.24m1.44 0h.24v.24h-.24v-.24m-1.2.24h.24v.24h-.24v-.24m14.88 0h.24v.24h-.24v-.24m4.56.72h.24v.24h-.24v-.24m-36.24 15.36h.24v.24h.72v.24h.48v.24h.72v.24h.48v.24h.72v.24h-.96v.48h.48v.24h-.48v.24h-.24v.24h-.48v.24h-.24v.24h-.24v-.24h-.24v-.24h-.48v-.24h-.48v-.24h-.48v-.24h-.24v-.24h-.48v-.24h.24v-.48h.24v-.24h.24v-.24h.48v-.48m4.8 12h.48v.24h-.48v-.24m.96.24h.24v.24H126v-.24m-14.4 1.68h.24v.48h-.24v-.48m-.24.48h.24v.48h-.24v-.48m367.2 33.84h.24v.24h-.24v-.24M96.96 465.84h.24v.48h.24v.48h.24v.48h.24v.48h.24v.48h.24v.24h.24v.48h.24v.48h.24v.48h.24v.48h.24v.72h.24v.48h.24v.48h.24v.48h.24v.48h.24v.48h.24v.48h.24v.48h.24v.48h.24v.72h.24v.24h.24v.48h.24v.48h.24v.72h.24v.24h-1.2v.24h-1.2v.24h-.96v.24h-.72v.24h-.72v.24h-.96v.24h-.72v.24h-.72v.24h-.72v.24h-.72v.24h-.72v.24h-.48v.24h-.72v-.24h-.24V480h-.24v-.48h-.24v-.48h-.24v-.48h-.24v-.48h-.24v-.48h.24v-.24h.48v-.24h.24v-.48h.24v-.24h.48v-.24h.24v-.24h.24v-.24h.24v-.24h.24v-.48h.24v-.24h.24v-.24h.24v-.24h.24v-.48h.24v-1.2h-2.88v.24h-.96v.24h-.72v.24h-.72v.24h-.48v-.72h-.24v-.48h.24v-.24h.24v-.24h.48v-.24H90v-.24h.48v-.24h.24v-.24h.24v-.24h.24v-.24h.48v-.24h.24v-.24h.48v-.24h.24v-.24h.24v-.24h.24v-.24h.48v-.24h.24v-.24h.24v-.24h.48V468h.24v-.24h.24v-.24h.48v-.24h.24v-.24H96v-.24h.24v-.24h.24v-.24h.24v-.24h.24v-.24m6 12.48h.24v.48h.24v1.2h.24v1.2h.24v1.68h-.24v.72h-.24v.48h-.24v.48h-.24v.48h-.24v.72h-.24v.24h-.24v.48H102v-.72h-1.92v.24h-.96v.24h-.72v.24h-.96v.24h-.48v.24h-.48v.24h-.24v-.24H96v-.24h-.24V486h-.24v-.24h-.24v-.48h-.24v-.48h-.24v-.24h.48v-.24h.24v-.24h.24v-.24h.48v-.24h.24v-.24h.24v-.24h.48v-.24h.24v-.24h.48v-.24h.24v-.24h.24v-.24h.24v-.24h.24v-.24h.48v-.24h.24v-.24h.48v-.24h.24v-.24h.24v-.24h.48V480h.24v-.24h.24v-.24h.24v-.24h.48v-.24h.24v-.24h.24v-.24h.24v-.24m-1.2 8.4h.24v.24h-.24v-.24m-.24.48h.24v.48h-.24v-.48m-.24.48h.24v.48h-.24v.72h-.24v.48h-.24v.48h-.24v.72h-.24v.48h-.24v.72h-.24v.48h-.24v.48h-.24v.48h-.24v-.48h-.24v-.24h-.24V492h-.24v-.48h-.24v-.48h.24v-.24h.24v-.24h.24v-.24h.24v-.24h.24v-.24h.48v-.48h.24v-.24h.24v-.24h.24v-.24h.24v-.24h.24v-.48h.24v-.24m11.76 14.88h.24v.24h-.24v-.24m-.24.48h.24v.96h-.24v.72h-.24v.96h-.24v.48h-.24v.24h-.24v.24h-.48v.24h-.24v.24h-.24v.24h-.48v.24h-.72v.24h-.72v-.24h-.24v-.72h.48v-.24h.24v-.24h.24v-.24h.24v-.24h.48v-.24h.24v-.24h.24v-.24h.24v-.24h.24v-.24h.24v-.24h.24v-.24h.24V504h.24v-.24h.24v-.24h.24v-.48m347.04 46.32h.48v.24h1.2v.24h1.44v.24h1.92v.24h.48v.24h.72v.24h.48v.24h.72v.48h-.24v.24h-.48v.48h-.48v.24h-.24v.24h-.24v.24h-.24v.24h-.24v.24h-.48v.24h-.48v.24h-.48v.24h-.48v.24h-.48v.24h-.24v.24h-.24v.24h-.48v.24h-.24v.24h-.48v.24h-.24v.24h-.24v.24h-.24v.24h-.24v.24h-.24v.24h-.24v.24h-.24v.24h-.24v.24h-.24v.24h-.24v.24h-.24v.24h-.24v.24h-.24v.24h-.24v.24h-.24v.24h-.24v.24h1.2v-.24h.96v.24h-.24v.24h-.24v.24h-.24v.24h-.24v.24h-.24v.24h-.24v.48h-.48v.48h-.48v.24h-.24v.24h-.24v.24h-.24v.24h-.48v.24h-.24v.24h-.24v.24h-.24v.24h-.48v.24h-.24v.24h-.48v.24h-.72v-.24h-.24v-1.44h.24v-.96h.24v-.72h.24v-.72h.24v-.48h.24v-.48h.24v-.48h.24v-.48h.24v-.72h.24v-.48h.24v-.48h.24v-.24h.24v-.48h.24v-.24h.24v-.48h.24v-.48h.24v-.24h.24v-.24h.24v-.48h.24v-.48h.24v-.24h.24v-.48h.24v-.24h.24V552h.24v-.48h.24v-.24h.24v-.72h.24v-.48h.24v-.24h.24v-.48m11.04 6.24h1.2v.24h.24v.96h-.24v.24h-.24v.24h-.24v.48h-.24v.24h-.24v.48h-.24v.24h-.24v.24h-.24v.48h-.24v.24h-.24v.24h-.24v.48h-.24v.24h-.24v.24h-.24v.48h-.24v.24h-.24v.48h-.24v.48H468v.24h-.24v.48h-.24v.24h-.24v.48h-.24v.48h-.24v.48h-.24v.24h-.24v.48h-.24v.24h-.24v.48h-.24v.24h-.24v.24h-.24v.24h-.24v.24h-.24v.24h-.24v.24h-.24v.24h-.24v.24h-.24v.24h-.24v.24h-.24v.24h-.24v.24h-.24v.24h-.48v.24H462v.48h-.48v.24h-.24v.24h-.24v.24h-.24v.24h-.24v.24h-.24v-.72h-.24v-1.44h-.24v-3.12h-.24V564h.24v-2.64h.24v-1.92h-.24v-.24h.96v.24h1.92v.24h.96v-.24h.72v-.24h.48v-.24h.48v-.24h.48v-.24h.24v-.24h.48V558h.24v-.24h.24v-.24h.24v-.24h.48v-.24h.48v-.24h.24v-.24h.72v-.24h.48v-.24h.48v-.24h.72v-.24m-326.64 10.08h.24v1.68h.24v2.4h.24v1.44h-.24v-.24h-.24v-.24h-.24v-.24H144v-.24h-.24V570h-.24v-.24h-.24v-.48h-.48v-.24h-.24v-.48h-.24v-.24h-.24v-.24h-.24v-.24h-.24v-.24h-.24v-.24h.48v-.24h.48v-.24h.48v-.24h.48v-.24h.24v-.24h.48v-.24h.24v-.24m13.92 18.24h.24v.24h-.24v-.24m-.24.24h.24v.24h-.24v-.24m-2.64 2.64h.24v.24h.24v.72h.24v.72h-.24V588h-.24v-.24h-.24v-.24h-.24v-.48h.24v-.24m5.28 6.24h.72v.96h-.24v-.24h-.48v-.72m.72.96h.24v.24h-.24V594m194.64 9.6h1.68v.24h2.88v.24h.96v.24h.48v.24h.72v.24h.72v.24h.72v.24h.48v.24h.72v.24h.48v.24h.24v.24h.48v.24h.24v.24h.24v.48h.48v.24h.24v.24h.24v.48h.48v.48h.24v.24h.24v.48h.24v.48h.24v.48h-.72v.24h-.24v.48h-.24v.48h-.24v.72h-.24v.96h-.24v.72h-.24v.96h-.24v.96h-.24v1.44h-.24v1.2h-.24v.96H366v.72h-1.2v-.24h-.48v-.24h-2.16v-2.16h-.24v-4.32h-.24v-.96h-.72v.48h-.24v.24h-.24v.48h-.24v.48H360v.72h-.24v.48h-.24v.96h-.24v.96h-.24v1.68h-.24v.96h.24v-.48h.24v.24h.72v.24h.48v.24h.48v.24h-.48v.24h-1.92v.24h-.96v-2.4h-.24v-3.6h-.24v-2.4h-.24v-2.64h-.24v-1.2h-.24v-2.16h-.24v-1.92h-.24v-.72m14.16 9.36h.24v1.2h.24v.72h.24v.48h.24v.96h.24v.48h.24v.24h.24v.72h.24v.72h.24v.48h.24v.48h.24v.24h.24v.48H372v.24h-.96v.24h-.24v-.48h-.24v-2.88h-.24v-2.88h-.24v-1.44m-2.16 7.68h2.16v.24h-.72v.24h-.72v-.24h-.72v-.24m-123.84 2.4h.24v.96h-.24v.48h-.24v.72h-.24v.72h-.24v.48h-.24v.72h-.24v.96h-.24v.72h-.24v.72h-.24v.72h-.24v.96h-.24v.24h-.72v-.24h.24v-.72h.24v-.72h.24v-.48h.24v-.72h.24v-.72h.24v-.48h.24v-.72h.24v-.72h.24v-.48h.24v-.48h.24v-.72h.24v-.48h.24v-.72"/>
</svg>
