<svg xmlns="http://www.w3.org/2000/svg" viewBox="284.0159999999997 320.49359999999984 137.08800000000056 39.412800000001376">
  <path fill="currentColor" fill-rule="evenodd" d="M305.76 320.88v.24h-.48v.24h-.48v.24h-3.12v.24h-.96v-.24h-1.68v.24h-.96v.24h-2.16v.24h-1.44v.24H294v.24h-.48v.24h-.48v.24h-.48v.24h-.48v.24h-.24v.24h-.24v.24h-.48v.24h-.24v.24h-.24v.24h-.48v.24h-.24v.24h-.48v.24h-.24v.24h-.48v.24h-.24v.24h-.24v.24h-.48v.24h-.24v.24h-.24v.24h-.48v.24h-.24v.48h-.24v.24h-.24v.48h-.24v1.2h-.24v.72h-.24v.48h.24v1.2h.24v.96h.24v.72h.24v.48h.24v.48h.24v.72h.24v.24h.24v.48h.24v.24h.24v.48h.24v.24h.24v.24h.24v.24h.24v.48h.24v.24h.24v.24h.24v.24h.24v.24h.48v.48h.48v.24h.72v.24h.24v.24h.48v.24h.24v.24h.72v.24h.96v.24h1.2v.24h.72v.24h.72v.24h-.48v.24h-.24v.24h-.24v.24h-.48v.24h-.48v.24h-.48v.24h-.48v.24h-.48v.48h-.24v.48h.48v.24h.24v.24h.24v.24h.24v.24h.24v.48h.24v.48h.24v.96h.24v.72h.24v.48h.24v.48h.48v.24h.48v.24h.48v.24h.96v.24h1.2v.24h8.4v-.24h5.76v-.24h8.64v.24h.96v.24h.48v.24h.48v.24h.24v.24h.24v.24h.24v.24h.24v.24h.48v.24h.48v.24h.24v.24h.48v.24h.24v.24h.24v.24h.24v.24h.48v.24h.24v.24h.24v.24h.48v.24h.24v.24h.48v.24h.48v.24h.72v.24h.48v.24h.24v.24h.48v.24h.24v.24h.24v.24h.24v.24h.24v.48h.24v.24h.24v.24h.24v.24h.24v.24h.48v.24h.24v.24h.48v.24h.48v.24h1.2v-.24h.48v-.24h.24v-.24h.24v-.48h.24v-1.2h.24v-.24h.24v-2.16h-.24v-.96h-.24v-.72h-.24v-.48h-.24v-2.16h.24v-.48h.24v-.24h.24v-.24h.24v-.24h.48v-.24h.24v-.24h.48v-.24h.72v-.24h.48V348h.96v-.24h.96v-.24h4.08v-.24h6.48v.24h4.08v-.24h1.92v-.24h1.2v-.24h3.12v-.24h1.44v-.24h1.68v-.24h2.16v-.24h2.16v-.24h1.92v-.24h2.88v-.24h1.2v-.24h1.68v-.24h2.4v-.24h1.2v-.24h.72v-.24h1.44v-.24h1.2v-.24h1.44v-.24h3.84v.24h2.16v.24h1.44v.24h3.36v.24h.48v.24h.48v.24h.24v.24h.48v.24h.24v.24h.48v.24h.24v.24h.24v.48h.48v.24h.24v.24h.24v.24h.48v.24h.24v.24h.72v.24h.24v.24h.48v.24h.24v.24h.24v.24h.24v.24h.24v.24h.24v.24h.24v.24h.48v.24h.48v.24h.24v.24h.24v.48h.24v.24h.24v.24h.24v.24h.48v.24h.24v.24h.48v.24h.24v.24h.24v.24h.24v.24h.24v.24h.48v.24h.24v.24h.24v.24h.48v.24h.24v.24h.48v.24h.24v.24h.24v.24h.24v.24h.48v.24h.96v.24h1.2v-.24h.24v-.24h.24v-2.64h-.24v-.24h-.24v-.24h-.24v-.24h-.24v-.24h-.24v-.48h-.24v-.72H414v-.48h-.24v-.24h-.48v-.24h-.24v-.24h-.24v-.24h-.24v-.72h-.24v-.96h-.24v-.24h-.24v-.24h-.24v-.48h-.24v-.24h-.24v-.48h-.24v-.48h-.24v-.24h-.24v-.48h-.24v-.24h-.24v-.72h-.24V342h-.24v-.48h.24v-.48h.24v-.24h.24v-.24h.24v-.24h.24v-.24h.48v-.24h.24v-.24h.24v-.24h.48v-.24h.24v-.24h.48v-.24h.48v-.24h.48v-.24h.24v-.24h.48v-.24h.72v-.24h.48v-.24h.48v-.24h.48v-.24h.48v-.24h.72v-.24h.48V336h.48v-.24h.48v-.24h.24v-.72h.24v-.96h-.24v-.24h-.48v-.24h-1.68v.24h-.48v.24h-.72v.24h-.48v.24h-.96v.24h-1.68v.24h-2.88v.24h-6.96v.24h-2.16v.24h-2.4v.24h-1.68v-.24h-2.64v-.24h-2.4v-.24h-.96v-.24h-3.6v-.24h-2.64v-.24h-1.92v-.24h-1.44v-.24h-1.2v-.24h-.96v-.24H378v-.24h-1.2v-.24h-.96v-.24h-1.2v-.24h-1.2v-.24h-1.2v-.24h-.72v-.24h-.72v-.24h-.96v-.24h-1.2v-.24h-.96v-.24h-.72v-.24H366v-.24h-.96V330h-.48v-.24h-.24v-.24h-.48v-.24h-.72v-.24h-.24v-.24h-.48v-.24h-.24v-.24h-.24v-.24h-.48v-.24h-.48v-.24h-.48v-.24h-.24v-.24h-.48v-.24h-.48v-.24h-.24v-.24h-.24v-.24h-.48v-.24h-.48v-.24h-.48v-.24h-.72v-.24h-.48v-.24h-.48v-.24h-.48v-.24h-.72v-.24h-.72V324h-.48v-.24h-.96v-.24h-.72v-.24h-1.44v-.24h-1.68v-.24h-.72v-.24h-.96v-.24h-1.68v-.24h-1.2v-.24h-1.68v-.24h-16.08v.24h-3.12v-.24h-2.88v-.24h-2.88v.24h-4.32v-.24h-3.6v-.24h-1.68v-.24h-1.92"/>
</svg>
